solid Created by Gmsh
facet normal 0.297603 0.628668 0.718477
  outer loop
    vertex -95.8321 139.229 607.642
    vertex -58.709 139.229 592.265
    vertex -95.8321 169.229 581.392
  endloop
endfacet
facet normal 0.297603 0.628668 0.718477
  outer loop
    vertex -71.2242 179.684 562.051
    vertex -95.8321 169.229 581.392
    vertex -58.709 139.229 592.265
  endloop
endfacet
facet normal 0.297603 0.628668 0.718477
  outer loop
    vertex -21.5859 139.229 576.888
    vertex -40.1475 169.229 558.327
    vertex -58.709 139.229 592.265
  endloop
endfacet
facet normal 0.297603 0.628668 0.718477
  outer loop
    vertex -40.1475 169.229 558.327
    vertex -71.2242 179.684 562.051
    vertex -58.709 139.229 592.265
  endloop
endfacet
facet normal 0.297603 0.628668 0.718477
  outer loop
    vertex -89.645 239.229 517.579
    vertex -95.8321 229.229 528.892
    vertex -77.2706 229.229 521.204
  endloop
endfacet
facet normal 0.297603 0.628668 0.718477
  outer loop
    vertex -95.8321 229.229 528.892
    vertex -80.967 211.178 538.53
    vertex -77.2706 229.229 521.204
  endloop
endfacet
facet normal 0.297603 0.628668 0.718477
  outer loop
    vertex -77.2706 229.229 521.204
    vertex -80.967 211.178 538.53
    vertex -58.709 199.229 539.765
  endloop
endfacet
facet normal 0.297603 0.628668 0.718477
  outer loop
    vertex -89.645 239.229 517.579
    vertex -77.2706 229.229 521.204
    vertex -95.8321 259.229 502.642
  endloop
endfacet
facet normal 0.297603 0.628668 0.718477
  outer loop
    vertex -95.8321 199.229 555.142
    vertex -80.967 211.178 538.53
    vertex -95.8321 229.229 528.892
  endloop
endfacet
facet normal 0.297603 0.628668 0.718477
  outer loop
    vertex -95.8321 229.229 528.892
    vertex -89.645 239.229 517.579
    vertex -95.8321 259.229 502.642
  endloop
endfacet
facet normal 0.297603 0.628668 0.718477
  outer loop
    vertex -95.8321 169.229 581.392
    vertex -71.2242 179.684 562.051
    vertex -95.8321 199.229 555.142
  endloop
endfacet
facet normal 0.297603 0.628668 0.718477
  outer loop
    vertex -58.709 199.229 539.765
    vertex -71.2242 179.684 562.051
    vertex -40.1475 169.229 558.327
  endloop
endfacet
facet normal 0.297603 0.628668 0.718477
  outer loop
    vertex -80.967 211.178 538.53
    vertex -71.2242 179.684 562.051
    vertex -58.709 199.229 539.765
  endloop
endfacet
facet normal 0.297603 0.628668 0.718477
  outer loop
    vertex -71.2242 179.684 562.051
    vertex -80.967 211.178 538.53
    vertex -95.8321 199.229 555.142
  endloop
endfacet
facet normal 0.718477 0.628668 0.297603
  outer loop
    vertex -59.9445 211.178 517.507
    vertex -77.2706 229.229 521.204
    vertex -58.709 199.229 539.765
  endloop
endfacet
facet normal 0.718477 0.628668 0.297603
  outer loop
    vertex -69.5821 229.229 502.642
    vertex -80.895 239.229 508.829
    vertex -77.2706 229.229 521.204
  endloop
endfacet
facet normal 0.718477 0.628668 0.297603
  outer loop
    vertex -59.9445 211.178 517.507
    vertex -69.5821 229.229 502.642
    vertex -77.2706 229.229 521.204
  endloop
endfacet
facet normal 0.718477 0.628668 0.297603
  outer loop
    vertex -77.2706 229.229 521.204
    vertex -80.895 239.229 508.829
    vertex -95.8321 259.229 502.642
  endloop
endfacet
facet normal 0.718477 0.628668 0.297603
  outer loop
    vertex -6.20903 139.229 539.765
    vertex 9.16786 139.229 502.642
    vertex -17.0821 169.229 502.642
  endloop
endfacet
facet normal 0.718477 0.628668 0.297603
  outer loop
    vertex -17.0821 169.229 502.642
    vertex -36.4232 179.684 527.25
    vertex -6.20903 139.229 539.765
  endloop
endfacet
facet normal 0.718477 0.628668 0.297603
  outer loop
    vertex -21.5859 139.229 576.888
    vertex -6.20903 139.229 539.765
    vertex -40.1475 169.229 558.327
  endloop
endfacet
facet normal 0.718477 0.628668 0.297603
  outer loop
    vertex -6.20903 139.229 539.765
    vertex -36.4232 179.684 527.25
    vertex -40.1475 169.229 558.327
  endloop
endfacet
facet normal 0.718477 0.628668 0.297603
  outer loop
    vertex -36.4232 179.684 527.25
    vertex -58.709 199.229 539.765
    vertex -40.1475 169.229 558.327
  endloop
endfacet
facet normal 0.718477 0.628668 0.297603
  outer loop
    vertex -36.4232 179.684 527.25
    vertex -59.9445 211.178 517.507
    vertex -58.709 199.229 539.765
  endloop
endfacet
facet normal 0.718477 0.628668 0.297603
  outer loop
    vertex -43.3321 199.229 502.642
    vertex -36.4232 179.684 527.25
    vertex -17.0821 169.229 502.642
  endloop
endfacet
facet normal 0.718477 0.628668 0.297603
  outer loop
    vertex -69.5821 229.229 502.642
    vertex -59.9445 211.178 517.507
    vertex -43.3321 199.229 502.642
  endloop
endfacet
facet normal 0.718477 0.628668 0.297603
  outer loop
    vertex -59.9445 211.178 517.507
    vertex -36.4232 179.684 527.25
    vertex -43.3321 199.229 502.642
  endloop
endfacet
facet normal 0.718477 0.628668 0.297603
  outer loop
    vertex -80.895 239.229 508.829
    vertex -69.5821 229.229 502.642
    vertex -95.8321 259.229 502.642
  endloop
endfacet
facet normal 0.718477 0.628668 -0.297603
  outer loop
    vertex -17.0821 169.229 502.642
    vertex -36.4232 179.684 478.034
    vertex -43.3321 199.229 502.642
  endloop
endfacet
facet normal 0.718477 0.628668 -0.297603
  outer loop
    vertex -17.0821 169.229 502.642
    vertex 9.16786 139.229 502.642
    vertex -6.20903 139.229 465.519
  endloop
endfacet
facet normal 0.718477 0.628668 -0.297603
  outer loop
    vertex -17.0821 169.229 502.642
    vertex -6.20903 139.229 465.519
    vertex -36.4232 179.684 478.034
  endloop
endfacet
facet normal 0.718477 0.628668 -0.297603
  outer loop
    vertex -43.3321 199.229 502.642
    vertex -59.9445 211.178 487.777
    vertex -69.5821 229.229 502.642
  endloop
endfacet
facet normal 0.718477 0.628668 -0.297603
  outer loop
    vertex -43.3321 199.229 502.642
    vertex -36.4232 179.684 478.034
    vertex -59.9445 211.178 487.777
  endloop
endfacet
facet normal 0.718477 0.628668 -0.297603
  outer loop
    vertex -95.8321 259.229 502.642
    vertex -69.5821 229.229 502.642
    vertex -80.895 239.229 496.455
  endloop
endfacet
facet normal 0.718477 0.628668 -0.297603
  outer loop
    vertex -69.5821 229.229 502.642
    vertex -77.2706 229.229 484.08
    vertex -80.895 239.229 496.455
  endloop
endfacet
facet normal 0.718477 0.628668 -0.297603
  outer loop
    vertex -69.5821 229.229 502.642
    vertex -59.9445 211.178 487.777
    vertex -77.2706 229.229 484.08
  endloop
endfacet
facet normal 0.718477 0.628668 -0.297603
  outer loop
    vertex -40.1475 169.229 446.957
    vertex -6.20903 139.229 465.519
    vertex -21.5859 139.229 428.396
  endloop
endfacet
facet normal 0.718477 0.628668 -0.297603
  outer loop
    vertex -95.8321 259.229 502.642
    vertex -80.895 239.229 496.455
    vertex -77.2706 229.229 484.08
  endloop
endfacet
facet normal 0.718477 0.628668 -0.297603
  outer loop
    vertex -6.20903 139.229 465.519
    vertex -40.1475 169.229 446.957
    vertex -36.4232 179.684 478.034
  endloop
endfacet
facet normal 0.718477 0.628668 -0.297603
  outer loop
    vertex -40.1475 169.229 446.957
    vertex -58.709 199.229 465.519
    vertex -36.4232 179.684 478.034
  endloop
endfacet
facet normal 0.718477 0.628668 -0.297603
  outer loop
    vertex -58.709 199.229 465.519
    vertex -77.2706 229.229 484.08
    vertex -59.9445 211.178 487.777
  endloop
endfacet
facet normal 0.718477 0.628668 -0.297603
  outer loop
    vertex -58.709 199.229 465.519
    vertex -59.9445 211.178 487.777
    vertex -36.4232 179.684 478.034
  endloop
endfacet
facet normal 0.297603 0.628668 -0.718477
  outer loop
    vertex -58.709 139.229 413.019
    vertex -95.8321 139.229 397.642
    vertex -95.8321 169.229 423.892
  endloop
endfacet
facet normal 0.297603 0.628668 -0.718477
  outer loop
    vertex -40.1475 169.229 446.957
    vertex -21.5859 139.229 428.396
    vertex -58.709 139.229 413.019
  endloop
endfacet
facet normal 0.297603 0.628668 -0.718477
  outer loop
    vertex -89.645 239.229 487.705
    vertex -95.8321 229.229 476.392
    vertex -95.8321 259.229 502.642
  endloop
endfacet
facet normal 0.297603 0.628668 -0.718477
  outer loop
    vertex -77.2706 229.229 484.08
    vertex -89.645 239.229 487.705
    vertex -95.8321 259.229 502.642
  endloop
endfacet
facet normal 0.297603 0.628668 -0.718477
  outer loop
    vertex -71.2242 179.684 443.233
    vertex -58.709 199.229 465.519
    vertex -40.1475 169.229 446.957
  endloop
endfacet
facet normal 0.297603 0.628668 -0.718477
  outer loop
    vertex -80.967 211.178 466.754
    vertex -77.2706 229.229 484.08
    vertex -58.709 199.229 465.519
  endloop
endfacet
facet normal 0.297603 0.628668 -0.718477
  outer loop
    vertex -71.2242 179.684 443.233
    vertex -80.967 211.178 466.754
    vertex -58.709 199.229 465.519
  endloop
endfacet
facet normal 0.297603 0.628668 -0.718477
  outer loop
    vertex -95.8321 229.229 476.392
    vertex -80.967 211.178 466.754
    vertex -95.8321 199.229 450.142
  endloop
endfacet
facet normal 0.297603 0.628668 -0.718477
  outer loop
    vertex -80.967 211.178 466.754
    vertex -95.8321 229.229 476.392
    vertex -77.2706 229.229 484.08
  endloop
endfacet
facet normal 0.297603 0.628668 -0.718477
  outer loop
    vertex -95.8321 229.229 476.392
    vertex -89.645 239.229 487.705
    vertex -77.2706 229.229 484.08
  endloop
endfacet
facet normal 0.297603 0.628668 -0.718477
  outer loop
    vertex -95.8321 169.229 423.892
    vertex -71.2242 179.684 443.233
    vertex -58.709 139.229 413.019
  endloop
endfacet
facet normal 0.297603 0.628668 -0.718477
  outer loop
    vertex -95.8321 199.229 450.142
    vertex -71.2242 179.684 443.233
    vertex -95.8321 169.229 423.892
  endloop
endfacet
facet normal 0.297603 0.628668 -0.718477
  outer loop
    vertex -58.709 139.229 413.019
    vertex -71.2242 179.684 443.233
    vertex -40.1475 169.229 446.957
  endloop
endfacet
facet normal 0.297603 0.628668 -0.718477
  outer loop
    vertex -80.967 211.178 466.754
    vertex -71.2242 179.684 443.233
    vertex -95.8321 199.229 450.142
  endloop
endfacet
facet normal -0.297603 0.628668 -0.718477
  outer loop
    vertex -132.955 139.229 413.019
    vertex -95.8321 169.229 423.892
    vertex -95.8321 139.229 397.642
  endloop
endfacet
facet normal -0.297603 0.628668 -0.718477
  outer loop
    vertex -170.078 139.229 428.396
    vertex -151.517 169.229 446.957
    vertex -132.955 139.229 413.019
  endloop
endfacet
facet normal -0.297603 0.628668 -0.718477
  outer loop
    vertex -95.8321 259.229 502.642
    vertex -95.8321 229.229 476.392
    vertex -102.019 239.229 487.705
  endloop
endfacet
facet normal -0.297603 0.628668 -0.718477
  outer loop
    vertex -95.8321 259.229 502.642
    vertex -102.019 239.229 487.705
    vertex -114.394 229.229 484.08
  endloop
endfacet
facet normal -0.297603 0.628668 -0.718477
  outer loop
    vertex -95.8321 229.229 476.392
    vertex -114.394 229.229 484.08
    vertex -102.019 239.229 487.705
  endloop
endfacet
facet normal -0.297603 0.628668 -0.718477
  outer loop
    vertex -95.8321 229.229 476.392
    vertex -110.697 211.178 466.754
    vertex -114.394 229.229 484.08
  endloop
endfacet
facet normal -0.297603 0.628668 -0.718477
  outer loop
    vertex -95.8321 199.229 450.142
    vertex -110.697 211.178 466.754
    vertex -95.8321 229.229 476.392
  endloop
endfacet
facet normal -0.297603 0.628668 -0.718477
  outer loop
    vertex -95.8321 169.229 423.892
    vertex -132.955 139.229 413.019
    vertex -120.44 179.684 443.233
  endloop
endfacet
facet normal -0.297603 0.628668 -0.718477
  outer loop
    vertex -95.8321 169.229 423.892
    vertex -120.44 179.684 443.233
    vertex -95.8321 199.229 450.142
  endloop
endfacet
facet normal -0.297603 0.628668 -0.718477
  outer loop
    vertex -132.955 139.229 413.019
    vertex -151.517 169.229 446.957
    vertex -120.44 179.684 443.233
  endloop
endfacet
facet normal -0.297603 0.628668 -0.718477
  outer loop
    vertex -132.955 199.229 465.519
    vertex -114.394 229.229 484.08
    vertex -110.697 211.178 466.754
  endloop
endfacet
facet normal -0.297603 0.628668 -0.718477
  outer loop
    vertex -95.8321 199.229 450.142
    vertex -120.44 179.684 443.233
    vertex -110.697 211.178 466.754
  endloop
endfacet
facet normal -0.297603 0.628668 -0.718477
  outer loop
    vertex -151.517 169.229 446.957
    vertex -132.955 199.229 465.519
    vertex -120.44 179.684 443.233
  endloop
endfacet
facet normal -0.297603 0.628668 -0.718477
  outer loop
    vertex -132.955 199.229 465.519
    vertex -110.697 211.178 466.754
    vertex -120.44 179.684 443.233
  endloop
endfacet
facet normal -0.718477 0.628668 -0.297603
  outer loop
    vertex -174.582 169.229 502.642
    vertex -185.455 139.229 465.519
    vertex -200.832 139.229 502.642
  endloop
endfacet
facet normal -0.718477 0.628668 -0.297603
  outer loop
    vertex -151.517 169.229 446.957
    vertex -170.078 139.229 428.396
    vertex -185.455 139.229 465.519
  endloop
endfacet
facet normal -0.718477 0.628668 -0.297603
  outer loop
    vertex -114.394 229.229 484.08
    vertex -110.769 239.229 496.455
    vertex -95.8321 259.229 502.642
  endloop
endfacet
facet normal -0.718477 0.628668 -0.297603
  outer loop
    vertex -110.769 239.229 496.455
    vertex -122.082 229.229 502.642
    vertex -95.8321 259.229 502.642
  endloop
endfacet
facet normal -0.718477 0.628668 -0.297603
  outer loop
    vertex -185.455 139.229 465.519
    vertex -155.241 179.684 478.034
    vertex -151.517 169.229 446.957
  endloop
endfacet
facet normal -0.718477 0.628668 -0.297603
  outer loop
    vertex -174.582 169.229 502.642
    vertex -155.241 179.684 478.034
    vertex -185.455 139.229 465.519
  endloop
endfacet
facet normal -0.718477 0.628668 -0.297603
  outer loop
    vertex -122.082 229.229 502.642
    vertex -110.769 239.229 496.455
    vertex -114.394 229.229 484.08
  endloop
endfacet
facet normal -0.718477 0.628668 -0.297603
  outer loop
    vertex -131.72 211.178 487.777
    vertex -122.082 229.229 502.642
    vertex -114.394 229.229 484.08
  endloop
endfacet
facet normal -0.718477 0.628668 -0.297603
  outer loop
    vertex -131.72 211.178 487.777
    vertex -114.394 229.229 484.08
    vertex -132.955 199.229 465.519
  endloop
endfacet
facet normal -0.718477 0.628668 -0.297603
  outer loop
    vertex -122.082 229.229 502.642
    vertex -131.72 211.178 487.777
    vertex -148.332 199.229 502.642
  endloop
endfacet
facet normal -0.718477 0.628668 -0.297603
  outer loop
    vertex -148.332 199.229 502.642
    vertex -155.241 179.684 478.034
    vertex -174.582 169.229 502.642
  endloop
endfacet
facet normal -0.718477 0.628668 -0.297603
  outer loop
    vertex -131.72 211.178 487.777
    vertex -155.241 179.684 478.034
    vertex -148.332 199.229 502.642
  endloop
endfacet
facet normal -0.718477 0.628668 -0.297603
  outer loop
    vertex -155.241 179.684 478.034
    vertex -132.955 199.229 465.519
    vertex -151.517 169.229 446.957
  endloop
endfacet
facet normal -0.718477 0.628668 -0.297603
  outer loop
    vertex -155.241 179.684 478.034
    vertex -131.72 211.178 487.777
    vertex -132.955 199.229 465.519
  endloop
endfacet
facet normal -0.718477 0.628668 0.297603
  outer loop
    vertex -200.832 139.229 502.642
    vertex -185.455 139.229 539.765
    vertex -174.582 169.229 502.642
  endloop
endfacet
facet normal -0.718477 0.628668 0.297603
  outer loop
    vertex -185.455 139.229 539.765
    vertex -170.078 139.229 576.888
    vertex -151.517 169.229 558.327
  endloop
endfacet
facet normal -0.718477 0.628668 0.297603
  outer loop
    vertex -95.8321 259.229 502.642
    vertex -110.769 239.229 508.829
    vertex -114.394 229.229 521.204
  endloop
endfacet
facet normal -0.718477 0.628668 0.297603
  outer loop
    vertex -95.8321 259.229 502.642
    vertex -122.082 229.229 502.642
    vertex -110.769 239.229 508.829
  endloop
endfacet
facet normal -0.718477 0.628668 0.297603
  outer loop
    vertex -132.955 199.229 539.765
    vertex -114.394 229.229 521.204
    vertex -131.72 211.178 517.507
  endloop
endfacet
facet normal -0.718477 0.628668 0.297603
  outer loop
    vertex -151.517 169.229 558.327
    vertex -132.955 199.229 539.765
    vertex -155.241 179.684 527.25
  endloop
endfacet
facet normal -0.718477 0.628668 0.297603
  outer loop
    vertex -132.955 199.229 539.765
    vertex -131.72 211.178 517.507
    vertex -155.241 179.684 527.25
  endloop
endfacet
facet normal -0.718477 0.628668 0.297603
  outer loop
    vertex -122.082 229.229 502.642
    vertex -131.72 211.178 517.507
    vertex -114.394 229.229 521.204
  endloop
endfacet
facet normal -0.718477 0.628668 0.297603
  outer loop
    vertex -122.082 229.229 502.642
    vertex -114.394 229.229 521.204
    vertex -110.769 239.229 508.829
  endloop
endfacet
facet normal -0.718477 0.628668 0.297603
  outer loop
    vertex -148.332 199.229 502.642
    vertex -131.72 211.178 517.507
    vertex -122.082 229.229 502.642
  endloop
endfacet
facet normal -0.718477 0.628668 0.297603
  outer loop
    vertex -174.582 169.229 502.642
    vertex -155.241 179.684 527.25
    vertex -148.332 199.229 502.642
  endloop
endfacet
facet normal -0.718477 0.628668 0.297603
  outer loop
    vertex -148.332 199.229 502.642
    vertex -155.241 179.684 527.25
    vertex -131.72 211.178 517.507
  endloop
endfacet
facet normal -0.718477 0.628668 0.297603
  outer loop
    vertex -174.582 169.229 502.642
    vertex -185.455 139.229 539.765
    vertex -155.241 179.684 527.25
  endloop
endfacet
facet normal -0.718477 0.628668 0.297603
  outer loop
    vertex -185.455 139.229 539.765
    vertex -151.517 169.229 558.327
    vertex -155.241 179.684 527.25
  endloop
endfacet
facet normal -0.297603 0.628668 0.718477
  outer loop
    vertex -95.8321 229.229 528.892
    vertex -110.697 211.178 538.53
    vertex -95.8321 199.229 555.142
  endloop
endfacet
facet normal -0.297603 0.628668 0.718477
  outer loop
    vertex -95.8321 259.229 502.642
    vertex -102.019 239.229 517.579
    vertex -95.8321 229.229 528.892
  endloop
endfacet
facet normal -0.297603 0.628668 0.718477
  outer loop
    vertex -95.8321 229.229 528.892
    vertex -102.019 239.229 517.579
    vertex -114.394 229.229 521.204
  endloop
endfacet
facet normal -0.297603 0.628668 0.718477
  outer loop
    vertex -95.8321 229.229 528.892
    vertex -114.394 229.229 521.204
    vertex -110.697 211.178 538.53
  endloop
endfacet
facet normal -0.297603 0.628668 0.718477
  outer loop
    vertex -95.8321 199.229 555.142
    vertex -120.44 179.684 562.051
    vertex -95.8321 169.229 581.392
  endloop
endfacet
facet normal -0.297603 0.628668 0.718477
  outer loop
    vertex -132.955 139.229 592.265
    vertex -95.8321 139.229 607.642
    vertex -95.8321 169.229 581.392
  endloop
endfacet
facet normal -0.297603 0.628668 0.718477
  outer loop
    vertex -95.8321 169.229 581.392
    vertex -120.44 179.684 562.051
    vertex -132.955 139.229 592.265
  endloop
endfacet
facet normal -0.297603 0.628668 0.718477
  outer loop
    vertex -95.8321 199.229 555.142
    vertex -110.697 211.178 538.53
    vertex -120.44 179.684 562.051
  endloop
endfacet
facet normal -0.297603 0.628668 0.718477
  outer loop
    vertex -170.078 139.229 576.888
    vertex -132.955 139.229 592.265
    vertex -151.517 169.229 558.327
  endloop
endfacet
facet normal -0.297603 0.628668 0.718477
  outer loop
    vertex -95.8321 259.229 502.642
    vertex -114.394 229.229 521.204
    vertex -102.019 239.229 517.579
  endloop
endfacet
facet normal -0.297603 0.628668 0.718477
  outer loop
    vertex -132.955 199.229 539.765
    vertex -110.697 211.178 538.53
    vertex -114.394 229.229 521.204
  endloop
endfacet
facet normal -0.297603 0.628668 0.718477
  outer loop
    vertex -151.517 169.229 558.327
    vertex -120.44 179.684 562.051
    vertex -132.955 199.229 539.765
  endloop
endfacet
facet normal -0.297603 0.628668 0.718477
  outer loop
    vertex -132.955 199.229 539.765
    vertex -120.44 179.684 562.051
    vertex -110.697 211.178 538.53
  endloop
endfacet
facet normal -0.297603 0.628668 0.718477
  outer loop
    vertex -151.517 169.229 558.327
    vertex -132.955 139.229 592.265
    vertex -120.44 179.684 562.051
  endloop
endfacet
facet normal 0 1 0
  outer loop
    vertex -95.8321 139.229 607.642
    vertex -58.709 139.229 592.265
    vertex -98.7604 139.229 564.674
  endloop
endfacet
facet normal 0 1 0
  outer loop
    vertex -21.5859 139.229 576.888
    vertex -33.47 139.229 550.778
    vertex -58.709 139.229 592.265
  endloop
endfacet
facet normal 0 1 0
  outer loop
    vertex -58.709 139.229 592.265
    vertex -33.47 139.229 550.778
    vertex -62.7439 139.229 539.695
  endloop
endfacet
facet normal 0 1 0
  outer loop
    vertex -58.709 139.229 592.265
    vertex -62.7439 139.229 539.695
    vertex -98.7604 139.229 564.674
  endloop
endfacet
facet normal 0 1 0
  outer loop
    vertex 9.16786 139.229 502.642
    vertex -32.4663 139.229 507.264
    vertex -6.20903 139.229 539.765
  endloop
endfacet
facet normal 0 1 0
  outer loop
    vertex -21.5859 139.229 576.888
    vertex -6.20903 139.229 539.765
    vertex -33.47 139.229 550.778
  endloop
endfacet
facet normal 0 1 0
  outer loop
    vertex -6.20903 139.229 539.765
    vertex -32.4663 139.229 507.264
    vertex -33.47 139.229 550.778
  endloop
endfacet
facet normal 0 1 0
  outer loop
    vertex -200.832 139.229 502.642
    vertex -156.742 139.229 502.642
    vertex -185.455 139.229 465.519
  endloop
endfacet
facet normal -0 1 0
  outer loop
    vertex -200.832 139.229 502.642
    vertex -185.455 139.229 539.765
    vertex -156.742 139.229 502.642
  endloop
endfacet
facet normal 0 1 0
  outer loop
    vertex -170.078 139.229 576.888
    vertex -143.408 139.229 563.239
    vertex -185.455 139.229 539.765
  endloop
endfacet
facet normal -0 1 0
  outer loop
    vertex -170.078 139.229 576.888
    vertex -132.955 139.229 592.265
    vertex -143.408 139.229 563.239
  endloop
endfacet
facet normal 0 1 -0
  outer loop
    vertex -95.8321 139.229 397.642
    vertex -132.955 139.229 413.019
    vertex -95.8321 139.229 441.732
  endloop
endfacet
facet normal 0 1 0
  outer loop
    vertex -95.8321 139.229 397.642
    vertex -95.8321 139.229 441.732
    vertex -58.709 139.229 413.019
  endloop
endfacet
facet normal 0 1 0
  outer loop
    vertex -95.8321 139.229 607.642
    vertex -98.7604 139.229 564.674
    vertex -132.955 139.229 592.265
  endloop
endfacet
facet normal 0 1 -0
  outer loop
    vertex -170.078 139.229 428.396
    vertex -185.455 139.229 465.519
    vertex -143.728 139.229 440.408
  endloop
endfacet
facet normal -0 1 0
  outer loop
    vertex -170.078 139.229 428.396
    vertex -143.728 139.229 440.408
    vertex -132.955 139.229 413.019
  endloop
endfacet
facet normal 0 1 -0
  outer loop
    vertex -21.5859 139.229 428.396
    vertex -47.821 139.229 440.408
    vertex -6.20903 139.229 465.519
  endloop
endfacet
facet normal 0 1 0
  outer loop
    vertex -21.5859 139.229 428.396
    vertex -58.709 139.229 413.019
    vertex -47.821 139.229 440.408
  endloop
endfacet
facet normal 0 1 0
  outer loop
    vertex 9.16786 139.229 502.642
    vertex -6.20903 139.229 465.519
    vertex -32.4663 139.229 507.264
  endloop
endfacet
facet normal 0 1 0
  outer loop
    vertex -6.20903 139.229 465.519
    vertex -47.821 139.229 440.408
    vertex -56.5567 139.229 469.554
  endloop
endfacet
facet normal 0 1 0
  outer loop
    vertex -6.20903 139.229 465.519
    vertex -56.5567 139.229 469.554
    vertex -32.4663 139.229 507.264
  endloop
endfacet
facet normal 0 1 0
  outer loop
    vertex -185.455 139.229 465.519
    vertex -156.742 139.229 502.642
    vertex -132.885 139.229 469.554
  endloop
endfacet
facet normal -0 1 0
  outer loop
    vertex -185.455 139.229 465.519
    vertex -132.885 139.229 469.554
    vertex -143.728 139.229 440.408
  endloop
endfacet
facet normal 0 1 -0
  outer loop
    vertex -97.0705 139.229 503.88
    vertex -127.768 139.229 529.275
    vertex -90.4703 139.229 530.804
  endloop
endfacet
facet normal 0 1 0
  outer loop
    vertex -97.0705 139.229 503.88
    vertex -124.113 139.229 496.477
    vertex -127.768 139.229 529.275
  endloop
endfacet
facet normal 0 1 0
  outer loop
    vertex -97.0705 139.229 503.88
    vertex -90.4703 139.229 530.804
    vertex -72.2783 139.229 505.489
  endloop
endfacet
facet normal 0 1 0
  outer loop
    vertex -97.0705 139.229 503.88
    vertex -95.6681 139.229 479.445
    vertex -124.113 139.229 496.477
  endloop
endfacet
facet normal -0 1 0
  outer loop
    vertex -97.0705 139.229 503.88
    vertex -72.2783 139.229 505.489
    vertex -95.6681 139.229 479.445
  endloop
endfacet
facet normal 0 1 -0
  outer loop
    vertex -132.955 139.229 413.019
    vertex -143.728 139.229 440.408
    vertex -95.8321 139.229 441.732
  endloop
endfacet
facet normal 0 1 0
  outer loop
    vertex -56.5567 139.229 469.554
    vertex -47.821 139.229 440.408
    vertex -95.8321 139.229 441.732
  endloop
endfacet
facet normal 0 1 -0
  outer loop
    vertex -56.5567 139.229 469.554
    vertex -72.2783 139.229 505.489
    vertex -32.4663 139.229 507.264
  endloop
endfacet
facet normal 0 1 0
  outer loop
    vertex -56.5567 139.229 469.554
    vertex -95.6681 139.229 479.445
    vertex -72.2783 139.229 505.489
  endloop
endfacet
facet normal 0 1 0
  outer loop
    vertex -56.5567 139.229 469.554
    vertex -95.8321 139.229 441.732
    vertex -95.6681 139.229 479.445
  endloop
endfacet
facet normal 0 1 -0
  outer loop
    vertex -132.885 139.229 469.554
    vertex -156.742 139.229 502.642
    vertex -124.113 139.229 496.477
  endloop
endfacet
facet normal 0 1 0
  outer loop
    vertex -132.885 139.229 469.554
    vertex -124.113 139.229 496.477
    vertex -95.6681 139.229 479.445
  endloop
endfacet
facet normal -0 1 0
  outer loop
    vertex -132.885 139.229 469.554
    vertex -95.6681 139.229 479.445
    vertex -95.8321 139.229 441.732
  endloop
endfacet
facet normal 0 1 0
  outer loop
    vertex -132.885 139.229 469.554
    vertex -95.8321 139.229 441.732
    vertex -143.728 139.229 440.408
  endloop
endfacet
facet normal 0 1 -0
  outer loop
    vertex -58.709 139.229 413.019
    vertex -95.8321 139.229 441.732
    vertex -47.821 139.229 440.408
  endloop
endfacet
facet normal -0 1 0
  outer loop
    vertex -185.455 139.229 539.765
    vertex -143.408 139.229 563.239
    vertex -127.768 139.229 529.275
  endloop
endfacet
facet normal 0 1 0
  outer loop
    vertex -185.455 139.229 539.765
    vertex -127.768 139.229 529.275
    vertex -156.742 139.229 502.642
  endloop
endfacet
facet normal 0 1 0
  outer loop
    vertex -62.7439 139.229 539.695
    vertex -72.2783 139.229 505.489
    vertex -90.4703 139.229 530.804
  endloop
endfacet
facet normal 0 1 0
  outer loop
    vertex -62.7439 139.229 539.695
    vertex -90.4703 139.229 530.804
    vertex -98.7604 139.229 564.674
  endloop
endfacet
facet normal 0 1 0
  outer loop
    vertex -62.7439 139.229 539.695
    vertex -32.4663 139.229 507.264
    vertex -72.2783 139.229 505.489
  endloop
endfacet
facet normal -0 1 0
  outer loop
    vertex -62.7439 139.229 539.695
    vertex -33.47 139.229 550.778
    vertex -32.4663 139.229 507.264
  endloop
endfacet
facet normal 0 1 0
  outer loop
    vertex -132.955 139.229 592.265
    vertex -98.7604 139.229 564.674
    vertex -143.408 139.229 563.239
  endloop
endfacet
facet normal 0 1 0
  outer loop
    vertex -127.768 139.229 529.275
    vertex -98.7604 139.229 564.674
    vertex -90.4703 139.229 530.804
  endloop
endfacet
facet normal 0 1 0
  outer loop
    vertex -127.768 139.229 529.275
    vertex -124.113 139.229 496.477
    vertex -156.742 139.229 502.642
  endloop
endfacet
facet normal 0 1 -0
  outer loop
    vertex -127.768 139.229 529.275
    vertex -143.408 139.229 563.239
    vertex -98.7604 139.229 564.674
  endloop
endfacet
endsolid Created by Gmsh
