solid Created by Gmsh
facet normal 1 0 0
  outer loop
    vertex -365.249 318.449 -253.712
    vertex -365.249 310.612 -228.811
    vertex -365.249 285.711 -253.712
  endloop
endfacet
facet normal 1 0 -0
  outer loop
    vertex -365.249 306.544 -274.545
    vertex -365.249 318.449 -253.712
    vertex -365.249 285.711 -253.712
  endloop
endfacet
facet normal 1 0 0
  outer loop
    vertex -365.249 310.612 -228.811
    vertex -365.249 285.711 -220.974
    vertex -365.249 285.711 -253.712
  endloop
endfacet
facet normal 1 0 0
  outer loop
    vertex -365.249 285.711 -220.974
    vertex -365.249 264.878 -232.878
    vertex -365.249 285.711 -253.712
  endloop
endfacet
facet normal 1 0 0
  outer loop
    vertex -365.249 252.973 -253.712
    vertex -365.249 264.878 -274.545
    vertex -365.249 285.711 -253.712
  endloop
endfacet
facet normal 1 -0 0
  outer loop
    vertex -365.249 264.878 -274.545
    vertex -365.249 285.711 -282.045
    vertex -365.249 285.711 -253.712
  endloop
endfacet
facet normal 1 0 0
  outer loop
    vertex -365.249 264.878 -232.878
    vertex -365.249 252.973 -253.712
    vertex -365.249 285.711 -253.712
  endloop
endfacet
facet normal 1 0 0
  outer loop
    vertex -365.249 285.711 -282.045
    vertex -365.249 306.544 -274.545
    vertex -365.249 285.711 -253.712
  endloop
endfacet
facet normal 1 0 0
  outer loop
    vertex -365.249 310.612 -228.811
    vertex -365.249 318.449 -253.712
    vertex -365.249 335.711 -237.045
  endloop
endfacet
facet normal 1 0 0
  outer loop
    vertex -365.249 318.449 -253.712
    vertex -365.249 306.544 -274.545
    vertex -365.249 335.711 -270.378
  endloop
endfacet
facet normal 1 0 0
  outer loop
    vertex -365.249 335.711 -237.045
    vertex -365.249 318.449 -253.712
    vertex -365.249 335.711 -270.378
  endloop
endfacet
facet normal 1 -0 0
  outer loop
    vertex -365.249 285.711 -220.974
    vertex -365.249 310.612 -228.811
    vertex -365.249 302.378 -203.712
  endloop
endfacet
facet normal 1 0 0
  outer loop
    vertex -365.249 264.878 -232.878
    vertex -365.249 285.711 -220.974
    vertex -365.249 269.044 -203.712
  endloop
endfacet
facet normal 1 -0 0
  outer loop
    vertex -365.249 269.044 -203.712
    vertex -365.249 285.711 -220.974
    vertex -365.249 302.378 -203.712
  endloop
endfacet
facet normal 1 0 0
  outer loop
    vertex -365.249 264.878 -274.545
    vertex -365.249 252.973 -253.712
    vertex -365.249 235.711 -270.378
  endloop
endfacet
facet normal 1 0 0
  outer loop
    vertex -365.249 285.711 -282.045
    vertex -365.249 264.878 -274.545
    vertex -365.249 269.044 -303.712
  endloop
endfacet
facet normal 1 0 0
  outer loop
    vertex -365.249 269.044 -303.712
    vertex -365.249 264.878 -274.545
    vertex -365.249 235.711 -303.712
  endloop
endfacet
facet normal 1 0 0
  outer loop
    vertex -365.249 264.878 -274.545
    vertex -365.249 235.711 -270.378
    vertex -365.249 235.711 -303.712
  endloop
endfacet
facet normal 1 -0 0
  outer loop
    vertex -365.249 310.612 -228.811
    vertex -365.249 335.711 -237.045
    vertex -365.249 335.711 -203.712
  endloop
endfacet
facet normal 1 -0 0
  outer loop
    vertex -365.249 302.378 -203.712
    vertex -365.249 310.612 -228.811
    vertex -365.249 335.711 -203.712
  endloop
endfacet
facet normal 1 0 -0
  outer loop
    vertex -365.249 252.973 -253.712
    vertex -365.249 264.878 -232.878
    vertex -365.249 235.711 -237.045
  endloop
endfacet
facet normal 1 0 -0
  outer loop
    vertex -365.249 264.878 -232.878
    vertex -365.249 269.044 -203.712
    vertex -365.249 235.711 -203.712
  endloop
endfacet
facet normal 1 0 0
  outer loop
    vertex -365.249 235.711 -237.045
    vertex -365.249 264.878 -232.878
    vertex -365.249 235.711 -203.712
  endloop
endfacet
facet normal 1 0 0
  outer loop
    vertex -365.249 235.711 -270.378
    vertex -365.249 252.973 -253.712
    vertex -365.249 235.711 -237.045
  endloop
endfacet
facet normal 1 0 0
  outer loop
    vertex -365.249 306.544 -274.545
    vertex -365.249 285.711 -282.045
    vertex -365.249 302.378 -303.712
  endloop
endfacet
facet normal 1 0 0
  outer loop
    vertex -365.249 335.711 -270.378
    vertex -365.249 306.544 -274.545
    vertex -365.249 335.711 -303.712
  endloop
endfacet
facet normal 1 0 0
  outer loop
    vertex -365.249 306.544 -274.545
    vertex -365.249 302.378 -303.712
    vertex -365.249 335.711 -303.712
  endloop
endfacet
facet normal 1 0 0
  outer loop
    vertex -365.249 302.378 -303.712
    vertex -365.249 285.711 -282.045
    vertex -365.249 269.044 -303.712
  endloop
endfacet
facet normal -1 -0 0
  outer loop
    vertex -465.249 285.711 -253.712
    vertex -465.249 252.973 -253.712
    vertex -465.249 260.81 -228.811
  endloop
endfacet
facet normal -1 0 0
  outer loop
    vertex -465.249 235.711 -237.045
    vertex -465.249 260.81 -228.811
    vertex -465.249 252.973 -253.712
  endloop
endfacet
facet normal -1 0 0
  outer loop
    vertex -465.249 285.711 -253.712
    vertex -465.249 260.81 -228.811
    vertex -465.249 285.711 -220.974
  endloop
endfacet
facet normal -1 0 -0
  outer loop
    vertex -465.249 269.044 -203.712
    vertex -465.249 285.711 -220.974
    vertex -465.249 260.81 -228.811
  endloop
endfacet
facet normal -1 0 0
  outer loop
    vertex -465.249 235.711 -203.712
    vertex -465.249 260.81 -228.811
    vertex -465.249 235.711 -237.045
  endloop
endfacet
facet normal -1 0 0
  outer loop
    vertex -465.249 235.711 -203.712
    vertex -465.249 269.044 -203.712
    vertex -465.249 260.81 -228.811
  endloop
endfacet
facet normal -1 0 0
  outer loop
    vertex -465.249 285.711 -253.712
    vertex -465.249 310.612 -278.613
    vertex -465.249 285.711 -286.45
  endloop
endfacet
facet normal -1 0 0
  outer loop
    vertex -465.249 285.711 -253.712
    vertex -465.249 318.449 -253.712
    vertex -465.249 310.612 -278.613
  endloop
endfacet
facet normal -1 0 0
  outer loop
    vertex -465.249 302.378 -303.712
    vertex -465.249 285.711 -286.45
    vertex -465.249 310.612 -278.613
  endloop
endfacet
facet normal -1 -0 0
  outer loop
    vertex -465.249 335.711 -270.378
    vertex -465.249 310.612 -278.613
    vertex -465.249 318.449 -253.712
  endloop
endfacet
facet normal -1 0 0
  outer loop
    vertex -465.249 335.711 -303.712
    vertex -465.249 310.612 -278.613
    vertex -465.249 335.711 -270.378
  endloop
endfacet
facet normal -1 0 0
  outer loop
    vertex -465.249 335.711 -303.712
    vertex -465.249 302.378 -303.712
    vertex -465.249 310.612 -278.613
  endloop
endfacet
facet normal -1 0 0
  outer loop
    vertex -465.249 285.711 -253.712
    vertex -465.249 264.878 -274.545
    vertex -465.249 252.973 -253.712
  endloop
endfacet
facet normal -1 0 0
  outer loop
    vertex -465.249 235.711 -270.378
    vertex -465.249 252.973 -253.712
    vertex -465.249 264.878 -274.545
  endloop
endfacet
facet normal -1 0 0
  outer loop
    vertex -465.249 235.711 -270.378
    vertex -465.249 235.711 -237.045
    vertex -465.249 252.973 -253.712
  endloop
endfacet
facet normal -1 0 -0
  outer loop
    vertex -465.249 285.711 -253.712
    vertex -465.249 285.711 -286.45
    vertex -465.249 264.878 -274.545
  endloop
endfacet
facet normal -1 0 0
  outer loop
    vertex -465.249 269.044 -303.712
    vertex -465.249 264.878 -274.545
    vertex -465.249 285.711 -286.45
  endloop
endfacet
facet normal -1 0 0
  outer loop
    vertex -465.249 235.711 -303.712
    vertex -465.249 235.711 -270.378
    vertex -465.249 264.878 -274.545
  endloop
endfacet
facet normal -1 0 0
  outer loop
    vertex -465.249 235.711 -303.712
    vertex -465.249 264.878 -274.545
    vertex -465.249 269.044 -303.712
  endloop
endfacet
facet normal -1 0 0
  outer loop
    vertex -465.249 285.711 -253.712
    vertex -465.249 285.711 -220.974
    vertex -465.249 306.544 -232.878
  endloop
endfacet
facet normal -1 0 0
  outer loop
    vertex -465.249 285.711 -253.712
    vertex -465.249 306.544 -232.878
    vertex -465.249 318.449 -253.712
  endloop
endfacet
facet normal -1 0 -0
  outer loop
    vertex -465.249 302.378 -203.712
    vertex -465.249 306.544 -232.878
    vertex -465.249 285.711 -220.974
  endloop
endfacet
facet normal -1 0 0
  outer loop
    vertex -465.249 269.044 -203.712
    vertex -465.249 302.378 -203.712
    vertex -465.249 285.711 -220.974
  endloop
endfacet
facet normal -1 -0 0
  outer loop
    vertex -465.249 335.711 -237.045
    vertex -465.249 318.449 -253.712
    vertex -465.249 306.544 -232.878
  endloop
endfacet
facet normal -1 -0 0
  outer loop
    vertex -465.249 335.711 -203.712
    vertex -465.249 306.544 -232.878
    vertex -465.249 302.378 -203.712
  endloop
endfacet
facet normal -1 0 -0
  outer loop
    vertex -465.249 335.711 -203.712
    vertex -465.249 335.711 -237.045
    vertex -465.249 306.544 -232.878
  endloop
endfacet
facet normal -1 0 0
  outer loop
    vertex -465.249 302.378 -303.712
    vertex -465.249 269.044 -303.712
    vertex -465.249 285.711 -286.45
  endloop
endfacet
facet normal -1 0 -0
  outer loop
    vertex -465.249 335.711 -237.045
    vertex -465.249 335.711 -270.378
    vertex -465.249 318.449 -253.712
  endloop
endfacet
facet normal 0 -1 0
  outer loop
    vertex -415.249 335.711 -253.712
    vertex -394.415 335.711 -274.545
    vertex -386.915 335.711 -253.712
  endloop
endfacet
facet normal -0 -1 0
  outer loop
    vertex -365.249 335.711 -270.378
    vertex -386.915 335.711 -253.712
    vertex -394.415 335.711 -274.545
  endloop
endfacet
facet normal 0 -1 -0
  outer loop
    vertex -415.249 335.711 -253.712
    vertex -415.249 335.711 -286.45
    vertex -394.415 335.711 -274.545
  endloop
endfacet
facet normal 0 -1 0
  outer loop
    vertex -398.582 335.711 -303.712
    vertex -394.415 335.711 -274.545
    vertex -415.249 335.711 -286.45
  endloop
endfacet
facet normal 0 -1 0
  outer loop
    vertex -365.249 335.711 -303.712
    vertex -394.415 335.711 -274.545
    vertex -398.582 335.711 -303.712
  endloop
endfacet
facet normal 0 -1 0
  outer loop
    vertex -365.249 335.711 -303.712
    vertex -365.249 335.711 -270.378
    vertex -394.415 335.711 -274.545
  endloop
endfacet
facet normal 0 -1 0
  outer loop
    vertex -415.249 335.711 -253.712
    vertex -386.915 335.711 -253.712
    vertex -394.415 335.711 -232.878
  endloop
endfacet
facet normal -0 -1 0
  outer loop
    vertex -365.249 335.711 -237.045
    vertex -394.415 335.711 -232.878
    vertex -386.915 335.711 -253.712
  endloop
endfacet
facet normal 0 -1 0
  outer loop
    vertex -365.249 335.711 -270.378
    vertex -365.249 335.711 -237.045
    vertex -386.915 335.711 -253.712
  endloop
endfacet
facet normal 0 -1 0
  outer loop
    vertex -415.249 335.711 -253.712
    vertex -440.15 335.711 -278.613
    vertex -415.249 335.711 -286.45
  endloop
endfacet
facet normal 0 -1 0
  outer loop
    vertex -415.249 335.711 -253.712
    vertex -394.415 335.711 -232.878
    vertex -415.249 335.711 -222.12
  endloop
endfacet
facet normal 0 -1 0
  outer loop
    vertex -415.249 335.711 -253.712
    vertex -415.249 335.711 -222.12
    vertex -436.082 335.711 -232.878
  endloop
endfacet
facet normal 0 -1 0
  outer loop
    vertex -415.249 335.711 -253.712
    vertex -436.082 335.711 -232.878
    vertex -447.987 335.711 -253.712
  endloop
endfacet
facet normal -0 -1 0
  outer loop
    vertex -415.249 335.711 -253.712
    vertex -447.987 335.711 -253.712
    vertex -440.15 335.711 -278.613
  endloop
endfacet
facet normal 0 -1 0
  outer loop
    vertex -431.915 335.711 -303.712
    vertex -415.249 335.711 -286.45
    vertex -440.15 335.711 -278.613
  endloop
endfacet
facet normal 0 -1 0
  outer loop
    vertex -398.582 335.711 -303.712
    vertex -415.249 335.711 -286.45
    vertex -431.915 335.711 -303.712
  endloop
endfacet
facet normal 0 -1 -0
  outer loop
    vertex -398.582 335.711 -203.712
    vertex -415.249 335.711 -222.12
    vertex -394.415 335.711 -232.878
  endloop
endfacet
facet normal -0 -1 0
  outer loop
    vertex -365.249 335.711 -203.712
    vertex -398.582 335.711 -203.712
    vertex -394.415 335.711 -232.878
  endloop
endfacet
facet normal 0 -1 -0
  outer loop
    vertex -365.249 335.711 -203.712
    vertex -394.415 335.711 -232.878
    vertex -365.249 335.711 -237.045
  endloop
endfacet
facet normal 0 -1 -0
  outer loop
    vertex -431.915 335.711 -203.712
    vertex -436.082 335.711 -232.878
    vertex -415.249 335.711 -222.12
  endloop
endfacet
facet normal 0 -1 0
  outer loop
    vertex -465.249 335.711 -237.045
    vertex -447.987 335.711 -253.712
    vertex -436.082 335.711 -232.878
  endloop
endfacet
facet normal 0 -1 0
  outer loop
    vertex -465.249 335.711 -203.712
    vertex -436.082 335.711 -232.878
    vertex -431.915 335.711 -203.712
  endloop
endfacet
facet normal 0 -1 0
  outer loop
    vertex -465.249 335.711 -203.712
    vertex -465.249 335.711 -237.045
    vertex -436.082 335.711 -232.878
  endloop
endfacet
facet normal 0 -1 0
  outer loop
    vertex -465.249 335.711 -270.378
    vertex -440.15 335.711 -278.613
    vertex -447.987 335.711 -253.712
  endloop
endfacet
facet normal 0 -1 0
  outer loop
    vertex -465.249 335.711 -303.712
    vertex -431.915 335.711 -303.712
    vertex -440.15 335.711 -278.613
  endloop
endfacet
facet normal 0 -1 0
  outer loop
    vertex -465.249 335.711 -303.712
    vertex -440.15 335.711 -278.613
    vertex -465.249 335.711 -270.378
  endloop
endfacet
facet normal 0 -1 0
  outer loop
    vertex -431.915 335.711 -203.712
    vertex -415.249 335.711 -222.12
    vertex -398.582 335.711 -203.712
  endloop
endfacet
facet normal 0 -1 0
  outer loop
    vertex -465.249 335.711 -237.045
    vertex -465.249 335.711 -270.378
    vertex -447.987 335.711 -253.712
  endloop
endfacet
facet normal 0 1 0
  outer loop
    vertex -398.582 235.711 -203.712
    vertex -415.249 235.711 -222.12
    vertex -431.915 235.711 -203.712
  endloop
endfacet
facet normal 0 1 0
  outer loop
    vertex -398.582 235.711 -203.712
    vertex -394.415 235.711 -232.878
    vertex -415.249 235.711 -222.12
  endloop
endfacet
facet normal 0 1 0
  outer loop
    vertex -365.249 235.711 -203.712
    vertex -394.415 235.711 -232.878
    vertex -398.582 235.711 -203.712
  endloop
endfacet
facet normal 0 1 0
  outer loop
    vertex -465.249 235.711 -270.378
    vertex -465.249 235.711 -237.045
    vertex -443.582 235.711 -253.712
  endloop
endfacet
facet normal -0 1 0
  outer loop
    vertex -465.249 235.711 -237.045
    vertex -436.082 235.711 -232.878
    vertex -443.582 235.711 -253.712
  endloop
endfacet
facet normal 0 1 0
  outer loop
    vertex -465.249 235.711 -203.712
    vertex -436.082 235.711 -232.878
    vertex -465.249 235.711 -237.045
  endloop
endfacet
facet normal -0 1 0
  outer loop
    vertex -415.249 235.711 -253.712
    vertex -382.511 235.711 -253.712
    vertex -390.348 235.711 -278.613
  endloop
endfacet
facet normal 0 1 0
  outer loop
    vertex -415.249 235.711 -253.712
    vertex -394.415 235.711 -232.878
    vertex -382.511 235.711 -253.712
  endloop
endfacet
facet normal 0 1 0
  outer loop
    vertex -415.249 235.711 -253.712
    vertex -390.348 235.711 -278.613
    vertex -415.249 235.711 -286.45
  endloop
endfacet
facet normal 0 1 0
  outer loop
    vertex -415.249 235.711 -253.712
    vertex -415.249 235.711 -286.45
    vertex -436.082 235.711 -274.545
  endloop
endfacet
facet normal 0 1 0
  outer loop
    vertex -415.249 235.711 -253.712
    vertex -443.582 235.711 -253.712
    vertex -436.082 235.711 -232.878
  endloop
endfacet
facet normal 0 1 0
  outer loop
    vertex -415.249 235.711 -253.712
    vertex -436.082 235.711 -232.878
    vertex -415.249 235.711 -222.12
  endloop
endfacet
facet normal 0 1 0
  outer loop
    vertex -415.249 235.711 -253.712
    vertex -436.082 235.711 -274.545
    vertex -443.582 235.711 -253.712
  endloop
endfacet
facet normal 0 1 -0
  outer loop
    vertex -415.249 235.711 -253.712
    vertex -415.249 235.711 -222.12
    vertex -394.415 235.711 -232.878
  endloop
endfacet
facet normal 0 1 0
  outer loop
    vertex -365.249 235.711 -270.378
    vertex -390.348 235.711 -278.613
    vertex -382.511 235.711 -253.712
  endloop
endfacet
facet normal 0 1 0
  outer loop
    vertex -365.249 235.711 -237.045
    vertex -382.511 235.711 -253.712
    vertex -394.415 235.711 -232.878
  endloop
endfacet
facet normal 0 1 0
  outer loop
    vertex -365.249 235.711 -237.045
    vertex -365.249 235.711 -270.378
    vertex -382.511 235.711 -253.712
  endloop
endfacet
facet normal 0 1 0
  outer loop
    vertex -431.915 235.711 -303.712
    vertex -415.249 235.711 -286.45
    vertex -398.582 235.711 -303.712
  endloop
endfacet
facet normal 0 1 -0
  outer loop
    vertex -431.915 235.711 -303.712
    vertex -436.082 235.711 -274.545
    vertex -415.249 235.711 -286.45
  endloop
endfacet
facet normal 0 1 -0
  outer loop
    vertex -398.582 235.711 -303.712
    vertex -415.249 235.711 -286.45
    vertex -390.348 235.711 -278.613
  endloop
endfacet
facet normal -0 1 0
  outer loop
    vertex -465.249 235.711 -270.378
    vertex -443.582 235.711 -253.712
    vertex -436.082 235.711 -274.545
  endloop
endfacet
facet normal 0 1 0
  outer loop
    vertex -465.249 235.711 -303.712
    vertex -465.249 235.711 -270.378
    vertex -436.082 235.711 -274.545
  endloop
endfacet
facet normal 0 1 0
  outer loop
    vertex -431.915 235.711 -203.712
    vertex -415.249 235.711 -222.12
    vertex -436.082 235.711 -232.878
  endloop
endfacet
facet normal -0 1 0
  outer loop
    vertex -465.249 235.711 -203.712
    vertex -431.915 235.711 -203.712
    vertex -436.082 235.711 -232.878
  endloop
endfacet
facet normal 0 1 0
  outer loop
    vertex -465.249 235.711 -303.712
    vertex -436.082 235.711 -274.545
    vertex -431.915 235.711 -303.712
  endloop
endfacet
facet normal 0 1 0
  outer loop
    vertex -365.249 235.711 -303.712
    vertex -398.582 235.711 -303.712
    vertex -390.348 235.711 -278.613
  endloop
endfacet
facet normal 0 1 -0
  outer loop
    vertex -365.249 235.711 -303.712
    vertex -390.348 235.711 -278.613
    vertex -365.249 235.711 -270.378
  endloop
endfacet
facet normal 0 1 0
  outer loop
    vertex -365.249 235.711 -203.712
    vertex -365.249 235.711 -237.045
    vertex -394.415 235.711 -232.878
  endloop
endfacet
facet normal 0 0 -1
  outer loop
    vertex -415.249 285.711 -203.712
    vertex -440.15 260.81 -203.712
    vertex -447.987 285.711 -203.712
  endloop
endfacet
facet normal 0 -0 -1
  outer loop
    vertex -415.249 285.711 -203.712
    vertex -415.249 252.973 -203.712
    vertex -440.15 260.81 -203.712
  endloop
endfacet
facet normal 0 0 -1
  outer loop
    vertex -415.249 285.711 -203.712
    vertex -390.348 310.612 -203.712
    vertex -382.511 285.711 -203.712
  endloop
endfacet
facet normal 0 0 -1
  outer loop
    vertex -415.249 285.711 -203.712
    vertex -415.249 318.449 -203.712
    vertex -390.348 310.612 -203.712
  endloop
endfacet
facet normal 0 0 -1
  outer loop
    vertex -415.249 285.711 -203.712
    vertex -393.357 263.819 -203.712
    vertex -415.249 252.973 -203.712
  endloop
endfacet
facet normal 0 0 -1
  outer loop
    vertex -415.249 285.711 -203.712
    vertex -382.511 285.711 -203.712
    vertex -393.357 263.819 -203.712
  endloop
endfacet
facet normal -0 0 -1
  outer loop
    vertex -415.249 285.711 -203.712
    vertex -447.987 285.711 -203.712
    vertex -436.082 306.544 -203.712
  endloop
endfacet
facet normal 0 0 -1
  outer loop
    vertex -415.249 285.711 -203.712
    vertex -436.082 306.544 -203.712
    vertex -415.249 318.449 -203.712
  endloop
endfacet
facet normal 0 0 -1
  outer loop
    vertex -465.249 235.711 -203.712
    vertex -440.15 260.81 -203.712
    vertex -431.915 235.711 -203.712
  endloop
endfacet
facet normal 0 0 -1
  outer loop
    vertex -431.915 235.711 -203.712
    vertex -440.15 260.81 -203.712
    vertex -415.249 252.973 -203.712
  endloop
endfacet
facet normal 0 0 -1
  outer loop
    vertex -465.249 235.711 -203.712
    vertex -465.249 269.044 -203.712
    vertex -440.15 260.81 -203.712
  endloop
endfacet
facet normal 0 0 -1
  outer loop
    vertex -465.249 269.044 -203.712
    vertex -447.987 285.711 -203.712
    vertex -440.15 260.81 -203.712
  endloop
endfacet
facet normal -0 0 -1
  outer loop
    vertex -365.249 335.711 -203.712
    vertex -390.348 310.612 -203.712
    vertex -398.582 335.711 -203.712
  endloop
endfacet
facet normal 0 -0 -1
  outer loop
    vertex -398.582 335.711 -203.712
    vertex -390.348 310.612 -203.712
    vertex -415.249 318.449 -203.712
  endloop
endfacet
facet normal 0 -0 -1
  outer loop
    vertex -365.249 335.711 -203.712
    vertex -365.249 302.378 -203.712
    vertex -390.348 310.612 -203.712
  endloop
endfacet
facet normal -0 0 -1
  outer loop
    vertex -365.249 302.378 -203.712
    vertex -382.511 285.711 -203.712
    vertex -390.348 310.612 -203.712
  endloop
endfacet
facet normal 0 0 -1
  outer loop
    vertex -365.249 235.711 -203.712
    vertex -398.582 235.711 -203.712
    vertex -393.357 263.819 -203.712
  endloop
endfacet
facet normal 0 0 -1
  outer loop
    vertex -398.582 235.711 -203.712
    vertex -415.249 252.973 -203.712
    vertex -393.357 263.819 -203.712
  endloop
endfacet
facet normal 0 0 -1
  outer loop
    vertex -365.249 235.711 -203.712
    vertex -393.357 263.819 -203.712
    vertex -365.249 269.044 -203.712
  endloop
endfacet
facet normal -0 0 -1
  outer loop
    vertex -365.249 269.044 -203.712
    vertex -393.357 263.819 -203.712
    vertex -382.511 285.711 -203.712
  endloop
endfacet
facet normal 0 0 -1
  outer loop
    vertex -398.582 235.711 -203.712
    vertex -431.915 235.711 -203.712
    vertex -415.249 252.973 -203.712
  endloop
endfacet
facet normal 0 0 -1
  outer loop
    vertex -431.915 335.711 -203.712
    vertex -398.582 335.711 -203.712
    vertex -415.249 318.449 -203.712
  endloop
endfacet
facet normal 0 0 -1
  outer loop
    vertex -465.249 335.711 -203.712
    vertex -431.915 335.711 -203.712
    vertex -436.082 306.544 -203.712
  endloop
endfacet
facet normal 0 -0 -1
  outer loop
    vertex -431.915 335.711 -203.712
    vertex -415.249 318.449 -203.712
    vertex -436.082 306.544 -203.712
  endloop
endfacet
facet normal 0 0 -1
  outer loop
    vertex -465.249 269.044 -203.712
    vertex -465.249 302.378 -203.712
    vertex -447.987 285.711 -203.712
  endloop
endfacet
facet normal 0 0 -1
  outer loop
    vertex -465.249 335.711 -203.712
    vertex -436.082 306.544 -203.712
    vertex -465.249 302.378 -203.712
  endloop
endfacet
facet normal 0 0 -1
  outer loop
    vertex -465.249 302.378 -203.712
    vertex -436.082 306.544 -203.712
    vertex -447.987 285.711 -203.712
  endloop
endfacet
facet normal 0 -0 -1
  outer loop
    vertex -365.249 302.378 -203.712
    vertex -365.249 269.044 -203.712
    vertex -382.511 285.711 -203.712
  endloop
endfacet
facet normal 0 0 1
  outer loop
    vertex -398.582 335.711 -303.712
    vertex -431.915 335.711 -303.712
    vertex -415.249 318.449 -303.712
  endloop
endfacet
facet normal -0 0 1
  outer loop
    vertex -465.249 335.711 -303.712
    vertex -440.15 310.612 -303.712
    vertex -431.915 335.711 -303.712
  endloop
endfacet
facet normal 0 0 1
  outer loop
    vertex -431.915 335.711 -303.712
    vertex -440.15 310.612 -303.712
    vertex -415.249 318.449 -303.712
  endloop
endfacet
facet normal 0 0 1
  outer loop
    vertex -431.915 235.711 -303.712
    vertex -398.582 235.711 -303.712
    vertex -415.249 252.973 -303.712
  endloop
endfacet
facet normal 0 0 1
  outer loop
    vertex -465.249 235.711 -303.712
    vertex -431.915 235.711 -303.712
    vertex -437.141 263.819 -303.712
  endloop
endfacet
facet normal 0 -0 1
  outer loop
    vertex -431.915 235.711 -303.712
    vertex -415.249 252.973 -303.712
    vertex -437.141 263.819 -303.712
  endloop
endfacet
facet normal 0 0 1
  outer loop
    vertex -365.249 235.711 -303.712
    vertex -390.348 260.81 -303.712
    vertex -398.582 235.711 -303.712
  endloop
endfacet
facet normal 0 -0 1
  outer loop
    vertex -398.582 235.711 -303.712
    vertex -390.348 260.81 -303.712
    vertex -415.249 252.973 -303.712
  endloop
endfacet
facet normal 0 0 1
  outer loop
    vertex -465.249 302.378 -303.712
    vertex -465.249 269.044 -303.712
    vertex -447.987 285.711 -303.712
  endloop
endfacet
facet normal 0 0 1
  outer loop
    vertex -465.249 235.711 -303.712
    vertex -437.141 263.819 -303.712
    vertex -465.249 269.044 -303.712
  endloop
endfacet
facet normal -0 0 1
  outer loop
    vertex -465.249 269.044 -303.712
    vertex -437.141 263.819 -303.712
    vertex -447.987 285.711 -303.712
  endloop
endfacet
facet normal 0 0 1
  outer loop
    vertex -365.249 335.711 -303.712
    vertex -398.582 335.711 -303.712
    vertex -394.415 306.544 -303.712
  endloop
endfacet
facet normal 0 0 1
  outer loop
    vertex -398.582 335.711 -303.712
    vertex -415.249 318.449 -303.712
    vertex -394.415 306.544 -303.712
  endloop
endfacet
facet normal 0 -0 1
  outer loop
    vertex -365.249 269.044 -303.712
    vertex -365.249 302.378 -303.712
    vertex -382.511 285.711 -303.712
  endloop
endfacet
facet normal 0 -0 1
  outer loop
    vertex -365.249 235.711 -303.712
    vertex -365.249 269.044 -303.712
    vertex -390.348 260.81 -303.712
  endloop
endfacet
facet normal 0 0 1
  outer loop
    vertex -365.249 269.044 -303.712
    vertex -382.511 285.711 -303.712
    vertex -390.348 260.81 -303.712
  endloop
endfacet
facet normal 0 0 1
  outer loop
    vertex -365.249 335.711 -303.712
    vertex -394.415 306.544 -303.712
    vertex -365.249 302.378 -303.712
  endloop
endfacet
facet normal 0 0 1
  outer loop
    vertex -365.249 302.378 -303.712
    vertex -394.415 306.544 -303.712
    vertex -382.511 285.711 -303.712
  endloop
endfacet
facet normal 0 0 1
  outer loop
    vertex -465.249 335.711 -303.712
    vertex -465.249 302.378 -303.712
    vertex -440.15 310.612 -303.712
  endloop
endfacet
facet normal -0 0 1
  outer loop
    vertex -465.249 302.378 -303.712
    vertex -447.987 285.711 -303.712
    vertex -440.15 310.612 -303.712
  endloop
endfacet
facet normal 0 -0 1
  outer loop
    vertex -415.249 285.711 -303.712
    vertex -394.415 306.544 -303.712
    vertex -415.249 318.449 -303.712
  endloop
endfacet
facet normal 0 0 1
  outer loop
    vertex -415.249 285.711 -303.712
    vertex -415.249 318.449 -303.712
    vertex -440.15 310.612 -303.712
  endloop
endfacet
facet normal -0 0 1
  outer loop
    vertex -415.249 285.711 -303.712
    vertex -382.511 285.711 -303.712
    vertex -394.415 306.544 -303.712
  endloop
endfacet
facet normal 0 0 1
  outer loop
    vertex -415.249 285.711 -303.712
    vertex -440.15 310.612 -303.712
    vertex -447.987 285.711 -303.712
  endloop
endfacet
facet normal 0 0 1
  outer loop
    vertex -415.249 285.711 -303.712
    vertex -390.348 260.81 -303.712
    vertex -382.511 285.711 -303.712
  endloop
endfacet
facet normal 0 0 1
  outer loop
    vertex -415.249 285.711 -303.712
    vertex -415.249 252.973 -303.712
    vertex -390.348 260.81 -303.712
  endloop
endfacet
facet normal 0 0 1
  outer loop
    vertex -415.249 285.711 -303.712
    vertex -447.987 285.711 -303.712
    vertex -437.141 263.819 -303.712
  endloop
endfacet
facet normal 0 0 1
  outer loop
    vertex -415.249 285.711 -303.712
    vertex -437.141 263.819 -303.712
    vertex -415.249 252.973 -303.712
  endloop
endfacet
endsolid Created by Gmsh
