solid Created by Gmsh
facet normal 0.297603 0.628668 0.718477
  outer loop
    vertex -480.815 444.528 -601.004
    vertex -487.002 434.528 -589.691
    vertex -468.441 434.528 -597.379
  endloop
endfacet
facet normal 0.297603 0.628668 0.718477
  outer loop
    vertex -487.002 434.528 -589.691
    vertex -472.137 416.476 -580.053
    vertex -468.441 434.528 -597.379
  endloop
endfacet
facet normal 0.297603 0.628668 0.718477
  outer loop
    vertex -468.441 434.528 -597.379
    vertex -472.137 416.476 -580.053
    vertex -449.879 404.528 -578.818
  endloop
endfacet
facet normal 0.297603 0.628668 0.718477
  outer loop
    vertex -480.815 444.528 -601.004
    vertex -468.441 434.528 -597.379
    vertex -487.002 464.528 -615.941
  endloop
endfacet
facet normal 0.297603 0.628668 0.718477
  outer loop
    vertex -487.002 404.528 -563.441
    vertex -472.137 416.476 -580.053
    vertex -487.002 434.528 -589.691
  endloop
endfacet
facet normal 0.297603 0.628668 0.718477
  outer loop
    vertex -487.002 434.528 -589.691
    vertex -480.815 444.528 -601.004
    vertex -487.002 464.528 -615.941
  endloop
endfacet
facet normal 0.297603 0.628668 0.718477
  outer loop
    vertex -487.002 374.528 -537.191
    vertex -462.394 384.983 -556.532
    vertex -487.002 404.528 -563.441
  endloop
endfacet
facet normal 0.297603 0.628668 0.718477
  outer loop
    vertex -462.394 384.983 -556.532
    vertex -472.137 416.476 -580.053
    vertex -487.002 404.528 -563.441
  endloop
endfacet
facet normal 0.297603 0.628668 0.718477
  outer loop
    vertex -487.002 344.528 -510.941
    vertex -449.879 344.528 -526.318
    vertex -487.002 374.528 -537.191
  endloop
endfacet
facet normal 0.297603 0.628668 0.718477
  outer loop
    vertex -462.394 384.983 -556.532
    vertex -487.002 374.528 -537.191
    vertex -449.879 344.528 -526.318
  endloop
endfacet
facet normal 0.297603 0.628668 0.718477
  outer loop
    vertex -449.879 404.528 -578.818
    vertex -462.394 384.983 -556.532
    vertex -431.318 374.528 -560.256
  endloop
endfacet
facet normal 0.297603 0.628668 0.718477
  outer loop
    vertex -472.137 416.476 -580.053
    vertex -462.394 384.983 -556.532
    vertex -449.879 404.528 -578.818
  endloop
endfacet
facet normal 0.297603 0.628668 0.718477
  outer loop
    vertex -412.756 344.528 -541.695
    vertex -431.318 374.528 -560.256
    vertex -449.879 344.528 -526.318
  endloop
endfacet
facet normal 0.297603 0.628668 0.718477
  outer loop
    vertex -431.318 374.528 -560.256
    vertex -462.394 384.983 -556.532
    vertex -449.879 344.528 -526.318
  endloop
endfacet
facet normal 0.718477 0.628668 0.297603
  outer loop
    vertex -434.502 404.528 -615.941
    vertex -427.593 384.983 -591.333
    vertex -408.252 374.528 -615.941
  endloop
endfacet
facet normal 0.718477 0.628668 0.297603
  outer loop
    vertex -397.379 344.528 -578.818
    vertex -382.002 344.528 -615.941
    vertex -408.252 374.528 -615.941
  endloop
endfacet
facet normal 0.718477 0.628668 0.297603
  outer loop
    vertex -408.252 374.528 -615.941
    vertex -427.593 384.983 -591.333
    vertex -397.379 344.528 -578.818
  endloop
endfacet
facet normal 0.718477 0.628668 0.297603
  outer loop
    vertex -460.752 434.528 -615.941
    vertex -451.115 416.476 -601.076
    vertex -434.502 404.528 -615.941
  endloop
endfacet
facet normal 0.718477 0.628668 0.297603
  outer loop
    vertex -451.115 416.476 -601.076
    vertex -427.593 384.983 -591.333
    vertex -434.502 404.528 -615.941
  endloop
endfacet
facet normal 0.718477 0.628668 0.297603
  outer loop
    vertex -451.115 416.476 -601.076
    vertex -468.441 434.528 -597.379
    vertex -449.879 404.528 -578.818
  endloop
endfacet
facet normal 0.718477 0.628668 0.297603
  outer loop
    vertex -451.115 416.476 -601.076
    vertex -460.752 434.528 -615.941
    vertex -468.441 434.528 -597.379
  endloop
endfacet
facet normal 0.718477 0.628668 0.297603
  outer loop
    vertex -460.752 434.528 -615.941
    vertex -472.065 444.528 -609.754
    vertex -468.441 434.528 -597.379
  endloop
endfacet
facet normal 0.718477 0.628668 0.297603
  outer loop
    vertex -468.441 434.528 -597.379
    vertex -472.065 444.528 -609.754
    vertex -487.002 464.528 -615.941
  endloop
endfacet
facet normal 0.718477 0.628668 0.297603
  outer loop
    vertex -427.593 384.983 -591.333
    vertex -449.879 404.528 -578.818
    vertex -431.318 374.528 -560.256
  endloop
endfacet
facet normal 0.718477 0.628668 0.297603
  outer loop
    vertex -427.593 384.983 -591.333
    vertex -451.115 416.476 -601.076
    vertex -449.879 404.528 -578.818
  endloop
endfacet
facet normal 0.718477 0.628668 0.297603
  outer loop
    vertex -412.756 344.528 -541.695
    vertex -397.379 344.528 -578.818
    vertex -431.318 374.528 -560.256
  endloop
endfacet
facet normal 0.718477 0.628668 0.297603
  outer loop
    vertex -397.379 344.528 -578.818
    vertex -427.593 384.983 -591.333
    vertex -431.318 374.528 -560.256
  endloop
endfacet
facet normal 0.718477 0.628668 0.297603
  outer loop
    vertex -472.065 444.528 -609.754
    vertex -460.752 434.528 -615.941
    vertex -487.002 464.528 -615.941
  endloop
endfacet
facet normal 0.718477 0.628668 -0.297603
  outer loop
    vertex -408.252 374.528 -615.941
    vertex -427.593 384.983 -640.549
    vertex -434.502 404.528 -615.941
  endloop
endfacet
facet normal 0.718477 0.628668 -0.297603
  outer loop
    vertex -408.252 374.528 -615.941
    vertex -382.002 344.528 -615.941
    vertex -397.379 344.528 -653.064
  endloop
endfacet
facet normal 0.718477 0.628668 -0.297603
  outer loop
    vertex -408.252 374.528 -615.941
    vertex -397.379 344.528 -653.064
    vertex -427.593 384.983 -640.549
  endloop
endfacet
facet normal 0.718477 0.628668 -0.297603
  outer loop
    vertex -434.502 404.528 -615.941
    vertex -451.115 416.476 -630.806
    vertex -460.752 434.528 -615.941
  endloop
endfacet
facet normal 0.718477 0.628668 -0.297603
  outer loop
    vertex -434.502 404.528 -615.941
    vertex -427.593 384.983 -640.549
    vertex -451.115 416.476 -630.806
  endloop
endfacet
facet normal 0.718477 0.628668 -0.297603
  outer loop
    vertex -487.002 464.528 -615.941
    vertex -460.752 434.528 -615.941
    vertex -472.065 444.528 -622.128
  endloop
endfacet
facet normal 0.718477 0.628668 -0.297603
  outer loop
    vertex -460.752 434.528 -615.941
    vertex -468.441 434.528 -634.502
    vertex -472.065 444.528 -622.128
  endloop
endfacet
facet normal 0.718477 0.628668 -0.297603
  outer loop
    vertex -460.752 434.528 -615.941
    vertex -451.115 416.476 -630.806
    vertex -468.441 434.528 -634.502
  endloop
endfacet
facet normal 0.718477 0.628668 -0.297603
  outer loop
    vertex -431.318 374.528 -671.626
    vertex -397.379 344.528 -653.064
    vertex -412.756 344.528 -690.187
  endloop
endfacet
facet normal 0.718477 0.628668 -0.297603
  outer loop
    vertex -487.002 464.528 -615.941
    vertex -472.065 444.528 -622.128
    vertex -468.441 434.528 -634.502
  endloop
endfacet
facet normal 0.718477 0.628668 -0.297603
  outer loop
    vertex -431.318 374.528 -671.626
    vertex -449.879 404.528 -653.064
    vertex -427.593 384.983 -640.549
  endloop
endfacet
facet normal 0.718477 0.628668 -0.297603
  outer loop
    vertex -449.879 404.528 -653.064
    vertex -468.441 434.528 -634.502
    vertex -451.115 416.476 -630.806
  endloop
endfacet
facet normal 0.718477 0.628668 -0.297603
  outer loop
    vertex -449.879 404.528 -653.064
    vertex -451.115 416.476 -630.806
    vertex -427.593 384.983 -640.549
  endloop
endfacet
facet normal 0.718477 0.628668 -0.297603
  outer loop
    vertex -397.379 344.528 -653.064
    vertex -431.318 374.528 -671.626
    vertex -427.593 384.983 -640.549
  endloop
endfacet
facet normal 0.297603 0.628668 -0.718477
  outer loop
    vertex -431.318 374.528 -671.626
    vertex -412.756 344.528 -690.187
    vertex -449.879 344.528 -705.564
  endloop
endfacet
facet normal 0.297603 0.628668 -0.718477
  outer loop
    vertex -480.815 444.528 -630.878
    vertex -487.002 434.528 -642.191
    vertex -487.002 464.528 -615.941
  endloop
endfacet
facet normal 0.297603 0.628668 -0.718477
  outer loop
    vertex -468.441 434.528 -634.502
    vertex -480.815 444.528 -630.878
    vertex -487.002 464.528 -615.941
  endloop
endfacet
facet normal 0.297603 0.628668 -0.718477
  outer loop
    vertex -449.879 344.528 -705.564
    vertex -487.002 344.528 -720.941
    vertex -487.002 374.528 -694.691
  endloop
endfacet
facet normal 0.297603 0.628668 -0.718477
  outer loop
    vertex -462.394 384.983 -675.35
    vertex -449.879 404.528 -653.064
    vertex -431.318 374.528 -671.626
  endloop
endfacet
facet normal 0.297603 0.628668 -0.718477
  outer loop
    vertex -472.137 416.476 -651.829
    vertex -468.441 434.528 -634.502
    vertex -449.879 404.528 -653.064
  endloop
endfacet
facet normal 0.297603 0.628668 -0.718477
  outer loop
    vertex -462.394 384.983 -675.35
    vertex -472.137 416.476 -651.829
    vertex -449.879 404.528 -653.064
  endloop
endfacet
facet normal 0.297603 0.628668 -0.718477
  outer loop
    vertex -449.879 344.528 -705.564
    vertex -462.394 384.983 -675.35
    vertex -431.318 374.528 -671.626
  endloop
endfacet
facet normal 0.297603 0.628668 -0.718477
  outer loop
    vertex -472.137 416.476 -651.829
    vertex -487.002 434.528 -642.191
    vertex -468.441 434.528 -634.502
  endloop
endfacet
facet normal 0.297603 0.628668 -0.718477
  outer loop
    vertex -487.002 434.528 -642.191
    vertex -480.815 444.528 -630.878
    vertex -468.441 434.528 -634.502
  endloop
endfacet
facet normal 0.297603 0.628668 -0.718477
  outer loop
    vertex -487.002 434.528 -642.191
    vertex -472.137 416.476 -651.829
    vertex -487.002 404.528 -668.441
  endloop
endfacet
facet normal 0.297603 0.628668 -0.718477
  outer loop
    vertex -487.002 374.528 -694.691
    vertex -462.394 384.983 -675.35
    vertex -449.879 344.528 -705.564
  endloop
endfacet
facet normal 0.297603 0.628668 -0.718477
  outer loop
    vertex -487.002 404.528 -668.441
    vertex -462.394 384.983 -675.35
    vertex -487.002 374.528 -694.691
  endloop
endfacet
facet normal 0.297603 0.628668 -0.718477
  outer loop
    vertex -472.137 416.476 -651.829
    vertex -462.394 384.983 -675.35
    vertex -487.002 404.528 -668.441
  endloop
endfacet
facet normal -0.297603 0.628668 -0.718477
  outer loop
    vertex -561.249 344.528 -690.187
    vertex -542.687 374.528 -671.626
    vertex -524.125 344.528 -705.564
  endloop
endfacet
facet normal -0.297603 0.628668 -0.718477
  outer loop
    vertex -487.002 464.528 -615.941
    vertex -493.19 444.528 -630.878
    vertex -505.564 434.528 -634.502
  endloop
endfacet
facet normal -0.297603 0.628668 -0.718477
  outer loop
    vertex -487.002 464.528 -615.941
    vertex -487.002 434.528 -642.191
    vertex -493.19 444.528 -630.878
  endloop
endfacet
facet normal -0.297603 0.628668 -0.718477
  outer loop
    vertex -524.125 344.528 -705.564
    vertex -487.002 374.528 -694.691
    vertex -487.002 344.528 -720.941
  endloop
endfacet
facet normal -0.297603 0.628668 -0.718477
  outer loop
    vertex -524.125 404.528 -653.064
    vertex -505.564 434.528 -634.502
    vertex -501.868 416.476 -651.829
  endloop
endfacet
facet normal -0.297603 0.628668 -0.718477
  outer loop
    vertex -487.002 434.528 -642.191
    vertex -501.868 416.476 -651.829
    vertex -505.564 434.528 -634.502
  endloop
endfacet
facet normal -0.297603 0.628668 -0.718477
  outer loop
    vertex -487.002 434.528 -642.191
    vertex -505.564 434.528 -634.502
    vertex -493.19 444.528 -630.878
  endloop
endfacet
facet normal -0.297603 0.628668 -0.718477
  outer loop
    vertex -542.687 374.528 -671.626
    vertex -524.125 404.528 -653.064
    vertex -511.61 384.983 -675.35
  endloop
endfacet
facet normal -0.297603 0.628668 -0.718477
  outer loop
    vertex -524.125 404.528 -653.064
    vertex -501.868 416.476 -651.829
    vertex -511.61 384.983 -675.35
  endloop
endfacet
facet normal -0.297603 0.628668 -0.718477
  outer loop
    vertex -524.125 344.528 -705.564
    vertex -542.687 374.528 -671.626
    vertex -511.61 384.983 -675.35
  endloop
endfacet
facet normal -0.297603 0.628668 -0.718477
  outer loop
    vertex -487.002 374.528 -694.691
    vertex -524.125 344.528 -705.564
    vertex -511.61 384.983 -675.35
  endloop
endfacet
facet normal -0.297603 0.628668 -0.718477
  outer loop
    vertex -487.002 404.528 -668.441
    vertex -501.868 416.476 -651.829
    vertex -487.002 434.528 -642.191
  endloop
endfacet
facet normal -0.297603 0.628668 -0.718477
  outer loop
    vertex -487.002 374.528 -694.691
    vertex -511.61 384.983 -675.35
    vertex -487.002 404.528 -668.441
  endloop
endfacet
facet normal -0.297603 0.628668 -0.718477
  outer loop
    vertex -487.002 404.528 -668.441
    vertex -511.61 384.983 -675.35
    vertex -501.868 416.476 -651.829
  endloop
endfacet
facet normal -0.718477 0.628668 -0.297603
  outer loop
    vertex -542.687 374.528 -671.626
    vertex -561.249 344.528 -690.187
    vertex -576.625 344.528 -653.064
  endloop
endfacet
facet normal -0.718477 0.628668 -0.297603
  outer loop
    vertex -505.564 434.528 -634.502
    vertex -501.94 444.528 -622.128
    vertex -487.002 464.528 -615.941
  endloop
endfacet
facet normal -0.718477 0.628668 -0.297603
  outer loop
    vertex -501.94 444.528 -622.128
    vertex -513.252 434.528 -615.941
    vertex -487.002 464.528 -615.941
  endloop
endfacet
facet normal -0.718477 0.628668 -0.297603
  outer loop
    vertex -565.752 374.528 -615.941
    vertex -576.625 344.528 -653.064
    vertex -592.002 344.528 -615.941
  endloop
endfacet
facet normal -0.718477 0.628668 -0.297603
  outer loop
    vertex -539.502 404.528 -615.941
    vertex -546.411 384.983 -640.549
    vertex -565.752 374.528 -615.941
  endloop
endfacet
facet normal -0.718477 0.628668 -0.297603
  outer loop
    vertex -565.752 374.528 -615.941
    vertex -546.411 384.983 -640.549
    vertex -576.625 344.528 -653.064
  endloop
endfacet
facet normal -0.718477 0.628668 -0.297603
  outer loop
    vertex -522.89 416.476 -630.806
    vertex -505.564 434.528 -634.502
    vertex -524.125 404.528 -653.064
  endloop
endfacet
facet normal -0.718477 0.628668 -0.297603
  outer loop
    vertex -522.89 416.476 -630.806
    vertex -513.252 434.528 -615.941
    vertex -505.564 434.528 -634.502
  endloop
endfacet
facet normal -0.718477 0.628668 -0.297603
  outer loop
    vertex -513.252 434.528 -615.941
    vertex -501.94 444.528 -622.128
    vertex -505.564 434.528 -634.502
  endloop
endfacet
facet normal -0.718477 0.628668 -0.297603
  outer loop
    vertex -546.411 384.983 -640.549
    vertex -524.125 404.528 -653.064
    vertex -542.687 374.528 -671.626
  endloop
endfacet
facet normal -0.718477 0.628668 -0.297603
  outer loop
    vertex -546.411 384.983 -640.549
    vertex -522.89 416.476 -630.806
    vertex -524.125 404.528 -653.064
  endloop
endfacet
facet normal -0.718477 0.628668 -0.297603
  outer loop
    vertex -513.252 434.528 -615.941
    vertex -522.89 416.476 -630.806
    vertex -539.502 404.528 -615.941
  endloop
endfacet
facet normal -0.718477 0.628668 -0.297603
  outer loop
    vertex -522.89 416.476 -630.806
    vertex -546.411 384.983 -640.549
    vertex -539.502 404.528 -615.941
  endloop
endfacet
facet normal -0.718477 0.628668 -0.297603
  outer loop
    vertex -576.625 344.528 -653.064
    vertex -546.411 384.983 -640.549
    vertex -542.687 374.528 -671.626
  endloop
endfacet
facet normal -0.718477 0.628668 0.297603
  outer loop
    vertex -576.625 344.528 -578.818
    vertex -561.249 344.528 -541.695
    vertex -542.687 374.528 -560.256
  endloop
endfacet
facet normal -0.718477 0.628668 0.297603
  outer loop
    vertex -487.002 464.528 -615.941
    vertex -513.252 434.528 -615.941
    vertex -501.94 444.528 -609.754
  endloop
endfacet
facet normal -0.718477 0.628668 0.297603
  outer loop
    vertex -487.002 464.528 -615.941
    vertex -501.94 444.528 -609.754
    vertex -505.564 434.528 -597.379
  endloop
endfacet
facet normal -0.718477 0.628668 0.297603
  outer loop
    vertex -592.002 344.528 -615.941
    vertex -576.625 344.528 -578.818
    vertex -565.752 374.528 -615.941
  endloop
endfacet
facet normal -0.718477 0.628668 0.297603
  outer loop
    vertex -565.752 374.528 -615.941
    vertex -546.411 384.983 -591.333
    vertex -539.502 404.528 -615.941
  endloop
endfacet
facet normal -0.718477 0.628668 0.297603
  outer loop
    vertex -565.752 374.528 -615.941
    vertex -576.625 344.528 -578.818
    vertex -546.411 384.983 -591.333
  endloop
endfacet
facet normal -0.718477 0.628668 0.297603
  outer loop
    vertex -539.502 404.528 -615.941
    vertex -522.89 416.476 -601.076
    vertex -513.252 434.528 -615.941
  endloop
endfacet
facet normal -0.718477 0.628668 0.297603
  outer loop
    vertex -539.502 404.528 -615.941
    vertex -546.411 384.983 -591.333
    vertex -522.89 416.476 -601.076
  endloop
endfacet
facet normal -0.718477 0.628668 0.297603
  outer loop
    vertex -576.625 344.528 -578.818
    vertex -542.687 374.528 -560.256
    vertex -546.411 384.983 -591.333
  endloop
endfacet
facet normal -0.718477 0.628668 0.297603
  outer loop
    vertex -542.687 374.528 -560.256
    vertex -524.125 404.528 -578.818
    vertex -546.411 384.983 -591.333
  endloop
endfacet
facet normal -0.718477 0.628668 0.297603
  outer loop
    vertex -524.125 404.528 -578.818
    vertex -505.564 434.528 -597.379
    vertex -522.89 416.476 -601.076
  endloop
endfacet
facet normal -0.718477 0.628668 0.297603
  outer loop
    vertex -524.125 404.528 -578.818
    vertex -522.89 416.476 -601.076
    vertex -546.411 384.983 -591.333
  endloop
endfacet
facet normal -0.718477 0.628668 0.297603
  outer loop
    vertex -513.252 434.528 -615.941
    vertex -505.564 434.528 -597.379
    vertex -501.94 444.528 -609.754
  endloop
endfacet
facet normal -0.718477 0.628668 0.297603
  outer loop
    vertex -513.252 434.528 -615.941
    vertex -522.89 416.476 -601.076
    vertex -505.564 434.528 -597.379
  endloop
endfacet
facet normal -0.297603 0.628668 0.718477
  outer loop
    vertex -487.002 434.528 -589.691
    vertex -501.868 416.476 -580.053
    vertex -487.002 404.528 -563.441
  endloop
endfacet
facet normal -0.297603 0.628668 0.718477
  outer loop
    vertex -487.002 464.528 -615.941
    vertex -493.19 444.528 -601.004
    vertex -487.002 434.528 -589.691
  endloop
endfacet
facet normal -0.297603 0.628668 0.718477
  outer loop
    vertex -487.002 434.528 -589.691
    vertex -493.19 444.528 -601.004
    vertex -505.564 434.528 -597.379
  endloop
endfacet
facet normal -0.297603 0.628668 0.718477
  outer loop
    vertex -487.002 434.528 -589.691
    vertex -505.564 434.528 -597.379
    vertex -501.868 416.476 -580.053
  endloop
endfacet
facet normal -0.297603 0.628668 0.718477
  outer loop
    vertex -487.002 404.528 -563.441
    vertex -511.61 384.983 -556.532
    vertex -487.002 374.528 -537.191
  endloop
endfacet
facet normal -0.297603 0.628668 0.718477
  outer loop
    vertex -487.002 404.528 -563.441
    vertex -501.868 416.476 -580.053
    vertex -511.61 384.983 -556.532
  endloop
endfacet
facet normal -0.297603 0.628668 0.718477
  outer loop
    vertex -524.125 344.528 -526.318
    vertex -487.002 344.528 -510.941
    vertex -487.002 374.528 -537.191
  endloop
endfacet
facet normal -0.297603 0.628668 0.718477
  outer loop
    vertex -487.002 374.528 -537.191
    vertex -511.61 384.983 -556.532
    vertex -524.125 344.528 -526.318
  endloop
endfacet
facet normal -0.297603 0.628668 0.718477
  outer loop
    vertex -561.249 344.528 -541.695
    vertex -524.125 344.528 -526.318
    vertex -542.687 374.528 -560.256
  endloop
endfacet
facet normal -0.297603 0.628668 0.718477
  outer loop
    vertex -487.002 464.528 -615.941
    vertex -505.564 434.528 -597.379
    vertex -493.19 444.528 -601.004
  endloop
endfacet
facet normal -0.297603 0.628668 0.718477
  outer loop
    vertex -542.687 374.528 -560.256
    vertex -524.125 344.528 -526.318
    vertex -511.61 384.983 -556.532
  endloop
endfacet
facet normal -0.297603 0.628668 0.718477
  outer loop
    vertex -542.687 374.528 -560.256
    vertex -511.61 384.983 -556.532
    vertex -524.125 404.528 -578.818
  endloop
endfacet
facet normal -0.297603 0.628668 0.718477
  outer loop
    vertex -524.125 404.528 -578.818
    vertex -501.868 416.476 -580.053
    vertex -505.564 434.528 -597.379
  endloop
endfacet
facet normal -0.297603 0.628668 0.718477
  outer loop
    vertex -524.125 404.528 -578.818
    vertex -511.61 384.983 -556.532
    vertex -501.868 416.476 -580.053
  endloop
endfacet
facet normal 0 1 0
  outer loop
    vertex -382.002 344.528 -615.941
    vertex -426.092 344.528 -615.941
    vertex -397.379 344.528 -578.818
  endloop
endfacet
facet normal 0 1 0
  outer loop
    vertex -412.756 344.528 -541.695
    vertex -397.379 344.528 -578.818
    vertex -439.107 344.528 -553.707
  endloop
endfacet
facet normal 0 1 0
  outer loop
    vertex -397.379 344.528 -578.818
    vertex -426.092 344.528 -615.941
    vertex -449.95 344.528 -582.853
  endloop
endfacet
facet normal 0 1 0
  outer loop
    vertex -397.379 344.528 -578.818
    vertex -449.95 344.528 -582.853
    vertex -439.107 344.528 -553.707
  endloop
endfacet
facet normal 0 1 0
  outer loop
    vertex -412.756 344.528 -541.695
    vertex -439.107 344.528 -553.707
    vertex -449.879 344.528 -526.318
  endloop
endfacet
facet normal 0 1 0
  outer loop
    vertex -487.002 344.528 -510.941
    vertex -449.879 344.528 -526.318
    vertex -487.002 344.528 -555.031
  endloop
endfacet
facet normal 0 1 0
  outer loop
    vertex -449.879 344.528 -526.318
    vertex -439.107 344.528 -553.707
    vertex -487.002 344.528 -555.031
  endloop
endfacet
facet normal 0 1 0
  outer loop
    vertex -382.002 344.528 -615.941
    vertex -397.379 344.528 -653.064
    vertex -426.092 344.528 -615.941
  endloop
endfacet
facet normal 0 1 -0
  outer loop
    vertex -412.756 344.528 -690.187
    vertex -438.985 344.528 -677.558
    vertex -397.379 344.528 -653.064
  endloop
endfacet
facet normal 0 1 0
  outer loop
    vertex -412.756 344.528 -690.187
    vertex -449.879 344.528 -705.564
    vertex -438.985 344.528 -677.558
  endloop
endfacet
facet normal -0 1 0
  outer loop
    vertex -561.249 344.528 -690.187
    vertex -534.261 344.528 -676.405
    vertex -524.125 344.528 -705.564
  endloop
endfacet
facet normal 0 1 -0
  outer loop
    vertex -561.249 344.528 -690.187
    vertex -576.625 344.528 -653.064
    vertex -534.261 344.528 -676.405
  endloop
endfacet
facet normal -0 1 0
  outer loop
    vertex -561.249 344.528 -541.695
    vertex -524.125 344.528 -526.318
    vertex -535.013 344.528 -553.707
  endloop
endfacet
facet normal 0 1 0
  outer loop
    vertex -561.249 344.528 -541.695
    vertex -535.013 344.528 -553.707
    vertex -576.625 344.528 -578.818
  endloop
endfacet
facet normal 0 1 0
  outer loop
    vertex -487.002 344.528 -720.941
    vertex -524.125 344.528 -705.564
    vertex -487.002 344.528 -676.851
  endloop
endfacet
facet normal 0 1 -0
  outer loop
    vertex -487.002 344.528 -720.941
    vertex -487.002 344.528 -676.851
    vertex -449.879 344.528 -705.564
  endloop
endfacet
facet normal 0 1 0
  outer loop
    vertex -487.002 344.528 -510.941
    vertex -487.002 344.528 -555.031
    vertex -524.125 344.528 -526.318
  endloop
endfacet
facet normal 0 1 0
  outer loop
    vertex -592.002 344.528 -615.941
    vertex -576.625 344.528 -578.818
    vertex -549.636 344.528 -614.81
  endloop
endfacet
facet normal -0 1 0
  outer loop
    vertex -592.002 344.528 -615.941
    vertex -549.636 344.528 -614.81
    vertex -576.625 344.528 -653.064
  endloop
endfacet
facet normal 0 1 0
  outer loop
    vertex -576.625 344.528 -578.818
    vertex -526.278 344.528 -582.853
    vertex -549.636 344.528 -614.81
  endloop
endfacet
facet normal -0 1 0
  outer loop
    vertex -576.625 344.528 -578.818
    vertex -535.013 344.528 -553.707
    vertex -526.278 344.528 -582.853
  endloop
endfacet
facet normal 0 1 0
  outer loop
    vertex -526.278 344.528 -582.853
    vertex -515.78 344.528 -609.289
    vertex -549.636 344.528 -614.81
  endloop
endfacet
facet normal 0 1 -0
  outer loop
    vertex -526.278 344.528 -582.853
    vertex -535.013 344.528 -553.707
    vertex -487.002 344.528 -555.031
  endloop
endfacet
facet normal -0 1 0
  outer loop
    vertex -526.278 344.528 -582.853
    vertex -487.002 344.528 -555.031
    vertex -489.172 344.528 -590.523
  endloop
endfacet
facet normal 0 1 0
  outer loop
    vertex -526.278 344.528 -582.853
    vertex -489.172 344.528 -590.523
    vertex -515.78 344.528 -609.289
  endloop
endfacet
facet normal 0 1 0
  outer loop
    vertex -524.125 344.528 -526.318
    vertex -487.002 344.528 -555.031
    vertex -535.013 344.528 -553.707
  endloop
endfacet
facet normal 0 1 0
  outer loop
    vertex -487.002 344.528 -615.941
    vertex -480.178 344.528 -643.618
    vertex -518.762 344.528 -642.397
  endloop
endfacet
facet normal 0 1 0
  outer loop
    vertex -487.002 344.528 -615.941
    vertex -518.762 344.528 -642.397
    vertex -515.78 344.528 -609.289
  endloop
endfacet
facet normal -0 1 0
  outer loop
    vertex -487.002 344.528 -615.941
    vertex -459.037 344.528 -611.874
    vertex -480.178 344.528 -643.618
  endloop
endfacet
facet normal 0 1 -0
  outer loop
    vertex -487.002 344.528 -615.941
    vertex -489.172 344.528 -590.523
    vertex -459.037 344.528 -611.874
  endloop
endfacet
facet normal 0 1 0
  outer loop
    vertex -487.002 344.528 -615.941
    vertex -515.78 344.528 -609.289
    vertex -489.172 344.528 -590.523
  endloop
endfacet
facet normal 0 1 0
  outer loop
    vertex -449.95 344.528 -582.853
    vertex -426.092 344.528 -615.941
    vertex -459.037 344.528 -611.874
  endloop
endfacet
facet normal 0 1 0
  outer loop
    vertex -449.95 344.528 -582.853
    vertex -459.037 344.528 -611.874
    vertex -489.172 344.528 -590.523
  endloop
endfacet
facet normal 0 1 -0
  outer loop
    vertex -449.95 344.528 -582.853
    vertex -487.002 344.528 -555.031
    vertex -439.107 344.528 -553.707
  endloop
endfacet
facet normal 0 1 0
  outer loop
    vertex -449.95 344.528 -582.853
    vertex -489.172 344.528 -590.523
    vertex -487.002 344.528 -555.031
  endloop
endfacet
facet normal 0 1 0
  outer loop
    vertex -576.625 344.528 -653.064
    vertex -549.636 344.528 -614.81
    vertex -518.762 344.528 -642.397
  endloop
endfacet
facet normal -0 1 0
  outer loop
    vertex -576.625 344.528 -653.064
    vertex -518.762 344.528 -642.397
    vertex -534.261 344.528 -676.405
  endloop
endfacet
facet normal 0 1 -0
  outer loop
    vertex -518.762 344.528 -642.397
    vertex -549.636 344.528 -614.81
    vertex -515.78 344.528 -609.289
  endloop
endfacet
facet normal 0 1 0
  outer loop
    vertex -518.762 344.528 -642.397
    vertex -480.178 344.528 -643.618
    vertex -487.002 344.528 -676.851
  endloop
endfacet
facet normal 0 1 0
  outer loop
    vertex -518.762 344.528 -642.397
    vertex -487.002 344.528 -676.851
    vertex -534.261 344.528 -676.405
  endloop
endfacet
facet normal 0 1 -0
  outer loop
    vertex -524.125 344.528 -705.564
    vertex -534.261 344.528 -676.405
    vertex -487.002 344.528 -676.851
  endloop
endfacet
facet normal 0 1 0
  outer loop
    vertex -397.379 344.528 -653.064
    vertex -447.727 344.528 -646.806
    vertex -426.092 344.528 -615.941
  endloop
endfacet
facet normal 0 1 0
  outer loop
    vertex -397.379 344.528 -653.064
    vertex -438.985 344.528 -677.558
    vertex -447.727 344.528 -646.806
  endloop
endfacet
facet normal 0 1 -0
  outer loop
    vertex -449.879 344.528 -705.564
    vertex -487.002 344.528 -676.851
    vertex -438.985 344.528 -677.558
  endloop
endfacet
facet normal 0 1 -0
  outer loop
    vertex -447.727 344.528 -646.806
    vertex -459.037 344.528 -611.874
    vertex -426.092 344.528 -615.941
  endloop
endfacet
facet normal 0 1 0
  outer loop
    vertex -447.727 344.528 -646.806
    vertex -480.178 344.528 -643.618
    vertex -459.037 344.528 -611.874
  endloop
endfacet
facet normal 0 1 0
  outer loop
    vertex -447.727 344.528 -646.806
    vertex -487.002 344.528 -676.851
    vertex -480.178 344.528 -643.618
  endloop
endfacet
facet normal 0 1 0
  outer loop
    vertex -447.727 344.528 -646.806
    vertex -438.985 344.528 -677.558
    vertex -487.002 344.528 -676.851
  endloop
endfacet
endsolid Created by Gmsh
