lc = 40;
Point(1) = {178.498779296875, 638.0033721923828, -87.49401092529297, lc};
Point(2) = {178.498779296875, -261.9966278076172, -87.49401092529297, lc};
Point(3) = {384.35148906707764, 638.0033721923828, -88.0704517364502, lc};
Point(4) = {384.35148906707764, -261.9966278076172, -88.0704517364502, lc};
Point(5) = {389.9792823791504, 638.0033721923828, -89.77762413024902, lc};
Point(6) = {389.9792823791504, -261.9966278076172, -89.77762413024902, lc};
Point(7) = {395.16588592529297, 638.0033721923828, -92.54992294311523, lc};
Point(8) = {395.16588592529297, -261.9966278076172, -92.54992294311523, lc};
Point(9) = {399.7119827270508, 638.0033721923828, -96.28080749511719, lc};
Point(10) = {399.7119827270508, -261.9966278076172, -96.28080749511719, lc};
Point(11) = {403.44286727905273, 638.0033721923828, -100.826904296875, lc};
Point(12) = {403.44286727905273, -261.9966278076172, -100.826904296875, lc};
Point(13) = {406.21516609191895, 638.0033721923828, -106.01350784301758, lc};
Point(14) = {406.21516609191895, -261.9966278076172, -106.01350784301758, lc};
Point(15) = {407.9223384857178, 638.0033721923828, -111.64130115509033, lc};
Point(16) = {407.9223384857178, -261.9966278076172, -111.64130115509033, lc};
Point(17) = {408.498779296875, 638.0033721923828, -117.49401092529297, lc};
Point(18) = {408.498779296875, -261.9966278076172, -117.49401092529297, lc};
Point(19) = {407.9223384857178, 638.0033721923828, -123.3467206954956, lc};
Point(20) = {407.9223384857178, -261.9966278076172, -123.3467206954956, lc};
Point(21) = {406.21516609191895, 638.0033721923828, -128.97451400756836, lc};
Point(22) = {406.21516609191895, -261.9966278076172, -128.97451400756836, lc};
Point(23) = {403.44286727905273, 638.0033721923828, -134.16111755371094, lc};
Point(24) = {403.44286727905273, -261.9966278076172, -134.16111755371094, lc};
Point(25) = {399.7119827270508, 638.0033721923828, -138.70721435546875, lc};
Point(26) = {399.7119827270508, -261.9966278076172, -138.70721435546875, lc};
Point(27) = {395.16588592529297, 638.0033721923828, -142.4380989074707, lc};
Point(28) = {395.16588592529297, -261.9966278076172, -142.4380989074707, lc};
Point(29) = {389.9792823791504, 638.0033721923828, -145.2103977203369, lc};
Point(30) = {389.9792823791504, -261.9966278076172, -145.2103977203369, lc};
Point(31) = {384.35148906707764, 638.0033721923828, -146.91757011413574, lc};
Point(32) = {384.35148906707764, -261.9966278076172, -146.91757011413574, lc};
Point(33) = {378.498779296875, 638.0033721923828, -147.49401092529297, lc};
Point(34) = {378.498779296875, -261.9966278076172, -147.49401092529297, lc};
Point(35) = {-27.353930473327637, 638.0033721923828, -146.91757011413574, lc};
Point(36) = {-27.353930473327637, -261.9966278076172, -146.91757011413574, lc};
Point(37) = {-32.98172378540039, 638.0033721923828, -145.2103977203369, lc};
Point(38) = {-32.98172378540039, -261.9966278076172, -145.2103977203369, lc};
Point(39) = {-38.16832733154297, 638.0033721923828, -142.4380989074707, lc};
Point(40) = {-38.16832733154297, -261.9966278076172, -142.4380989074707, lc};
Point(41) = {-42.71442413330078, 638.0033721923828, -138.70721435546875, lc};
Point(42) = {-42.71442413330078, -261.9966278076172, -138.70721435546875, lc};
Point(43) = {-46.445308685302734, 638.0033721923828, -134.16111755371094, lc};
Point(44) = {-46.445308685302734, -261.9966278076172, -134.16111755371094, lc};
Point(45) = {-49.217607498168945, 638.0033721923828, -128.97451400756836, lc};
Point(46) = {-49.217607498168945, -261.9966278076172, -128.97451400756836, lc};
Point(47) = {-50.92477989196777, 638.0033721923828, -123.3467206954956, lc};
Point(48) = {-50.92477989196777, -261.9966278076172, -123.3467206954956, lc};
Point(49) = {-51.501220703125, 638.0033721923828, -117.49401092529297, lc};
Point(50) = {-51.501220703125, -261.9966278076172, -117.49401092529297, lc};
Point(51) = {-50.92477989196777, 638.0033721923828, -111.64130115509033, lc};
Point(52) = {-50.92477989196777, -261.9966278076172, -111.64130115509033, lc};
Point(53) = {-49.217607498168945, 638.0033721923828, -106.01350784301758, lc};
Point(54) = {-49.217607498168945, -261.9966278076172, -106.01350784301758, lc};
Point(55) = {-46.445308685302734, 638.0033721923828, -100.826904296875, lc};
Point(56) = {-46.445308685302734, -261.9966278076172, -100.826904296875, lc};
Point(57) = {-42.71442413330078, 638.0033721923828, -96.28080749511719, lc};
Point(58) = {-42.71442413330078, -261.9966278076172, -96.28080749511719, lc};
Point(59) = {-38.16832733154297, 638.0033721923828, -92.54992294311523, lc};
Point(60) = {-38.16832733154297, -261.9966278076172, -92.54992294311523, lc};
Point(61) = {-32.98172378540039, 638.0033721923828, -89.77762413024902, lc};
Point(62) = {-32.98172378540039, -261.9966278076172, -89.77762413024902, lc};
Point(63) = {-27.353930473327637, 638.0033721923828, -88.0704517364502, lc};
Point(64) = {-27.353930473327637, -261.9966278076172, -88.0704517364502, lc};
Point(65) = {178.498779296875, 638.0033721923828, -117.49401092529297, lc};
Point(66) = {178.498779296875, -261.9966278076172, -117.49401092529297, lc};
Line(1) = {1, 2};
Line(2) = {2, 3};
Line(3) = {3, 1};
Line(4) = {2, 4};
Line(5) = {4, 3};
Line(6) = {4, 5};
Line(7) = {5, 3};
Line(8) = {4, 6};
Line(9) = {6, 5};
Line(10) = {6, 7};
Line(11) = {7, 5};
Line(12) = {6, 8};
Line(13) = {8, 7};
Line(14) = {8, 9};
Line(15) = {9, 7};
Line(16) = {8, 10};
Line(17) = {10, 9};
Line(18) = {10, 11};
Line(19) = {11, 9};
Line(20) = {10, 12};
Line(21) = {12, 11};
Line(22) = {12, 13};
Line(23) = {13, 11};
Line(24) = {12, 14};
Line(25) = {14, 13};
Line(26) = {14, 15};
Line(27) = {15, 13};
Line(28) = {14, 16};
Line(29) = {16, 15};
Line(30) = {16, 17};
Line(31) = {17, 15};
Line(32) = {16, 18};
Line(33) = {18, 17};
Line(34) = {18, 19};
Line(35) = {19, 17};
Line(36) = {18, 20};
Line(37) = {20, 19};
Line(38) = {20, 21};
Line(39) = {21, 19};
Line(40) = {20, 22};
Line(41) = {22, 21};
Line(42) = {22, 23};
Line(43) = {23, 21};
Line(44) = {22, 24};
Line(45) = {24, 23};
Line(46) = {24, 25};
Line(47) = {25, 23};
Line(48) = {24, 26};
Line(49) = {26, 25};
Line(50) = {26, 27};
Line(51) = {27, 25};
Line(52) = {26, 28};
Line(53) = {28, 27};
Line(54) = {28, 29};
Line(55) = {29, 27};
Line(56) = {28, 30};
Line(57) = {30, 29};
Line(58) = {30, 31};
Line(59) = {31, 29};
Line(60) = {30, 32};
Line(61) = {32, 31};
Line(62) = {32, 33};
Line(63) = {33, 31};
Line(64) = {32, 34};
Line(65) = {34, 33};
Line(66) = {34, 35};
Line(67) = {35, 33};
Line(68) = {34, 36};
Line(69) = {36, 35};
Line(70) = {36, 37};
Line(71) = {37, 35};
Line(72) = {36, 38};
Line(73) = {38, 37};
Line(74) = {38, 39};
Line(75) = {39, 37};
Line(76) = {38, 40};
Line(77) = {40, 39};
Line(78) = {40, 41};
Line(79) = {41, 39};
Line(80) = {40, 42};
Line(81) = {42, 41};
Line(82) = {42, 43};
Line(83) = {43, 41};
Line(84) = {42, 44};
Line(85) = {44, 43};
Line(86) = {44, 45};
Line(87) = {45, 43};
Line(88) = {44, 46};
Line(89) = {46, 45};
Line(90) = {46, 47};
Line(91) = {47, 45};
Line(92) = {46, 48};
Line(93) = {48, 47};
Line(94) = {48, 49};
Line(95) = {49, 47};
Line(96) = {48, 50};
Line(97) = {50, 49};
Line(98) = {50, 51};
Line(99) = {51, 49};
Line(100) = {50, 52};
Line(101) = {52, 51};
Line(102) = {52, 53};
Line(103) = {53, 51};
Line(104) = {52, 54};
Line(105) = {54, 53};
Line(106) = {54, 55};
Line(107) = {55, 53};
Line(108) = {54, 56};
Line(109) = {56, 55};
Line(110) = {56, 57};
Line(111) = {57, 55};
Line(112) = {56, 58};
Line(113) = {58, 57};
Line(114) = {58, 59};
Line(115) = {59, 57};
Line(116) = {58, 60};
Line(117) = {60, 59};
Line(118) = {60, 61};
Line(119) = {61, 59};
Line(120) = {60, 62};
Line(121) = {62, 61};
Line(122) = {62, 63};
Line(123) = {63, 61};
Line(124) = {62, 64};
Line(125) = {64, 63};
Line(126) = {64, 1};
Line(127) = {1, 63};
Line(128) = {64, 2};
Line(129) = {3, 65};
Line(130) = {65, 1};
Line(131) = {5, 65};
Line(132) = {7, 65};
Line(133) = {9, 65};
Line(134) = {11, 65};
Line(135) = {13, 65};
Line(136) = {15, 65};
Line(137) = {17, 65};
Line(138) = {19, 65};
Line(139) = {21, 65};
Line(140) = {23, 65};
Line(141) = {25, 65};
Line(142) = {27, 65};
Line(143) = {29, 65};
Line(144) = {31, 65};
Line(145) = {33, 65};
Line(146) = {35, 65};
Line(147) = {37, 65};
Line(148) = {39, 65};
Line(149) = {41, 65};
Line(150) = {43, 65};
Line(151) = {45, 65};
Line(152) = {47, 65};
Line(153) = {49, 65};
Line(154) = {51, 65};
Line(155) = {53, 65};
Line(156) = {55, 65};
Line(157) = {57, 65};
Line(158) = {59, 65};
Line(159) = {61, 65};
Line(160) = {63, 65};
Line(161) = {2, 66};
Line(162) = {66, 4};
Line(163) = {66, 6};
Line(164) = {66, 8};
Line(165) = {66, 10};
Line(166) = {66, 12};
Line(167) = {66, 14};
Line(168) = {66, 16};
Line(169) = {66, 18};
Line(170) = {66, 20};
Line(171) = {66, 22};
Line(172) = {66, 24};
Line(173) = {66, 26};
Line(174) = {66, 28};
Line(175) = {66, 30};
Line(176) = {66, 32};
Line(177) = {66, 34};
Line(178) = {66, 36};
Line(179) = {66, 38};
Line(180) = {66, 40};
Line(181) = {66, 42};
Line(182) = {66, 44};
Line(183) = {66, 46};
Line(184) = {66, 48};
Line(185) = {66, 50};
Line(186) = {66, 52};
Line(187) = {66, 54};
Line(188) = {66, 56};
Line(189) = {66, 58};
Line(190) = {66, 60};
Line(191) = {66, 62};
Line(192) = {66, 64};
Line Loop(193) = {1, 4, 5, 3};
Plane Surface(194) = {193};
Line Loop(195) = {5, -7, -9, -8};
Plane Surface(196) = {195};
Line Loop(197) = {9, -11, -13, -12};
Plane Surface(198) = {197};
Line Loop(199) = {13, -15, -17, -16};
Plane Surface(200) = {199};
Line Loop(201) = {17, -19, -21, -20};
Plane Surface(202) = {201};
Line Loop(203) = {21, -23, -25, -24};
Plane Surface(204) = {203};
Line Loop(205) = {25, -27, -29, -28};
Plane Surface(206) = {205};
Line Loop(207) = {29, -31, -33, -32};
Plane Surface(208) = {207};
Line Loop(209) = {33, -35, -37, -36};
Plane Surface(210) = {209};
Line Loop(211) = {37, -39, -41, -40};
Plane Surface(212) = {211};
Line Loop(213) = {41, -43, -45, -44};
Plane Surface(214) = {213};
Line Loop(215) = {45, -47, -49, -48};
Plane Surface(216) = {215};
Line Loop(217) = {49, -51, -53, -52};
Plane Surface(218) = {217};
Line Loop(219) = {53, -55, -57, -56};
Plane Surface(220) = {219};
Line Loop(221) = {57, -59, -61, -60};
Plane Surface(222) = {221};
Line Loop(223) = {61, -63, -65, -64};
Plane Surface(224) = {223};
Line Loop(225) = {65, -67, -69, -68};
Plane Surface(226) = {225};
Line Loop(227) = {69, -71, -73, -72};
Plane Surface(228) = {227};
Line Loop(229) = {73, -75, -77, -76};
Plane Surface(230) = {229};
Line Loop(231) = {77, -79, -81, -80};
Plane Surface(232) = {231};
Line Loop(233) = {81, -83, -85, -84};
Plane Surface(234) = {233};
Line Loop(235) = {85, -87, -89, -88};
Plane Surface(236) = {235};
Line Loop(237) = {89, -91, -93, -92};
Plane Surface(238) = {237};
Line Loop(239) = {93, -95, -97, -96};
Plane Surface(240) = {239};
Line Loop(241) = {97, -99, -101, -100};
Plane Surface(242) = {241};
Line Loop(243) = {101, -103, -105, -104};
Plane Surface(244) = {243};
Line Loop(245) = {105, -107, -109, -108};
Plane Surface(246) = {245};
Line Loop(247) = {109, -111, -113, -112};
Plane Surface(248) = {247};
Line Loop(249) = {113, -115, -117, -116};
Plane Surface(250) = {249};
Line Loop(251) = {117, -119, -121, -120};
Plane Surface(252) = {251};
Line Loop(253) = {121, -123, -125, -124};
Plane Surface(254) = {253};
Line Loop(255) = {125, -127, 1, -128};
Plane Surface(256) = {255};
Line Loop(257) = {3, 127, 123, 119, 115, 111, 107, 103, 99, 95, 91, 87, 83, 79, 75, 71, 67, 63, 59, 55, 51, 47, 43, 39, 35, 31, 27, 23, 19, 15, 11, 7};
Plane Surface(258) = {257};
Line Loop(259) = {4, 8, 12, 16, 20, 24, 28, 32, 36, 40, 44, 48, 52, 56, 60, 64, 68, 72, 76, 80, 84, 88, 92, 96, 100, 104, 108, 112, 116, 120, 124, 128};
Plane Surface(260) = {259};
Surface Loop(261) = {194, 196, 198, 200, 202, 204, 206, 208, 210, 212, 214, 216, 218, 220, 222, 224, 226, 228, 230, 232, 234, 236, 238, 240, 242, 244, 246, 248, 250, 252, 254, 256, 258, 260};
Volume(262) = {261};
