solid Created by Gmsh
facet normal 1 -0 0
  outer loop
    vertex -209.439 3.79113 6.81511
    vertex -209.439 36.5292 6.81511
    vertex -209.439 24.6245 27.6484
  endloop
endfacet
facet normal 1 0 0
  outer loop
    vertex -209.439 53.7911 23.4818
    vertex -209.439 24.6245 27.6484
    vertex -209.439 36.5292 6.81511
  endloop
endfacet
facet normal 1 0 0
  outer loop
    vertex -209.439 3.79113 6.81511
    vertex -209.439 24.6245 -14.0182
    vertex -209.439 36.5292 6.81511
  endloop
endfacet
facet normal 1 0 0
  outer loop
    vertex -209.439 53.7911 -9.85156
    vertex -209.439 36.5292 6.81511
    vertex -209.439 24.6245 -14.0182
  endloop
endfacet
facet normal 1 0 -0
  outer loop
    vertex -209.439 53.7911 -9.85156
    vertex -209.439 53.7911 23.4818
    vertex -209.439 36.5292 6.81511
  endloop
endfacet
facet normal 1 0 0
  outer loop
    vertex -209.439 3.79113 6.81511
    vertex -209.439 -17.0422 -14.0182
    vertex -209.439 3.79113 -25.923
  endloop
endfacet
facet normal 1 0 -0
  outer loop
    vertex -209.439 -12.8755 -43.1849
    vertex -209.439 3.79113 -25.923
    vertex -209.439 -17.0422 -14.0182
  endloop
endfacet
facet normal 1 0 0
  outer loop
    vertex -209.439 3.79113 6.81511
    vertex -209.439 -28.947 6.81511
    vertex -209.439 -17.0422 -14.0182
  endloop
endfacet
facet normal 1 -0 0
  outer loop
    vertex -209.439 -46.2089 -9.85156
    vertex -209.439 -17.0422 -14.0182
    vertex -209.439 -28.947 6.81511
  endloop
endfacet
facet normal 1 0 0
  outer loop
    vertex -209.439 -46.2089 -43.1849
    vertex -209.439 -17.0422 -14.0182
    vertex -209.439 -46.2089 -9.85156
  endloop
endfacet
facet normal 1 0 0
  outer loop
    vertex -209.439 -46.2089 -43.1849
    vertex -209.439 -12.8755 -43.1849
    vertex -209.439 -17.0422 -14.0182
  endloop
endfacet
facet normal 1 0 0
  outer loop
    vertex -209.439 3.79113 6.81511
    vertex -209.439 3.79113 -25.923
    vertex -209.439 24.6245 -14.0182
  endloop
endfacet
facet normal 1 0 -0
  outer loop
    vertex -209.439 20.4578 -43.1849
    vertex -209.439 24.6245 -14.0182
    vertex -209.439 3.79113 -25.923
  endloop
endfacet
facet normal 1 0 0
  outer loop
    vertex -209.439 -12.8755 -43.1849
    vertex -209.439 20.4578 -43.1849
    vertex -209.439 3.79113 -25.923
  endloop
endfacet
facet normal 1 0 0
  outer loop
    vertex -209.439 3.79113 6.81511
    vertex -209.439 24.6245 27.6484
    vertex -209.439 3.79113 39.5532
  endloop
endfacet
facet normal 1 0 0
  outer loop
    vertex -209.439 20.4578 56.8151
    vertex -209.439 3.79113 39.5532
    vertex -209.439 24.6245 27.6484
  endloop
endfacet
facet normal 1 0 0
  outer loop
    vertex -209.439 53.7911 56.8151
    vertex -209.439 24.6245 27.6484
    vertex -209.439 53.7911 23.4818
  endloop
endfacet
facet normal 1 0 0
  outer loop
    vertex -209.439 53.7911 56.8151
    vertex -209.439 20.4578 56.8151
    vertex -209.439 24.6245 27.6484
  endloop
endfacet
facet normal 1 0 -0
  outer loop
    vertex -209.439 53.7911 -43.1849
    vertex -209.439 53.7911 -9.85156
    vertex -209.439 24.6245 -14.0182
  endloop
endfacet
facet normal 1 0 0
  outer loop
    vertex -209.439 53.7911 -43.1849
    vertex -209.439 24.6245 -14.0182
    vertex -209.439 20.4578 -43.1849
  endloop
endfacet
facet normal 1 0 0
  outer loop
    vertex -209.439 3.79113 6.81511
    vertex -209.439 -17.0422 27.6484
    vertex -209.439 -28.947 6.81511
  endloop
endfacet
facet normal 1 -0 0
  outer loop
    vertex -209.439 -46.2089 23.4818
    vertex -209.439 -28.947 6.81511
    vertex -209.439 -17.0422 27.6484
  endloop
endfacet
facet normal 1 0 0
  outer loop
    vertex -209.439 -46.2089 23.4818
    vertex -209.439 -46.2089 -9.85156
    vertex -209.439 -28.947 6.81511
  endloop
endfacet
facet normal 1 0 -0
  outer loop
    vertex -209.439 3.79113 6.81511
    vertex -209.439 3.79113 39.5532
    vertex -209.439 -17.0422 27.6484
  endloop
endfacet
facet normal 1 0 0
  outer loop
    vertex -209.439 -12.8755 56.8151
    vertex -209.439 -17.0422 27.6484
    vertex -209.439 3.79113 39.5532
  endloop
endfacet
facet normal 1 0 0
  outer loop
    vertex -209.439 20.4578 56.8151
    vertex -209.439 -12.8755 56.8151
    vertex -209.439 3.79113 39.5532
  endloop
endfacet
facet normal 1 0 0
  outer loop
    vertex -209.439 -46.2089 56.8151
    vertex -209.439 -46.2089 23.4818
    vertex -209.439 -17.0422 27.6484
  endloop
endfacet
facet normal 1 -0 0
  outer loop
    vertex -209.439 -46.2089 56.8151
    vertex -209.439 -17.0422 27.6484
    vertex -209.439 -12.8755 56.8151
  endloop
endfacet
facet normal -1 0 0
  outer loop
    vertex -309.439 3.79113 6.81511
    vertex -309.439 24.6245 27.6484
    vertex -309.439 36.5292 6.81511
  endloop
endfacet
facet normal -1 0 0
  outer loop
    vertex -309.439 3.79113 6.81511
    vertex -309.439 36.5292 6.81511
    vertex -309.439 24.6245 -14.0182
  endloop
endfacet
facet normal -1 0 0
  outer loop
    vertex -309.439 3.79113 6.81511
    vertex -309.439 3.79113 39.5532
    vertex -309.439 24.6245 27.6484
  endloop
endfacet
facet normal -1 0 -0
  outer loop
    vertex -309.439 3.79113 6.81511
    vertex -309.439 3.79113 -25.923
    vertex -309.439 -17.0422 -14.0182
  endloop
endfacet
facet normal -1 0 0
  outer loop
    vertex -309.439 3.79113 6.81511
    vertex -309.439 -17.0422 -14.0182
    vertex -309.439 -28.947 6.81511
  endloop
endfacet
facet normal -1 0 0
  outer loop
    vertex -309.439 3.79113 6.81511
    vertex -309.439 24.6245 -14.0182
    vertex -309.439 3.79113 -25.923
  endloop
endfacet
facet normal -1 0 0
  outer loop
    vertex -309.439 3.79113 6.81511
    vertex -309.439 -17.0422 27.6484
    vertex -309.439 3.79113 39.5532
  endloop
endfacet
facet normal -1 -0 0
  outer loop
    vertex -309.439 3.79113 6.81511
    vertex -309.439 -28.947 6.81511
    vertex -309.439 -17.0422 27.6484
  endloop
endfacet
facet normal -1 -0 0
  outer loop
    vertex -309.439 53.7911 23.4818
    vertex -309.439 36.5292 6.81511
    vertex -309.439 24.6245 27.6484
  endloop
endfacet
facet normal -1 -0 0
  outer loop
    vertex -309.439 53.7911 -9.85156
    vertex -309.439 24.6245 -14.0182
    vertex -309.439 36.5292 6.81511
  endloop
endfacet
facet normal -1 0 -0
  outer loop
    vertex -309.439 53.7911 23.4818
    vertex -309.439 53.7911 -9.85156
    vertex -309.439 36.5292 6.81511
  endloop
endfacet
facet normal -1 0 -0
  outer loop
    vertex -309.439 20.4578 56.8151
    vertex -309.439 24.6245 27.6484
    vertex -309.439 3.79113 39.5532
  endloop
endfacet
facet normal -1 -0 0
  outer loop
    vertex -309.439 53.7911 56.8151
    vertex -309.439 24.6245 27.6484
    vertex -309.439 20.4578 56.8151
  endloop
endfacet
facet normal -1 0 -0
  outer loop
    vertex -309.439 53.7911 56.8151
    vertex -309.439 53.7911 23.4818
    vertex -309.439 24.6245 27.6484
  endloop
endfacet
facet normal -1 0 0
  outer loop
    vertex -309.439 -12.8755 -43.1849
    vertex -309.439 -17.0422 -14.0182
    vertex -309.439 3.79113 -25.923
  endloop
endfacet
facet normal -1 0 0
  outer loop
    vertex -309.439 -46.2089 -9.85156
    vertex -309.439 -28.947 6.81511
    vertex -309.439 -17.0422 -14.0182
  endloop
endfacet
facet normal -1 0 0
  outer loop
    vertex -309.439 -46.2089 -43.1849
    vertex -309.439 -17.0422 -14.0182
    vertex -309.439 -12.8755 -43.1849
  endloop
endfacet
facet normal -1 0 0
  outer loop
    vertex -309.439 -46.2089 -43.1849
    vertex -309.439 -46.2089 -9.85156
    vertex -309.439 -17.0422 -14.0182
  endloop
endfacet
facet normal -1 0 0
  outer loop
    vertex -309.439 20.4578 -43.1849
    vertex -309.439 3.79113 -25.923
    vertex -309.439 24.6245 -14.0182
  endloop
endfacet
facet normal -1 0 0
  outer loop
    vertex -309.439 20.4578 -43.1849
    vertex -309.439 -12.8755 -43.1849
    vertex -309.439 3.79113 -25.923
  endloop
endfacet
facet normal -1 0 -0
  outer loop
    vertex -309.439 -12.8755 56.8151
    vertex -309.439 3.79113 39.5532
    vertex -309.439 -17.0422 27.6484
  endloop
endfacet
facet normal -1 0 0
  outer loop
    vertex -309.439 -12.8755 56.8151
    vertex -309.439 20.4578 56.8151
    vertex -309.439 3.79113 39.5532
  endloop
endfacet
facet normal -1 0 0
  outer loop
    vertex -309.439 -46.2089 23.4818
    vertex -309.439 -17.0422 27.6484
    vertex -309.439 -28.947 6.81511
  endloop
endfacet
facet normal -1 0 0
  outer loop
    vertex -309.439 -46.2089 56.8151
    vertex -309.439 -12.8755 56.8151
    vertex -309.439 -17.0422 27.6484
  endloop
endfacet
facet normal -1 0 0
  outer loop
    vertex -309.439 -46.2089 56.8151
    vertex -309.439 -17.0422 27.6484
    vertex -309.439 -46.2089 23.4818
  endloop
endfacet
facet normal -1 0 0
  outer loop
    vertex -309.439 -46.2089 -9.85156
    vertex -309.439 -46.2089 23.4818
    vertex -309.439 -28.947 6.81511
  endloop
endfacet
facet normal -1 0 0
  outer loop
    vertex -309.439 53.7911 -43.1849
    vertex -309.439 24.6245 -14.0182
    vertex -309.439 53.7911 -9.85156
  endloop
endfacet
facet normal -1 0 0
  outer loop
    vertex -309.439 53.7911 -43.1849
    vertex -309.439 20.4578 -43.1849
    vertex -309.439 24.6245 -14.0182
  endloop
endfacet
facet normal 0 -1 0
  outer loop
    vertex -259.439 53.7911 -25.923
    vertex -259.439 53.7911 6.81511
    vertex -280.272 53.7911 -14.0182
  endloop
endfacet
facet normal -0 -1 0
  outer loop
    vertex -234.538 53.7911 -18.0857
    vertex -259.439 53.7911 6.81511
    vertex -259.439 53.7911 -25.923
  endloop
endfacet
facet normal 0 -1 0
  outer loop
    vertex -280.272 53.7911 -14.0182
    vertex -276.105 53.7911 -43.1849
    vertex -259.439 53.7911 -25.923
  endloop
endfacet
facet normal 0 -1 0
  outer loop
    vertex -259.439 53.7911 -25.923
    vertex -242.772 53.7911 -43.1849
    vertex -234.538 53.7911 -18.0857
  endloop
endfacet
facet normal 0 -1 0
  outer loop
    vertex -276.105 53.7911 -43.1849
    vertex -242.772 53.7911 -43.1849
    vertex -259.439 53.7911 -25.923
  endloop
endfacet
facet normal 0 -1 0
  outer loop
    vertex -280.272 53.7911 -14.0182
    vertex -259.439 53.7911 6.81511
    vertex -292.177 53.7911 6.81511
  endloop
endfacet
facet normal 0 -1 0
  outer loop
    vertex -292.177 53.7911 6.81511
    vertex -259.439 53.7911 6.81511
    vertex -280.272 53.7911 27.6484
  endloop
endfacet
facet normal 0 -1 0
  outer loop
    vertex -280.272 53.7911 27.6484
    vertex -259.439 53.7911 6.81511
    vertex -259.439 53.7911 35.1484
  endloop
endfacet
facet normal 0 -1 0
  outer loop
    vertex -259.439 53.7911 35.1484
    vertex -259.439 53.7911 6.81511
    vertex -238.605 53.7911 27.6484
  endloop
endfacet
facet normal 0 -1 -0
  outer loop
    vertex -238.605 53.7911 27.6484
    vertex -259.439 53.7911 6.81511
    vertex -226.701 53.7911 6.81511
  endloop
endfacet
facet normal 0 -1 0
  outer loop
    vertex -226.701 53.7911 6.81511
    vertex -259.439 53.7911 6.81511
    vertex -234.538 53.7911 -18.0857
  endloop
endfacet
facet normal 0 -1 -0
  outer loop
    vertex -292.177 53.7911 6.81511
    vertex -309.439 53.7911 -9.85156
    vertex -280.272 53.7911 -14.0182
  endloop
endfacet
facet normal 0 -1 -0
  outer loop
    vertex -280.272 53.7911 -14.0182
    vertex -309.439 53.7911 -43.1849
    vertex -276.105 53.7911 -43.1849
  endloop
endfacet
facet normal 0 -1 0
  outer loop
    vertex -309.439 53.7911 -9.85156
    vertex -309.439 53.7911 -43.1849
    vertex -280.272 53.7911 -14.0182
  endloop
endfacet
facet normal 0 -1 0
  outer loop
    vertex -280.272 53.7911 27.6484
    vertex -309.439 53.7911 23.4818
    vertex -292.177 53.7911 6.81511
  endloop
endfacet
facet normal -0 -1 0
  outer loop
    vertex -292.177 53.7911 6.81511
    vertex -309.439 53.7911 23.4818
    vertex -309.439 53.7911 -9.85156
  endloop
endfacet
facet normal -0 -1 0
  outer loop
    vertex -259.439 53.7911 35.1484
    vertex -276.105 53.7911 56.8151
    vertex -280.272 53.7911 27.6484
  endloop
endfacet
facet normal -0 -1 0
  outer loop
    vertex -276.105 53.7911 56.8151
    vertex -309.439 53.7911 56.8151
    vertex -280.272 53.7911 27.6484
  endloop
endfacet
facet normal -0 -1 0
  outer loop
    vertex -280.272 53.7911 27.6484
    vertex -309.439 53.7911 56.8151
    vertex -309.439 53.7911 23.4818
  endloop
endfacet
facet normal 0 -1 0
  outer loop
    vertex -238.605 53.7911 27.6484
    vertex -242.772 53.7911 56.8151
    vertex -259.439 53.7911 35.1484
  endloop
endfacet
facet normal 0 -1 0
  outer loop
    vertex -226.701 53.7911 6.81511
    vertex -209.439 53.7911 23.4818
    vertex -238.605 53.7911 27.6484
  endloop
endfacet
facet normal 0 -1 0
  outer loop
    vertex -238.605 53.7911 27.6484
    vertex -209.439 53.7911 56.8151
    vertex -242.772 53.7911 56.8151
  endloop
endfacet
facet normal 0 -1 0
  outer loop
    vertex -209.439 53.7911 23.4818
    vertex -209.439 53.7911 56.8151
    vertex -238.605 53.7911 27.6484
  endloop
endfacet
facet normal 0 -1 0
  outer loop
    vertex -234.538 53.7911 -18.0857
    vertex -209.439 53.7911 -9.85156
    vertex -226.701 53.7911 6.81511
  endloop
endfacet
facet normal 0 -1 0
  outer loop
    vertex -242.772 53.7911 -43.1849
    vertex -209.439 53.7911 -43.1849
    vertex -234.538 53.7911 -18.0857
  endloop
endfacet
facet normal 0 -1 0
  outer loop
    vertex -234.538 53.7911 -18.0857
    vertex -209.439 53.7911 -43.1849
    vertex -209.439 53.7911 -9.85156
  endloop
endfacet
facet normal -0 -1 0
  outer loop
    vertex -242.772 53.7911 56.8151
    vertex -276.105 53.7911 56.8151
    vertex -259.439 53.7911 35.1484
  endloop
endfacet
facet normal 0 -1 0
  outer loop
    vertex -226.701 53.7911 6.81511
    vertex -209.439 53.7911 -9.85156
    vertex -209.439 53.7911 23.4818
  endloop
endfacet
facet normal 0 1 0
  outer loop
    vertex -226.701 -46.2089 6.81511
    vertex -259.439 -46.2089 6.81511
    vertex -234.538 -46.2089 31.7159
  endloop
endfacet
facet normal 0 1 0
  outer loop
    vertex -234.538 -46.2089 31.7159
    vertex -209.439 -46.2089 23.4818
    vertex -226.701 -46.2089 6.81511
  endloop
endfacet
facet normal -0 1 0
  outer loop
    vertex -259.439 -46.2089 39.5532
    vertex -242.772 -46.2089 56.8151
    vertex -234.538 -46.2089 31.7159
  endloop
endfacet
facet normal 0 1 0
  outer loop
    vertex -234.538 -46.2089 31.7159
    vertex -259.439 -46.2089 6.81511
    vertex -259.439 -46.2089 39.5532
  endloop
endfacet
facet normal -0 1 0
  outer loop
    vertex -242.772 -46.2089 56.8151
    vertex -209.439 -46.2089 56.8151
    vertex -234.538 -46.2089 31.7159
  endloop
endfacet
facet normal -0 1 0
  outer loop
    vertex -234.538 -46.2089 31.7159
    vertex -209.439 -46.2089 56.8151
    vertex -209.439 -46.2089 23.4818
  endloop
endfacet
facet normal 0 1 0
  outer loop
    vertex -259.439 -46.2089 -21.5182
    vertex -276.105 -46.2089 -43.1849
    vertex -280.272 -46.2089 -14.0182
  endloop
endfacet
facet normal -0 1 0
  outer loop
    vertex -280.272 -46.2089 -14.0182
    vertex -259.439 -46.2089 6.81511
    vertex -259.439 -46.2089 -21.5182
  endloop
endfacet
facet normal 0 1 0
  outer loop
    vertex -280.272 -46.2089 -14.0182
    vertex -309.439 -46.2089 -9.85156
    vertex -292.177 -46.2089 6.81511
  endloop
endfacet
facet normal -0 1 0
  outer loop
    vertex -292.177 -46.2089 6.81511
    vertex -259.439 -46.2089 6.81511
    vertex -280.272 -46.2089 -14.0182
  endloop
endfacet
facet normal 0 1 0
  outer loop
    vertex -276.105 -46.2089 -43.1849
    vertex -309.439 -46.2089 -43.1849
    vertex -280.272 -46.2089 -14.0182
  endloop
endfacet
facet normal 0 1 0
  outer loop
    vertex -280.272 -46.2089 -14.0182
    vertex -309.439 -46.2089 -43.1849
    vertex -309.439 -46.2089 -9.85156
  endloop
endfacet
facet normal 0 1 0
  outer loop
    vertex -238.605 -46.2089 -14.0182
    vertex -242.772 -46.2089 -43.1849
    vertex -259.439 -46.2089 -21.5182
  endloop
endfacet
facet normal 0 1 0
  outer loop
    vertex -259.439 -46.2089 -21.5182
    vertex -259.439 -46.2089 6.81511
    vertex -238.605 -46.2089 -14.0182
  endloop
endfacet
facet normal 0 1 -0
  outer loop
    vertex -238.605 -46.2089 -14.0182
    vertex -259.439 -46.2089 6.81511
    vertex -226.701 -46.2089 6.81511
  endloop
endfacet
facet normal 0 1 0
  outer loop
    vertex -226.701 -46.2089 6.81511
    vertex -209.439 -46.2089 -9.85156
    vertex -238.605 -46.2089 -14.0182
  endloop
endfacet
facet normal 0 1 0
  outer loop
    vertex -238.605 -46.2089 -14.0182
    vertex -209.439 -46.2089 -43.1849
    vertex -242.772 -46.2089 -43.1849
  endloop
endfacet
facet normal 0 1 0
  outer loop
    vertex -209.439 -46.2089 -9.85156
    vertex -209.439 -46.2089 -43.1849
    vertex -238.605 -46.2089 -14.0182
  endloop
endfacet
facet normal 0 1 0
  outer loop
    vertex -242.772 -46.2089 -43.1849
    vertex -276.105 -46.2089 -43.1849
    vertex -259.439 -46.2089 -21.5182
  endloop
endfacet
facet normal -0 1 0
  outer loop
    vertex -226.701 -46.2089 6.81511
    vertex -209.439 -46.2089 23.4818
    vertex -209.439 -46.2089 -9.85156
  endloop
endfacet
facet normal 0 1 0
  outer loop
    vertex -280.272 -46.2089 27.6484
    vertex -276.105 -46.2089 56.8151
    vertex -259.439 -46.2089 39.5532
  endloop
endfacet
facet normal 0 1 -0
  outer loop
    vertex -280.272 -46.2089 27.6484
    vertex -309.439 -46.2089 56.8151
    vertex -276.105 -46.2089 56.8151
  endloop
endfacet
facet normal -0 1 0
  outer loop
    vertex -276.105 -46.2089 56.8151
    vertex -242.772 -46.2089 56.8151
    vertex -259.439 -46.2089 39.5532
  endloop
endfacet
facet normal 0 1 -0
  outer loop
    vertex -292.177 -46.2089 6.81511
    vertex -309.439 -46.2089 23.4818
    vertex -280.272 -46.2089 27.6484
  endloop
endfacet
facet normal 0 1 0
  outer loop
    vertex -280.272 -46.2089 27.6484
    vertex -259.439 -46.2089 6.81511
    vertex -292.177 -46.2089 6.81511
  endloop
endfacet
facet normal 0 1 0
  outer loop
    vertex -259.439 -46.2089 39.5532
    vertex -259.439 -46.2089 6.81511
    vertex -280.272 -46.2089 27.6484
  endloop
endfacet
facet normal 0 1 0
  outer loop
    vertex -309.439 -46.2089 23.4818
    vertex -309.439 -46.2089 56.8151
    vertex -280.272 -46.2089 27.6484
  endloop
endfacet
facet normal 0 1 0
  outer loop
    vertex -292.177 -46.2089 6.81511
    vertex -309.439 -46.2089 -9.85156
    vertex -309.439 -46.2089 23.4818
  endloop
endfacet
facet normal 0 0 -1
  outer loop
    vertex -259.439 3.79113 56.8151
    vertex -292.177 3.79113 56.8151
    vertex -282.347 26.6997 56.8151
  endloop
endfacet
facet normal 0 0 -1
  outer loop
    vertex -259.439 3.79113 56.8151
    vertex -282.347 26.6997 56.8151
    vertex -259.439 36.5292 56.8151
  endloop
endfacet
facet normal 0 0 -1
  outer loop
    vertex -259.439 3.79113 56.8151
    vertex -226.701 3.79113 56.8151
    vertex -234.538 -21.1097 56.8151
  endloop
endfacet
facet normal 0 0 -1
  outer loop
    vertex -259.439 3.79113 56.8151
    vertex -234.538 -21.1097 56.8151
    vertex -259.439 -28.947 56.8151
  endloop
endfacet
facet normal 0 0 -1
  outer loop
    vertex -259.439 3.79113 56.8151
    vertex -235.7 27.5298 56.8151
    vertex -226.701 3.79113 56.8151
  endloop
endfacet
facet normal 0 0 -1
  outer loop
    vertex -259.439 3.79113 56.8151
    vertex -259.439 36.5292 56.8151
    vertex -235.7 27.5298 56.8151
  endloop
endfacet
facet normal -0 0 -1
  outer loop
    vertex -259.439 3.79113 56.8151
    vertex -280.272 -17.0422 56.8151
    vertex -292.177 3.79113 56.8151
  endloop
endfacet
facet normal 0 -0 -1
  outer loop
    vertex -259.439 3.79113 56.8151
    vertex -259.439 -28.947 56.8151
    vertex -280.272 -17.0422 56.8151
  endloop
endfacet
facet normal 0 0 -1
  outer loop
    vertex -309.439 53.7911 56.8151
    vertex -276.105 53.7911 56.8151
    vertex -282.347 26.6997 56.8151
  endloop
endfacet
facet normal 0 -0 -1
  outer loop
    vertex -276.105 53.7911 56.8151
    vertex -259.439 36.5292 56.8151
    vertex -282.347 26.6997 56.8151
  endloop
endfacet
facet normal 0 0 -1
  outer loop
    vertex -309.439 53.7911 56.8151
    vertex -282.347 26.6997 56.8151
    vertex -309.439 20.4578 56.8151
  endloop
endfacet
facet normal 0 0 -1
  outer loop
    vertex -309.439 20.4578 56.8151
    vertex -282.347 26.6997 56.8151
    vertex -292.177 3.79113 56.8151
  endloop
endfacet
facet normal 0 0 -1
  outer loop
    vertex -209.439 -46.2089 56.8151
    vertex -242.772 -46.2089 56.8151
    vertex -234.538 -21.1097 56.8151
  endloop
endfacet
facet normal 0 0 -1
  outer loop
    vertex -242.772 -46.2089 56.8151
    vertex -259.439 -28.947 56.8151
    vertex -234.538 -21.1097 56.8151
  endloop
endfacet
facet normal 0 0 -1
  outer loop
    vertex -209.439 -46.2089 56.8151
    vertex -234.538 -21.1097 56.8151
    vertex -209.439 -12.8755 56.8151
  endloop
endfacet
facet normal -0 0 -1
  outer loop
    vertex -209.439 -12.8755 56.8151
    vertex -234.538 -21.1097 56.8151
    vertex -226.701 3.79113 56.8151
  endloop
endfacet
facet normal -0 0 -1
  outer loop
    vertex -209.439 53.7911 56.8151
    vertex -235.7 27.5298 56.8151
    vertex -242.772 53.7911 56.8151
  endloop
endfacet
facet normal 0 -0 -1
  outer loop
    vertex -242.772 53.7911 56.8151
    vertex -235.7 27.5298 56.8151
    vertex -259.439 36.5292 56.8151
  endloop
endfacet
facet normal 0 -0 -1
  outer loop
    vertex -209.439 53.7911 56.8151
    vertex -209.439 20.4578 56.8151
    vertex -235.7 27.5298 56.8151
  endloop
endfacet
facet normal -0 0 -1
  outer loop
    vertex -209.439 20.4578 56.8151
    vertex -226.701 3.79113 56.8151
    vertex -235.7 27.5298 56.8151
  endloop
endfacet
facet normal 0 0 -1
  outer loop
    vertex -276.105 53.7911 56.8151
    vertex -242.772 53.7911 56.8151
    vertex -259.439 36.5292 56.8151
  endloop
endfacet
facet normal 0 0 -1
  outer loop
    vertex -242.772 -46.2089 56.8151
    vertex -276.105 -46.2089 56.8151
    vertex -259.439 -28.947 56.8151
  endloop
endfacet
facet normal 0 0 -1
  outer loop
    vertex -309.439 -46.2089 56.8151
    vertex -280.272 -17.0422 56.8151
    vertex -276.105 -46.2089 56.8151
  endloop
endfacet
facet normal 0 0 -1
  outer loop
    vertex -276.105 -46.2089 56.8151
    vertex -280.272 -17.0422 56.8151
    vertex -259.439 -28.947 56.8151
  endloop
endfacet
facet normal 0 0 -1
  outer loop
    vertex -309.439 -12.8755 56.8151
    vertex -309.439 20.4578 56.8151
    vertex -292.177 3.79113 56.8151
  endloop
endfacet
facet normal 0 0 -1
  outer loop
    vertex -309.439 -46.2089 56.8151
    vertex -309.439 -12.8755 56.8151
    vertex -280.272 -17.0422 56.8151
  endloop
endfacet
facet normal 0 0 -1
  outer loop
    vertex -309.439 -12.8755 56.8151
    vertex -292.177 3.79113 56.8151
    vertex -280.272 -17.0422 56.8151
  endloop
endfacet
facet normal 0 -0 -1
  outer loop
    vertex -209.439 20.4578 56.8151
    vertex -209.439 -12.8755 56.8151
    vertex -226.701 3.79113 56.8151
  endloop
endfacet
facet normal 0 0 1
  outer loop
    vertex -242.772 53.7911 -43.1849
    vertex -276.105 53.7911 -43.1849
    vertex -259.439 36.5292 -43.1849
  endloop
endfacet
facet normal -0 0 1
  outer loop
    vertex -309.439 53.7911 -43.1849
    vertex -280.272 24.6245 -43.1849
    vertex -276.105 53.7911 -43.1849
  endloop
endfacet
facet normal 0 0 1
  outer loop
    vertex -276.105 53.7911 -43.1849
    vertex -280.272 24.6245 -43.1849
    vertex -259.439 36.5292 -43.1849
  endloop
endfacet
facet normal 0 0 1
  outer loop
    vertex -309.439 20.4578 -43.1849
    vertex -309.439 -12.8755 -43.1849
    vertex -292.177 3.79113 -43.1849
  endloop
endfacet
facet normal 0 0 1
  outer loop
    vertex -309.439 -46.2089 -43.1849
    vertex -282.347 -19.1174 -43.1849
    vertex -309.439 -12.8755 -43.1849
  endloop
endfacet
facet normal -0 0 1
  outer loop
    vertex -309.439 -12.8755 -43.1849
    vertex -282.347 -19.1174 -43.1849
    vertex -292.177 3.79113 -43.1849
  endloop
endfacet
facet normal 0 0 1
  outer loop
    vertex -209.439 53.7911 -43.1849
    vertex -242.772 53.7911 -43.1849
    vertex -234.538 28.6919 -43.1849
  endloop
endfacet
facet normal 0 0 1
  outer loop
    vertex -242.772 53.7911 -43.1849
    vertex -259.439 36.5292 -43.1849
    vertex -234.538 28.6919 -43.1849
  endloop
endfacet
facet normal 0 0 1
  outer loop
    vertex -276.105 -46.2089 -43.1849
    vertex -242.772 -46.2089 -43.1849
    vertex -259.439 -28.947 -43.1849
  endloop
endfacet
facet normal 0 0 1
  outer loop
    vertex -309.439 -46.2089 -43.1849
    vertex -276.105 -46.2089 -43.1849
    vertex -282.347 -19.1174 -43.1849
  endloop
endfacet
facet normal 0 -0 1
  outer loop
    vertex -276.105 -46.2089 -43.1849
    vertex -259.439 -28.947 -43.1849
    vertex -282.347 -19.1174 -43.1849
  endloop
endfacet
facet normal 0 0 1
  outer loop
    vertex -209.439 -46.2089 -43.1849
    vertex -235.7 -19.9475 -43.1849
    vertex -242.772 -46.2089 -43.1849
  endloop
endfacet
facet normal 0 -0 1
  outer loop
    vertex -242.772 -46.2089 -43.1849
    vertex -235.7 -19.9475 -43.1849
    vertex -259.439 -28.947 -43.1849
  endloop
endfacet
facet normal 0 -0 1
  outer loop
    vertex -209.439 -12.8755 -43.1849
    vertex -209.439 20.4578 -43.1849
    vertex -226.701 3.79113 -43.1849
  endloop
endfacet
facet normal 0 0 1
  outer loop
    vertex -209.439 53.7911 -43.1849
    vertex -234.538 28.6919 -43.1849
    vertex -209.439 20.4578 -43.1849
  endloop
endfacet
facet normal 0 0 1
  outer loop
    vertex -209.439 20.4578 -43.1849
    vertex -234.538 28.6919 -43.1849
    vertex -226.701 3.79113 -43.1849
  endloop
endfacet
facet normal 0 -0 1
  outer loop
    vertex -209.439 -46.2089 -43.1849
    vertex -209.439 -12.8755 -43.1849
    vertex -235.7 -19.9475 -43.1849
  endloop
endfacet
facet normal 0 0 1
  outer loop
    vertex -209.439 -12.8755 -43.1849
    vertex -226.701 3.79113 -43.1849
    vertex -235.7 -19.9475 -43.1849
  endloop
endfacet
facet normal 0 0 1
  outer loop
    vertex -309.439 53.7911 -43.1849
    vertex -309.439 20.4578 -43.1849
    vertex -280.272 24.6245 -43.1849
  endloop
endfacet
facet normal -0 0 1
  outer loop
    vertex -309.439 20.4578 -43.1849
    vertex -292.177 3.79113 -43.1849
    vertex -280.272 24.6245 -43.1849
  endloop
endfacet
facet normal 0 0 1
  outer loop
    vertex -259.439 3.79113 -43.1849
    vertex -235.7 -19.9475 -43.1849
    vertex -226.701 3.79113 -43.1849
  endloop
endfacet
facet normal 0 0 1
  outer loop
    vertex -259.439 3.79113 -43.1849
    vertex -259.439 -28.947 -43.1849
    vertex -235.7 -19.9475 -43.1849
  endloop
endfacet
facet normal -0 0 1
  outer loop
    vertex -259.439 3.79113 -43.1849
    vertex -226.701 3.79113 -43.1849
    vertex -234.538 28.6919 -43.1849
  endloop
endfacet
facet normal 0 0 1
  outer loop
    vertex -259.439 3.79113 -43.1849
    vertex -234.538 28.6919 -43.1849
    vertex -259.439 36.5292 -43.1849
  endloop
endfacet
facet normal 0 0 1
  outer loop
    vertex -259.439 3.79113 -43.1849
    vertex -280.272 24.6245 -43.1849
    vertex -292.177 3.79113 -43.1849
  endloop
endfacet
facet normal 0 -0 1
  outer loop
    vertex -259.439 3.79113 -43.1849
    vertex -259.439 36.5292 -43.1849
    vertex -280.272 24.6245 -43.1849
  endloop
endfacet
facet normal 0 0 1
  outer loop
    vertex -259.439 3.79113 -43.1849
    vertex -292.177 3.79113 -43.1849
    vertex -282.347 -19.1174 -43.1849
  endloop
endfacet
facet normal 0 0 1
  outer loop
    vertex -259.439 3.79113 -43.1849
    vertex -282.347 -19.1174 -43.1849
    vertex -259.439 -28.947 -43.1849
  endloop
endfacet
endsolid Created by Gmsh
