solid Created by Gmsh
facet normal 1 0 0
  outer loop
    vertex 250 57.5 -107.5
    vertex 250 26.8984 -114.018
    vertex 250 40.9783 -150
  endloop
endfacet
facet normal 1 8.57311e-16 3.35469e-16
  outer loop
    vertex 250 0 -130
    vertex 250 40.9783 -150
    vertex 250 26.8984 -114.018
  endloop
endfacet
facet normal 1 0 0
  outer loop
    vertex 250 57.5 -107.5
    vertex 250 33.4167 -83.4167
    vertex 250 26.8984 -114.018
  endloop
endfacet
facet normal 1 8.87779e-16 -1.891e-16
  outer loop
    vertex 250 0 -90
    vertex 250 26.8984 -114.018
    vertex 250 33.4167 -83.4167
  endloop
endfacet
facet normal 1 1.05663e-15 0
  outer loop
    vertex 250 0 -90
    vertex 250 0 -130
    vertex 250 26.8984 -114.018
  endloop
endfacet
facet normal 1 -0 0
  outer loop
    vertex 250 141.02 -190.41
    vertex 250 166.583 -216.583
    vertex 250 174.223 -187.529
  endloop
endfacet
facet normal 1 0 0
  outer loop
    vertex 250 141.02 -190.41
    vertex 250 174.223 -187.529
    vertex 250 163.512 -150.654
  endloop
endfacet
facet normal 1 -8.96992e-16 2.35864e-16
  outer loop
    vertex 250 200 -210
    vertex 250 174.223 -187.529
    vertex 250 166.583 -216.583
  endloop
endfacet
facet normal 1 -9.20739e-16 -2.6743e-16
  outer loop
    vertex 250 200 -170
    vertex 250 163.512 -150.654
    vertex 250 174.223 -187.529
  endloop
endfacet
facet normal 1 -1.1026e-15 0
  outer loop
    vertex 250 200 -210
    vertex 250 200 -170
    vertex 250 174.223 -187.529
  endloop
endfacet
facet normal 1 0 -0
  outer loop
    vertex 250 57.5 -192.5
    vertex 250 79.3541 -168.269
    vertex 250 40.9783 -150
  endloop
endfacet
facet normal 1 0 0
  outer loop
    vertex 250 57.5 -192.5
    vertex 250 40.9783 -150
    vertex 250 26.8984 -185.982
  endloop
endfacet
facet normal 1 -0 0
  outer loop
    vertex 250 40.9783 -150
    vertex 250 79.3541 -168.269
    vertex 250 80.2252 -132.129
  endloop
endfacet
facet normal 1 0 0
  outer loop
    vertex 250 57.5 -107.5
    vertex 250 40.9783 -150
    vertex 250 80.2252 -132.129
  endloop
endfacet
facet normal 1 8.57311e-16 -3.35469e-16
  outer loop
    vertex 250 0 -170
    vertex 250 26.8984 -185.982
    vertex 250 40.9783 -150
  endloop
endfacet
facet normal 1 6.9358e-16 0
  outer loop
    vertex 250 0 -130
    vertex 250 0 -170
    vertex 250 40.9783 -150
  endloop
endfacet
facet normal 1 0 0
  outer loop
    vertex 250 57.5 -192.5
    vertex 250 33.4167 -216.583
    vertex 250 63.2246 -223.325
  endloop
endfacet
facet normal 1 0 0
  outer loop
    vertex 250 57.5 -192.5
    vertex 250 26.8984 -185.982
    vertex 250 33.4167 -216.583
  endloop
endfacet
facet normal 1 2.0133e-16 8.90188e-16
  outer loop
    vertex 250 40 -250
    vertex 250 63.2246 -223.325
    vertex 250 33.4167 -216.583
  endloop
endfacet
facet normal 1 8.87779e-16 1.891e-16
  outer loop
    vertex 250 0 -210
    vertex 250 33.4167 -216.583
    vertex 250 26.8984 -185.982
  endloop
endfacet
facet normal 1 8.50525e-16 -0
  outer loop
    vertex 250 0 -250
    vertex 250 33.4167 -216.583
    vertex 250 0 -210
  endloop
endfacet
facet normal 1 -0 8.50525e-16
  outer loop
    vertex 250 0 -250
    vertex 250 40 -250
    vertex 250 33.4167 -216.583
  endloop
endfacet
facet normal 1 0 0
  outer loop
    vertex 250 141.02 -190.41
    vertex 250 137.178 -223.296
    vertex 250 166.583 -216.583
  endloop
endfacet
facet normal 1 0 0
  outer loop
    vertex 250 141.02 -190.41
    vertex 250 98.2861 -209.488
    vertex 250 137.178 -223.296
  endloop
endfacet
facet normal 1 0 -0
  outer loop
    vertex 250 141.02 -190.41
    vertex 250 163.512 -150.654
    vertex 250 128.115 -151.946
  endloop
endfacet
facet normal 1 0 0
  outer loop
    vertex 250 141.02 -190.41
    vertex 250 109.961 -176.087
    vertex 250 98.2861 -209.488
  endloop
endfacet
facet normal 1 0 0
  outer loop
    vertex 250 141.02 -190.41
    vertex 250 128.115 -151.946
    vertex 250 109.961 -176.087
  endloop
endfacet
facet normal 1 0 0
  outer loop
    vertex 250 57.5 -192.5
    vertex 250 63.2246 -223.325
    vertex 250 98.2861 -209.488
  endloop
endfacet
facet normal 1 -0 0
  outer loop
    vertex 250 57.5 -192.5
    vertex 250 98.2861 -209.488
    vertex 250 79.3541 -168.269
  endloop
endfacet
facet normal 1 0 0
  outer loop
    vertex 250 57.5 -107.5
    vertex 250 97.6757 -91.2709
    vertex 250 61.7185 -76.4375
  endloop
endfacet
facet normal 1 -3.45057e-16 -8.36446e-16
  outer loop
    vertex 250 80 -50
    vertex 250 61.7185 -76.4375
    vertex 250 97.6757 -91.2709
  endloop
endfacet
facet normal 1 0 -0
  outer loop
    vertex 250 57.5 -107.5
    vertex 250 61.7185 -76.4375
    vertex 250 33.4167 -83.4167
  endloop
endfacet
facet normal 1 2.20447e-16 -8.93955e-16
  outer loop
    vertex 250 40 -50
    vertex 250 33.4167 -83.4167
    vertex 250 61.7185 -76.4375
  endloop
endfacet
facet normal 1 0 -1.07505e-15
  outer loop
    vertex 250 80 -50
    vertex 250 40 -50
    vertex 250 61.7185 -76.4375
  endloop
endfacet
facet normal 1 -3.36877e-16 8.53621e-16
  outer loop
    vertex 250 80 -250
    vertex 250 98.2861 -209.488
    vertex 250 63.2246 -223.325
  endloop
endfacet
facet normal 1 -0 1.06548e-15
  outer loop
    vertex 250 40 -250
    vertex 250 80 -250
    vertex 250 63.2246 -223.325
  endloop
endfacet
facet normal 1 0 0
  outer loop
    vertex 250 140.427 -111.37
    vertex 250 136.937 -77.2115
    vertex 250 97.6757 -91.2709
  endloop
endfacet
facet normal 1 3.0585e-16 -8.54104e-16
  outer loop
    vertex 250 120 -50
    vertex 250 97.6757 -91.2709
    vertex 250 136.937 -77.2115
  endloop
endfacet
facet normal 1 0 -0
  outer loop
    vertex 250 140.427 -111.37
    vertex 250 166.583 -83.4167
    vertex 250 136.937 -77.2115
  endloop
endfacet
facet normal 1 -1.85679e-16 -8.87105e-16
  outer loop
    vertex 250 160 -50
    vertex 250 136.937 -77.2115
    vertex 250 166.583 -83.4167
  endloop
endfacet
facet normal 1 0 -1.04447e-15
  outer loop
    vertex 250 160 -50
    vertex 250 120 -50
    vertex 250 136.937 -77.2115
  endloop
endfacet
facet normal 1 0 0
  outer loop
    vertex 250 100.152 -151.783
    vertex 250 80.2252 -132.129
    vertex 250 79.3541 -168.269
  endloop
endfacet
facet normal 1 0 0
  outer loop
    vertex 250 100.152 -151.783
    vertex 250 79.3541 -168.269
    vertex 250 109.961 -176.087
  endloop
endfacet
facet normal 1 0 -0
  outer loop
    vertex 250 98.2861 -209.488
    vertex 250 109.961 -176.087
    vertex 250 79.3541 -168.269
  endloop
endfacet
facet normal 1 0 -0
  outer loop
    vertex 250 100.152 -151.783
    vertex 250 110.266 -124.94
    vertex 250 80.2252 -132.129
  endloop
endfacet
facet normal 1 -0 0
  outer loop
    vertex 250 100.152 -151.783
    vertex 250 128.115 -151.946
    vertex 250 110.266 -124.94
  endloop
endfacet
facet normal 1 0 0
  outer loop
    vertex 250 100.152 -151.783
    vertex 250 109.961 -176.087
    vertex 250 128.115 -151.946
  endloop
endfacet
facet normal 1 -2.03308e-16 8.90578e-16
  outer loop
    vertex 250 160 -250
    vertex 250 166.583 -216.583
    vertex 250 137.178 -223.296
  endloop
endfacet
facet normal 1 3.07626e-16 8.66447e-16
  outer loop
    vertex 250 120 -250
    vertex 250 137.178 -223.296
    vertex 250 98.2861 -209.488
  endloop
endfacet
facet normal 1 -0 1.06433e-15
  outer loop
    vertex 250 120 -250
    vertex 250 160 -250
    vertex 250 137.178 -223.296
  endloop
endfacet
facet normal 1 0 0
  outer loop
    vertex 250 140.427 -111.37
    vertex 250 97.6757 -91.2709
    vertex 250 110.266 -124.94
  endloop
endfacet
facet normal 1 -0 0
  outer loop
    vertex 250 57.5 -107.5
    vertex 250 80.2252 -132.129
    vertex 250 97.6757 -91.2709
  endloop
endfacet
facet normal 1 0 0
  outer loop
    vertex 250 97.6757 -91.2709
    vertex 250 80.2252 -132.129
    vertex 250 110.266 -124.94
  endloop
endfacet
facet normal 1 0 -6.88663e-16
  outer loop
    vertex 250 120 -50
    vertex 250 80 -50
    vertex 250 97.6757 -91.2709
  endloop
endfacet
facet normal 1 -0 0
  outer loop
    vertex 250 140.427 -111.37
    vertex 250 173.467 -113.679
    vertex 250 166.583 -83.4167
  endloop
endfacet
facet normal 1 0 0
  outer loop
    vertex 250 140.427 -111.37
    vertex 250 163.512 -150.654
    vertex 250 173.467 -113.679
  endloop
endfacet
facet normal 1 0 0
  outer loop
    vertex 250 140.427 -111.37
    vertex 250 128.115 -151.946
    vertex 250 163.512 -150.654
  endloop
endfacet
facet normal 1 0 0
  outer loop
    vertex 250 140.427 -111.37
    vertex 250 110.266 -124.94
    vertex 250 128.115 -151.946
  endloop
endfacet
facet normal 1 0 8.50525e-16
  outer loop
    vertex 250 200 -250
    vertex 250 166.583 -216.583
    vertex 250 160 -250
  endloop
endfacet
facet normal 1 -8.50525e-16 0
  outer loop
    vertex 250 200 -250
    vertex 250 200 -210
    vertex 250 166.583 -216.583
  endloop
endfacet
facet normal 1 -8.90428e-16 -2.02544e-16
  outer loop
    vertex 250 200 -90
    vertex 250 166.583 -83.4167
    vertex 250 173.467 -113.679
  endloop
endfacet
facet normal 1 -8.50525e-16 0
  outer loop
    vertex 250 200 -50
    vertex 250 166.583 -83.4167
    vertex 250 200 -90
  endloop
endfacet
facet normal 1 0 -8.50525e-16
  outer loop
    vertex 250 200 -50
    vertex 250 160 -50
    vertex 250 166.583 -83.4167
  endloop
endfacet
facet normal 1 -9.18994e-16 2.47423e-16
  outer loop
    vertex 250 200 -130
    vertex 250 173.467 -113.679
    vertex 250 163.512 -150.654
  endloop
endfacet
facet normal 1 -7.78942e-16 0
  outer loop
    vertex 250 200 -170
    vertex 250 200 -130
    vertex 250 163.512 -150.654
  endloop
endfacet
facet normal 1 8.50525e-16 0
  outer loop
    vertex 250 0 -50
    vertex 250 0 -90
    vertex 250 33.4167 -83.4167
  endloop
endfacet
facet normal 1 0 -8.50525e-16
  outer loop
    vertex 250 0 -50
    vertex 250 33.4167 -83.4167
    vertex 250 40 -50
  endloop
endfacet
facet normal 1 1.05663e-15 0
  outer loop
    vertex 250 0 -170
    vertex 250 0 -210
    vertex 250 26.8984 -185.982
  endloop
endfacet
facet normal 1 -0 7.01563e-16
  outer loop
    vertex 250 80 -250
    vertex 250 120 -250
    vertex 250 98.2861 -209.488
  endloop
endfacet
facet normal 1 -1.07119e-15 0
  outer loop
    vertex 250 200 -130
    vertex 250 200 -90
    vertex 250 173.467 -113.679
  endloop
endfacet
facet normal -1 0 0
  outer loop
    vertex 50 120 -250
    vertex 50 137.587 -223.5
    vertex 50 160 -250
  endloop
endfacet
facet normal -1 0 0
  outer loop
    vertex 50 102.065 -209.213
    vertex 50 137.587 -223.5
    vertex 50 120 -250
  endloop
endfacet
facet normal -1 0 0
  outer loop
    vertex 50 137.587 -223.5
    vertex 50 166.583 -216.583
    vertex 50 160 -250
  endloop
endfacet
facet normal -1 0 0
  outer loop
    vertex 50 137.587 -223.5
    vertex 50 102.065 -209.213
    vertex 50 142.5 -192.5
  endloop
endfacet
facet normal -1 -0 0
  outer loop
    vertex 50 166.583 -216.583
    vertex 50 137.587 -223.5
    vertex 50 142.5 -192.5
  endloop
endfacet
facet normal -1 -0 0
  outer loop
    vertex 50 80 -50
    vertex 50 62.4126 -76.5001
    vertex 50 40 -50
  endloop
endfacet
facet normal -1 -0 0
  outer loop
    vertex 50 62.4126 -76.5001
    vertex 50 33.4167 -83.4167
    vertex 50 40 -50
  endloop
endfacet
facet normal -1 0 0
  outer loop
    vertex 50 97.9348 -90.7871
    vertex 50 62.4126 -76.5001
    vertex 50 80 -50
  endloop
endfacet
facet normal -1 0 0
  outer loop
    vertex 50 33.4167 -83.4167
    vertex 50 62.4126 -76.5001
    vertex 50 57.5 -107.5
  endloop
endfacet
facet normal -1 0 -0
  outer loop
    vertex 50 62.4126 -76.5001
    vertex 50 97.9348 -90.7871
    vertex 50 57.5 -107.5
  endloop
endfacet
facet normal -1 0 0
  outer loop
    vertex 50 200 -130
    vertex 50 173.5 -112.413
    vertex 50 200 -90
  endloop
endfacet
facet normal -1 0 0
  outer loop
    vertex 50 173.5 -112.413
    vertex 50 166.583 -83.4167
    vertex 50 200 -90
  endloop
endfacet
facet normal -1 0 0
  outer loop
    vertex 50 159.213 -147.935
    vertex 50 173.5 -112.413
    vertex 50 200 -130
  endloop
endfacet
facet normal -1 -0 0
  outer loop
    vertex 50 173.5 -112.413
    vertex 50 159.213 -147.935
    vertex 50 142.5 -107.5
  endloop
endfacet
facet normal -1 0 -0
  outer loop
    vertex 50 166.583 -83.4167
    vertex 50 173.5 -112.413
    vertex 50 142.5 -107.5
  endloop
endfacet
facet normal -1 -0 0
  outer loop
    vertex 50 160 -50
    vertex 50 137.404 -76.3408
    vertex 50 120 -50
  endloop
endfacet
facet normal -1 -0 0
  outer loop
    vertex 50 137.404 -76.3408
    vertex 50 97.9348 -90.7871
    vertex 50 120 -50
  endloop
endfacet
facet normal -1 0 0
  outer loop
    vertex 50 166.583 -83.4167
    vertex 50 137.404 -76.3408
    vertex 50 160 -50
  endloop
endfacet
facet normal -1 0 0
  outer loop
    vertex 50 97.9348 -90.7871
    vertex 50 137.404 -76.3408
    vertex 50 142.5 -107.5
  endloop
endfacet
facet normal -1 0 0
  outer loop
    vertex 50 137.404 -76.3408
    vertex 50 166.583 -83.4167
    vertex 50 142.5 -107.5
  endloop
endfacet
facet normal -1 0 0
  outer loop
    vertex 50 0 -170
    vertex 50 26.5001 -187.587
    vertex 50 0 -210
  endloop
endfacet
facet normal -1 0 -0
  outer loop
    vertex 50 26.5001 -187.587
    vertex 50 33.4167 -216.583
    vertex 50 0 -210
  endloop
endfacet
facet normal -1 0 0
  outer loop
    vertex 50 40.7871 -152.065
    vertex 50 26.5001 -187.587
    vertex 50 0 -170
  endloop
endfacet
facet normal -1 0 0
  outer loop
    vertex 50 26.5001 -187.587
    vertex 50 40.7871 -152.065
    vertex 50 57.5 -192.5
  endloop
endfacet
facet normal -1 0 0
  outer loop
    vertex 50 33.4167 -216.583
    vertex 50 26.5001 -187.587
    vertex 50 57.5 -192.5
  endloop
endfacet
facet normal -1 0 0
  outer loop
    vertex 50 40 -250
    vertex 50 62.5964 -223.659
    vertex 50 80 -250
  endloop
endfacet
facet normal -1 0 -0
  outer loop
    vertex 50 33.4167 -216.583
    vertex 50 40 -250
    vertex 50 0 -250
  endloop
endfacet
facet normal -1 0 0
  outer loop
    vertex 50 33.4167 -216.583
    vertex 50 62.5964 -223.659
    vertex 50 40 -250
  endloop
endfacet
facet normal -1 0 0
  outer loop
    vertex 50 0 -130
    vertex 50 40.7871 -152.065
    vertex 50 0 -170
  endloop
endfacet
facet normal -1 0 0
  outer loop
    vertex 50 0 -90
    vertex 50 26.3408 -112.596
    vertex 50 0 -130
  endloop
endfacet
facet normal -1 0 -0
  outer loop
    vertex 50 26.3408 -112.596
    vertex 50 40.7871 -152.065
    vertex 50 0 -130
  endloop
endfacet
facet normal -1 0 0
  outer loop
    vertex 50 80 -250
    vertex 50 102.065 -209.213
    vertex 50 120 -250
  endloop
endfacet
facet normal -1 0 0
  outer loop
    vertex 50 200 -210
    vertex 50 173.659 -187.404
    vertex 50 200 -170
  endloop
endfacet
facet normal -1 0 0
  outer loop
    vertex 50 166.583 -216.583
    vertex 50 200 -210
    vertex 50 200 -250
  endloop
endfacet
facet normal -1 0 0
  outer loop
    vertex 50 166.583 -216.583
    vertex 50 173.659 -187.404
    vertex 50 200 -210
  endloop
endfacet
facet normal -1 0 0
  outer loop
    vertex 50 0 -210
    vertex 50 33.4167 -216.583
    vertex 50 0 -250
  endloop
endfacet
facet normal -1 -0 0
  outer loop
    vertex 50 120 -50
    vertex 50 97.9348 -90.7871
    vertex 50 80 -50
  endloop
endfacet
facet normal -1 0 0
  outer loop
    vertex 50 166.583 -83.4167
    vertex 50 160 -50
    vertex 50 200 -50
  endloop
endfacet
facet normal -1 0 0
  outer loop
    vertex 50 62.5964 -223.659
    vertex 50 102.065 -209.213
    vertex 50 80 -250
  endloop
endfacet
facet normal -1 0 0
  outer loop
    vertex 50 200 -90
    vertex 50 166.583 -83.4167
    vertex 50 200 -50
  endloop
endfacet
facet normal -1 -0 0
  outer loop
    vertex 50 40 -50
    vertex 50 33.4167 -83.4167
    vertex 50 0 -50
  endloop
endfacet
facet normal -1 0 0
  outer loop
    vertex 50 160 -250
    vertex 50 166.583 -216.583
    vertex 50 200 -250
  endloop
endfacet
facet normal -1 0 0
  outer loop
    vertex 50 200 -170
    vertex 50 159.213 -147.935
    vertex 50 200 -130
  endloop
endfacet
facet normal -1 -0 0
  outer loop
    vertex 50 33.4167 -83.4167
    vertex 50 0 -90
    vertex 50 0 -50
  endloop
endfacet
facet normal -1 0 0
  outer loop
    vertex 50 33.4167 -83.4167
    vertex 50 26.3408 -112.596
    vertex 50 0 -90
  endloop
endfacet
facet normal -1 0 0
  outer loop
    vertex 50 173.659 -187.404
    vertex 50 159.213 -147.935
    vertex 50 200 -170
  endloop
endfacet
facet normal -1 0 0
  outer loop
    vertex 50 26.3408 -112.596
    vertex 50 33.4167 -83.4167
    vertex 50 57.5 -107.5
  endloop
endfacet
facet normal -1 0 0
  outer loop
    vertex 50 126.331 -163.931
    vertex 50 113.793 -123.71
    vertex 50 159.213 -147.935
  endloop
endfacet
facet normal -1 0 0
  outer loop
    vertex 50 159.213 -147.935
    vertex 50 113.793 -123.71
    vertex 50 142.5 -107.5
  endloop
endfacet
facet normal -1 0 0
  outer loop
    vertex 50 76.6094 -134.915
    vertex 50 113.793 -123.71
    vertex 50 100 -150
  endloop
endfacet
facet normal -1 -0 0
  outer loop
    vertex 50 113.793 -123.71
    vertex 50 76.6094 -134.915
    vertex 50 97.9348 -90.7871
  endloop
endfacet
facet normal -1 0 -0
  outer loop
    vertex 50 113.793 -123.71
    vertex 50 126.331 -163.931
    vertex 50 100 -150
  endloop
endfacet
facet normal -1 0 0
  outer loop
    vertex 50 113.793 -123.71
    vertex 50 97.9348 -90.7871
    vertex 50 142.5 -107.5
  endloop
endfacet
facet normal -1 0 0
  outer loop
    vertex 50 126.331 -163.931
    vertex 50 159.213 -147.935
    vertex 50 142.5 -192.5
  endloop
endfacet
facet normal -1 0 -0
  outer loop
    vertex 50 159.213 -147.935
    vertex 50 173.659 -187.404
    vertex 50 142.5 -192.5
  endloop
endfacet
facet normal -1 0 0
  outer loop
    vertex 50 84.8942 -173.359
    vertex 50 76.6094 -134.915
    vertex 50 100 -150
  endloop
endfacet
facet normal -1 0 0
  outer loop
    vertex 50 97.9348 -90.7871
    vertex 50 76.6094 -134.915
    vertex 50 57.5 -107.5
  endloop
endfacet
facet normal -1 0 -0
  outer loop
    vertex 50 76.6094 -134.915
    vertex 50 84.8942 -173.359
    vertex 50 40.7871 -152.065
  endloop
endfacet
facet normal -1 -0 0
  outer loop
    vertex 50 76.6094 -134.915
    vertex 50 40.7871 -152.065
    vertex 50 57.5 -107.5
  endloop
endfacet
facet normal -1 0 0
  outer loop
    vertex 50 102.065 -209.213
    vertex 50 126.331 -163.931
    vertex 50 142.5 -192.5
  endloop
endfacet
facet normal -1 0 0
  outer loop
    vertex 50 84.8942 -173.359
    vertex 50 126.331 -163.931
    vertex 50 102.065 -209.213
  endloop
endfacet
facet normal -1 -0 0
  outer loop
    vertex 50 126.331 -163.931
    vertex 50 84.8942 -173.359
    vertex 50 100 -150
  endloop
endfacet
facet normal -1 0 0
  outer loop
    vertex 50 173.659 -187.404
    vertex 50 166.583 -216.583
    vertex 50 142.5 -192.5
  endloop
endfacet
facet normal -1 -0 0
  outer loop
    vertex 50 102.065 -209.213
    vertex 50 62.5964 -223.659
    vertex 50 57.5 -192.5
  endloop
endfacet
facet normal -1 0 -0
  outer loop
    vertex 50 84.8942 -173.359
    vertex 50 102.065 -209.213
    vertex 50 57.5 -192.5
  endloop
endfacet
facet normal -1 0 0
  outer loop
    vertex 50 40.7871 -152.065
    vertex 50 26.3408 -112.596
    vertex 50 57.5 -107.5
  endloop
endfacet
facet normal -1 0 0
  outer loop
    vertex 50 62.5964 -223.659
    vertex 50 33.4167 -216.583
    vertex 50 57.5 -192.5
  endloop
endfacet
facet normal -1 0 0
  outer loop
    vertex 50 40.7871 -152.065
    vertex 50 84.8942 -173.359
    vertex 50 57.5 -192.5
  endloop
endfacet
facet normal 0 -1 0
  outer loop
    vertex 223.5 200 -112.413
    vertex 250 200 -130
    vertex 250 200 -90
  endloop
endfacet
facet normal 0 -1 0
  outer loop
    vertex 250 200 -90
    vertex 250 200 -50
    vertex 216.583 200 -83.4167
  endloop
endfacet
facet normal 0 -1 0
  outer loop
    vertex 223.5 200 -112.413
    vertex 250 200 -90
    vertex 216.583 200 -83.4167
  endloop
endfacet
facet normal -0 -1 0
  outer loop
    vertex 76.5001 200 -187.587
    vertex 50 200 -170
    vertex 50 200 -210
  endloop
endfacet
facet normal 0 -1 0
  outer loop
    vertex 50 200 -210
    vertex 50 200 -250
    vertex 83.4167 200 -216.583
  endloop
endfacet
facet normal 0 -1 -0
  outer loop
    vertex 76.5001 200 -187.587
    vertex 50 200 -210
    vertex 83.4167 200 -216.583
  endloop
endfacet
facet normal 0 -1 0
  outer loop
    vertex 209.213 200 -147.935
    vertex 250 200 -170
    vertex 250 200 -130
  endloop
endfacet
facet normal 0 -1 0
  outer loop
    vertex 209.213 200 -147.935
    vertex 250 200 -130
    vertex 223.5 200 -112.413
  endloop
endfacet
facet normal 0 -1 0
  outer loop
    vertex 223.764 200 -187.508
    vertex 250 200 -210
    vertex 250 200 -170
  endloop
endfacet
facet normal 0 -1 0
  outer loop
    vertex 223.764 200 -187.508
    vertex 250 200 -170
    vertex 209.213 200 -147.935
  endloop
endfacet
facet normal -0 -1 0
  outer loop
    vertex 76.0531 200 -112.309
    vertex 50 200 -90
    vertex 50 200 -130
  endloop
endfacet
facet normal -0 -1 0
  outer loop
    vertex 81.9782 200 -81.9782
    vertex 50 200 -50
    vertex 50 200 -90
  endloop
endfacet
facet normal 0 -1 0
  outer loop
    vertex 81.9782 200 -81.9782
    vertex 50 200 -90
    vertex 76.0531 200 -112.309
  endloop
endfacet
facet normal -0 -1 0
  outer loop
    vertex 90.7871 200 -152.065
    vertex 50 200 -130
    vertex 50 200 -170
  endloop
endfacet
facet normal 0 -1 -0
  outer loop
    vertex 76.0531 200 -112.309
    vertex 50 200 -130
    vertex 90.7871 200 -152.065
  endloop
endfacet
facet normal 0 -1 0
  outer loop
    vertex 90.7871 200 -152.065
    vertex 50 200 -170
    vertex 76.5001 200 -187.587
  endloop
endfacet
facet normal 0 -1 -0
  outer loop
    vertex 83.4167 200 -216.583
    vertex 50 200 -250
    vertex 90 200 -250
  endloop
endfacet
facet normal 0 -1 0
  outer loop
    vertex 83.4167 200 -216.583
    vertex 90 200 -250
    vertex 112.596 200 -223.659
  endloop
endfacet
facet normal 0 -1 0
  outer loop
    vertex 83.4167 200 -216.583
    vertex 107.5 200 -192.5
    vertex 76.5001 200 -187.587
  endloop
endfacet
facet normal 0 -1 0
  outer loop
    vertex 112.596 200 -223.659
    vertex 107.5 200 -192.5
    vertex 83.4167 200 -216.583
  endloop
endfacet
facet normal 0 -1 0
  outer loop
    vertex 216.583 200 -83.4167
    vertex 250 200 -50
    vertex 210 200 -50
  endloop
endfacet
facet normal 0 -1 0
  outer loop
    vertex 216.583 200 -83.4167
    vertex 210 200 -50
    vertex 187.404 200 -76.3408
  endloop
endfacet
facet normal 0 -1 0
  outer loop
    vertex 187.404 200 -76.3408
    vertex 192.5 200 -107.5
    vertex 216.583 200 -83.4167
  endloop
endfacet
facet normal 0 -1 -0
  outer loop
    vertex 216.583 200 -83.4167
    vertex 192.5 200 -107.5
    vertex 223.5 200 -112.413
  endloop
endfacet
facet normal 0 -1 0
  outer loop
    vertex 152.065 200 -209.213
    vertex 192.5 200 -192.5
    vertex 176.331 200 -163.931
  endloop
endfacet
facet normal 0 -1 0
  outer loop
    vertex 176.331 200 -163.931
    vertex 192.5 200 -192.5
    vertex 209.213 200 -147.935
  endloop
endfacet
facet normal 0 -1 0
  outer loop
    vertex 135.165 200 -173.279
    vertex 152.065 200 -209.213
    vertex 176.331 200 -163.931
  endloop
endfacet
facet normal -0 -1 0
  outer loop
    vertex 176.331 200 -163.931
    vertex 150 200 -150
    vertex 135.165 200 -173.279
  endloop
endfacet
facet normal 0 -1 -0
  outer loop
    vertex 164.835 200 -126.721
    vertex 150 200 -150
    vertex 176.331 200 -163.931
  endloop
endfacet
facet normal 0 -1 0
  outer loop
    vertex 176.331 200 -163.931
    vertex 209.213 200 -147.935
    vertex 164.835 200 -126.721
  endloop
endfacet
facet normal -0 -1 0
  outer loop
    vertex 170 200 -50
    vertex 130 200 -50
    vertex 147.935 200 -90.7871
  endloop
endfacet
facet normal -0 -1 0
  outer loop
    vertex 210 200 -50
    vertex 170 200 -50
    vertex 187.404 200 -76.3408
  endloop
endfacet
facet normal -0 -1 0
  outer loop
    vertex 187.404 200 -76.3408
    vertex 170 200 -50
    vertex 147.935 200 -90.7871
  endloop
endfacet
facet normal 0 -1 0
  outer loop
    vertex 170 200 -250
    vertex 210 200 -250
    vertex 188.335 200 -223.764
  endloop
endfacet
facet normal 0 -1 0
  outer loop
    vertex 210 200 -250
    vertex 250 200 -250
    vertex 217.108 200 -217.108
  endloop
endfacet
facet normal 0 -1 0
  outer loop
    vertex 188.335 200 -223.764
    vertex 210 200 -250
    vertex 217.108 200 -217.108
  endloop
endfacet
facet normal -0 -1 0
  outer loop
    vertex 123.669 200 -136.069
    vertex 107.5 200 -107.5
    vertex 90.7871 200 -152.065
  endloop
endfacet
facet normal 0 -1 0
  outer loop
    vertex 147.935 200 -90.7871
    vertex 107.5 200 -107.5
    vertex 123.669 200 -136.069
  endloop
endfacet
facet normal 0 -1 -0
  outer loop
    vertex 123.669 200 -136.069
    vertex 90.7871 200 -152.065
    vertex 135.165 200 -173.279
  endloop
endfacet
facet normal -0 -1 0
  outer loop
    vertex 164.835 200 -126.721
    vertex 147.935 200 -90.7871
    vertex 123.669 200 -136.069
  endloop
endfacet
facet normal 0 -1 0
  outer loop
    vertex 135.165 200 -173.279
    vertex 150 200 -150
    vertex 123.669 200 -136.069
  endloop
endfacet
facet normal 0 -1 0
  outer loop
    vertex 123.669 200 -136.069
    vertex 150 200 -150
    vertex 164.835 200 -126.721
  endloop
endfacet
facet normal -0 -1 0
  outer loop
    vertex 130 200 -50
    vertex 90 200 -50
    vertex 111.483 200 -76.0531
  endloop
endfacet
facet normal -0 -1 0
  outer loop
    vertex 90 200 -50
    vertex 50 200 -50
    vertex 81.9782 200 -81.9782
  endloop
endfacet
facet normal -0 -1 0
  outer loop
    vertex 111.483 200 -76.0531
    vertex 90 200 -50
    vertex 81.9782 200 -81.9782
  endloop
endfacet
facet normal 0 -1 0
  outer loop
    vertex 90 200 -250
    vertex 130 200 -250
    vertex 112.596 200 -223.659
  endloop
endfacet
facet normal 0 -1 0
  outer loop
    vertex 147.935 200 -90.7871
    vertex 130 200 -50
    vertex 111.483 200 -76.0531
  endloop
endfacet
facet normal 0 -1 0
  outer loop
    vertex 130 200 -250
    vertex 170 200 -250
    vertex 152.065 200 -209.213
  endloop
endfacet
facet normal 0 -1 0
  outer loop
    vertex 152.065 200 -209.213
    vertex 170 200 -250
    vertex 188.335 200 -223.764
  endloop
endfacet
facet normal 0 -1 0
  outer loop
    vertex 112.596 200 -223.659
    vertex 130 200 -250
    vertex 152.065 200 -209.213
  endloop
endfacet
facet normal 0 -1 0
  outer loop
    vertex 217.108 200 -217.108
    vertex 250 200 -250
    vertex 250 200 -210
  endloop
endfacet
facet normal 0 -1 0
  outer loop
    vertex 217.108 200 -217.108
    vertex 250 200 -210
    vertex 223.764 200 -187.508
  endloop
endfacet
facet normal 0 -1 0
  outer loop
    vertex 90.7871 200 -152.065
    vertex 107.5 200 -107.5
    vertex 76.0531 200 -112.309
  endloop
endfacet
facet normal 0 -1 -0
  outer loop
    vertex 111.483 200 -76.0531
    vertex 107.5 200 -107.5
    vertex 147.935 200 -90.7871
  endloop
endfacet
facet normal 0 -1 0
  outer loop
    vertex 81.9782 200 -81.9782
    vertex 107.5 200 -107.5
    vertex 111.483 200 -76.0531
  endloop
endfacet
facet normal 0 -1 0
  outer loop
    vertex 76.0531 200 -112.309
    vertex 107.5 200 -107.5
    vertex 81.9782 200 -81.9782
  endloop
endfacet
facet normal 0 -1 0
  outer loop
    vertex 147.935 200 -90.7871
    vertex 192.5 200 -107.5
    vertex 187.404 200 -76.3408
  endloop
endfacet
facet normal 0 -1 0
  outer loop
    vertex 164.835 200 -126.721
    vertex 192.5 200 -107.5
    vertex 147.935 200 -90.7871
  endloop
endfacet
facet normal 0 -1 0
  outer loop
    vertex 209.213 200 -147.935
    vertex 192.5 200 -107.5
    vertex 164.835 200 -126.721
  endloop
endfacet
facet normal -0 -1 0
  outer loop
    vertex 223.5 200 -112.413
    vertex 192.5 200 -107.5
    vertex 209.213 200 -147.935
  endloop
endfacet
facet normal 0 -1 0
  outer loop
    vertex 90.7871 200 -152.065
    vertex 107.5 200 -192.5
    vertex 135.165 200 -173.279
  endloop
endfacet
facet normal 0 -1 0
  outer loop
    vertex 76.5001 200 -187.587
    vertex 107.5 200 -192.5
    vertex 90.7871 200 -152.065
  endloop
endfacet
facet normal 0 -1 -0
  outer loop
    vertex 135.165 200 -173.279
    vertex 107.5 200 -192.5
    vertex 152.065 200 -209.213
  endloop
endfacet
facet normal -0 -1 0
  outer loop
    vertex 152.065 200 -209.213
    vertex 107.5 200 -192.5
    vertex 112.596 200 -223.659
  endloop
endfacet
facet normal 0 -1 0
  outer loop
    vertex 188.335 200 -223.764
    vertex 192.5 200 -192.5
    vertex 152.065 200 -209.213
  endloop
endfacet
facet normal 0 -1 -0
  outer loop
    vertex 209.213 200 -147.935
    vertex 192.5 200 -192.5
    vertex 223.764 200 -187.508
  endloop
endfacet
facet normal -0 -1 0
  outer loop
    vertex 217.108 200 -217.108
    vertex 192.5 200 -192.5
    vertex 188.335 200 -223.764
  endloop
endfacet
facet normal 0 -1 0
  outer loop
    vertex 223.764 200 -187.508
    vertex 192.5 200 -192.5
    vertex 217.108 200 -217.108
  endloop
endfacet
facet normal 0 1 0
  outer loop
    vertex 140.039 0 -176.087
    vertex 108.98 0 -190.41
    vertex 121.842 0 -152.062
  endloop
endfacet
facet normal -0 1 0
  outer loop
    vertex 121.842 0 -152.062
    vertex 149.848 0 -151.783
    vertex 140.039 0 -176.087
  endloop
endfacet
facet normal 0 1 0
  outer loop
    vertex 170.592 0 -168.181
    vertex 151.714 0 -209.488
    vertex 140.039 0 -176.087
  endloop
endfacet
facet normal 0 1 0
  outer loop
    vertex 140.039 0 -176.087
    vertex 149.848 0 -151.783
    vertex 170.592 0 -168.181
  endloop
endfacet
facet normal 0 1 0
  outer loop
    vertex 151.714 0 -209.488
    vertex 108.98 0 -190.41
    vertex 140.039 0 -176.087
  endloop
endfacet
facet normal 0 1 0
  outer loop
    vertex 83.4167 0 -83.4167
    vertex 90 0 -50
    vertex 113.063 0 -77.2115
  endloop
endfacet
facet normal 0 1 0
  outer loop
    vertex 113.063 0 -77.2115
    vertex 109.573 0 -111.37
    vertex 83.4167 0 -83.4167
  endloop
endfacet
facet normal -0 1 0
  outer loop
    vertex 90 0 -50
    vertex 130 0 -50
    vertex 113.063 0 -77.2115
  endloop
endfacet
facet normal -0 1 0
  outer loop
    vertex 113.063 0 -77.2115
    vertex 130 0 -50
    vertex 152.324 0 -91.2709
  endloop
endfacet
facet normal 0 1 0
  outer loop
    vertex 152.324 0 -91.2709
    vertex 109.573 0 -111.37
    vertex 113.063 0 -77.2115
  endloop
endfacet
facet normal -0 1 0
  outer loop
    vertex 223.102 0 -114.018
    vertex 250 0 -90
    vertex 250 0 -130
  endloop
endfacet
facet normal 0 1 0
  outer loop
    vertex 216.583 0 -83.4167
    vertex 250 0 -90
    vertex 223.102 0 -114.018
  endloop
endfacet
facet normal 0 1 0
  outer loop
    vertex 223.102 0 -114.018
    vertex 250 0 -130
    vertex 209.022 0 -150
  endloop
endfacet
facet normal 0 1 -0
  outer loop
    vertex 209.022 0 -150
    vertex 192.5 0 -107.5
    vertex 223.102 0 -114.018
  endloop
endfacet
facet normal 0 1 0
  outer loop
    vertex 223.102 0 -114.018
    vertex 192.5 0 -107.5
    vertex 216.583 0 -83.4167
  endloop
endfacet
facet normal 0 1 -0
  outer loop
    vertex 76.5329 0 -113.679
    vertex 50 0 -90
    vertex 83.4167 0 -83.4167
  endloop
endfacet
facet normal 0 1 0
  outer loop
    vertex 83.4167 0 -83.4167
    vertex 109.573 0 -111.37
    vertex 76.5329 0 -113.679
  endloop
endfacet
facet normal 0 1 0
  outer loop
    vertex 50 0 -90
    vertex 50 0 -50
    vertex 83.4167 0 -83.4167
  endloop
endfacet
facet normal 0 1 -0
  outer loop
    vertex 83.4167 0 -83.4167
    vertex 50 0 -50
    vertex 90 0 -50
  endloop
endfacet
facet normal -0 1 0
  outer loop
    vertex 139.368 0 -125.916
    vertex 152.324 0 -91.2709
    vertex 169.321 0 -131.387
  endloop
endfacet
facet normal 0 1 0
  outer loop
    vertex 169.321 0 -131.387
    vertex 149.848 0 -151.783
    vertex 139.368 0 -125.916
  endloop
endfacet
facet normal 0 1 -0
  outer loop
    vertex 121.842 0 -152.062
    vertex 109.573 0 -111.37
    vertex 139.368 0 -125.916
  endloop
endfacet
facet normal 0 1 0
  outer loop
    vertex 139.368 0 -125.916
    vertex 149.848 0 -151.783
    vertex 121.842 0 -152.062
  endloop
endfacet
facet normal 0 1 -0
  outer loop
    vertex 139.368 0 -125.916
    vertex 109.573 0 -111.37
    vertex 152.324 0 -91.2709
  endloop
endfacet
facet normal 0 1 0
  outer loop
    vertex 169.321 0 -131.387
    vertex 209.022 0 -150
    vertex 170.592 0 -168.181
  endloop
endfacet
facet normal 0 1 0
  outer loop
    vertex 170.592 0 -168.181
    vertex 149.848 0 -151.783
    vertex 169.321 0 -131.387
  endloop
endfacet
facet normal -0 1 0
  outer loop
    vertex 169.321 0 -131.387
    vertex 192.5 0 -107.5
    vertex 209.022 0 -150
  endloop
endfacet
facet normal 0 1 0
  outer loop
    vertex 152.324 0 -91.2709
    vertex 192.5 0 -107.5
    vertex 169.321 0 -131.387
  endloop
endfacet
facet normal 0 1 0
  outer loop
    vertex 223.102 0 -185.982
    vertex 250 0 -210
    vertex 217.108 0 -217.108
  endloop
endfacet
facet normal 0 1 -0
  outer loop
    vertex 217.108 0 -217.108
    vertex 192.5 0 -192.5
    vertex 223.102 0 -185.982
  endloop
endfacet
facet normal 0 1 0
  outer loop
    vertex 217.108 0 -217.108
    vertex 210 0 -250
    vertex 187.146 0 -223.468
  endloop
endfacet
facet normal 0 1 0
  outer loop
    vertex 187.146 0 -223.468
    vertex 192.5 0 -192.5
    vertex 217.108 0 -217.108
  endloop
endfacet
facet normal 0 1 0
  outer loop
    vertex 250 0 -210
    vertex 250 0 -250
    vertex 217.108 0 -217.108
  endloop
endfacet
facet normal 0 1 0
  outer loop
    vertex 217.108 0 -217.108
    vertex 250 0 -250
    vertex 210 0 -250
  endloop
endfacet
facet normal -0 1 0
  outer loop
    vertex 223.102 0 -185.982
    vertex 250 0 -170
    vertex 250 0 -210
  endloop
endfacet
facet normal 0 1 0
  outer loop
    vertex 209.022 0 -150
    vertex 250 0 -170
    vertex 223.102 0 -185.982
  endloop
endfacet
facet normal 0 1 0
  outer loop
    vertex 223.102 0 -185.982
    vertex 192.5 0 -192.5
    vertex 209.022 0 -150
  endloop
endfacet
facet normal 0 1 0
  outer loop
    vertex 210 0 -250
    vertex 170 0 -250
    vertex 187.146 0 -223.468
  endloop
endfacet
facet normal 0 1 0
  outer loop
    vertex 187.146 0 -223.468
    vertex 170 0 -250
    vertex 151.714 0 -209.488
  endloop
endfacet
facet normal -0 1 0
  outer loop
    vertex 151.714 0 -209.488
    vertex 192.5 0 -192.5
    vertex 187.146 0 -223.468
  endloop
endfacet
facet normal 0 1 0
  outer loop
    vertex 130 0 -250
    vertex 90 0 -250
    vertex 112.822 0 -223.296
  endloop
endfacet
facet normal 0 1 0
  outer loop
    vertex 151.714 0 -209.488
    vertex 130 0 -250
    vertex 112.822 0 -223.296
  endloop
endfacet
facet normal 0 1 0
  outer loop
    vertex 112.822 0 -223.296
    vertex 90 0 -250
    vertex 83.4167 0 -216.583
  endloop
endfacet
facet normal 0 1 -0
  outer loop
    vertex 112.822 0 -223.296
    vertex 108.98 0 -190.41
    vertex 151.714 0 -209.488
  endloop
endfacet
facet normal -0 1 0
  outer loop
    vertex 83.4167 0 -216.583
    vertex 108.98 0 -190.41
    vertex 112.822 0 -223.296
  endloop
endfacet
facet normal 0 1 0
  outer loop
    vertex 76.5329 0 -113.679
    vertex 50 0 -130
    vertex 50 0 -90
  endloop
endfacet
facet normal 0 1 0
  outer loop
    vertex 86.4876 0 -150.654
    vertex 50 0 -130
    vertex 76.5329 0 -113.679
  endloop
endfacet
facet normal -0 1 0
  outer loop
    vertex 76.5329 0 -113.679
    vertex 109.573 0 -111.37
    vertex 86.4876 0 -150.654
  endloop
endfacet
facet normal 0 1 0
  outer loop
    vertex 86.4876 0 -150.654
    vertex 50 0 -170
    vertex 50 0 -130
  endloop
endfacet
facet normal -0 1 0
  outer loop
    vertex 216.583 0 -83.4167
    vertex 250 0 -50
    vertex 250 0 -90
  endloop
endfacet
facet normal 0 1 0
  outer loop
    vertex 75.7769 0 -187.529
    vertex 50 0 -210
    vertex 50 0 -170
  endloop
endfacet
facet normal 0 1 0
  outer loop
    vertex 83.4167 0 -216.583
    vertex 50 0 -250
    vertex 50 0 -210
  endloop
endfacet
facet normal 0 1 0
  outer loop
    vertex 83.4167 0 -216.583
    vertex 50 0 -210
    vertex 75.7769 0 -187.529
  endloop
endfacet
facet normal -0 1 0
  outer loop
    vertex 209.022 0 -150
    vertex 250 0 -130
    vertex 250 0 -170
  endloop
endfacet
facet normal 0 1 -0
  outer loop
    vertex 75.7769 0 -187.529
    vertex 50 0 -170
    vertex 86.4876 0 -150.654
  endloop
endfacet
facet normal 0 1 0
  outer loop
    vertex 170 0 -250
    vertex 130 0 -250
    vertex 151.714 0 -209.488
  endloop
endfacet
facet normal -0 1 0
  outer loop
    vertex 130 0 -50
    vertex 170 0 -50
    vertex 152.324 0 -91.2709
  endloop
endfacet
facet normal -0 1 0
  outer loop
    vertex 170 0 -50
    vertex 210 0 -50
    vertex 188.282 0 -76.4375
  endloop
endfacet
facet normal -0 1 0
  outer loop
    vertex 210 0 -50
    vertex 250 0 -50
    vertex 216.583 0 -83.4167
  endloop
endfacet
facet normal -0 1 0
  outer loop
    vertex 188.282 0 -76.4375
    vertex 210 0 -50
    vertex 216.583 0 -83.4167
  endloop
endfacet
facet normal 0 1 0
  outer loop
    vertex 152.324 0 -91.2709
    vertex 170 0 -50
    vertex 188.282 0 -76.4375
  endloop
endfacet
facet normal 0 1 0
  outer loop
    vertex 90 0 -250
    vertex 50 0 -250
    vertex 83.4167 0 -216.583
  endloop
endfacet
facet normal -0 1 0
  outer loop
    vertex 86.4876 0 -150.654
    vertex 109.573 0 -111.37
    vertex 121.842 0 -152.062
  endloop
endfacet
facet normal 0 1 0
  outer loop
    vertex 121.842 0 -152.062
    vertex 108.98 0 -190.41
    vertex 86.4876 0 -150.654
  endloop
endfacet
facet normal 0 1 0
  outer loop
    vertex 170.592 0 -168.181
    vertex 192.5 0 -192.5
    vertex 151.714 0 -209.488
  endloop
endfacet
facet normal 0 1 0
  outer loop
    vertex 209.022 0 -150
    vertex 192.5 0 -192.5
    vertex 170.592 0 -168.181
  endloop
endfacet
facet normal 0 1 0
  outer loop
    vertex 86.4876 0 -150.654
    vertex 108.98 0 -190.41
    vertex 75.7769 0 -187.529
  endloop
endfacet
facet normal 0 1 0
  outer loop
    vertex 75.7769 0 -187.529
    vertex 108.98 0 -190.41
    vertex 83.4167 0 -216.583
  endloop
endfacet
facet normal 0 1 0
  outer loop
    vertex 188.282 0 -76.4375
    vertex 192.5 0 -107.5
    vertex 152.324 0 -91.2709
  endloop
endfacet
facet normal 0 1 0
  outer loop
    vertex 216.583 0 -83.4167
    vertex 192.5 0 -107.5
    vertex 188.282 0 -76.4375
  endloop
endfacet
facet normal 0 0 -1
  outer loop
    vertex 50 120 -50
    vertex 50 160 -50
    vertex 76.3408 137.404 -50
  endloop
endfacet
facet normal 0 0 -1
  outer loop
    vertex 50 80 -50
    vertex 50 120 -50
    vertex 90.7871 97.9348 -50
  endloop
endfacet
facet normal 0 0 -1
  outer loop
    vertex 50 120 -50
    vertex 76.3408 137.404 -50
    vertex 90.7871 97.9348 -50
  endloop
endfacet
facet normal 0 0 -1
  outer loop
    vertex 50 200 -50
    vertex 83.4167 166.583 -50
    vertex 50 160 -50
  endloop
endfacet
facet normal 0 0 -1
  outer loop
    vertex 50 160 -50
    vertex 83.4167 166.583 -50
    vertex 76.3408 137.404 -50
  endloop
endfacet
facet normal 0 0 -1
  outer loop
    vertex 50 40 -50
    vertex 50 80 -50
    vertex 76.5001 62.4126 -50
  endloop
endfacet
facet normal 0 0 -1
  outer loop
    vertex 50 0 -50
    vertex 50 40 -50
    vertex 83.4167 33.4167 -50
  endloop
endfacet
facet normal 0 0 -1
  outer loop
    vertex 50 40 -50
    vertex 76.5001 62.4126 -50
    vertex 83.4167 33.4167 -50
  endloop
endfacet
facet normal 0 0 -1
  outer loop
    vertex 50 80 -50
    vertex 90.7871 97.9348 -50
    vertex 76.5001 62.4126 -50
  endloop
endfacet
facet normal 0 0 -1
  outer loop
    vertex 130 200 -50
    vertex 170 200 -50
    vertex 147.935 159.213 -50
  endloop
endfacet
facet normal 0 0 -1
  outer loop
    vertex 170 200 -50
    vertex 210 200 -50
    vertex 187.404 173.659 -50
  endloop
endfacet
facet normal 0 -0 -1
  outer loop
    vertex 170 200 -50
    vertex 187.404 173.659 -50
    vertex 147.935 159.213 -50
  endloop
endfacet
facet normal 0 0 -1
  outer loop
    vertex 130 0 -50
    vertex 90 0 -50
    vertex 112.596 26.3408 -50
  endloop
endfacet
facet normal 0 0 -1
  outer loop
    vertex 170 0 -50
    vertex 130 0 -50
    vertex 152.065 40.7871 -50
  endloop
endfacet
facet normal 0 0 -1
  outer loop
    vertex 130 0 -50
    vertex 112.596 26.3408 -50
    vertex 152.065 40.7871 -50
  endloop
endfacet
facet normal 0 0 -1
  outer loop
    vertex 90 200 -50
    vertex 130 200 -50
    vertex 112.413 173.5 -50
  endloop
endfacet
facet normal 0 0 -1
  outer loop
    vertex 50 200 -50
    vertex 90 200 -50
    vertex 83.4167 166.583 -50
  endloop
endfacet
facet normal 0 -0 -1
  outer loop
    vertex 90 200 -50
    vertex 112.413 173.5 -50
    vertex 83.4167 166.583 -50
  endloop
endfacet
facet normal 0 -0 -1
  outer loop
    vertex 130 200 -50
    vertex 147.935 159.213 -50
    vertex 112.413 173.5 -50
  endloop
endfacet
facet normal 0 0 -1
  outer loop
    vertex 210 0 -50
    vertex 170 0 -50
    vertex 187.587 26.5001 -50
  endloop
endfacet
facet normal 0 0 -1
  outer loop
    vertex 250 0 -50
    vertex 210 0 -50
    vertex 216.583 33.4167 -50
  endloop
endfacet
facet normal 0 0 -1
  outer loop
    vertex 210 0 -50
    vertex 187.587 26.5001 -50
    vertex 216.583 33.4167 -50
  endloop
endfacet
facet normal 0 0 -1
  outer loop
    vertex 50 0 -50
    vertex 83.4167 33.4167 -50
    vertex 90 0 -50
  endloop
endfacet
facet normal 0 0 -1
  outer loop
    vertex 90 0 -50
    vertex 83.4167 33.4167 -50
    vertex 112.596 26.3408 -50
  endloop
endfacet
facet normal 0 0 -1
  outer loop
    vertex 170 0 -50
    vertex 152.065 40.7871 -50
    vertex 187.587 26.5001 -50
  endloop
endfacet
facet normal -0 0 -1
  outer loop
    vertex 250 200 -50
    vertex 216.583 166.583 -50
    vertex 210 200 -50
  endloop
endfacet
facet normal 0 -0 -1
  outer loop
    vertex 210 200 -50
    vertex 216.583 166.583 -50
    vertex 187.404 173.659 -50
  endloop
endfacet
facet normal 0 -0 -1
  outer loop
    vertex 250 160 -50
    vertex 250 120 -50
    vertex 223.5 137.587 -50
  endloop
endfacet
facet normal 0 -0 -1
  outer loop
    vertex 250 200 -50
    vertex 250 160 -50
    vertex 216.583 166.583 -50
  endloop
endfacet
facet normal -0 0 -1
  outer loop
    vertex 250 160 -50
    vertex 223.5 137.587 -50
    vertex 216.583 166.583 -50
  endloop
endfacet
facet normal 0 -0 -1
  outer loop
    vertex 250 80 -50
    vertex 250 40 -50
    vertex 223.659 62.5964 -50
  endloop
endfacet
facet normal 0 -0 -1
  outer loop
    vertex 250 120 -50
    vertex 250 80 -50
    vertex 209.213 102.065 -50
  endloop
endfacet
facet normal -0 0 -1
  outer loop
    vertex 250 80 -50
    vertex 223.659 62.5964 -50
    vertex 209.213 102.065 -50
  endloop
endfacet
facet normal 0 0 -1
  outer loop
    vertex 250 0 -50
    vertex 216.583 33.4167 -50
    vertex 250 40 -50
  endloop
endfacet
facet normal -0 0 -1
  outer loop
    vertex 250 40 -50
    vertex 216.583 33.4167 -50
    vertex 223.659 62.5964 -50
  endloop
endfacet
facet normal -0 0 -1
  outer loop
    vertex 250 120 -50
    vertex 209.213 102.065 -50
    vertex 223.5 137.587 -50
  endloop
endfacet
facet normal -0 0 -1
  outer loop
    vertex 192.5 57.5 -50
    vertex 152.065 40.7871 -50
    vertex 173.359 84.8942 -50
  endloop
endfacet
facet normal 0 0 -1
  outer loop
    vertex 192.5 57.5 -50
    vertex 173.359 84.8942 -50
    vertex 209.213 102.065 -50
  endloop
endfacet
facet normal 0 0 -1
  outer loop
    vertex 192.5 57.5 -50
    vertex 187.587 26.5001 -50
    vertex 152.065 40.7871 -50
  endloop
endfacet
facet normal 0 -0 -1
  outer loop
    vertex 192.5 57.5 -50
    vertex 216.583 33.4167 -50
    vertex 187.587 26.5001 -50
  endloop
endfacet
facet normal 0 0 -1
  outer loop
    vertex 192.5 57.5 -50
    vertex 223.659 62.5964 -50
    vertex 216.583 33.4167 -50
  endloop
endfacet
facet normal 0 0 -1
  outer loop
    vertex 192.5 57.5 -50
    vertex 209.213 102.065 -50
    vertex 223.659 62.5964 -50
  endloop
endfacet
facet normal 0 0 -1
  outer loop
    vertex 107.5 142.5 -50
    vertex 83.4167 166.583 -50
    vertex 112.413 173.5 -50
  endloop
endfacet
facet normal 0 0 -1
  outer loop
    vertex 107.5 142.5 -50
    vertex 112.413 173.5 -50
    vertex 147.935 159.213 -50
  endloop
endfacet
facet normal 0 -0 -1
  outer loop
    vertex 107.5 142.5 -50
    vertex 123.71 113.793 -50
    vertex 90.7871 97.9348 -50
  endloop
endfacet
facet normal 0 0 -1
  outer loop
    vertex 107.5 142.5 -50
    vertex 147.935 159.213 -50
    vertex 123.71 113.793 -50
  endloop
endfacet
facet normal 0 0 -1
  outer loop
    vertex 107.5 142.5 -50
    vertex 90.7871 97.9348 -50
    vertex 76.3408 137.404 -50
  endloop
endfacet
facet normal -0 0 -1
  outer loop
    vertex 107.5 142.5 -50
    vertex 76.3408 137.404 -50
    vertex 83.4167 166.583 -50
  endloop
endfacet
facet normal 0 0 -1
  outer loop
    vertex 107.5 57.5 -50
    vertex 90.7871 97.9348 -50
    vertex 134.915 76.6094 -50
  endloop
endfacet
facet normal 0 0 -1
  outer loop
    vertex 107.5 57.5 -50
    vertex 76.5001 62.4126 -50
    vertex 90.7871 97.9348 -50
  endloop
endfacet
facet normal 0 0 -1
  outer loop
    vertex 107.5 57.5 -50
    vertex 134.915 76.6094 -50
    vertex 152.065 40.7871 -50
  endloop
endfacet
facet normal 0 0 -1
  outer loop
    vertex 107.5 57.5 -50
    vertex 152.065 40.7871 -50
    vertex 112.596 26.3408 -50
  endloop
endfacet
facet normal 0 -0 -1
  outer loop
    vertex 107.5 57.5 -50
    vertex 112.596 26.3408 -50
    vertex 83.4167 33.4167 -50
  endloop
endfacet
facet normal -0 0 -1
  outer loop
    vertex 107.5 57.5 -50
    vertex 83.4167 33.4167 -50
    vertex 76.5001 62.4126 -50
  endloop
endfacet
facet normal 0 -0 -1
  outer loop
    vertex 150 100 -50
    vertex 173.359 84.8942 -50
    vertex 134.915 76.6094 -50
  endloop
endfacet
facet normal 0 0 -1
  outer loop
    vertex 150 100 -50
    vertex 163.931 126.331 -50
    vertex 173.359 84.8942 -50
  endloop
endfacet
facet normal -0 0 -1
  outer loop
    vertex 150 100 -50
    vertex 134.915 76.6094 -50
    vertex 123.71 113.793 -50
  endloop
endfacet
facet normal 0 0 -1
  outer loop
    vertex 150 100 -50
    vertex 123.71 113.793 -50
    vertex 163.931 126.331 -50
  endloop
endfacet
facet normal 0 0 -1
  outer loop
    vertex 192.5 142.5 -50
    vertex 187.404 173.659 -50
    vertex 216.583 166.583 -50
  endloop
endfacet
facet normal 0 0 -1
  outer loop
    vertex 192.5 142.5 -50
    vertex 147.935 159.213 -50
    vertex 187.404 173.659 -50
  endloop
endfacet
facet normal 0 0 -1
  outer loop
    vertex 192.5 142.5 -50
    vertex 216.583 166.583 -50
    vertex 223.5 137.587 -50
  endloop
endfacet
facet normal 0 0 -1
  outer loop
    vertex 192.5 142.5 -50
    vertex 223.5 137.587 -50
    vertex 209.213 102.065 -50
  endloop
endfacet
facet normal 0 -0 -1
  outer loop
    vertex 192.5 142.5 -50
    vertex 209.213 102.065 -50
    vertex 163.931 126.331 -50
  endloop
endfacet
facet normal -0 0 -1
  outer loop
    vertex 192.5 142.5 -50
    vertex 163.931 126.331 -50
    vertex 147.935 159.213 -50
  endloop
endfacet
facet normal 0 0 -1
  outer loop
    vertex 152.065 40.7871 -50
    vertex 134.915 76.6094 -50
    vertex 173.359 84.8942 -50
  endloop
endfacet
facet normal -0 0 -1
  outer loop
    vertex 209.213 102.065 -50
    vertex 173.359 84.8942 -50
    vertex 163.931 126.331 -50
  endloop
endfacet
facet normal 0 0 -1
  outer loop
    vertex 90.7871 97.9348 -50
    vertex 123.71 113.793 -50
    vertex 134.915 76.6094 -50
  endloop
endfacet
facet normal 0 -0 -1
  outer loop
    vertex 147.935 159.213 -50
    vertex 163.931 126.331 -50
    vertex 123.71 113.793 -50
  endloop
endfacet
facet normal -1.07505e-15 0 1
  outer loop
    vertex 76.4375 61.7185 -250
    vertex 50 80 -250
    vertex 50 40 -250
  endloop
endfacet
facet normal -8.50525e-16 0 1
  outer loop
    vertex 50 40 -250
    vertex 50 0 -250
    vertex 83.4167 33.4167 -250
  endloop
endfacet
facet normal -8.93955e-16 -2.20447e-16 1
  outer loop
    vertex 76.4375 61.7185 -250
    vertex 50 40 -250
    vertex 83.4167 33.4167 -250
  endloop
endfacet
facet normal 1.06548e-15 0 1
  outer loop
    vertex 223.325 63.2246 -250
    vertex 250 40 -250
    vertex 250 80 -250
  endloop
endfacet
facet normal 7.01563e-16 0 1
  outer loop
    vertex 209.488 98.2861 -250
    vertex 250 80 -250
    vertex 250 120 -250
  endloop
endfacet
facet normal 8.53621e-16 3.36877e-16 1
  outer loop
    vertex 223.325 63.2246 -250
    vertex 250 80 -250
    vertex 209.488 98.2861 -250
  endloop
endfacet
facet normal 8.50525e-16 0 1
  outer loop
    vertex 216.583 33.4167 -250
    vertex 250 0 -250
    vertex 250 40 -250
  endloop
endfacet
facet normal 8.90188e-16 -2.0133e-16 1
  outer loop
    vertex 216.583 33.4167 -250
    vertex 250 40 -250
    vertex 223.325 63.2246 -250
  endloop
endfacet
facet normal -6.88663e-16 0 1
  outer loop
    vertex 91.2709 97.6757 -250
    vertex 50 120 -250
    vertex 50 80 -250
  endloop
endfacet
facet normal -1.04447e-15 0 1
  outer loop
    vertex 77.2115 136.937 -250
    vertex 50 160 -250
    vertex 50 120 -250
  endloop
endfacet
facet normal -8.54104e-16 -3.0585e-16 1
  outer loop
    vertex 77.2115 136.937 -250
    vertex 50 120 -250
    vertex 91.2709 97.6757 -250
  endloop
endfacet
facet normal -8.36446e-16 3.45057e-16 1
  outer loop
    vertex 91.2709 97.6757 -250
    vertex 50 80 -250
    vertex 76.4375 61.7185 -250
  endloop
endfacet
facet normal 1.06433e-15 0 1
  outer loop
    vertex 223.296 137.178 -250
    vertex 250 120 -250
    vertex 250 160 -250
  endloop
endfacet
facet normal 8.66447e-16 -3.07626e-16 1
  outer loop
    vertex 209.488 98.2861 -250
    vertex 250 120 -250
    vertex 223.296 137.178 -250
  endloop
endfacet
facet normal -8.50525e-16 0 1
  outer loop
    vertex 83.4167 166.583 -250
    vertex 50 200 -250
    vertex 50 160 -250
  endloop
endfacet
facet normal -8.87105e-16 1.85679e-16 1
  outer loop
    vertex 83.4167 166.583 -250
    vertex 50 160 -250
    vertex 77.2115 136.937 -250
  endloop
endfacet
facet normal 8.50525e-16 -0 1
  outer loop
    vertex 250 160 -250
    vertex 250 200 -250
    vertex 216.583 166.583 -250
  endloop
endfacet
facet normal 8.90578e-16 2.03308e-16 1
  outer loop
    vertex 223.296 137.178 -250
    vertex 250 160 -250
    vertex 216.583 166.583 -250
  endloop
endfacet
facet normal 0 -6.9358e-16 1
  outer loop
    vertex 150 40.9783 -250
    vertex 130 0 -250
    vertex 170 0 -250
  endloop
endfacet
facet normal 0 -1.05663e-15 1
  outer loop
    vertex 114.018 26.8984 -250
    vertex 90 0 -250
    vertex 130 0 -250
  endloop
endfacet
facet normal 3.35469e-16 -8.57311e-16 1
  outer loop
    vertex 114.018 26.8984 -250
    vertex 130 0 -250
    vertex 150 40.9783 -250
  endloop
endfacet
facet normal 0 1.1026e-15 1
  outer loop
    vertex 187.529 174.223 -250
    vertex 210 200 -250
    vertex 170 200 -250
  endloop
endfacet
facet normal 0 8.50525e-16 1
  outer loop
    vertex 216.583 166.583 -250
    vertex 250 200 -250
    vertex 210 200 -250
  endloop
endfacet
facet normal 2.35864e-16 8.96992e-16 1
  outer loop
    vertex 216.583 166.583 -250
    vertex 210 200 -250
    vertex 187.529 174.223 -250
  endloop
endfacet
facet normal 0 -1.05663e-15 1
  outer loop
    vertex 185.982 26.8984 -250
    vertex 170 0 -250
    vertex 210 0 -250
  endloop
endfacet
facet normal 0 -8.50525e-16 1
  outer loop
    vertex 210 0 -250
    vertex 250 0 -250
    vertex 216.583 33.4167 -250
  endloop
endfacet
facet normal 1.891e-16 -8.87779e-16 1
  outer loop
    vertex 185.982 26.8984 -250
    vertex 210 0 -250
    vertex 216.583 33.4167 -250
  endloop
endfacet
facet normal 0 1.07119e-15 1
  outer loop
    vertex 113.679 173.467 -250
    vertex 130 200 -250
    vertex 90 200 -250
  endloop
endfacet
facet normal 0 8.50525e-16 1
  outer loop
    vertex 90 200 -250
    vertex 50 200 -250
    vertex 83.4167 166.583 -250
  endloop
endfacet
facet normal -2.02544e-16 8.90428e-16 1
  outer loop
    vertex 113.679 173.467 -250
    vertex 90 200 -250
    vertex 83.4167 166.583 -250
  endloop
endfacet
facet normal 0 7.78942e-16 1
  outer loop
    vertex 150.654 163.512 -250
    vertex 170 200 -250
    vertex 130 200 -250
  endloop
endfacet
facet normal -2.6743e-16 9.20739e-16 1
  outer loop
    vertex 187.529 174.223 -250
    vertex 170 200 -250
    vertex 150.654 163.512 -250
  endloop
endfacet
facet normal -3.35469e-16 -8.57311e-16 1
  outer loop
    vertex 150 40.9783 -250
    vertex 170 0 -250
    vertex 185.982 26.8984 -250
  endloop
endfacet
facet normal 2.47423e-16 9.18994e-16 1
  outer loop
    vertex 150.654 163.512 -250
    vertex 130 200 -250
    vertex 113.679 173.467 -250
  endloop
endfacet
facet normal 0 -8.50525e-16 1
  outer loop
    vertex 83.4167 33.4167 -250
    vertex 50 0 -250
    vertex 90 0 -250
  endloop
endfacet
facet normal -1.891e-16 -8.87779e-16 1
  outer loop
    vertex 83.4167 33.4167 -250
    vertex 90 0 -250
    vertex 114.018 26.8984 -250
  endloop
endfacet
facet normal 0 0 1
  outer loop
    vertex 132.129 80.2252 -250
    vertex 107.5 57.5 -250
    vertex 150 40.9783 -250
  endloop
endfacet
facet normal 0 0 1
  outer loop
    vertex 91.2709 97.6757 -250
    vertex 107.5 57.5 -250
    vertex 132.129 80.2252 -250
  endloop
endfacet
facet normal 0 0 1
  outer loop
    vertex 132.129 80.2252 -250
    vertex 150 40.9783 -250
    vertex 168.269 79.3541 -250
  endloop
endfacet
facet normal 0 -0 1
  outer loop
    vertex 132.129 80.2252 -250
    vertex 151.783 100.152 -250
    vertex 124.94 110.266 -250
  endloop
endfacet
facet normal 0 0 1
  outer loop
    vertex 124.94 110.266 -250
    vertex 91.2709 97.6757 -250
    vertex 132.129 80.2252 -250
  endloop
endfacet
facet normal 0 0 1
  outer loop
    vertex 168.269 79.3541 -250
    vertex 151.783 100.152 -250
    vertex 132.129 80.2252 -250
  endloop
endfacet
facet normal 0 0 1
  outer loop
    vertex 113.679 173.467 -250
    vertex 111.37 140.427 -250
    vertex 150.654 163.512 -250
  endloop
endfacet
facet normal -0 0 1
  outer loop
    vertex 83.4167 166.583 -250
    vertex 111.37 140.427 -250
    vertex 113.679 173.467 -250
  endloop
endfacet
facet normal 0 0 1
  outer loop
    vertex 216.583 33.4167 -250
    vertex 192.5 57.5 -250
    vertex 185.982 26.8984 -250
  endloop
endfacet
facet normal 0 -0 1
  outer loop
    vertex 185.982 26.8984 -250
    vertex 192.5 57.5 -250
    vertex 150 40.9783 -250
  endloop
endfacet
facet normal 0 0 1
  outer loop
    vertex 223.296 137.178 -250
    vertex 190.41 141.02 -250
    vertex 209.488 98.2861 -250
  endloop
endfacet
facet normal 0 0 1
  outer loop
    vertex 216.583 166.583 -250
    vertex 190.41 141.02 -250
    vertex 223.296 137.178 -250
  endloop
endfacet
facet normal 0 -0 1
  outer loop
    vertex 83.4167 33.4167 -250
    vertex 107.5 57.5 -250
    vertex 76.4375 61.7185 -250
  endloop
endfacet
facet normal -0 0 1
  outer loop
    vertex 76.4375 61.7185 -250
    vertex 107.5 57.5 -250
    vertex 91.2709 97.6757 -250
  endloop
endfacet
facet normal 0 0 1
  outer loop
    vertex 223.325 63.2246 -250
    vertex 192.5 57.5 -250
    vertex 216.583 33.4167 -250
  endloop
endfacet
facet normal 0 0 1
  outer loop
    vertex 114.018 26.8984 -250
    vertex 107.5 57.5 -250
    vertex 83.4167 33.4167 -250
  endloop
endfacet
facet normal 0 0 1
  outer loop
    vertex 150 40.9783 -250
    vertex 107.5 57.5 -250
    vertex 114.018 26.8984 -250
  endloop
endfacet
facet normal 0 0 1
  outer loop
    vertex 209.488 98.2861 -250
    vertex 192.5 57.5 -250
    vertex 223.325 63.2246 -250
  endloop
endfacet
facet normal -0 0 1
  outer loop
    vertex 168.269 79.3541 -250
    vertex 192.5 57.5 -250
    vertex 209.488 98.2861 -250
  endloop
endfacet
facet normal 0 0 1
  outer loop
    vertex 150 40.9783 -250
    vertex 192.5 57.5 -250
    vertex 168.269 79.3541 -250
  endloop
endfacet
facet normal 0 -0 1
  outer loop
    vertex 151.946 128.115 -250
    vertex 190.41 141.02 -250
    vertex 150.654 163.512 -250
  endloop
endfacet
facet normal -0 0 1
  outer loop
    vertex 150.654 163.512 -250
    vertex 190.41 141.02 -250
    vertex 187.529 174.223 -250
  endloop
endfacet
facet normal 0 0 1
  outer loop
    vertex 150.654 163.512 -250
    vertex 111.37 140.427 -250
    vertex 151.946 128.115 -250
  endloop
endfacet
facet normal 0 0 1
  outer loop
    vertex 209.488 98.2861 -250
    vertex 190.41 141.02 -250
    vertex 176.087 109.961 -250
  endloop
endfacet
facet normal 0 0 1
  outer loop
    vertex 187.529 174.223 -250
    vertex 190.41 141.02 -250
    vertex 216.583 166.583 -250
  endloop
endfacet
facet normal 0 -0 1
  outer loop
    vertex 176.087 109.961 -250
    vertex 190.41 141.02 -250
    vertex 151.946 128.115 -250
  endloop
endfacet
facet normal 0 0 1
  outer loop
    vertex 168.269 79.3541 -250
    vertex 209.488 98.2861 -250
    vertex 176.087 109.961 -250
  endloop
endfacet
facet normal 0 0 1
  outer loop
    vertex 77.2115 136.937 -250
    vertex 111.37 140.427 -250
    vertex 83.4167 166.583 -250
  endloop
endfacet
facet normal 0 0 1
  outer loop
    vertex 124.94 110.266 -250
    vertex 111.37 140.427 -250
    vertex 91.2709 97.6757 -250
  endloop
endfacet
facet normal 0 0 1
  outer loop
    vertex 151.946 128.115 -250
    vertex 111.37 140.427 -250
    vertex 124.94 110.266 -250
  endloop
endfacet
facet normal 0 -0 1
  outer loop
    vertex 91.2709 97.6757 -250
    vertex 111.37 140.427 -250
    vertex 77.2115 136.937 -250
  endloop
endfacet
facet normal -0 0 1
  outer loop
    vertex 124.94 110.266 -250
    vertex 151.783 100.152 -250
    vertex 151.946 128.115 -250
  endloop
endfacet
facet normal 0 0 1
  outer loop
    vertex 151.946 128.115 -250
    vertex 151.783 100.152 -250
    vertex 176.087 109.961 -250
  endloop
endfacet
facet normal 0 0 1
  outer loop
    vertex 176.087 109.961 -250
    vertex 151.783 100.152 -250
    vertex 168.269 79.3541 -250
  endloop
endfacet
endsolid Created by Gmsh
