solid Created by Gmsh
facet normal 1 0 0
  outer loop
    vertex 232.862 420.177 -199.613
    vertex 232.862 412.34 -174.712
    vertex 232.862 387.439 -199.613
  endloop
endfacet
facet normal 1 0 0
  outer loop
    vertex 232.862 412.34 -174.712
    vertex 232.862 420.177 -199.613
    vertex 232.862 437.439 -182.946
  endloop
endfacet
facet normal 1 0 0
  outer loop
    vertex 232.862 412.34 -174.712
    vertex 232.862 387.439 -166.875
    vertex 232.862 387.439 -199.613
  endloop
endfacet
facet normal 1 -0 0
  outer loop
    vertex 232.862 387.439 -166.875
    vertex 232.862 412.34 -174.712
    vertex 232.862 404.106 -149.613
  endloop
endfacet
facet normal 1 -0 0
  outer loop
    vertex 232.862 404.106 -149.613
    vertex 232.862 412.34 -174.712
    vertex 232.862 437.439 -149.613
  endloop
endfacet
facet normal 1 -0 0
  outer loop
    vertex 232.862 412.34 -174.712
    vertex 232.862 437.439 -182.946
    vertex 232.862 437.439 -149.613
  endloop
endfacet
facet normal 1 0 -0
  outer loop
    vertex 232.862 408.272 -220.446
    vertex 232.862 420.177 -199.613
    vertex 232.862 387.439 -199.613
  endloop
endfacet
facet normal 1 0 0
  outer loop
    vertex 232.862 420.177 -199.613
    vertex 232.862 408.272 -220.446
    vertex 232.862 437.439 -216.279
  endloop
endfacet
facet normal 1 0 0
  outer loop
    vertex 232.862 437.439 -182.946
    vertex 232.862 420.177 -199.613
    vertex 232.862 437.439 -216.279
  endloop
endfacet
facet normal 1 0 0
  outer loop
    vertex 232.862 366.606 -178.779
    vertex 232.862 354.701 -199.613
    vertex 232.862 387.439 -199.613
  endloop
endfacet
facet normal 1 0 -0
  outer loop
    vertex 232.862 354.701 -199.613
    vertex 232.862 366.606 -178.779
    vertex 232.862 337.439 -182.946
  endloop
endfacet
facet normal 1 0 0
  outer loop
    vertex 232.862 387.439 -166.875
    vertex 232.862 366.606 -178.779
    vertex 232.862 387.439 -199.613
  endloop
endfacet
facet normal 1 0 0
  outer loop
    vertex 232.862 366.606 -178.779
    vertex 232.862 387.439 -166.875
    vertex 232.862 370.772 -149.613
  endloop
endfacet
facet normal 1 0 -0
  outer loop
    vertex 232.862 366.606 -178.779
    vertex 232.862 370.772 -149.613
    vertex 232.862 337.439 -149.613
  endloop
endfacet
facet normal 1 0 0
  outer loop
    vertex 232.862 337.439 -182.946
    vertex 232.862 366.606 -178.779
    vertex 232.862 337.439 -149.613
  endloop
endfacet
facet normal 1 0 0
  outer loop
    vertex 232.862 354.701 -199.613
    vertex 232.862 366.606 -220.446
    vertex 232.862 387.439 -199.613
  endloop
endfacet
facet normal 1 0 0
  outer loop
    vertex 232.862 366.606 -220.446
    vertex 232.862 354.701 -199.613
    vertex 232.862 337.439 -216.279
  endloop
endfacet
facet normal 1 0 0
  outer loop
    vertex 232.862 337.439 -216.279
    vertex 232.862 354.701 -199.613
    vertex 232.862 337.439 -182.946
  endloop
endfacet
facet normal 1 0 0
  outer loop
    vertex 232.862 387.439 -230.746
    vertex 232.862 408.272 -220.446
    vertex 232.862 387.439 -199.613
  endloop
endfacet
facet normal 1 -0 0
  outer loop
    vertex 232.862 366.606 -220.446
    vertex 232.862 387.439 -230.746
    vertex 232.862 387.439 -199.613
  endloop
endfacet
facet normal 1 -0 0
  outer loop
    vertex 232.862 370.772 -149.613
    vertex 232.862 387.439 -166.875
    vertex 232.862 404.106 -149.613
  endloop
endfacet
facet normal 1 0 0
  outer loop
    vertex 232.862 408.272 -220.446
    vertex 232.862 387.439 -230.746
    vertex 232.862 404.106 -249.613
  endloop
endfacet
facet normal 1 0 0
  outer loop
    vertex 232.862 437.439 -216.279
    vertex 232.862 408.272 -220.446
    vertex 232.862 437.439 -249.613
  endloop
endfacet
facet normal 1 0 0
  outer loop
    vertex 232.862 408.272 -220.446
    vertex 232.862 404.106 -249.613
    vertex 232.862 437.439 -249.613
  endloop
endfacet
facet normal 1 0 0
  outer loop
    vertex 232.862 387.439 -230.746
    vertex 232.862 366.606 -220.446
    vertex 232.862 370.772 -249.613
  endloop
endfacet
facet normal 1 0 0
  outer loop
    vertex 232.862 404.106 -249.613
    vertex 232.862 387.439 -230.746
    vertex 232.862 370.772 -249.613
  endloop
endfacet
facet normal 1 0 0
  outer loop
    vertex 232.862 366.606 -220.446
    vertex 232.862 337.439 -216.279
    vertex 232.862 337.439 -249.613
  endloop
endfacet
facet normal 1 0 0
  outer loop
    vertex 232.862 370.772 -249.613
    vertex 232.862 366.606 -220.446
    vertex 232.862 337.439 -249.613
  endloop
endfacet
facet normal -1 0 0
  outer loop
    vertex 132.862 420.177 -199.613
    vertex 132.862 412.34 -224.514
    vertex 132.862 387.439 -199.613
  endloop
endfacet
facet normal -1 0 -0
  outer loop
    vertex 132.862 408.272 -178.779
    vertex 132.862 420.177 -199.613
    vertex 132.862 387.439 -199.613
  endloop
endfacet
facet normal -1 0 0
  outer loop
    vertex 132.862 412.34 -224.514
    vertex 132.862 420.177 -199.613
    vertex 132.862 437.439 -216.279
  endloop
endfacet
facet normal -1 0 0
  outer loop
    vertex 132.862 420.177 -199.613
    vertex 132.862 408.272 -178.779
    vertex 132.862 437.439 -182.946
  endloop
endfacet
facet normal -1 0 0
  outer loop
    vertex 132.862 437.439 -216.279
    vertex 132.862 420.177 -199.613
    vertex 132.862 437.439 -182.946
  endloop
endfacet
facet normal -1 0 0
  outer loop
    vertex 132.862 366.606 -178.779
    vertex 132.862 387.439 -168.48
    vertex 132.862 387.439 -199.613
  endloop
endfacet
facet normal -1 -0 0
  outer loop
    vertex 132.862 387.439 -168.48
    vertex 132.862 366.606 -178.779
    vertex 132.862 370.772 -149.613
  endloop
endfacet
facet normal -1 0 0
  outer loop
    vertex 132.862 387.439 -168.48
    vertex 132.862 408.272 -178.779
    vertex 132.862 387.439 -199.613
  endloop
endfacet
facet normal -1 0 0
  outer loop
    vertex 132.862 408.272 -178.779
    vertex 132.862 387.439 -168.48
    vertex 132.862 404.106 -149.613
  endloop
endfacet
facet normal -1 -0 0
  outer loop
    vertex 132.862 404.106 -149.613
    vertex 132.862 387.439 -168.48
    vertex 132.862 370.772 -149.613
  endloop
endfacet
facet normal -1 0 0
  outer loop
    vertex 132.862 354.701 -199.613
    vertex 132.862 366.606 -178.779
    vertex 132.862 387.439 -199.613
  endloop
endfacet
facet normal -1 0 0
  outer loop
    vertex 132.862 366.606 -178.779
    vertex 132.862 354.701 -199.613
    vertex 132.862 337.439 -182.946
  endloop
endfacet
facet normal -1 -0 0
  outer loop
    vertex 132.862 366.606 -178.779
    vertex 132.862 337.439 -182.946
    vertex 132.862 337.439 -149.613
  endloop
endfacet
facet normal -1 -0 0
  outer loop
    vertex 132.862 370.772 -149.613
    vertex 132.862 366.606 -178.779
    vertex 132.862 337.439 -149.613
  endloop
endfacet
facet normal -1 0 0
  outer loop
    vertex 132.862 387.439 -232.351
    vertex 132.862 366.606 -220.446
    vertex 132.862 387.439 -199.613
  endloop
endfacet
facet normal -1 0 0
  outer loop
    vertex 132.862 366.606 -220.446
    vertex 132.862 387.439 -232.351
    vertex 132.862 370.772 -249.613
  endloop
endfacet
facet normal -1 -0 0
  outer loop
    vertex 132.862 412.34 -224.514
    vertex 132.862 387.439 -232.351
    vertex 132.862 387.439 -199.613
  endloop
endfacet
facet normal -1 0 0
  outer loop
    vertex 132.862 387.439 -232.351
    vertex 132.862 412.34 -224.514
    vertex 132.862 404.106 -249.613
  endloop
endfacet
facet normal -1 0 0
  outer loop
    vertex 132.862 370.772 -249.613
    vertex 132.862 387.439 -232.351
    vertex 132.862 404.106 -249.613
  endloop
endfacet
facet normal -1 0 0
  outer loop
    vertex 132.862 366.606 -220.446
    vertex 132.862 354.701 -199.613
    vertex 132.862 387.439 -199.613
  endloop
endfacet
facet normal -1 0 -0
  outer loop
    vertex 132.862 354.701 -199.613
    vertex 132.862 366.606 -220.446
    vertex 132.862 337.439 -216.279
  endloop
endfacet
facet normal -1 0 0
  outer loop
    vertex 132.862 337.439 -182.946
    vertex 132.862 354.701 -199.613
    vertex 132.862 337.439 -216.279
  endloop
endfacet
facet normal -1 0 -0
  outer loop
    vertex 132.862 366.606 -220.446
    vertex 132.862 370.772 -249.613
    vertex 132.862 337.439 -249.613
  endloop
endfacet
facet normal -1 0 0
  outer loop
    vertex 132.862 337.439 -216.279
    vertex 132.862 366.606 -220.446
    vertex 132.862 337.439 -249.613
  endloop
endfacet
facet normal -1 0 0
  outer loop
    vertex 132.862 412.34 -224.514
    vertex 132.862 437.439 -216.279
    vertex 132.862 437.439 -249.613
  endloop
endfacet
facet normal -1 0 0
  outer loop
    vertex 132.862 404.106 -249.613
    vertex 132.862 412.34 -224.514
    vertex 132.862 437.439 -249.613
  endloop
endfacet
facet normal -1 0 0
  outer loop
    vertex 132.862 437.439 -182.946
    vertex 132.862 408.272 -178.779
    vertex 132.862 437.439 -149.613
  endloop
endfacet
facet normal -1 0 0
  outer loop
    vertex 132.862 408.272 -178.779
    vertex 132.862 404.106 -149.613
    vertex 132.862 437.439 -149.613
  endloop
endfacet
facet normal 0 -1 -0
  outer loop
    vertex 203.695 437.439 -178.779
    vertex 182.862 437.439 -199.613
    vertex 215.6 437.439 -199.613
  endloop
endfacet
facet normal 0 -1 0
  outer loop
    vertex 215.6 437.439 -199.613
    vertex 182.862 437.439 -199.613
    vertex 205.771 437.439 -222.521
  endloop
endfacet
facet normal 0 -1 0
  outer loop
    vertex 215.6 437.439 -199.613
    vertex 232.862 437.439 -182.946
    vertex 203.695 437.439 -178.779
  endloop
endfacet
facet normal 0 -1 0
  outer loop
    vertex 205.771 437.439 -222.521
    vertex 232.862 437.439 -216.279
    vertex 215.6 437.439 -199.613
  endloop
endfacet
facet normal 0 -1 0
  outer loop
    vertex 215.6 437.439 -199.613
    vertex 232.862 437.439 -216.279
    vertex 232.862 437.439 -182.946
  endloop
endfacet
facet normal 0 -1 0
  outer loop
    vertex 182.862 437.439 -232.351
    vertex 182.862 437.439 -199.613
    vertex 162.029 437.439 -220.446
  endloop
endfacet
facet normal 0 -1 0
  outer loop
    vertex 162.029 437.439 -220.446
    vertex 182.862 437.439 -199.613
    vertex 150.124 437.439 -199.613
  endloop
endfacet
facet normal 0 -1 0
  outer loop
    vertex 162.029 437.439 -220.446
    vertex 166.195 437.439 -249.613
    vertex 182.862 437.439 -232.351
  endloop
endfacet
facet normal 0 -1 -0
  outer loop
    vertex 150.124 437.439 -199.613
    vertex 132.862 437.439 -216.279
    vertex 162.029 437.439 -220.446
  endloop
endfacet
facet normal 0 -1 0
  outer loop
    vertex 132.862 437.439 -216.279
    vertex 132.862 437.439 -249.613
    vertex 162.029 437.439 -220.446
  endloop
endfacet
facet normal 0 -1 -0
  outer loop
    vertex 162.029 437.439 -220.446
    vertex 132.862 437.439 -249.613
    vertex 166.195 437.439 -249.613
  endloop
endfacet
facet normal 0 -1 -0
  outer loop
    vertex 182.862 437.439 -166.875
    vertex 182.862 437.439 -199.613
    vertex 203.695 437.439 -178.779
  endloop
endfacet
facet normal -0 -1 0
  outer loop
    vertex 205.771 437.439 -222.521
    vertex 182.862 437.439 -199.613
    vertex 182.862 437.439 -232.351
  endloop
endfacet
facet normal 0 -1 0
  outer loop
    vertex 159.954 437.439 -176.704
    vertex 182.862 437.439 -199.613
    vertex 182.862 437.439 -166.875
  endloop
endfacet
facet normal 0 -1 0
  outer loop
    vertex 150.124 437.439 -199.613
    vertex 182.862 437.439 -199.613
    vertex 159.954 437.439 -176.704
  endloop
endfacet
facet normal 0 -1 0
  outer loop
    vertex 203.695 437.439 -178.779
    vertex 199.529 437.439 -149.613
    vertex 182.862 437.439 -166.875
  endloop
endfacet
facet normal 0 -1 0
  outer loop
    vertex 203.695 437.439 -178.779
    vertex 232.862 437.439 -149.613
    vertex 199.529 437.439 -149.613
  endloop
endfacet
facet normal 0 -1 0
  outer loop
    vertex 232.862 437.439 -182.946
    vertex 232.862 437.439 -149.613
    vertex 203.695 437.439 -178.779
  endloop
endfacet
facet normal 0 -1 0
  outer loop
    vertex 182.862 437.439 -232.351
    vertex 199.529 437.439 -249.613
    vertex 205.771 437.439 -222.521
  endloop
endfacet
facet normal 0 -1 0
  outer loop
    vertex 199.529 437.439 -249.613
    vertex 232.862 437.439 -249.613
    vertex 205.771 437.439 -222.521
  endloop
endfacet
facet normal 0 -1 0
  outer loop
    vertex 205.771 437.439 -222.521
    vertex 232.862 437.439 -249.613
    vertex 232.862 437.439 -216.279
  endloop
endfacet
facet normal -0 -1 0
  outer loop
    vertex 182.862 437.439 -166.875
    vertex 166.195 437.439 -149.613
    vertex 159.954 437.439 -176.704
  endloop
endfacet
facet normal -0 -1 0
  outer loop
    vertex 199.529 437.439 -149.613
    vertex 166.195 437.439 -149.613
    vertex 182.862 437.439 -166.875
  endloop
endfacet
facet normal 0 -1 0
  outer loop
    vertex 166.195 437.439 -249.613
    vertex 199.529 437.439 -249.613
    vertex 182.862 437.439 -232.351
  endloop
endfacet
facet normal 0 -1 0
  outer loop
    vertex 159.954 437.439 -176.704
    vertex 132.862 437.439 -182.946
    vertex 150.124 437.439 -199.613
  endloop
endfacet
facet normal -0 -1 0
  outer loop
    vertex 150.124 437.439 -199.613
    vertex 132.862 437.439 -182.946
    vertex 132.862 437.439 -216.279
  endloop
endfacet
facet normal -0 -1 0
  outer loop
    vertex 159.954 437.439 -176.704
    vertex 132.862 437.439 -149.613
    vertex 132.862 437.439 -182.946
  endloop
endfacet
facet normal -0 -1 0
  outer loop
    vertex 166.195 437.439 -149.613
    vertex 132.862 437.439 -149.613
    vertex 159.954 437.439 -176.704
  endloop
endfacet
facet normal 0 1 0
  outer loop
    vertex 182.862 337.439 -232.351
    vertex 166.195 337.439 -249.613
    vertex 160.546 337.439 -221.928
  endloop
endfacet
facet normal 0 1 0
  outer loop
    vertex 166.195 337.439 -249.613
    vertex 132.862 337.439 -249.613
    vertex 160.546 337.439 -221.928
  endloop
endfacet
facet normal 0 1 0
  outer loop
    vertex 199.529 337.439 -249.613
    vertex 166.195 337.439 -249.613
    vertex 182.862 337.439 -232.351
  endloop
endfacet
facet normal 0 1 0
  outer loop
    vertex 182.862 337.439 -166.875
    vertex 182.862 337.439 -199.613
    vertex 160.97 337.439 -177.721
  endloop
endfacet
facet normal 0 1 0
  outer loop
    vertex 160.97 337.439 -177.721
    vertex 182.862 337.439 -199.613
    vertex 150.124 337.439 -199.613
  endloop
endfacet
facet normal 0 1 0
  outer loop
    vertex 150.124 337.439 -199.613
    vertex 182.862 337.439 -199.613
    vertex 160.546 337.439 -221.928
  endloop
endfacet
facet normal -0 1 0
  outer loop
    vertex 160.546 337.439 -221.928
    vertex 182.862 337.439 -199.613
    vertex 182.862 337.439 -232.351
  endloop
endfacet
facet normal 0 1 0
  outer loop
    vertex 205.178 337.439 -177.297
    vertex 182.862 337.439 -199.613
    vertex 182.862 337.439 -166.875
  endloop
endfacet
facet normal 0 1 0
  outer loop
    vertex 215.6 337.439 -199.613
    vertex 182.862 337.439 -199.613
    vertex 205.178 337.439 -177.297
  endloop
endfacet
facet normal 0 1 -0
  outer loop
    vertex 182.862 337.439 -232.351
    vertex 182.862 337.439 -199.613
    vertex 205.178 337.439 -221.928
  endloop
endfacet
facet normal 0 1 -0
  outer loop
    vertex 205.178 337.439 -221.928
    vertex 182.862 337.439 -199.613
    vertex 215.6 337.439 -199.613
  endloop
endfacet
facet normal 0 1 0
  outer loop
    vertex 160.97 337.439 -177.721
    vertex 166.195 337.439 -149.613
    vertex 182.862 337.439 -166.875
  endloop
endfacet
facet normal 0 1 -0
  outer loop
    vertex 160.97 337.439 -177.721
    vertex 132.862 337.439 -149.613
    vertex 166.195 337.439 -149.613
  endloop
endfacet
facet normal 0 1 -0
  outer loop
    vertex 150.124 337.439 -199.613
    vertex 132.862 337.439 -182.946
    vertex 160.97 337.439 -177.721
  endloop
endfacet
facet normal 0 1 0
  outer loop
    vertex 132.862 337.439 -182.946
    vertex 132.862 337.439 -149.613
    vertex 160.97 337.439 -177.721
  endloop
endfacet
facet normal 0 1 0
  outer loop
    vertex 160.546 337.439 -221.928
    vertex 132.862 337.439 -216.279
    vertex 150.124 337.439 -199.613
  endloop
endfacet
facet normal 0 1 0
  outer loop
    vertex 160.546 337.439 -221.928
    vertex 132.862 337.439 -249.613
    vertex 132.862 337.439 -216.279
  endloop
endfacet
facet normal -0 1 0
  outer loop
    vertex 182.862 337.439 -166.875
    vertex 199.529 337.439 -149.613
    vertex 205.178 337.439 -177.297
  endloop
endfacet
facet normal 0 1 0
  outer loop
    vertex 205.178 337.439 -177.297
    vertex 232.862 337.439 -182.946
    vertex 215.6 337.439 -199.613
  endloop
endfacet
facet normal -0 1 0
  outer loop
    vertex 199.529 337.439 -149.613
    vertex 232.862 337.439 -149.613
    vertex 205.178 337.439 -177.297
  endloop
endfacet
facet normal -0 1 0
  outer loop
    vertex 205.178 337.439 -177.297
    vertex 232.862 337.439 -149.613
    vertex 232.862 337.439 -182.946
  endloop
endfacet
facet normal -0 1 0
  outer loop
    vertex 166.195 337.439 -149.613
    vertex 199.529 337.439 -149.613
    vertex 182.862 337.439 -166.875
  endloop
endfacet
facet normal 0 1 0
  outer loop
    vertex 150.124 337.439 -199.613
    vertex 132.862 337.439 -216.279
    vertex 132.862 337.439 -182.946
  endloop
endfacet
facet normal 0 1 0
  outer loop
    vertex 205.178 337.439 -221.928
    vertex 199.529 337.439 -249.613
    vertex 182.862 337.439 -232.351
  endloop
endfacet
facet normal 0 1 0
  outer loop
    vertex 205.178 337.439 -221.928
    vertex 232.862 337.439 -249.613
    vertex 199.529 337.439 -249.613
  endloop
endfacet
facet normal 0 1 0
  outer loop
    vertex 215.6 337.439 -199.613
    vertex 232.862 337.439 -216.279
    vertex 205.178 337.439 -221.928
  endloop
endfacet
facet normal -0 1 0
  outer loop
    vertex 215.6 337.439 -199.613
    vertex 232.862 337.439 -182.946
    vertex 232.862 337.439 -216.279
  endloop
endfacet
facet normal 0 1 0
  outer loop
    vertex 232.862 337.439 -216.279
    vertex 232.862 337.439 -249.613
    vertex 205.178 337.439 -221.928
  endloop
endfacet
facet normal -0 0 -1
  outer loop
    vertex 182.862 387.439 -149.613
    vertex 151.729 387.439 -149.613
    vertex 162.029 408.272 -149.613
  endloop
endfacet
facet normal 0 0 -1
  outer loop
    vertex 182.862 387.439 -149.613
    vertex 162.029 408.272 -149.613
    vertex 182.862 420.177 -149.613
  endloop
endfacet
facet normal 0 0 -1
  outer loop
    vertex 132.862 437.439 -149.613
    vertex 166.195 437.439 -149.613
    vertex 162.029 408.272 -149.613
  endloop
endfacet
facet normal 0 -0 -1
  outer loop
    vertex 166.195 437.439 -149.613
    vertex 182.862 420.177 -149.613
    vertex 162.029 408.272 -149.613
  endloop
endfacet
facet normal 0 0 -1
  outer loop
    vertex 132.862 437.439 -149.613
    vertex 162.029 408.272 -149.613
    vertex 132.862 404.106 -149.613
  endloop
endfacet
facet normal 0 0 -1
  outer loop
    vertex 132.862 404.106 -149.613
    vertex 162.029 408.272 -149.613
    vertex 151.729 387.439 -149.613
  endloop
endfacet
facet normal 0 0 -1
  outer loop
    vertex 182.862 387.439 -149.613
    vertex 162.029 366.606 -149.613
    vertex 151.729 387.439 -149.613
  endloop
endfacet
facet normal 0 -0 -1
  outer loop
    vertex 182.862 387.439 -149.613
    vertex 182.862 354.701 -149.613
    vertex 162.029 366.606 -149.613
  endloop
endfacet
facet normal 0 0 -1
  outer loop
    vertex 132.862 337.439 -149.613
    vertex 162.029 366.606 -149.613
    vertex 166.195 337.439 -149.613
  endloop
endfacet
facet normal 0 0 -1
  outer loop
    vertex 166.195 337.439 -149.613
    vertex 162.029 366.606 -149.613
    vertex 182.862 354.701 -149.613
  endloop
endfacet
facet normal 0 0 -1
  outer loop
    vertex 132.862 337.439 -149.613
    vertex 132.862 370.772 -149.613
    vertex 162.029 366.606 -149.613
  endloop
endfacet
facet normal 0 0 -1
  outer loop
    vertex 132.862 370.772 -149.613
    vertex 151.729 387.439 -149.613
    vertex 162.029 366.606 -149.613
  endloop
endfacet
facet normal 0 0 -1
  outer loop
    vertex 182.862 387.439 -149.613
    vertex 182.862 420.177 -149.613
    vertex 207.763 412.34 -149.613
  endloop
endfacet
facet normal 0 0 -1
  outer loop
    vertex 182.862 387.439 -149.613
    vertex 207.763 412.34 -149.613
    vertex 215.6 387.439 -149.613
  endloop
endfacet
facet normal 0 0 -1
  outer loop
    vertex 182.862 387.439 -149.613
    vertex 215.6 387.439 -149.613
    vertex 203.695 366.606 -149.613
  endloop
endfacet
facet normal 0 0 -1
  outer loop
    vertex 182.862 387.439 -149.613
    vertex 203.695 366.606 -149.613
    vertex 182.862 354.701 -149.613
  endloop
endfacet
facet normal -0 0 -1
  outer loop
    vertex 232.862 437.439 -149.613
    vertex 207.763 412.34 -149.613
    vertex 199.529 437.439 -149.613
  endloop
endfacet
facet normal 0 -0 -1
  outer loop
    vertex 199.529 437.439 -149.613
    vertex 207.763 412.34 -149.613
    vertex 182.862 420.177 -149.613
  endloop
endfacet
facet normal 0 -0 -1
  outer loop
    vertex 232.862 437.439 -149.613
    vertex 232.862 404.106 -149.613
    vertex 207.763 412.34 -149.613
  endloop
endfacet
facet normal -0 0 -1
  outer loop
    vertex 232.862 404.106 -149.613
    vertex 215.6 387.439 -149.613
    vertex 207.763 412.34 -149.613
  endloop
endfacet
facet normal 0 0 -1
  outer loop
    vertex 166.195 437.439 -149.613
    vertex 199.529 437.439 -149.613
    vertex 182.862 420.177 -149.613
  endloop
endfacet
facet normal 0 0 -1
  outer loop
    vertex 199.529 337.439 -149.613
    vertex 166.195 337.439 -149.613
    vertex 182.862 354.701 -149.613
  endloop
endfacet
facet normal 0 0 -1
  outer loop
    vertex 132.862 370.772 -149.613
    vertex 132.862 404.106 -149.613
    vertex 151.729 387.439 -149.613
  endloop
endfacet
facet normal 0 0 -1
  outer loop
    vertex 232.862 337.439 -149.613
    vertex 199.529 337.439 -149.613
    vertex 203.695 366.606 -149.613
  endloop
endfacet
facet normal 0 0 -1
  outer loop
    vertex 199.529 337.439 -149.613
    vertex 182.862 354.701 -149.613
    vertex 203.695 366.606 -149.613
  endloop
endfacet
facet normal 0 -0 -1
  outer loop
    vertex 232.862 404.106 -149.613
    vertex 232.862 370.772 -149.613
    vertex 215.6 387.439 -149.613
  endloop
endfacet
facet normal 0 0 -1
  outer loop
    vertex 232.862 337.439 -149.613
    vertex 203.695 366.606 -149.613
    vertex 232.862 370.772 -149.613
  endloop
endfacet
facet normal -0 0 -1
  outer loop
    vertex 232.862 370.772 -149.613
    vertex 203.695 366.606 -149.613
    vertex 215.6 387.439 -149.613
  endloop
endfacet
facet normal 0 0 1
  outer loop
    vertex 166.195 337.439 -249.613
    vertex 199.529 337.439 -249.613
    vertex 182.862 354.701 -249.613
  endloop
endfacet
facet normal 0 0 1
  outer loop
    vertex 132.862 337.439 -249.613
    vertex 166.195 337.439 -249.613
    vertex 162.029 366.606 -249.613
  endloop
endfacet
facet normal 0 -0 1
  outer loop
    vertex 166.195 337.439 -249.613
    vertex 182.862 354.701 -249.613
    vertex 162.029 366.606 -249.613
  endloop
endfacet
facet normal 0 0 1
  outer loop
    vertex 199.529 437.439 -249.613
    vertex 166.195 437.439 -249.613
    vertex 182.862 420.177 -249.613
  endloop
endfacet
facet normal 0 0 1
  outer loop
    vertex 232.862 437.439 -249.613
    vertex 199.529 437.439 -249.613
    vertex 203.695 408.272 -249.613
  endloop
endfacet
facet normal 0 0 1
  outer loop
    vertex 199.529 437.439 -249.613
    vertex 182.862 420.177 -249.613
    vertex 203.695 408.272 -249.613
  endloop
endfacet
facet normal 0 0 1
  outer loop
    vertex 232.862 337.439 -249.613
    vertex 203.695 366.606 -249.613
    vertex 199.529 337.439 -249.613
  endloop
endfacet
facet normal 0 -0 1
  outer loop
    vertex 199.529 337.439 -249.613
    vertex 203.695 366.606 -249.613
    vertex 182.862 354.701 -249.613
  endloop
endfacet
facet normal 0 0 1
  outer loop
    vertex 132.862 404.106 -249.613
    vertex 132.862 370.772 -249.613
    vertex 150.124 387.439 -249.613
  endloop
endfacet
facet normal 0 0 1
  outer loop
    vertex 132.862 337.439 -249.613
    vertex 162.029 366.606 -249.613
    vertex 132.862 370.772 -249.613
  endloop
endfacet
facet normal -0 0 1
  outer loop
    vertex 132.862 370.772 -249.613
    vertex 162.029 366.606 -249.613
    vertex 150.124 387.439 -249.613
  endloop
endfacet
facet normal -0 0 1
  outer loop
    vertex 132.862 437.439 -249.613
    vertex 157.961 412.34 -249.613
    vertex 166.195 437.439 -249.613
  endloop
endfacet
facet normal 0 0 1
  outer loop
    vertex 166.195 437.439 -249.613
    vertex 157.961 412.34 -249.613
    vertex 182.862 420.177 -249.613
  endloop
endfacet
facet normal 0 -0 1
  outer loop
    vertex 232.862 370.772 -249.613
    vertex 232.862 404.106 -249.613
    vertex 213.995 387.439 -249.613
  endloop
endfacet
facet normal 0 -0 1
  outer loop
    vertex 232.862 337.439 -249.613
    vertex 232.862 370.772 -249.613
    vertex 203.695 366.606 -249.613
  endloop
endfacet
facet normal 0 0 1
  outer loop
    vertex 232.862 370.772 -249.613
    vertex 213.995 387.439 -249.613
    vertex 203.695 366.606 -249.613
  endloop
endfacet
facet normal 0 0 1
  outer loop
    vertex 232.862 437.439 -249.613
    vertex 203.695 408.272 -249.613
    vertex 232.862 404.106 -249.613
  endloop
endfacet
facet normal 0 0 1
  outer loop
    vertex 232.862 404.106 -249.613
    vertex 203.695 408.272 -249.613
    vertex 213.995 387.439 -249.613
  endloop
endfacet
facet normal 0 0 1
  outer loop
    vertex 132.862 437.439 -249.613
    vertex 132.862 404.106 -249.613
    vertex 157.961 412.34 -249.613
  endloop
endfacet
facet normal -0 0 1
  outer loop
    vertex 132.862 404.106 -249.613
    vertex 150.124 387.439 -249.613
    vertex 157.961 412.34 -249.613
  endloop
endfacet
facet normal 0 0 1
  outer loop
    vertex 182.862 387.439 -249.613
    vertex 203.695 366.606 -249.613
    vertex 213.995 387.439 -249.613
  endloop
endfacet
facet normal -0 0 1
  outer loop
    vertex 182.862 387.439 -249.613
    vertex 213.995 387.439 -249.613
    vertex 203.695 408.272 -249.613
  endloop
endfacet
facet normal 0 0 1
  outer loop
    vertex 182.862 387.439 -249.613
    vertex 182.862 354.701 -249.613
    vertex 203.695 366.606 -249.613
  endloop
endfacet
facet normal 0 0 1
  outer loop
    vertex 182.862 387.439 -249.613
    vertex 203.695 408.272 -249.613
    vertex 182.862 420.177 -249.613
  endloop
endfacet
facet normal 0 -0 1
  outer loop
    vertex 182.862 387.439 -249.613
    vertex 182.862 420.177 -249.613
    vertex 157.961 412.34 -249.613
  endloop
endfacet
facet normal 0 0 1
  outer loop
    vertex 182.862 387.439 -249.613
    vertex 162.029 366.606 -249.613
    vertex 182.862 354.701 -249.613
  endloop
endfacet
facet normal 0 0 1
  outer loop
    vertex 182.862 387.439 -249.613
    vertex 150.124 387.439 -249.613
    vertex 162.029 366.606 -249.613
  endloop
endfacet
facet normal 0 0 1
  outer loop
    vertex 182.862 387.439 -249.613
    vertex 157.961 412.34 -249.613
    vertex 150.124 387.439 -249.613
  endloop
endfacet
endsolid Created by Gmsh
