solid Created by Gmsh
facet normal 1 0 0
  outer loop
    vertex 250 173.659 187.404
    vertex 250 166.583 216.583
    vertex 250 142.5 192.5
  endloop
endfacet
facet normal 1 -8.93196e-16 -2.16595e-16
  outer loop
    vertex 250 166.583 216.583
    vertex 250 173.659 187.404
    vertex 250 200 210
  endloop
endfacet
facet normal 1 0 0
  outer loop
    vertex 250 166.583 216.583
    vertex 250 137.587 223.5
    vertex 250 142.5 192.5
  endloop
endfacet
facet normal 1 -2.12885e-16 -8.92465e-16
  outer loop
    vertex 250 137.587 223.5
    vertex 250 166.583 216.583
    vertex 250 160 250
  endloop
endfacet
facet normal 1 -8.50525e-16 0
  outer loop
    vertex 250 166.583 216.583
    vertex 250 200 210
    vertex 250 200 250
  endloop
endfacet
facet normal 1 0 -8.50525e-16
  outer loop
    vertex 250 160 250
    vertex 250 166.583 216.583
    vertex 250 200 250
  endloop
endfacet
facet normal 1 0 0
  outer loop
    vertex 250 102.065 209.213
    vertex 250 62.5964 223.659
    vertex 250 57.5 192.5
  endloop
endfacet
facet normal 1 -3.18026e-16 -8.68878e-16
  outer loop
    vertex 250 62.5964 223.659
    vertex 250 102.065 209.213
    vertex 250 80 250
  endloop
endfacet
facet normal 1 -0 0
  outer loop
    vertex 250 84.8942 173.359
    vertex 250 126.331 163.931
    vertex 250 102.065 209.213
  endloop
endfacet
facet normal 1 0 -0
  outer loop
    vertex 250 84.8942 173.359
    vertex 250 102.065 209.213
    vertex 250 57.5 192.5
  endloop
endfacet
facet normal 1 0 0
  outer loop
    vertex 250 137.587 223.5
    vertex 250 102.065 209.213
    vertex 250 142.5 192.5
  endloop
endfacet
facet normal 1 3.4048e-16 -8.46546e-16
  outer loop
    vertex 250 102.065 209.213
    vertex 250 137.587 223.5
    vertex 250 120 250
  endloop
endfacet
facet normal 1 0 0
  outer loop
    vertex 250 102.065 209.213
    vertex 250 126.331 163.931
    vertex 250 142.5 192.5
  endloop
endfacet
facet normal 1 0 -6.96831e-16
  outer loop
    vertex 250 80 250
    vertex 250 102.065 209.213
    vertex 250 120 250
  endloop
endfacet
facet normal 1 0 -0
  outer loop
    vertex 250 166.583 83.4167
    vertex 250 173.5 112.413
    vertex 250 142.5 107.5
  endloop
endfacet
facet normal 1 -8.92465e-16 2.12885e-16
  outer loop
    vertex 250 173.5 112.413
    vertex 250 166.583 83.4167
    vertex 250 200 90
  endloop
endfacet
facet normal 1 0 0
  outer loop
    vertex 250 137.404 76.3408
    vertex 250 166.583 83.4167
    vertex 250 142.5 107.5
  endloop
endfacet
facet normal 1 -2.16595e-16 8.93196e-16
  outer loop
    vertex 250 166.583 83.4167
    vertex 250 137.404 76.3408
    vertex 250 160 50
  endloop
endfacet
facet normal 1 0 8.50525e-16
  outer loop
    vertex 250 166.583 83.4167
    vertex 250 160 50
    vertex 250 200 50
  endloop
endfacet
facet normal 1 -8.50525e-16 0
  outer loop
    vertex 250 200 90
    vertex 250 166.583 83.4167
    vertex 250 200 50
  endloop
endfacet
facet normal 1 0 -0
  outer loop
    vertex 250 159.213 147.935
    vertex 250 173.659 187.404
    vertex 250 142.5 192.5
  endloop
endfacet
facet normal 1 -8.68878e-16 3.18026e-16
  outer loop
    vertex 250 173.659 187.404
    vertex 250 159.213 147.935
    vertex 250 200 170
  endloop
endfacet
facet normal 1 -1.079e-15 0
  outer loop
    vertex 250 200 210
    vertex 250 173.659 187.404
    vertex 250 200 170
  endloop
endfacet
facet normal 1 0 0
  outer loop
    vertex 250 62.5964 223.659
    vertex 250 33.4167 216.583
    vertex 250 57.5 192.5
  endloop
endfacet
facet normal 1 2.16595e-16 -8.93196e-16
  outer loop
    vertex 250 33.4167 216.583
    vertex 250 62.5964 223.659
    vertex 250 40 250
  endloop
endfacet
facet normal 1 0 -1.079e-15
  outer loop
    vertex 250 40 250
    vertex 250 62.5964 223.659
    vertex 250 80 250
  endloop
endfacet
facet normal 1 0 0
  outer loop
    vertex 250 173.5 112.413
    vertex 250 159.213 147.935
    vertex 250 142.5 107.5
  endloop
endfacet
facet normal 1 -8.46546e-16 -3.4048e-16
  outer loop
    vertex 250 159.213 147.935
    vertex 250 173.5 112.413
    vertex 250 200 130
  endloop
endfacet
facet normal 1 -1.07251e-15 0
  outer loop
    vertex 250 200 130
    vertex 250 173.5 112.413
    vertex 250 200 90
  endloop
endfacet
facet normal 1 0 0
  outer loop
    vertex 250 84.8942 173.359
    vertex 250 76.6094 134.915
    vertex 250 100 150
  endloop
endfacet
facet normal 1 0 0
  outer loop
    vertex 250 126.331 163.931
    vertex 250 84.8942 173.359
    vertex 250 100 150
  endloop
endfacet
facet normal 1 -0 0
  outer loop
    vertex 250 76.6094 134.915
    vertex 250 113.793 123.71
    vertex 250 100 150
  endloop
endfacet
facet normal 1 0 -0
  outer loop
    vertex 250 113.793 123.71
    vertex 250 126.331 163.931
    vertex 250 100 150
  endloop
endfacet
facet normal 1 -0 0
  outer loop
    vertex 250 26.5001 187.587
    vertex 250 40.7871 152.065
    vertex 250 57.5 192.5
  endloop
endfacet
facet normal 1 8.46546e-16 3.4048e-16
  outer loop
    vertex 250 40.7871 152.065
    vertex 250 26.5001 187.587
    vertex 250 0 170
  endloop
endfacet
facet normal 1 0 -0
  outer loop
    vertex 250 76.6094 134.915
    vertex 250 84.8942 173.359
    vertex 250 40.7871 152.065
  endloop
endfacet
facet normal 1 0 0
  outer loop
    vertex 250 40.7871 152.065
    vertex 250 84.8942 173.359
    vertex 250 57.5 192.5
  endloop
endfacet
facet normal 1 0 0
  outer loop
    vertex 250 76.6094 134.915
    vertex 250 40.7871 152.065
    vertex 250 57.5 107.5
  endloop
endfacet
facet normal 1 0 0
  outer loop
    vertex 250 40.7871 152.065
    vertex 250 26.3408 112.596
    vertex 250 57.5 107.5
  endloop
endfacet
facet normal 1 8.68878e-16 -3.18026e-16
  outer loop
    vertex 250 26.3408 112.596
    vertex 250 40.7871 152.065
    vertex 250 0 130
  endloop
endfacet
facet normal 1 6.96831e-16 -0
  outer loop
    vertex 250 0 130
    vertex 250 40.7871 152.065
    vertex 250 0 170
  endloop
endfacet
facet normal 1 0 0
  outer loop
    vertex 250 33.4167 216.583
    vertex 250 26.5001 187.587
    vertex 250 57.5 192.5
  endloop
endfacet
facet normal 1 8.92465e-16 -2.12885e-16
  outer loop
    vertex 250 26.5001 187.587
    vertex 250 33.4167 216.583
    vertex 250 0 210
  endloop
endfacet
facet normal 1 1.07251e-15 -0
  outer loop
    vertex 250 0 170
    vertex 250 26.5001 187.587
    vertex 250 0 210
  endloop
endfacet
facet normal 1 -0 0
  outer loop
    vertex 250 97.9348 90.7871
    vertex 250 137.404 76.3408
    vertex 250 142.5 107.5
  endloop
endfacet
facet normal 1 3.18026e-16 8.68878e-16
  outer loop
    vertex 250 137.404 76.3408
    vertex 250 97.9348 90.7871
    vertex 250 120 50
  endloop
endfacet
facet normal 1 0 1.079e-15
  outer loop
    vertex 250 160 50
    vertex 250 137.404 76.3408
    vertex 250 120 50
  endloop
endfacet
facet normal 1 0 0
  outer loop
    vertex 250 113.793 123.71
    vertex 250 97.9348 90.7871
    vertex 250 142.5 107.5
  endloop
endfacet
facet normal 1 0 0
  outer loop
    vertex 250 159.213 147.935
    vertex 250 113.793 123.71
    vertex 250 142.5 107.5
  endloop
endfacet
facet normal 1 0 0
  outer loop
    vertex 250 113.793 123.71
    vertex 250 76.6094 134.915
    vertex 250 97.9348 90.7871
  endloop
endfacet
facet normal 1 0 0
  outer loop
    vertex 250 126.331 163.931
    vertex 250 113.793 123.71
    vertex 250 159.213 147.935
  endloop
endfacet
facet normal 1 0 0
  outer loop
    vertex 250 97.9348 90.7871
    vertex 250 76.6094 134.915
    vertex 250 57.5 107.5
  endloop
endfacet
facet normal 1 0 -1.07251e-15
  outer loop
    vertex 250 120 250
    vertex 250 137.587 223.5
    vertex 250 160 250
  endloop
endfacet
facet normal 1 -0 0
  outer loop
    vertex 250 33.4167 83.4167
    vertex 250 62.4126 76.5001
    vertex 250 57.5 107.5
  endloop
endfacet
facet normal 1 0 -0
  outer loop
    vertex 250 62.4126 76.5001
    vertex 250 97.9348 90.7871
    vertex 250 57.5 107.5
  endloop
endfacet
facet normal 1 2.12885e-16 8.92465e-16
  outer loop
    vertex 250 62.4126 76.5001
    vertex 250 33.4167 83.4167
    vertex 250 40 50
  endloop
endfacet
facet normal 1 -3.4048e-16 8.46546e-16
  outer loop
    vertex 250 97.9348 90.7871
    vertex 250 62.4126 76.5001
    vertex 250 80 50
  endloop
endfacet
facet normal 1 0 1.07251e-15
  outer loop
    vertex 250 80 50
    vertex 250 62.4126 76.5001
    vertex 250 40 50
  endloop
endfacet
facet normal 1 0 0
  outer loop
    vertex 250 26.3408 112.596
    vertex 250 33.4167 83.4167
    vertex 250 57.5 107.5
  endloop
endfacet
facet normal 1 8.50525e-16 -0
  outer loop
    vertex 250 0 210
    vertex 250 33.4167 216.583
    vertex 250 0 250
  endloop
endfacet
facet normal 1 0 -8.50525e-16
  outer loop
    vertex 250 33.4167 216.583
    vertex 250 40 250
    vertex 250 0 250
  endloop
endfacet
facet normal 1 8.93196e-16 2.16595e-16
  outer loop
    vertex 250 33.4167 83.4167
    vertex 250 26.3408 112.596
    vertex 250 0 90
  endloop
endfacet
facet normal 1 0 8.50525e-16
  outer loop
    vertex 250 40 50
    vertex 250 33.4167 83.4167
    vertex 250 0 50
  endloop
endfacet
facet normal 1 8.50525e-16 0
  outer loop
    vertex 250 33.4167 83.4167
    vertex 250 0 90
    vertex 250 0 50
  endloop
endfacet
facet normal 1 0 6.96831e-16
  outer loop
    vertex 250 120 50
    vertex 250 97.9348 90.7871
    vertex 250 80 50
  endloop
endfacet
facet normal 1 -0 0
  outer loop
    vertex 250 126.331 163.931
    vertex 250 159.213 147.935
    vertex 250 142.5 192.5
  endloop
endfacet
facet normal 1 -6.96831e-16 0
  outer loop
    vertex 250 200 170
    vertex 250 159.213 147.935
    vertex 250 200 130
  endloop
endfacet
facet normal 1 1.079e-15 -0
  outer loop
    vertex 250 0 90
    vertex 250 26.3408 112.596
    vertex 250 0 130
  endloop
endfacet
facet normal -1 0 0
  outer loop
    vertex 50 80 50
    vertex 50 40 50
    vertex 50 61.7185 76.4375
  endloop
endfacet
facet normal -1 0 0
  outer loop
    vertex 50 0 50
    vertex 50 33.4167 83.4167
    vertex 50 40 50
  endloop
endfacet
facet normal -1 0 0
  outer loop
    vertex 50 40 50
    vertex 50 33.4167 83.4167
    vertex 50 61.7185 76.4375
  endloop
endfacet
facet normal -1 0 0
  outer loop
    vertex 50 120 50
    vertex 50 80 50
    vertex 50 97.6757 91.2709
  endloop
endfacet
facet normal -1 0 0
  outer loop
    vertex 50 160 50
    vertex 50 120 50
    vertex 50 136.937 77.2115
  endloop
endfacet
facet normal -1 0 0
  outer loop
    vertex 50 120 50
    vertex 50 97.6757 91.2709
    vertex 50 136.937 77.2115
  endloop
endfacet
facet normal -1 0 0
  outer loop
    vertex 50 0 90
    vertex 50 0 130
    vertex 50 26.8984 114.018
  endloop
endfacet
facet normal -1 0 0
  outer loop
    vertex 50 0 50
    vertex 50 0 90
    vertex 50 33.4167 83.4167
  endloop
endfacet
facet normal -1 0 0
  outer loop
    vertex 50 0 90
    vertex 50 26.8984 114.018
    vertex 50 33.4167 83.4167
  endloop
endfacet
facet normal -1 0 0
  outer loop
    vertex 50 0 130
    vertex 50 0 170
    vertex 50 40.9783 150
  endloop
endfacet
facet normal -1 0 0
  outer loop
    vertex 50 0 130
    vertex 50 40.9783 150
    vertex 50 26.8984 114.018
  endloop
endfacet
facet normal -1 0 0
  outer loop
    vertex 50 0 170
    vertex 50 0 210
    vertex 50 26.8984 185.982
  endloop
endfacet
facet normal -1 0 0
  outer loop
    vertex 50 0 170
    vertex 50 26.8984 185.982
    vertex 50 40.9783 150
  endloop
endfacet
facet normal -1 0 0
  outer loop
    vertex 50 40 250
    vertex 50 80 250
    vertex 50 63.2246 223.325
  endloop
endfacet
facet normal -1 0 0
  outer loop
    vertex 50 0 250
    vertex 50 40 250
    vertex 50 33.4167 216.583
  endloop
endfacet
facet normal -1 0 -0
  outer loop
    vertex 50 40 250
    vertex 50 63.2246 223.325
    vertex 50 33.4167 216.583
  endloop
endfacet
facet normal -1 0 0
  outer loop
    vertex 50 80 250
    vertex 50 120 250
    vertex 50 98.2861 209.488
  endloop
endfacet
facet normal -1 0 0
  outer loop
    vertex 50 120 250
    vertex 50 160 250
    vertex 50 137.178 223.296
  endloop
endfacet
facet normal -1 0 -0
  outer loop
    vertex 50 120 250
    vertex 50 137.178 223.296
    vertex 50 98.2861 209.488
  endloop
endfacet
facet normal -1 0 0
  outer loop
    vertex 50 0 250
    vertex 50 33.4167 216.583
    vertex 50 0 210
  endloop
endfacet
facet normal -1 0 0
  outer loop
    vertex 50 0 210
    vertex 50 33.4167 216.583
    vertex 50 26.8984 185.982
  endloop
endfacet
facet normal -1 0 -0
  outer loop
    vertex 50 80 250
    vertex 50 98.2861 209.488
    vertex 50 63.2246 223.325
  endloop
endfacet
facet normal -1 0 0
  outer loop
    vertex 50 80 50
    vertex 50 61.7185 76.4375
    vertex 50 97.6757 91.2709
  endloop
endfacet
facet normal -1 0 -0
  outer loop
    vertex 50 200 130
    vertex 50 200 90
    vertex 50 173.467 113.679
  endloop
endfacet
facet normal -1 0 0
  outer loop
    vertex 50 200 50
    vertex 50 166.583 83.4167
    vertex 50 200 90
  endloop
endfacet
facet normal -1 -0 0
  outer loop
    vertex 50 200 90
    vertex 50 166.583 83.4167
    vertex 50 173.467 113.679
  endloop
endfacet
facet normal -1 0 0
  outer loop
    vertex 50 200 50
    vertex 50 160 50
    vertex 50 166.583 83.4167
  endloop
endfacet
facet normal -1 0 0
  outer loop
    vertex 50 160 50
    vertex 50 136.937 77.2115
    vertex 50 166.583 83.4167
  endloop
endfacet
facet normal -1 0 -0
  outer loop
    vertex 50 200 210
    vertex 50 200 170
    vertex 50 174.223 187.529
  endloop
endfacet
facet normal -1 0 -0
  outer loop
    vertex 50 200 250
    vertex 50 200 210
    vertex 50 166.583 216.583
  endloop
endfacet
facet normal -1 -0 0
  outer loop
    vertex 50 200 210
    vertex 50 174.223 187.529
    vertex 50 166.583 216.583
  endloop
endfacet
facet normal -1 0 -0
  outer loop
    vertex 50 200 170
    vertex 50 200 130
    vertex 50 163.512 150.654
  endloop
endfacet
facet normal -1 -0 0
  outer loop
    vertex 50 200 170
    vertex 50 163.512 150.654
    vertex 50 174.223 187.529
  endloop
endfacet
facet normal -1 -0 0
  outer loop
    vertex 50 200 250
    vertex 50 166.583 216.583
    vertex 50 160 250
  endloop
endfacet
facet normal -1 0 -0
  outer loop
    vertex 50 160 250
    vertex 50 166.583 216.583
    vertex 50 137.178 223.296
  endloop
endfacet
facet normal -1 -0 0
  outer loop
    vertex 50 200 130
    vertex 50 173.467 113.679
    vertex 50 163.512 150.654
  endloop
endfacet
facet normal -1 0 0
  outer loop
    vertex 50 141.02 190.41
    vertex 50 137.178 223.296
    vertex 50 166.583 216.583
  endloop
endfacet
facet normal -1 0 0
  outer loop
    vertex 50 141.02 190.41
    vertex 50 98.2861 209.488
    vertex 50 137.178 223.296
  endloop
endfacet
facet normal -1 0 0
  outer loop
    vertex 50 141.02 190.41
    vertex 50 166.583 216.583
    vertex 50 174.223 187.529
  endloop
endfacet
facet normal -1 0 0
  outer loop
    vertex 50 141.02 190.41
    vertex 50 128.115 151.946
    vertex 50 109.961 176.087
  endloop
endfacet
facet normal -1 -0 0
  outer loop
    vertex 50 141.02 190.41
    vertex 50 109.961 176.087
    vertex 50 98.2861 209.488
  endloop
endfacet
facet normal -1 0 0
  outer loop
    vertex 50 141.02 190.41
    vertex 50 174.223 187.529
    vertex 50 163.512 150.654
  endloop
endfacet
facet normal -1 0 -0
  outer loop
    vertex 50 141.02 190.41
    vertex 50 163.512 150.654
    vertex 50 128.115 151.946
  endloop
endfacet
facet normal -1 0 0
  outer loop
    vertex 50 100.152 151.783
    vertex 50 128.115 151.946
    vertex 50 110.266 124.94
  endloop
endfacet
facet normal -1 0 -0
  outer loop
    vertex 50 100.152 151.783
    vertex 50 110.266 124.94
    vertex 50 80.2252 132.129
  endloop
endfacet
facet normal -1 0 0
  outer loop
    vertex 50 140.427 111.37
    vertex 50 110.266 124.94
    vertex 50 128.115 151.946
  endloop
endfacet
facet normal -1 -0 0
  outer loop
    vertex 50 140.427 111.37
    vertex 50 97.6757 91.2709
    vertex 50 110.266 124.94
  endloop
endfacet
facet normal -1 0 0
  outer loop
    vertex 50 97.6757 91.2709
    vertex 50 80.2252 132.129
    vertex 50 110.266 124.94
  endloop
endfacet
facet normal -1 0 0
  outer loop
    vertex 50 100.152 151.783
    vertex 50 109.961 176.087
    vertex 50 128.115 151.946
  endloop
endfacet
facet normal -1 0 0
  outer loop
    vertex 50 100.152 151.783
    vertex 50 79.3541 168.269
    vertex 50 109.961 176.087
  endloop
endfacet
facet normal -1 0 -0
  outer loop
    vertex 50 98.2861 209.488
    vertex 50 109.961 176.087
    vertex 50 79.3541 168.269
  endloop
endfacet
facet normal -1 0 0
  outer loop
    vertex 50 57.5 107.5
    vertex 50 97.6757 91.2709
    vertex 50 61.7185 76.4375
  endloop
endfacet
facet normal -1 0 -0
  outer loop
    vertex 50 57.5 107.5
    vertex 50 61.7185 76.4375
    vertex 50 33.4167 83.4167
  endloop
endfacet
facet normal -1 0 0
  outer loop
    vertex 50 57.5 192.5
    vertex 50 33.4167 216.583
    vertex 50 63.2246 223.325
  endloop
endfacet
facet normal -1 -0 0
  outer loop
    vertex 50 57.5 192.5
    vertex 50 26.8984 185.982
    vertex 50 33.4167 216.583
  endloop
endfacet
facet normal -1 0 0
  outer loop
    vertex 50 57.5 192.5
    vertex 50 63.2246 223.325
    vertex 50 98.2861 209.488
  endloop
endfacet
facet normal -1 0 0
  outer loop
    vertex 50 140.427 111.37
    vertex 50 136.937 77.2115
    vertex 50 97.6757 91.2709
  endloop
endfacet
facet normal -1 0 -0
  outer loop
    vertex 50 140.427 111.37
    vertex 50 166.583 83.4167
    vertex 50 136.937 77.2115
  endloop
endfacet
facet normal -1 0 0
  outer loop
    vertex 50 57.5 192.5
    vertex 50 98.2861 209.488
    vertex 50 79.3541 168.269
  endloop
endfacet
facet normal -1 0 -0
  outer loop
    vertex 50 57.5 192.5
    vertex 50 79.3541 168.269
    vertex 50 40.9783 150
  endloop
endfacet
facet normal -1 0 0
  outer loop
    vertex 50 57.5 192.5
    vertex 50 40.9783 150
    vertex 50 26.8984 185.982
  endloop
endfacet
facet normal -1 -0 0
  outer loop
    vertex 50 100.152 151.783
    vertex 50 80.2252 132.129
    vertex 50 79.3541 168.269
  endloop
endfacet
facet normal -1 0 0
  outer loop
    vertex 50 140.427 111.37
    vertex 50 128.115 151.946
    vertex 50 163.512 150.654
  endloop
endfacet
facet normal -1 0 0
  outer loop
    vertex 50 57.5 107.5
    vertex 50 80.2252 132.129
    vertex 50 97.6757 91.2709
  endloop
endfacet
facet normal -1 0 0
  outer loop
    vertex 50 140.427 111.37
    vertex 50 173.467 113.679
    vertex 50 166.583 83.4167
  endloop
endfacet
facet normal -1 0 0
  outer loop
    vertex 50 140.427 111.37
    vertex 50 163.512 150.654
    vertex 50 173.467 113.679
  endloop
endfacet
facet normal -1 -0 0
  outer loop
    vertex 50 57.5 107.5
    vertex 50 33.4167 83.4167
    vertex 50 26.8984 114.018
  endloop
endfacet
facet normal -1 0 0
  outer loop
    vertex 50 57.5 107.5
    vertex 50 40.9783 150
    vertex 50 80.2252 132.129
  endloop
endfacet
facet normal -1 0 0
  outer loop
    vertex 50 57.5 107.5
    vertex 50 26.8984 114.018
    vertex 50 40.9783 150
  endloop
endfacet
facet normal -1 0 0
  outer loop
    vertex 50 40.9783 150
    vertex 50 79.3541 168.269
    vertex 50 80.2252 132.129
  endloop
endfacet
facet normal 0 -1 0
  outer loop
    vertex 151.714 200 209.488
    vertex 108.98 200 190.41
    vertex 140.039 200 176.087
  endloop
endfacet
facet normal 0 -1 -0
  outer loop
    vertex 112.822 200 223.296
    vertex 108.98 200 190.41
    vertex 151.714 200 209.488
  endloop
endfacet
facet normal -0 -1 0
  outer loop
    vertex 121.842 200 152.062
    vertex 108.98 200 190.41
    vertex 86.4876 200 150.654
  endloop
endfacet
facet normal 0 -1 0
  outer loop
    vertex 86.4876 200 150.654
    vertex 108.98 200 190.41
    vertex 75.7769 200 187.529
  endloop
endfacet
facet normal 0 -1 0
  outer loop
    vertex 83.4167 200 216.583
    vertex 108.98 200 190.41
    vertex 112.822 200 223.296
  endloop
endfacet
facet normal 0 -1 0
  outer loop
    vertex 75.7769 200 187.529
    vertex 108.98 200 190.41
    vertex 83.4167 200 216.583
  endloop
endfacet
facet normal -0 -1 0
  outer loop
    vertex 140.039 200 176.087
    vertex 108.98 200 190.41
    vertex 121.842 200 152.062
  endloop
endfacet
facet normal 0 -1 0
  outer loop
    vertex 151.714 200 209.488
    vertex 192.5 200 192.5
    vertex 187.146 200 223.468
  endloop
endfacet
facet normal 0 -1 0
  outer loop
    vertex 170.592 200 168.181
    vertex 192.5 200 192.5
    vertex 151.714 200 209.488
  endloop
endfacet
facet normal -0 -1 0
  outer loop
    vertex 223.102 200 185.982
    vertex 192.5 200 192.5
    vertex 209.022 200 150
  endloop
endfacet
facet normal 0 -1 0
  outer loop
    vertex 209.022 200 150
    vertex 192.5 200 192.5
    vertex 170.592 200 168.181
  endloop
endfacet
facet normal 0 -1 -0
  outer loop
    vertex 217.108 200 217.108
    vertex 192.5 200 192.5
    vertex 223.102 200 185.982
  endloop
endfacet
facet normal 0 -1 0
  outer loop
    vertex 187.146 200 223.468
    vertex 192.5 200 192.5
    vertex 217.108 200 217.108
  endloop
endfacet
facet normal 0 -1 -0
  outer loop
    vertex 139.368 200 125.916
    vertex 109.573 200 111.37
    vertex 152.324 200 91.2709
  endloop
endfacet
facet normal -0 -1 0
  outer loop
    vertex 152.324 200 91.2709
    vertex 109.573 200 111.37
    vertex 113.063 200 77.2115
  endloop
endfacet
facet normal 0 -1 0
  outer loop
    vertex 76.5329 200 113.679
    vertex 109.573 200 111.37
    vertex 86.4876 200 150.654
  endloop
endfacet
facet normal 0 -1 0
  outer loop
    vertex 86.4876 200 150.654
    vertex 109.573 200 111.37
    vertex 121.842 200 152.062
  endloop
endfacet
facet normal 0 -1 0
  outer loop
    vertex 83.4167 200 83.4167
    vertex 109.573 200 111.37
    vertex 76.5329 200 113.679
  endloop
endfacet
facet normal 0 -1 0
  outer loop
    vertex 113.063 200 77.2115
    vertex 109.573 200 111.37
    vertex 83.4167 200 83.4167
  endloop
endfacet
facet normal 0 -1 -0
  outer loop
    vertex 121.842 200 152.062
    vertex 109.573 200 111.37
    vertex 139.368 200 125.916
  endloop
endfacet
facet normal 0 -1 0
  outer loop
    vertex 152.324 200 91.2709
    vertex 192.5 200 107.5
    vertex 169.321 200 131.387
  endloop
endfacet
facet normal 0 -1 0
  outer loop
    vertex 188.282 200 76.4375
    vertex 192.5 200 107.5
    vertex 152.324 200 91.2709
  endloop
endfacet
facet normal 0 -1 0
  outer loop
    vertex 130 200 50
    vertex 170 200 50
    vertex 152.324 200 91.2709
  endloop
endfacet
facet normal 0 -1 0
  outer loop
    vertex 152.324 200 91.2709
    vertex 170 200 50
    vertex 188.282 200 76.4375
  endloop
endfacet
facet normal 0 -1 0
  outer loop
    vertex 113.063 200 77.2115
    vertex 130 200 50
    vertex 152.324 200 91.2709
  endloop
endfacet
facet normal 0 -1 0
  outer loop
    vertex 139.368 200 125.916
    vertex 152.324 200 91.2709
    vertex 169.321 200 131.387
  endloop
endfacet
facet normal -0 -1 0
  outer loop
    vertex 170 200 250
    vertex 130 200 250
    vertex 151.714 200 209.488
  endloop
endfacet
facet normal 0 -1 0
  outer loop
    vertex 151.714 200 209.488
    vertex 130 200 250
    vertex 112.822 200 223.296
  endloop
endfacet
facet normal -0 -1 0
  outer loop
    vertex 187.146 200 223.468
    vertex 170 200 250
    vertex 151.714 200 209.488
  endloop
endfacet
facet normal 0 -1 0
  outer loop
    vertex 170.592 200 168.181
    vertex 151.714 200 209.488
    vertex 140.039 200 176.087
  endloop
endfacet
facet normal -0 -1 0
  outer loop
    vertex 86.4876 200 150.654
    vertex 50 200 170
    vertex 50 200 130
  endloop
endfacet
facet normal 0 -1 -0
  outer loop
    vertex 75.7769 200 187.529
    vertex 50 200 170
    vertex 86.4876 200 150.654
  endloop
endfacet
facet normal 0 -1 0
  outer loop
    vertex 86.4876 200 150.654
    vertex 50 200 130
    vertex 76.5329 200 113.679
  endloop
endfacet
facet normal 0 -1 0
  outer loop
    vertex 121.842 200 152.062
    vertex 149.848 200 151.783
    vertex 140.039 200 176.087
  endloop
endfacet
facet normal 0 -1 0
  outer loop
    vertex 140.039 200 176.087
    vertex 149.848 200 151.783
    vertex 170.592 200 168.181
  endloop
endfacet
facet normal -0 -1 0
  outer loop
    vertex 169.321 200 131.387
    vertex 149.848 200 151.783
    vertex 139.368 200 125.916
  endloop
endfacet
facet normal 0 -1 0
  outer loop
    vertex 170.592 200 168.181
    vertex 149.848 200 151.783
    vertex 169.321 200 131.387
  endloop
endfacet
facet normal 0 -1 0
  outer loop
    vertex 139.368 200 125.916
    vertex 149.848 200 151.783
    vertex 121.842 200 152.062
  endloop
endfacet
facet normal 0 -1 0
  outer loop
    vertex 169.321 200 131.387
    vertex 192.5 200 107.5
    vertex 209.022 200 150
  endloop
endfacet
facet normal 0 -1 -0
  outer loop
    vertex 209.022 200 150
    vertex 192.5 200 107.5
    vertex 223.102 200 114.018
  endloop
endfacet
facet normal 0 -1 0
  outer loop
    vertex 209.022 200 150
    vertex 250 200 130
    vertex 250 200 170
  endloop
endfacet
facet normal 0 -1 0
  outer loop
    vertex 223.102 200 114.018
    vertex 250 200 130
    vertex 209.022 200 150
  endloop
endfacet
facet normal 0 -1 0
  outer loop
    vertex 209.022 200 150
    vertex 250 200 170
    vertex 223.102 200 185.982
  endloop
endfacet
facet normal 0 -1 0
  outer loop
    vertex 169.321 200 131.387
    vertex 209.022 200 150
    vertex 170.592 200 168.181
  endloop
endfacet
facet normal -0 -1 0
  outer loop
    vertex 216.583 200 83.4167
    vertex 192.5 200 107.5
    vertex 188.282 200 76.4375
  endloop
endfacet
facet normal 0 -1 0
  outer loop
    vertex 223.102 200 114.018
    vertex 192.5 200 107.5
    vertex 216.583 200 83.4167
  endloop
endfacet
facet normal 0 -1 0
  outer loop
    vertex 210 200 50
    vertex 250 200 50
    vertex 216.583 200 83.4167
  endloop
endfacet
facet normal 0 -1 0
  outer loop
    vertex 188.282 200 76.4375
    vertex 210 200 50
    vertex 216.583 200 83.4167
  endloop
endfacet
facet normal 0 -1 0
  outer loop
    vertex 216.583 200 83.4167
    vertex 250 200 50
    vertex 250 200 90
  endloop
endfacet
facet normal 0 -1 0
  outer loop
    vertex 216.583 200 83.4167
    vertex 250 200 90
    vertex 223.102 200 114.018
  endloop
endfacet
facet normal -0 -1 0
  outer loop
    vertex 83.4167 200 216.583
    vertex 50 200 250
    vertex 50 200 210
  endloop
endfacet
facet normal 0 -1 0
  outer loop
    vertex 83.4167 200 216.583
    vertex 50 200 210
    vertex 75.7769 200 187.529
  endloop
endfacet
facet normal -0 -1 0
  outer loop
    vertex 90 200 250
    vertex 50 200 250
    vertex 83.4167 200 216.583
  endloop
endfacet
facet normal -0 -1 0
  outer loop
    vertex 112.822 200 223.296
    vertex 90 200 250
    vertex 83.4167 200 216.583
  endloop
endfacet
facet normal -0 -1 0
  outer loop
    vertex 76.5329 200 113.679
    vertex 50 200 130
    vertex 50 200 90
  endloop
endfacet
facet normal 0 -1 0
  outer loop
    vertex 50 200 90
    vertex 50 200 50
    vertex 83.4167 200 83.4167
  endloop
endfacet
facet normal 0 -1 -0
  outer loop
    vertex 76.5329 200 113.679
    vertex 50 200 90
    vertex 83.4167 200 83.4167
  endloop
endfacet
facet normal -0 -1 0
  outer loop
    vertex 75.7769 200 187.529
    vertex 50 200 210
    vertex 50 200 170
  endloop
endfacet
facet normal 0 -1 0
  outer loop
    vertex 223.102 200 114.018
    vertex 250 200 90
    vertex 250 200 130
  endloop
endfacet
facet normal 0 -1 0
  outer loop
    vertex 223.102 200 185.982
    vertex 250 200 170
    vertex 250 200 210
  endloop
endfacet
facet normal 0 -1 0
  outer loop
    vertex 250 200 210
    vertex 250 200 250
    vertex 217.108 200 217.108
  endloop
endfacet
facet normal 0 -1 0
  outer loop
    vertex 223.102 200 185.982
    vertex 250 200 210
    vertex 217.108 200 217.108
  endloop
endfacet
facet normal 0 -1 0
  outer loop
    vertex 170 200 50
    vertex 210 200 50
    vertex 188.282 200 76.4375
  endloop
endfacet
facet normal 0 -1 0
  outer loop
    vertex 217.108 200 217.108
    vertex 250 200 250
    vertex 210 200 250
  endloop
endfacet
facet normal 0 -1 0
  outer loop
    vertex 217.108 200 217.108
    vertex 210 200 250
    vertex 187.146 200 223.468
  endloop
endfacet
facet normal 0 -1 -0
  outer loop
    vertex 83.4167 200 83.4167
    vertex 50 200 50
    vertex 90 200 50
  endloop
endfacet
facet normal 0 -1 0
  outer loop
    vertex 83.4167 200 83.4167
    vertex 90 200 50
    vertex 113.063 200 77.2115
  endloop
endfacet
facet normal 0 -1 0
  outer loop
    vertex 90 200 50
    vertex 130 200 50
    vertex 113.063 200 77.2115
  endloop
endfacet
facet normal -0 -1 0
  outer loop
    vertex 130 200 250
    vertex 90 200 250
    vertex 112.822 200 223.296
  endloop
endfacet
facet normal -0 -1 0
  outer loop
    vertex 210 200 250
    vertex 170 200 250
    vertex 187.146 200 223.468
  endloop
endfacet
facet normal -0 1 0
  outer loop
    vertex 223.806 0 187.55
    vertex 250 0 210
    vertex 250 0 170
  endloop
endfacet
facet normal -0 1 0
  outer loop
    vertex 217.317 0 217.317
    vertex 250 0 250
    vertex 250 0 210
  endloop
endfacet
facet normal 0 1 0
  outer loop
    vertex 217.317 0 217.317
    vertex 250 0 210
    vertex 223.806 0 187.55
  endloop
endfacet
facet normal -0 1 0
  outer loop
    vertex 209.213 0 147.935
    vertex 250 0 170
    vertex 250 0 130
  endloop
endfacet
facet normal -0 1 0
  outer loop
    vertex 223.5 0 112.413
    vertex 250 0 130
    vertex 250 0 90
  endloop
endfacet
facet normal 0 1 0
  outer loop
    vertex 209.213 0 147.935
    vertex 250 0 130
    vertex 223.5 0 112.413
  endloop
endfacet
facet normal 0 1 0
  outer loop
    vertex 223.806 0 187.55
    vertex 250 0 170
    vertex 209.213 0 147.935
  endloop
endfacet
facet normal 0 1 0
  outer loop
    vertex 76.2359 0 112.492
    vertex 50 0 90
    vertex 50 0 130
  endloop
endfacet
facet normal 0 1 0
  outer loop
    vertex 82.8924 0 82.8924
    vertex 50 0 50
    vertex 50 0 90
  endloop
endfacet
facet normal 0 1 0
  outer loop
    vertex 82.8924 0 82.8924
    vertex 50 0 90
    vertex 76.2359 0 112.492
  endloop
endfacet
facet normal 0 1 0
  outer loop
    vertex 90.7871 0 152.065
    vertex 50 0 130
    vertex 50 0 170
  endloop
endfacet
facet normal 0 1 -0
  outer loop
    vertex 76.2359 0 112.492
    vertex 50 0 130
    vertex 90.7871 0 152.065
  endloop
endfacet
facet normal 0 1 0
  outer loop
    vertex 76.5001 0 187.587
    vertex 50 0 170
    vertex 50 0 210
  endloop
endfacet
facet normal 0 1 0
  outer loop
    vertex 90.7871 0 152.065
    vertex 50 0 170
    vertex 76.5001 0 187.587
  endloop
endfacet
facet normal 0 1 0
  outer loop
    vertex 50 0 210
    vertex 50 0 250
    vertex 83.4167 0 216.583
  endloop
endfacet
facet normal 0 1 -0
  outer loop
    vertex 76.5001 0 187.587
    vertex 50 0 210
    vertex 83.4167 0 216.583
  endloop
endfacet
facet normal 0 1 0
  outer loop
    vertex 250 0 90
    vertex 250 0 50
    vertex 216.583 0 83.4167
  endloop
endfacet
facet normal 0 1 0
  outer loop
    vertex 223.5 0 112.413
    vertex 250 0 90
    vertex 216.583 0 83.4167
  endloop
endfacet
facet normal -0 1 0
  outer loop
    vertex 170 0 250
    vertex 210 0 250
    vertex 188.376 0 223.806
  endloop
endfacet
facet normal -0 1 0
  outer loop
    vertex 210 0 250
    vertex 250 0 250
    vertex 217.317 0 217.317
  endloop
endfacet
facet normal -0 1 0
  outer loop
    vertex 188.376 0 223.806
    vertex 210 0 250
    vertex 217.317 0 217.317
  endloop
endfacet
facet normal 0 1 0
  outer loop
    vertex 170 0 50
    vertex 130 0 50
    vertex 147.935 0 90.7871
  endloop
endfacet
facet normal 0 1 0
  outer loop
    vertex 130 0 50
    vertex 90 0 50
    vertex 111.665 0 76.2359
  endloop
endfacet
facet normal 0 1 0
  outer loop
    vertex 147.935 0 90.7871
    vertex 130 0 50
    vertex 111.665 0 76.2359
  endloop
endfacet
facet normal 0 1 0
  outer loop
    vertex 210 0 50
    vertex 170 0 50
    vertex 187.404 0 76.3408
  endloop
endfacet
facet normal 0 1 0
  outer loop
    vertex 187.404 0 76.3408
    vertex 170 0 50
    vertex 147.935 0 90.7871
  endloop
endfacet
facet normal 0 1 0
  outer loop
    vertex 90 0 50
    vertex 50 0 50
    vertex 82.8924 0 82.8924
  endloop
endfacet
facet normal 0 1 0
  outer loop
    vertex 111.665 0 76.2359
    vertex 90 0 50
    vertex 82.8924 0 82.8924
  endloop
endfacet
facet normal 0 1 0
  outer loop
    vertex 216.583 0 83.4167
    vertex 250 0 50
    vertex 210 0 50
  endloop
endfacet
facet normal 0 1 0
  outer loop
    vertex 216.583 0 83.4167
    vertex 210 0 50
    vertex 187.404 0 76.3408
  endloop
endfacet
facet normal -0 1 0
  outer loop
    vertex 130 0 250
    vertex 170 0 250
    vertex 152.065 0 209.213
  endloop
endfacet
facet normal 0 1 0
  outer loop
    vertex 152.065 0 209.213
    vertex 170 0 250
    vertex 188.376 0 223.806
  endloop
endfacet
facet normal -0 1 0
  outer loop
    vertex 90 0 250
    vertex 130 0 250
    vertex 112.596 0 223.659
  endloop
endfacet
facet normal -0 1 0
  outer loop
    vertex 112.596 0 223.659
    vertex 130 0 250
    vertex 152.065 0 209.213
  endloop
endfacet
facet normal 0 1 -0
  outer loop
    vertex 83.4167 0 216.583
    vertex 50 0 250
    vertex 90 0 250
  endloop
endfacet
facet normal 0 1 0
  outer loop
    vertex 83.4167 0 216.583
    vertex 90 0 250
    vertex 112.596 0 223.659
  endloop
endfacet
facet normal -0 1 0
  outer loop
    vertex 176.331 0 163.931
    vertex 192.5 0 192.5
    vertex 209.213 0 147.935
  endloop
endfacet
facet normal 0 1 -0
  outer loop
    vertex 209.213 0 147.935
    vertex 192.5 0 192.5
    vertex 223.806 0 187.55
  endloop
endfacet
facet normal 0 1 0
  outer loop
    vertex 152.065 0 209.213
    vertex 192.5 0 192.5
    vertex 176.331 0 163.931
  endloop
endfacet
facet normal 0 1 0
  outer loop
    vertex 188.376 0 223.806
    vertex 192.5 0 192.5
    vertex 152.065 0 209.213
  endloop
endfacet
facet normal 0 1 0
  outer loop
    vertex 223.806 0 187.55
    vertex 192.5 0 192.5
    vertex 217.317 0 217.317
  endloop
endfacet
facet normal 0 1 0
  outer loop
    vertex 217.317 0 217.317
    vertex 192.5 0 192.5
    vertex 188.376 0 223.806
  endloop
endfacet
facet normal -0 1 0
  outer loop
    vertex 76.5001 0 187.587
    vertex 107.5 0 192.5
    vertex 90.7871 0 152.065
  endloop
endfacet
facet normal 0 1 0
  outer loop
    vertex 90.7871 0 152.065
    vertex 107.5 0 192.5
    vertex 135.165 0 173.279
  endloop
endfacet
facet normal 0 1 0
  outer loop
    vertex 152.065 0 209.213
    vertex 107.5 0 192.5
    vertex 112.596 0 223.659
  endloop
endfacet
facet normal 0 1 -0
  outer loop
    vertex 135.165 0 173.279
    vertex 107.5 0 192.5
    vertex 152.065 0 209.213
  endloop
endfacet
facet normal 0 1 0
  outer loop
    vertex 83.4167 0 216.583
    vertex 107.5 0 192.5
    vertex 76.5001 0 187.587
  endloop
endfacet
facet normal 0 1 0
  outer loop
    vertex 112.596 0 223.659
    vertex 107.5 0 192.5
    vertex 83.4167 0 216.583
  endloop
endfacet
facet normal 0 1 0
  outer loop
    vertex 123.669 0 136.069
    vertex 107.5 0 107.5
    vertex 90.7871 0 152.065
  endloop
endfacet
facet normal 0 1 0
  outer loop
    vertex 90.7871 0 152.065
    vertex 107.5 0 107.5
    vertex 76.2359 0 112.492
  endloop
endfacet
facet normal 0 1 -0
  outer loop
    vertex 123.669 0 136.069
    vertex 90.7871 0 152.065
    vertex 135.165 0 173.279
  endloop
endfacet
facet normal 0 1 0
  outer loop
    vertex 164.835 0 126.721
    vertex 192.5 0 107.5
    vertex 147.935 0 90.7871
  endloop
endfacet
facet normal -0 1 0
  outer loop
    vertex 147.935 0 90.7871
    vertex 192.5 0 107.5
    vertex 187.404 0 76.3408
  endloop
endfacet
facet normal 0 1 0
  outer loop
    vertex 147.935 0 90.7871
    vertex 107.5 0 107.5
    vertex 123.669 0 136.069
  endloop
endfacet
facet normal 0 1 -0
  outer loop
    vertex 111.665 0 76.2359
    vertex 107.5 0 107.5
    vertex 147.935 0 90.7871
  endloop
endfacet
facet normal 0 1 0
  outer loop
    vertex 164.835 0 126.721
    vertex 147.935 0 90.7871
    vertex 123.669 0 136.069
  endloop
endfacet
facet normal 0 1 0
  outer loop
    vertex 209.213 0 147.935
    vertex 192.5 0 107.5
    vertex 164.835 0 126.721
  endloop
endfacet
facet normal 0 1 0
  outer loop
    vertex 223.5 0 112.413
    vertex 192.5 0 107.5
    vertex 209.213 0 147.935
  endloop
endfacet
facet normal 0 1 0
  outer loop
    vertex 176.331 0 163.931
    vertex 209.213 0 147.935
    vertex 164.835 0 126.721
  endloop
endfacet
facet normal -0 1 0
  outer loop
    vertex 135.165 0 173.279
    vertex 152.065 0 209.213
    vertex 176.331 0 163.931
  endloop
endfacet
facet normal 0 1 0
  outer loop
    vertex 187.404 0 76.3408
    vertex 192.5 0 107.5
    vertex 216.583 0 83.4167
  endloop
endfacet
facet normal 0 1 -0
  outer loop
    vertex 216.583 0 83.4167
    vertex 192.5 0 107.5
    vertex 223.5 0 112.413
  endloop
endfacet
facet normal 0 1 0
  outer loop
    vertex 76.2359 0 112.492
    vertex 107.5 0 107.5
    vertex 82.8924 0 82.8924
  endloop
endfacet
facet normal -0 1 0
  outer loop
    vertex 82.8924 0 82.8924
    vertex 107.5 0 107.5
    vertex 111.665 0 76.2359
  endloop
endfacet
facet normal -0 1 0
  outer loop
    vertex 123.669 0 136.069
    vertex 150 0 150
    vertex 164.835 0 126.721
  endloop
endfacet
facet normal 0 1 0
  outer loop
    vertex 135.165 0 173.279
    vertex 150 0 150
    vertex 123.669 0 136.069
  endloop
endfacet
facet normal 0 1 -0
  outer loop
    vertex 164.835 0 126.721
    vertex 150 0 150
    vertex 176.331 0 163.931
  endloop
endfacet
facet normal 0 1 0
  outer loop
    vertex 176.331 0 163.931
    vertex 150 0 150
    vertex 135.165 0 173.279
  endloop
endfacet
facet normal 0 0 -1
  outer loop
    vertex 107.5 142.5 250
    vertex 83.4167 166.583 250
    vertex 112.413 173.5 250
  endloop
endfacet
facet normal -0 0 -1
  outer loop
    vertex 107.5 142.5 250
    vertex 76.3408 137.404 250
    vertex 83.4167 166.583 250
  endloop
endfacet
facet normal 0 0 -1
  outer loop
    vertex 107.5 142.5 250
    vertex 147.935 159.213 250
    vertex 123.71 113.793 250
  endloop
endfacet
facet normal 0 -0 -1
  outer loop
    vertex 107.5 142.5 250
    vertex 123.71 113.793 250
    vertex 90.7871 97.9348 250
  endloop
endfacet
facet normal 0 0 -1
  outer loop
    vertex 107.5 142.5 250
    vertex 112.413 173.5 250
    vertex 147.935 159.213 250
  endloop
endfacet
facet normal 0 0 -1
  outer loop
    vertex 107.5 142.5 250
    vertex 90.7871 97.9348 250
    vertex 76.3408 137.404 250
  endloop
endfacet
facet normal 0 0 -1
  outer loop
    vertex 107.5 57.5 250
    vertex 134.915 76.6094 250
    vertex 152.065 40.7871 250
  endloop
endfacet
facet normal 0 0 -1
  outer loop
    vertex 107.5 57.5 250
    vertex 90.7871 97.9348 250
    vertex 134.915 76.6094 250
  endloop
endfacet
facet normal -0 0 -1
  outer loop
    vertex 107.5 57.5 250
    vertex 83.4167 33.4167 250
    vertex 76.5001 62.4126 250
  endloop
endfacet
facet normal 0 0 -1
  outer loop
    vertex 107.5 57.5 250
    vertex 76.5001 62.4126 250
    vertex 90.7871 97.9348 250
  endloop
endfacet
facet normal 0 -0 -1
  outer loop
    vertex 107.5 57.5 250
    vertex 112.596 26.3408 250
    vertex 83.4167 33.4167 250
  endloop
endfacet
facet normal 0 0 -1
  outer loop
    vertex 107.5 57.5 250
    vertex 152.065 40.7871 250
    vertex 112.596 26.3408 250
  endloop
endfacet
facet normal 0 0 -1
  outer loop
    vertex 150 100 250
    vertex 123.71 113.793 250
    vertex 163.931 126.331 250
  endloop
endfacet
facet normal 0 0 -1
  outer loop
    vertex 150 100 250
    vertex 163.931 126.331 250
    vertex 173.359 84.8942 250
  endloop
endfacet
facet normal -0 0 -1
  outer loop
    vertex 150 100 250
    vertex 134.915 76.6094 250
    vertex 123.71 113.793 250
  endloop
endfacet
facet normal 0 -0 -1
  outer loop
    vertex 150 100 250
    vertex 173.359 84.8942 250
    vertex 134.915 76.6094 250
  endloop
endfacet
facet normal 0 0 -1
  outer loop
    vertex 192.5 57.5 250
    vertex 223.659 62.5964 250
    vertex 216.583 33.4167 250
  endloop
endfacet
facet normal 0 0 -1
  outer loop
    vertex 192.5 57.5 250
    vertex 209.213 102.065 250
    vertex 223.659 62.5964 250
  endloop
endfacet
facet normal -0 0 -1
  outer loop
    vertex 192.5 57.5 250
    vertex 152.065 40.7871 250
    vertex 173.359 84.8942 250
  endloop
endfacet
facet normal 0 0 -1
  outer loop
    vertex 192.5 57.5 250
    vertex 173.359 84.8942 250
    vertex 209.213 102.065 250
  endloop
endfacet
facet normal 0 -0 -1
  outer loop
    vertex 192.5 57.5 250
    vertex 216.583 33.4167 250
    vertex 187.587 26.5001 250
  endloop
endfacet
facet normal 0 0 -1
  outer loop
    vertex 192.5 57.5 250
    vertex 187.587 26.5001 250
    vertex 152.065 40.7871 250
  endloop
endfacet
facet normal -0 0 -1
  outer loop
    vertex 192.5 142.5 250
    vertex 163.931 126.331 250
    vertex 147.935 159.213 250
  endloop
endfacet
facet normal 0 -0 -1
  outer loop
    vertex 192.5 142.5 250
    vertex 209.213 102.065 250
    vertex 163.931 126.331 250
  endloop
endfacet
facet normal 0 0 -1
  outer loop
    vertex 192.5 142.5 250
    vertex 216.583 166.583 250
    vertex 223.5 137.587 250
  endloop
endfacet
facet normal 0 0 -1
  outer loop
    vertex 192.5 142.5 250
    vertex 223.5 137.587 250
    vertex 209.213 102.065 250
  endloop
endfacet
facet normal 0 0 -1
  outer loop
    vertex 192.5 142.5 250
    vertex 187.404 173.659 250
    vertex 216.583 166.583 250
  endloop
endfacet
facet normal 0 0 -1
  outer loop
    vertex 192.5 142.5 250
    vertex 147.935 159.213 250
    vertex 187.404 173.659 250
  endloop
endfacet
facet normal -1.07251e-15 0 -1
  outer loop
    vertex 50 40 250
    vertex 50 80 250
    vertex 76.5001 62.4126 250
  endloop
endfacet
facet normal -8.50525e-16 0 -1
  outer loop
    vertex 50 0 250
    vertex 50 40 250
    vertex 83.4167 33.4167 250
  endloop
endfacet
facet normal -8.92465e-16 -2.12885e-16 -1
  outer loop
    vertex 50 40 250
    vertex 76.5001 62.4126 250
    vertex 83.4167 33.4167 250
  endloop
endfacet
facet normal -6.96831e-16 0 -1
  outer loop
    vertex 50 80 250
    vertex 50 120 250
    vertex 90.7871 97.9348 250
  endloop
endfacet
facet normal -1.079e-15 0 -1
  outer loop
    vertex 50 120 250
    vertex 50 160 250
    vertex 76.3408 137.404 250
  endloop
endfacet
facet normal -8.68878e-16 -3.18026e-16 -1
  outer loop
    vertex 50 120 250
    vertex 76.3408 137.404 250
    vertex 90.7871 97.9348 250
  endloop
endfacet
facet normal -8.46546e-16 3.4048e-16 -1
  outer loop
    vertex 50 80 250
    vertex 90.7871 97.9348 250
    vertex 76.5001 62.4126 250
  endloop
endfacet
facet normal -8.50525e-16 -0 -1
  outer loop
    vertex 50 200 250
    vertex 83.4167 166.583 250
    vertex 50 160 250
  endloop
endfacet
facet normal -8.93196e-16 2.16595e-16 -1
  outer loop
    vertex 50 160 250
    vertex 83.4167 166.583 250
    vertex 76.3408 137.404 250
  endloop
endfacet
facet normal -0 -1.07251e-15 -1
  outer loop
    vertex 210 0 250
    vertex 170 0 250
    vertex 187.587 26.5001 250
  endloop
endfacet
facet normal -0 -8.50525e-16 -1
  outer loop
    vertex 250 0 250
    vertex 210 0 250
    vertex 216.583 33.4167 250
  endloop
endfacet
facet normal 2.12885e-16 -8.92465e-16 -1
  outer loop
    vertex 210 0 250
    vertex 187.587 26.5001 250
    vertex 216.583 33.4167 250
  endloop
endfacet
facet normal 0 6.96831e-16 -1
  outer loop
    vertex 130 200 250
    vertex 170 200 250
    vertex 147.935 159.213 250
  endloop
endfacet
facet normal 0 1.07251e-15 -1
  outer loop
    vertex 90 200 250
    vertex 130 200 250
    vertex 112.413 173.5 250
  endloop
endfacet
facet normal 3.4048e-16 8.46546e-16 -1
  outer loop
    vertex 130 200 250
    vertex 147.935 159.213 250
    vertex 112.413 173.5 250
  endloop
endfacet
facet normal 0 1.079e-15 -1
  outer loop
    vertex 170 200 250
    vertex 210 200 250
    vertex 187.404 173.659 250
  endloop
endfacet
facet normal -3.18026e-16 8.68878e-16 -1
  outer loop
    vertex 170 200 250
    vertex 187.404 173.659 250
    vertex 147.935 159.213 250
  endloop
endfacet
facet normal -0 -6.96831e-16 -1
  outer loop
    vertex 170 0 250
    vertex 130 0 250
    vertex 152.065 40.7871 250
  endloop
endfacet
facet normal -3.4048e-16 -8.46546e-16 -1
  outer loop
    vertex 170 0 250
    vertex 152.065 40.7871 250
    vertex 187.587 26.5001 250
  endloop
endfacet
facet normal 0 8.50525e-16 -1
  outer loop
    vertex 250 200 250
    vertex 216.583 166.583 250
    vertex 210 200 250
  endloop
endfacet
facet normal 2.16595e-16 8.93196e-16 -1
  outer loop
    vertex 210 200 250
    vertex 216.583 166.583 250
    vertex 187.404 173.659 250
  endloop
endfacet
facet normal -0 -1.079e-15 -1
  outer loop
    vertex 130 0 250
    vertex 90 0 250
    vertex 112.596 26.3408 250
  endloop
endfacet
facet normal 3.18026e-16 -8.68878e-16 -1
  outer loop
    vertex 130 0 250
    vertex 112.596 26.3408 250
    vertex 152.065 40.7871 250
  endloop
endfacet
facet normal 0 -8.50525e-16 -1
  outer loop
    vertex 50 0 250
    vertex 83.4167 33.4167 250
    vertex 90 0 250
  endloop
endfacet
facet normal -2.16595e-16 -8.93196e-16 -1
  outer loop
    vertex 90 0 250
    vertex 83.4167 33.4167 250
    vertex 112.596 26.3408 250
  endloop
endfacet
facet normal 0 8.50525e-16 -1
  outer loop
    vertex 50 200 250
    vertex 90 200 250
    vertex 83.4167 166.583 250
  endloop
endfacet
facet normal -2.12885e-16 8.92465e-16 -1
  outer loop
    vertex 90 200 250
    vertex 112.413 173.5 250
    vertex 83.4167 166.583 250
  endloop
endfacet
facet normal 6.96831e-16 0 -1
  outer loop
    vertex 250 120 250
    vertex 250 80 250
    vertex 209.213 102.065 250
  endloop
endfacet
facet normal 1.07251e-15 0 -1
  outer loop
    vertex 250 160 250
    vertex 250 120 250
    vertex 223.5 137.587 250
  endloop
endfacet
facet normal 8.46546e-16 -3.4048e-16 -1
  outer loop
    vertex 250 120 250
    vertex 209.213 102.065 250
    vertex 223.5 137.587 250
  endloop
endfacet
facet normal 1.079e-15 0 -1
  outer loop
    vertex 250 80 250
    vertex 250 40 250
    vertex 223.659 62.5964 250
  endloop
endfacet
facet normal 8.68878e-16 3.18026e-16 -1
  outer loop
    vertex 250 80 250
    vertex 223.659 62.5964 250
    vertex 209.213 102.065 250
  endloop
endfacet
facet normal 8.50525e-16 0 -1
  outer loop
    vertex 250 0 250
    vertex 216.583 33.4167 250
    vertex 250 40 250
  endloop
endfacet
facet normal 8.93196e-16 -2.16595e-16 -1
  outer loop
    vertex 250 40 250
    vertex 216.583 33.4167 250
    vertex 223.659 62.5964 250
  endloop
endfacet
facet normal 8.50525e-16 0 -1
  outer loop
    vertex 250 200 250
    vertex 250 160 250
    vertex 216.583 166.583 250
  endloop
endfacet
facet normal 8.92465e-16 2.12885e-16 -1
  outer loop
    vertex 250 160 250
    vertex 223.5 137.587 250
    vertex 216.583 166.583 250
  endloop
endfacet
facet normal 0 -0 -1
  outer loop
    vertex 147.935 159.213 250
    vertex 163.931 126.331 250
    vertex 123.71 113.793 250
  endloop
endfacet
facet normal -0 0 -1
  outer loop
    vertex 209.213 102.065 250
    vertex 173.359 84.8942 250
    vertex 163.931 126.331 250
  endloop
endfacet
facet normal 0 0 -1
  outer loop
    vertex 90.7871 97.9348 250
    vertex 123.71 113.793 250
    vertex 134.915 76.6094 250
  endloop
endfacet
facet normal 0 0 -1
  outer loop
    vertex 152.065 40.7871 250
    vertex 134.915 76.6094 250
    vertex 173.359 84.8942 250
  endloop
endfacet
facet normal 0 0 1
  outer loop
    vertex 76.4375 61.7185 50
    vertex 50 80 50
    vertex 50 40 50
  endloop
endfacet
facet normal 0 0 1
  outer loop
    vertex 50 40 50
    vertex 50 0 50
    vertex 83.4167 33.4167 50
  endloop
endfacet
facet normal 0 0 1
  outer loop
    vertex 76.4375 61.7185 50
    vertex 50 40 50
    vertex 83.4167 33.4167 50
  endloop
endfacet
facet normal -0 0 1
  outer loop
    vertex 223.296 137.178 50
    vertex 250 120 50
    vertex 250 160 50
  endloop
endfacet
facet normal -0 0 1
  outer loop
    vertex 209.488 98.2861 50
    vertex 250 80 50
    vertex 250 120 50
  endloop
endfacet
facet normal 0 0 1
  outer loop
    vertex 209.488 98.2861 50
    vertex 250 120 50
    vertex 223.296 137.178 50
  endloop
endfacet
facet normal 0 0 1
  outer loop
    vertex 91.2709 97.6757 50
    vertex 50 120 50
    vertex 50 80 50
  endloop
endfacet
facet normal 0 0 1
  outer loop
    vertex 77.2115 136.937 50
    vertex 50 160 50
    vertex 50 120 50
  endloop
endfacet
facet normal 0 0 1
  outer loop
    vertex 77.2115 136.937 50
    vertex 50 120 50
    vertex 91.2709 97.6757 50
  endloop
endfacet
facet normal 0 0 1
  outer loop
    vertex 91.2709 97.6757 50
    vertex 50 80 50
    vertex 76.4375 61.7185 50
  endloop
endfacet
facet normal -0 0 1
  outer loop
    vertex 223.325 63.2246 50
    vertex 250 40 50
    vertex 250 80 50
  endloop
endfacet
facet normal -0 0 1
  outer loop
    vertex 216.583 33.4167 50
    vertex 250 0 50
    vertex 250 40 50
  endloop
endfacet
facet normal 0 0 1
  outer loop
    vertex 216.583 33.4167 50
    vertex 250 40 50
    vertex 223.325 63.2246 50
  endloop
endfacet
facet normal 0 -0 1
  outer loop
    vertex 250 160 50
    vertex 250 200 50
    vertex 216.583 166.583 50
  endloop
endfacet
facet normal 0 -0 1
  outer loop
    vertex 223.296 137.178 50
    vertex 250 160 50
    vertex 216.583 166.583 50
  endloop
endfacet
facet normal 0 0 1
  outer loop
    vertex 83.4167 166.583 50
    vertex 50 200 50
    vertex 50 160 50
  endloop
endfacet
facet normal 0 0 1
  outer loop
    vertex 83.4167 166.583 50
    vertex 50 160 50
    vertex 77.2115 136.937 50
  endloop
endfacet
facet normal 0 -0 1
  outer loop
    vertex 223.325 63.2246 50
    vertex 250 80 50
    vertex 209.488 98.2861 50
  endloop
endfacet
facet normal 0 0 1
  outer loop
    vertex 150 40.9783 50
    vertex 130 0 50
    vertex 170 0 50
  endloop
endfacet
facet normal 0 0 1
  outer loop
    vertex 114.018 26.8984 50
    vertex 90 0 50
    vertex 130 0 50
  endloop
endfacet
facet normal -0 0 1
  outer loop
    vertex 114.018 26.8984 50
    vertex 130 0 50
    vertex 150 40.9783 50
  endloop
endfacet
facet normal 0 0 1
  outer loop
    vertex 185.982 26.8984 50
    vertex 170 0 50
    vertex 210 0 50
  endloop
endfacet
facet normal 0 0 1
  outer loop
    vertex 150 40.9783 50
    vertex 170 0 50
    vertex 185.982 26.8984 50
  endloop
endfacet
facet normal 0 0 1
  outer loop
    vertex 83.4167 33.4167 50
    vertex 50 0 50
    vertex 90 0 50
  endloop
endfacet
facet normal 0 0 1
  outer loop
    vertex 83.4167 33.4167 50
    vertex 90 0 50
    vertex 114.018 26.8984 50
  endloop
endfacet
facet normal 0 -0 1
  outer loop
    vertex 187.529 174.223 50
    vertex 210 200 50
    vertex 170 200 50
  endloop
endfacet
facet normal 0 -0 1
  outer loop
    vertex 216.583 166.583 50
    vertex 250 200 50
    vertex 210 200 50
  endloop
endfacet
facet normal 0 0 1
  outer loop
    vertex 216.583 166.583 50
    vertex 210 200 50
    vertex 187.529 174.223 50
  endloop
endfacet
facet normal 0 0 1
  outer loop
    vertex 210 0 50
    vertex 250 0 50
    vertex 216.583 33.4167 50
  endloop
endfacet
facet normal -0 0 1
  outer loop
    vertex 185.982 26.8984 50
    vertex 210 0 50
    vertex 216.583 33.4167 50
  endloop
endfacet
facet normal 0 -0 1
  outer loop
    vertex 113.679 173.467 50
    vertex 130 200 50
    vertex 90 200 50
  endloop
endfacet
facet normal 0 0 1
  outer loop
    vertex 90 200 50
    vertex 50 200 50
    vertex 83.4167 166.583 50
  endloop
endfacet
facet normal 0 0 1
  outer loop
    vertex 113.679 173.467 50
    vertex 90 200 50
    vertex 83.4167 166.583 50
  endloop
endfacet
facet normal 0 -0 1
  outer loop
    vertex 150.654 163.512 50
    vertex 170 200 50
    vertex 130 200 50
  endloop
endfacet
facet normal 0 0 1
  outer loop
    vertex 187.529 174.223 50
    vertex 170 200 50
    vertex 150.654 163.512 50
  endloop
endfacet
facet normal 0 0 1
  outer loop
    vertex 150.654 163.512 50
    vertex 130 200 50
    vertex 113.679 173.467 50
  endloop
endfacet
facet normal 0 -0 1
  outer loop
    vertex 185.982 26.8984 50
    vertex 192.5 57.5 50
    vertex 150 40.9783 50
  endloop
endfacet
facet normal 0 0 1
  outer loop
    vertex 216.583 33.4167 50
    vertex 192.5 57.5 50
    vertex 185.982 26.8984 50
  endloop
endfacet
facet normal 0 0 1
  outer loop
    vertex 113.679 173.467 50
    vertex 111.37 140.427 50
    vertex 150.654 163.512 50
  endloop
endfacet
facet normal 0 0 1
  outer loop
    vertex 150.654 163.512 50
    vertex 111.37 140.427 50
    vertex 151.946 128.115 50
  endloop
endfacet
facet normal 0 0 1
  outer loop
    vertex 124.94 110.266 50
    vertex 111.37 140.427 50
    vertex 91.2709 97.6757 50
  endloop
endfacet
facet normal 0 -0 1
  outer loop
    vertex 91.2709 97.6757 50
    vertex 111.37 140.427 50
    vertex 77.2115 136.937 50
  endloop
endfacet
facet normal 0 0 1
  outer loop
    vertex 151.946 128.115 50
    vertex 111.37 140.427 50
    vertex 124.94 110.266 50
  endloop
endfacet
facet normal -0 0 1
  outer loop
    vertex 83.4167 166.583 50
    vertex 111.37 140.427 50
    vertex 113.679 173.467 50
  endloop
endfacet
facet normal 0 0 1
  outer loop
    vertex 77.2115 136.937 50
    vertex 111.37 140.427 50
    vertex 83.4167 166.583 50
  endloop
endfacet
facet normal 0 0 1
  outer loop
    vertex 132.129 80.2252 50
    vertex 107.5 57.5 50
    vertex 150 40.9783 50
  endloop
endfacet
facet normal 0 0 1
  outer loop
    vertex 150 40.9783 50
    vertex 107.5 57.5 50
    vertex 114.018 26.8984 50
  endloop
endfacet
facet normal 0 0 1
  outer loop
    vertex 91.2709 97.6757 50
    vertex 107.5 57.5 50
    vertex 132.129 80.2252 50
  endloop
endfacet
facet normal -0 0 1
  outer loop
    vertex 76.4375 61.7185 50
    vertex 107.5 57.5 50
    vertex 91.2709 97.6757 50
  endloop
endfacet
facet normal 0 -0 1
  outer loop
    vertex 83.4167 33.4167 50
    vertex 107.5 57.5 50
    vertex 76.4375 61.7185 50
  endloop
endfacet
facet normal 0 0 1
  outer loop
    vertex 114.018 26.8984 50
    vertex 107.5 57.5 50
    vertex 83.4167 33.4167 50
  endloop
endfacet
facet normal 0 0 1
  outer loop
    vertex 150 40.9783 50
    vertex 192.5 57.5 50
    vertex 168.269 79.3541 50
  endloop
endfacet
facet normal 0 0 1
  outer loop
    vertex 132.129 80.2252 50
    vertex 150 40.9783 50
    vertex 168.269 79.3541 50
  endloop
endfacet
facet normal 0 -0 1
  outer loop
    vertex 151.946 128.115 50
    vertex 190.41 141.02 50
    vertex 150.654 163.512 50
  endloop
endfacet
facet normal -0 0 1
  outer loop
    vertex 150.654 163.512 50
    vertex 190.41 141.02 50
    vertex 187.529 174.223 50
  endloop
endfacet
facet normal 0 0 1
  outer loop
    vertex 209.488 98.2861 50
    vertex 190.41 141.02 50
    vertex 176.087 109.961 50
  endloop
endfacet
facet normal 0 0 1
  outer loop
    vertex 223.296 137.178 50
    vertex 190.41 141.02 50
    vertex 209.488 98.2861 50
  endloop
endfacet
facet normal -0 0 1
  outer loop
    vertex 168.269 79.3541 50
    vertex 192.5 57.5 50
    vertex 209.488 98.2861 50
  endloop
endfacet
facet normal 0 0 1
  outer loop
    vertex 209.488 98.2861 50
    vertex 192.5 57.5 50
    vertex 223.325 63.2246 50
  endloop
endfacet
facet normal 0 0 1
  outer loop
    vertex 168.269 79.3541 50
    vertex 209.488 98.2861 50
    vertex 176.087 109.961 50
  endloop
endfacet
facet normal 0 0 1
  outer loop
    vertex 216.583 166.583 50
    vertex 190.41 141.02 50
    vertex 223.296 137.178 50
  endloop
endfacet
facet normal 0 0 1
  outer loop
    vertex 187.529 174.223 50
    vertex 190.41 141.02 50
    vertex 216.583 166.583 50
  endloop
endfacet
facet normal 0 -0 1
  outer loop
    vertex 176.087 109.961 50
    vertex 190.41 141.02 50
    vertex 151.946 128.115 50
  endloop
endfacet
facet normal 0 0 1
  outer loop
    vertex 124.94 110.266 50
    vertex 91.2709 97.6757 50
    vertex 132.129 80.2252 50
  endloop
endfacet
facet normal 0 0 1
  outer loop
    vertex 223.325 63.2246 50
    vertex 192.5 57.5 50
    vertex 216.583 33.4167 50
  endloop
endfacet
facet normal 0 -0 1
  outer loop
    vertex 132.129 80.2252 50
    vertex 151.783 100.152 50
    vertex 124.94 110.266 50
  endloop
endfacet
facet normal -0 0 1
  outer loop
    vertex 124.94 110.266 50
    vertex 151.783 100.152 50
    vertex 151.946 128.115 50
  endloop
endfacet
facet normal 0 0 1
  outer loop
    vertex 176.087 109.961 50
    vertex 151.783 100.152 50
    vertex 168.269 79.3541 50
  endloop
endfacet
facet normal 0 0 1
  outer loop
    vertex 151.946 128.115 50
    vertex 151.783 100.152 50
    vertex 176.087 109.961 50
  endloop
endfacet
facet normal 0 0 1
  outer loop
    vertex 168.269 79.3541 50
    vertex 151.783 100.152 50
    vertex 132.129 80.2252 50
  endloop
endfacet
endsolid Created by Gmsh
