solid Created by Gmsh
facet normal 1 0 0
  outer loop
    vertex -518.624 -83.5698 145.724
    vertex -518.624 -116.308 145.724
    vertex -518.624 -104.403 124.891
  endloop
endfacet
facet normal 1 0 0
  outer loop
    vertex -518.624 -83.5698 145.724
    vertex -518.624 -104.403 124.891
    vertex -518.624 -83.5698 112.986
  endloop
endfacet
facet normal 1 -0 0
  outer loop
    vertex -518.624 -133.57 129.057
    vertex -518.624 -104.403 124.891
    vertex -518.624 -116.308 145.724
  endloop
endfacet
facet normal 1 0 -0
  outer loop
    vertex -518.624 -100.236 95.724
    vertex -518.624 -83.5698 112.986
    vertex -518.624 -104.403 124.891
  endloop
endfacet
facet normal 1 0 0
  outer loop
    vertex -518.624 -133.57 95.724
    vertex -518.624 -104.403 124.891
    vertex -518.624 -133.57 129.057
  endloop
endfacet
facet normal 1 0 0
  outer loop
    vertex -518.624 -133.57 95.724
    vertex -518.624 -100.236 95.724
    vertex -518.624 -104.403 124.891
  endloop
endfacet
facet normal 1 -0 0
  outer loop
    vertex -518.624 -83.5698 145.724
    vertex -518.624 -50.8317 145.724
    vertex -518.624 -62.7365 166.557
  endloop
endfacet
facet normal 1 0 0
  outer loop
    vertex -518.624 -83.5698 145.724
    vertex -518.624 -62.7365 124.891
    vertex -518.624 -50.8317 145.724
  endloop
endfacet
facet normal 1 0 0
  outer loop
    vertex -518.624 -33.5698 162.391
    vertex -518.624 -62.7365 166.557
    vertex -518.624 -50.8317 145.724
  endloop
endfacet
facet normal 1 0 0
  outer loop
    vertex -518.624 -33.5698 129.057
    vertex -518.624 -50.8317 145.724
    vertex -518.624 -62.7365 124.891
  endloop
endfacet
facet normal 1 0 -0
  outer loop
    vertex -518.624 -33.5698 129.057
    vertex -518.624 -33.5698 162.391
    vertex -518.624 -50.8317 145.724
  endloop
endfacet
facet normal 1 0 0
  outer loop
    vertex -518.624 -83.5698 145.724
    vertex -518.624 -104.403 166.557
    vertex -518.624 -116.308 145.724
  endloop
endfacet
facet normal 1 0 -0
  outer loop
    vertex -518.624 -83.5698 145.724
    vertex -518.624 -83.5698 178.462
    vertex -518.624 -104.403 166.557
  endloop
endfacet
facet normal 1 -0 0
  outer loop
    vertex -518.624 -133.57 162.391
    vertex -518.624 -116.308 145.724
    vertex -518.624 -104.403 166.557
  endloop
endfacet
facet normal 1 0 0
  outer loop
    vertex -518.624 -100.236 195.724
    vertex -518.624 -104.403 166.557
    vertex -518.624 -83.5698 178.462
  endloop
endfacet
facet normal 1 -0 0
  outer loop
    vertex -518.624 -133.57 195.724
    vertex -518.624 -104.403 166.557
    vertex -518.624 -100.236 195.724
  endloop
endfacet
facet normal 1 0 0
  outer loop
    vertex -518.624 -133.57 195.724
    vertex -518.624 -133.57 162.391
    vertex -518.624 -104.403 166.557
  endloop
endfacet
facet normal 1 0 0
  outer loop
    vertex -518.624 -83.5698 145.724
    vertex -518.624 -62.7365 166.557
    vertex -518.624 -83.5698 178.462
  endloop
endfacet
facet normal 1 0 0
  outer loop
    vertex -518.624 -83.5698 145.724
    vertex -518.624 -83.5698 112.986
    vertex -518.624 -62.7365 124.891
  endloop
endfacet
facet normal 1 0 0
  outer loop
    vertex -518.624 -66.9031 195.724
    vertex -518.624 -83.5698 178.462
    vertex -518.624 -62.7365 166.557
  endloop
endfacet
facet normal 1 0 0
  outer loop
    vertex -518.624 -33.5698 195.724
    vertex -518.624 -62.7365 166.557
    vertex -518.624 -33.5698 162.391
  endloop
endfacet
facet normal 1 0 0
  outer loop
    vertex -518.624 -33.5698 195.724
    vertex -518.624 -66.9031 195.724
    vertex -518.624 -62.7365 166.557
  endloop
endfacet
facet normal 1 0 0
  outer loop
    vertex -518.624 -133.57 162.391
    vertex -518.624 -133.57 129.057
    vertex -518.624 -116.308 145.724
  endloop
endfacet
facet normal 1 0 -0
  outer loop
    vertex -518.624 -66.9031 95.724
    vertex -518.624 -62.7365 124.891
    vertex -518.624 -83.5698 112.986
  endloop
endfacet
facet normal 1 0 0
  outer loop
    vertex -518.624 -100.236 95.724
    vertex -518.624 -66.9031 95.724
    vertex -518.624 -83.5698 112.986
  endloop
endfacet
facet normal 1 0 0
  outer loop
    vertex -518.624 -33.5698 95.724
    vertex -518.624 -62.7365 124.891
    vertex -518.624 -66.9031 95.724
  endloop
endfacet
facet normal 1 0 -0
  outer loop
    vertex -518.624 -33.5698 95.724
    vertex -518.624 -33.5698 129.057
    vertex -518.624 -62.7365 124.891
  endloop
endfacet
facet normal 1 0 0
  outer loop
    vertex -518.624 -66.9031 195.724
    vertex -518.624 -100.236 195.724
    vertex -518.624 -83.5698 178.462
  endloop
endfacet
facet normal -1 0 0
  outer loop
    vertex -618.624 -83.5698 145.724
    vertex -618.624 -62.7365 166.557
    vertex -618.624 -50.8317 145.724
  endloop
endfacet
facet normal -1 -0 0
  outer loop
    vertex -618.624 -33.5698 162.391
    vertex -618.624 -50.8317 145.724
    vertex -618.624 -62.7365 166.557
  endloop
endfacet
facet normal -1 0 0
  outer loop
    vertex -618.624 -83.5698 145.724
    vertex -618.624 -83.5698 178.462
    vertex -618.624 -62.7365 166.557
  endloop
endfacet
facet normal -1 0 -0
  outer loop
    vertex -618.624 -66.9031 195.724
    vertex -618.624 -62.7365 166.557
    vertex -618.624 -83.5698 178.462
  endloop
endfacet
facet normal -1 -0 0
  outer loop
    vertex -618.624 -33.5698 195.724
    vertex -618.624 -62.7365 166.557
    vertex -618.624 -66.9031 195.724
  endloop
endfacet
facet normal -1 0 -0
  outer loop
    vertex -618.624 -33.5698 195.724
    vertex -618.624 -33.5698 162.391
    vertex -618.624 -62.7365 166.557
  endloop
endfacet
facet normal -1 -0 0
  outer loop
    vertex -618.624 -83.5698 145.724
    vertex -618.624 -116.308 145.724
    vertex -618.624 -104.403 166.557
  endloop
endfacet
facet normal -1 0 0
  outer loop
    vertex -618.624 -83.5698 145.724
    vertex -618.624 -104.403 124.891
    vertex -618.624 -116.308 145.724
  endloop
endfacet
facet normal -1 0 0
  outer loop
    vertex -618.624 -133.57 162.391
    vertex -618.624 -104.403 166.557
    vertex -618.624 -116.308 145.724
  endloop
endfacet
facet normal -1 0 0
  outer loop
    vertex -618.624 -133.57 129.057
    vertex -618.624 -116.308 145.724
    vertex -618.624 -104.403 124.891
  endloop
endfacet
facet normal -1 0 0
  outer loop
    vertex -618.624 -133.57 129.057
    vertex -618.624 -133.57 162.391
    vertex -618.624 -116.308 145.724
  endloop
endfacet
facet normal -1 0 0
  outer loop
    vertex -618.624 -83.5698 145.724
    vertex -618.624 -50.8317 145.724
    vertex -618.624 -62.7365 124.891
  endloop
endfacet
facet normal -1 -0 0
  outer loop
    vertex -618.624 -33.5698 129.057
    vertex -618.624 -62.7365 124.891
    vertex -618.624 -50.8317 145.724
  endloop
endfacet
facet normal -1 0 0
  outer loop
    vertex -618.624 -83.5698 145.724
    vertex -618.624 -62.7365 124.891
    vertex -618.624 -83.5698 112.986
  endloop
endfacet
facet normal -1 0 0
  outer loop
    vertex -618.624 -66.9031 95.724
    vertex -618.624 -83.5698 112.986
    vertex -618.624 -62.7365 124.891
  endloop
endfacet
facet normal -1 0 0
  outer loop
    vertex -618.624 -33.5698 95.724
    vertex -618.624 -62.7365 124.891
    vertex -618.624 -33.5698 129.057
  endloop
endfacet
facet normal -1 0 0
  outer loop
    vertex -618.624 -33.5698 95.724
    vertex -618.624 -66.9031 95.724
    vertex -618.624 -62.7365 124.891
  endloop
endfacet
facet normal -1 0 -0
  outer loop
    vertex -618.624 -33.5698 162.391
    vertex -618.624 -33.5698 129.057
    vertex -618.624 -50.8317 145.724
  endloop
endfacet
facet normal -1 0 0
  outer loop
    vertex -618.624 -83.5698 145.724
    vertex -618.624 -104.403 166.557
    vertex -618.624 -83.5698 178.462
  endloop
endfacet
facet normal -1 0 -0
  outer loop
    vertex -618.624 -100.236 195.724
    vertex -618.624 -83.5698 178.462
    vertex -618.624 -104.403 166.557
  endloop
endfacet
facet normal -1 0 0
  outer loop
    vertex -618.624 -100.236 195.724
    vertex -618.624 -66.9031 195.724
    vertex -618.624 -83.5698 178.462
  endloop
endfacet
facet normal -1 0 -0
  outer loop
    vertex -618.624 -83.5698 145.724
    vertex -618.624 -83.5698 112.986
    vertex -618.624 -104.403 124.891
  endloop
endfacet
facet normal -1 0 0
  outer loop
    vertex -618.624 -133.57 195.724
    vertex -618.624 -100.236 195.724
    vertex -618.624 -104.403 166.557
  endloop
endfacet
facet normal -1 0 0
  outer loop
    vertex -618.624 -133.57 195.724
    vertex -618.624 -104.403 166.557
    vertex -618.624 -133.57 162.391
  endloop
endfacet
facet normal -1 0 0
  outer loop
    vertex -618.624 -100.236 95.724
    vertex -618.624 -104.403 124.891
    vertex -618.624 -83.5698 112.986
  endloop
endfacet
facet normal -1 0 0
  outer loop
    vertex -618.624 -133.57 95.724
    vertex -618.624 -133.57 129.057
    vertex -618.624 -104.403 124.891
  endloop
endfacet
facet normal -1 0 0
  outer loop
    vertex -618.624 -133.57 95.724
    vertex -618.624 -104.403 124.891
    vertex -618.624 -100.236 95.724
  endloop
endfacet
facet normal -1 0 0
  outer loop
    vertex -618.624 -66.9031 95.724
    vertex -618.624 -100.236 95.724
    vertex -618.624 -83.5698 112.986
  endloop
endfacet
facet normal 0 -1 -0
  outer loop
    vertex -568.624 -33.5698 176.857
    vertex -568.624 -33.5698 145.724
    vertex -547.791 -33.5698 166.557
  endloop
endfacet
facet normal 0 -1 0
  outer loop
    vertex -547.791 -33.5698 166.557
    vertex -551.958 -33.5698 195.724
    vertex -568.624 -33.5698 176.857
  endloop
endfacet
facet normal 0 -1 -0
  outer loop
    vertex -547.791 -33.5698 166.557
    vertex -568.624 -33.5698 145.724
    vertex -535.886 -33.5698 145.724
  endloop
endfacet
facet normal 0 -1 0
  outer loop
    vertex -535.886 -33.5698 145.724
    vertex -518.624 -33.5698 162.391
    vertex -547.791 -33.5698 166.557
  endloop
endfacet
facet normal 0 -1 0
  outer loop
    vertex -547.791 -33.5698 166.557
    vertex -518.624 -33.5698 195.724
    vertex -551.958 -33.5698 195.724
  endloop
endfacet
facet normal 0 -1 0
  outer loop
    vertex -518.624 -33.5698 162.391
    vertex -518.624 -33.5698 195.724
    vertex -547.791 -33.5698 166.557
  endloop
endfacet
facet normal -0 -1 0
  outer loop
    vertex -547.791 -33.5698 124.891
    vertex -568.624 -33.5698 145.724
    vertex -568.624 -33.5698 112.986
  endloop
endfacet
facet normal 0 -1 0
  outer loop
    vertex -568.624 -33.5698 112.986
    vertex -551.958 -33.5698 95.724
    vertex -547.791 -33.5698 124.891
  endloop
endfacet
facet normal -0 -1 0
  outer loop
    vertex -535.886 -33.5698 145.724
    vertex -568.624 -33.5698 145.724
    vertex -547.791 -33.5698 124.891
  endloop
endfacet
facet normal 0 -1 0
  outer loop
    vertex -547.791 -33.5698 124.891
    vertex -518.624 -33.5698 129.057
    vertex -535.886 -33.5698 145.724
  endloop
endfacet
facet normal 0 -1 0
  outer loop
    vertex -551.958 -33.5698 95.724
    vertex -518.624 -33.5698 95.724
    vertex -547.791 -33.5698 124.891
  endloop
endfacet
facet normal 0 -1 0
  outer loop
    vertex -547.791 -33.5698 124.891
    vertex -518.624 -33.5698 95.724
    vertex -518.624 -33.5698 129.057
  endloop
endfacet
facet normal 0 -1 0
  outer loop
    vertex -568.624 -33.5698 112.986
    vertex -568.624 -33.5698 145.724
    vertex -593.525 -33.5698 120.823
  endloop
endfacet
facet normal 0 -1 0
  outer loop
    vertex -593.525 -33.5698 120.823
    vertex -585.291 -33.5698 95.724
    vertex -568.624 -33.5698 112.986
  endloop
endfacet
facet normal 0 -1 0
  outer loop
    vertex -593.525 -33.5698 120.823
    vertex -568.624 -33.5698 145.724
    vertex -601.362 -33.5698 145.724
  endloop
endfacet
facet normal 0 -1 -0
  outer loop
    vertex -601.362 -33.5698 145.724
    vertex -618.624 -33.5698 129.057
    vertex -593.525 -33.5698 120.823
  endloop
endfacet
facet normal 0 -1 0
  outer loop
    vertex -618.624 -33.5698 129.057
    vertex -618.624 -33.5698 95.724
    vertex -593.525 -33.5698 120.823
  endloop
endfacet
facet normal 0 -1 -0
  outer loop
    vertex -593.525 -33.5698 120.823
    vertex -618.624 -33.5698 95.724
    vertex -585.291 -33.5698 95.724
  endloop
endfacet
facet normal 0 -1 0
  outer loop
    vertex -585.291 -33.5698 95.724
    vertex -551.958 -33.5698 95.724
    vertex -568.624 -33.5698 112.986
  endloop
endfacet
facet normal 0 -1 0
  outer loop
    vertex -589.458 -33.5698 166.557
    vertex -568.624 -33.5698 145.724
    vertex -568.624 -33.5698 176.857
  endloop
endfacet
facet normal -0 -1 0
  outer loop
    vertex -568.624 -33.5698 176.857
    vertex -585.291 -33.5698 195.724
    vertex -589.458 -33.5698 166.557
  endloop
endfacet
facet normal -0 -1 0
  outer loop
    vertex -551.958 -33.5698 195.724
    vertex -585.291 -33.5698 195.724
    vertex -568.624 -33.5698 176.857
  endloop
endfacet
facet normal 0 -1 0
  outer loop
    vertex -601.362 -33.5698 145.724
    vertex -568.624 -33.5698 145.724
    vertex -589.458 -33.5698 166.557
  endloop
endfacet
facet normal 0 -1 0
  outer loop
    vertex -589.458 -33.5698 166.557
    vertex -618.624 -33.5698 162.391
    vertex -601.362 -33.5698 145.724
  endloop
endfacet
facet normal -0 -1 0
  outer loop
    vertex -601.362 -33.5698 145.724
    vertex -618.624 -33.5698 162.391
    vertex -618.624 -33.5698 129.057
  endloop
endfacet
facet normal 0 -1 0
  outer loop
    vertex -535.886 -33.5698 145.724
    vertex -518.624 -33.5698 129.057
    vertex -518.624 -33.5698 162.391
  endloop
endfacet
facet normal -0 -1 0
  outer loop
    vertex -585.291 -33.5698 195.724
    vertex -618.624 -33.5698 195.724
    vertex -589.458 -33.5698 166.557
  endloop
endfacet
facet normal -0 -1 0
  outer loop
    vertex -589.458 -33.5698 166.557
    vertex -618.624 -33.5698 195.724
    vertex -618.624 -33.5698 162.391
  endloop
endfacet
facet normal 0 1 0
  outer loop
    vertex -589.458 -133.57 166.557
    vertex -585.291 -133.57 195.724
    vertex -568.624 -133.57 176.857
  endloop
endfacet
facet normal 0 1 0
  outer loop
    vertex -568.624 -133.57 176.857
    vertex -568.624 -133.57 145.724
    vertex -589.458 -133.57 166.557
  endloop
endfacet
facet normal 0 1 -0
  outer loop
    vertex -601.362 -133.57 145.724
    vertex -618.624 -133.57 162.391
    vertex -589.458 -133.57 166.557
  endloop
endfacet
facet normal 0 1 0
  outer loop
    vertex -589.458 -133.57 166.557
    vertex -568.624 -133.57 145.724
    vertex -601.362 -133.57 145.724
  endloop
endfacet
facet normal 0 1 0
  outer loop
    vertex -618.624 -133.57 162.391
    vertex -618.624 -133.57 195.724
    vertex -589.458 -133.57 166.557
  endloop
endfacet
facet normal 0 1 -0
  outer loop
    vertex -589.458 -133.57 166.557
    vertex -618.624 -133.57 195.724
    vertex -585.291 -133.57 195.724
  endloop
endfacet
facet normal -0 1 0
  outer loop
    vertex -568.624 -133.57 176.857
    vertex -551.958 -133.57 195.724
    vertex -547.791 -133.57 166.557
  endloop
endfacet
facet normal 0 1 0
  outer loop
    vertex -547.791 -133.57 166.557
    vertex -568.624 -133.57 145.724
    vertex -568.624 -133.57 176.857
  endloop
endfacet
facet normal 0 1 0
  outer loop
    vertex -535.886 -133.57 145.724
    vertex -568.624 -133.57 145.724
    vertex -547.791 -133.57 166.557
  endloop
endfacet
facet normal 0 1 0
  outer loop
    vertex -547.791 -133.57 166.557
    vertex -518.624 -133.57 162.391
    vertex -535.886 -133.57 145.724
  endloop
endfacet
facet normal -0 1 0
  outer loop
    vertex -551.958 -133.57 195.724
    vertex -518.624 -133.57 195.724
    vertex -547.791 -133.57 166.557
  endloop
endfacet
facet normal -0 1 0
  outer loop
    vertex -547.791 -133.57 166.557
    vertex -518.624 -133.57 195.724
    vertex -518.624 -133.57 162.391
  endloop
endfacet
facet normal 0 1 0
  outer loop
    vertex -568.624 -133.57 112.986
    vertex -585.291 -133.57 95.724
    vertex -589.458 -133.57 124.891
  endloop
endfacet
facet normal -0 1 0
  outer loop
    vertex -589.458 -133.57 124.891
    vertex -568.624 -133.57 145.724
    vertex -568.624 -133.57 112.986
  endloop
endfacet
facet normal 0 1 0
  outer loop
    vertex -543.724 -133.57 120.823
    vertex -551.958 -133.57 95.724
    vertex -568.624 -133.57 112.986
  endloop
endfacet
facet normal 0 1 -0
  outer loop
    vertex -568.624 -133.57 112.986
    vertex -568.624 -133.57 145.724
    vertex -543.724 -133.57 120.823
  endloop
endfacet
facet normal 0 1 0
  outer loop
    vertex -551.958 -133.57 95.724
    vertex -585.291 -133.57 95.724
    vertex -568.624 -133.57 112.986
  endloop
endfacet
facet normal -0 1 0
  outer loop
    vertex -585.291 -133.57 195.724
    vertex -551.958 -133.57 195.724
    vertex -568.624 -133.57 176.857
  endloop
endfacet
facet normal 0 1 0
  outer loop
    vertex -589.458 -133.57 124.891
    vertex -618.624 -133.57 129.057
    vertex -601.362 -133.57 145.724
  endloop
endfacet
facet normal -0 1 0
  outer loop
    vertex -601.362 -133.57 145.724
    vertex -568.624 -133.57 145.724
    vertex -589.458 -133.57 124.891
  endloop
endfacet
facet normal 0 1 0
  outer loop
    vertex -585.291 -133.57 95.724
    vertex -618.624 -133.57 95.724
    vertex -589.458 -133.57 124.891
  endloop
endfacet
facet normal 0 1 0
  outer loop
    vertex -589.458 -133.57 124.891
    vertex -618.624 -133.57 95.724
    vertex -618.624 -133.57 129.057
  endloop
endfacet
facet normal 0 1 -0
  outer loop
    vertex -543.724 -133.57 120.823
    vertex -568.624 -133.57 145.724
    vertex -535.886 -133.57 145.724
  endloop
endfacet
facet normal 0 1 0
  outer loop
    vertex -535.886 -133.57 145.724
    vertex -518.624 -133.57 129.057
    vertex -543.724 -133.57 120.823
  endloop
endfacet
facet normal 0 1 0
  outer loop
    vertex -543.724 -133.57 120.823
    vertex -518.624 -133.57 95.724
    vertex -551.958 -133.57 95.724
  endloop
endfacet
facet normal 0 1 0
  outer loop
    vertex -518.624 -133.57 129.057
    vertex -518.624 -133.57 95.724
    vertex -543.724 -133.57 120.823
  endloop
endfacet
facet normal -0 1 0
  outer loop
    vertex -535.886 -133.57 145.724
    vertex -518.624 -133.57 162.391
    vertex -518.624 -133.57 129.057
  endloop
endfacet
facet normal 0 1 0
  outer loop
    vertex -601.362 -133.57 145.724
    vertex -618.624 -133.57 129.057
    vertex -618.624 -133.57 162.391
  endloop
endfacet
facet normal 0 0 -1
  outer loop
    vertex -568.624 -83.5698 195.724
    vertex -547.791 -62.7365 195.724
    vertex -535.886 -83.5698 195.724
  endloop
endfacet
facet normal 0 0 -1
  outer loop
    vertex -568.624 -83.5698 195.724
    vertex -568.624 -53.079 195.724
    vertex -547.791 -62.7365 195.724
  endloop
endfacet
facet normal -0 0 -1
  outer loop
    vertex -518.624 -33.5698 195.724
    vertex -547.791 -62.7365 195.724
    vertex -551.958 -33.5698 195.724
  endloop
endfacet
facet normal 0 -0 -1
  outer loop
    vertex -551.958 -33.5698 195.724
    vertex -547.791 -62.7365 195.724
    vertex -568.624 -53.079 195.724
  endloop
endfacet
facet normal 0 -0 -1
  outer loop
    vertex -518.624 -33.5698 195.724
    vertex -518.624 -66.9031 195.724
    vertex -547.791 -62.7365 195.724
  endloop
endfacet
facet normal -0 0 -1
  outer loop
    vertex -518.624 -66.9031 195.724
    vertex -535.886 -83.5698 195.724
    vertex -547.791 -62.7365 195.724
  endloop
endfacet
facet normal 0 0 -1
  outer loop
    vertex -568.624 -83.5698 195.724
    vertex -535.886 -83.5698 195.724
    vertex -543.724 -108.471 195.724
  endloop
endfacet
facet normal 0 0 -1
  outer loop
    vertex -568.624 -83.5698 195.724
    vertex -543.724 -108.471 195.724
    vertex -568.624 -116.308 195.724
  endloop
endfacet
facet normal 0 0 -1
  outer loop
    vertex -518.624 -133.57 195.724
    vertex -551.958 -133.57 195.724
    vertex -543.724 -108.471 195.724
  endloop
endfacet
facet normal 0 0 -1
  outer loop
    vertex -551.958 -133.57 195.724
    vertex -568.624 -116.308 195.724
    vertex -543.724 -108.471 195.724
  endloop
endfacet
facet normal 0 0 -1
  outer loop
    vertex -518.624 -133.57 195.724
    vertex -543.724 -108.471 195.724
    vertex -518.624 -100.236 195.724
  endloop
endfacet
facet normal -0 0 -1
  outer loop
    vertex -518.624 -100.236 195.724
    vertex -543.724 -108.471 195.724
    vertex -535.886 -83.5698 195.724
  endloop
endfacet
facet normal 0 0 -1
  outer loop
    vertex -568.624 -83.5698 195.724
    vertex -589.458 -62.7365 195.724
    vertex -568.624 -53.079 195.724
  endloop
endfacet
facet normal -0 0 -1
  outer loop
    vertex -568.624 -83.5698 195.724
    vertex -601.362 -83.5698 195.724
    vertex -589.458 -62.7365 195.724
  endloop
endfacet
facet normal 0 -0 -1
  outer loop
    vertex -568.624 -83.5698 195.724
    vertex -568.624 -116.308 195.724
    vertex -589.458 -104.403 195.724
  endloop
endfacet
facet normal 0 0 -1
  outer loop
    vertex -568.624 -83.5698 195.724
    vertex -589.458 -104.403 195.724
    vertex -601.362 -83.5698 195.724
  endloop
endfacet
facet normal 0 0 -1
  outer loop
    vertex -618.624 -33.5698 195.724
    vertex -585.291 -33.5698 195.724
    vertex -589.458 -62.7365 195.724
  endloop
endfacet
facet normal 0 -0 -1
  outer loop
    vertex -585.291 -33.5698 195.724
    vertex -568.624 -53.079 195.724
    vertex -589.458 -62.7365 195.724
  endloop
endfacet
facet normal 0 0 -1
  outer loop
    vertex -618.624 -33.5698 195.724
    vertex -589.458 -62.7365 195.724
    vertex -618.624 -66.9031 195.724
  endloop
endfacet
facet normal 0 0 -1
  outer loop
    vertex -618.624 -66.9031 195.724
    vertex -589.458 -62.7365 195.724
    vertex -601.362 -83.5698 195.724
  endloop
endfacet
facet normal 0 0 -1
  outer loop
    vertex -585.291 -33.5698 195.724
    vertex -551.958 -33.5698 195.724
    vertex -568.624 -53.079 195.724
  endloop
endfacet
facet normal 0 0 -1
  outer loop
    vertex -618.624 -100.236 195.724
    vertex -618.624 -66.9031 195.724
    vertex -601.362 -83.5698 195.724
  endloop
endfacet
facet normal 0 0 -1
  outer loop
    vertex -618.624 -133.57 195.724
    vertex -618.624 -100.236 195.724
    vertex -589.458 -104.403 195.724
  endloop
endfacet
facet normal 0 0 -1
  outer loop
    vertex -618.624 -100.236 195.724
    vertex -601.362 -83.5698 195.724
    vertex -589.458 -104.403 195.724
  endloop
endfacet
facet normal 0 0 -1
  outer loop
    vertex -551.958 -133.57 195.724
    vertex -585.291 -133.57 195.724
    vertex -568.624 -116.308 195.724
  endloop
endfacet
facet normal 0 0 -1
  outer loop
    vertex -618.624 -133.57 195.724
    vertex -589.458 -104.403 195.724
    vertex -585.291 -133.57 195.724
  endloop
endfacet
facet normal 0 0 -1
  outer loop
    vertex -585.291 -133.57 195.724
    vertex -589.458 -104.403 195.724
    vertex -568.624 -116.308 195.724
  endloop
endfacet
facet normal 0 -0 -1
  outer loop
    vertex -518.624 -66.9031 195.724
    vertex -518.624 -100.236 195.724
    vertex -535.886 -83.5698 195.724
  endloop
endfacet
facet normal 0 0 1
  outer loop
    vertex -585.291 -133.57 95.724
    vertex -551.958 -133.57 95.724
    vertex -568.624 -114.703 95.724
  endloop
endfacet
facet normal 0 0 1
  outer loop
    vertex -618.624 -133.57 95.724
    vertex -585.291 -133.57 95.724
    vertex -589.458 -104.403 95.724
  endloop
endfacet
facet normal 0 -0 1
  outer loop
    vertex -585.291 -133.57 95.724
    vertex -568.624 -114.703 95.724
    vertex -589.458 -104.403 95.724
  endloop
endfacet
facet normal 0 0 1
  outer loop
    vertex -618.624 -66.9031 95.724
    vertex -618.624 -100.236 95.724
    vertex -601.362 -83.5698 95.724
  endloop
endfacet
facet normal 0 0 1
  outer loop
    vertex -618.624 -133.57 95.724
    vertex -589.458 -104.403 95.724
    vertex -618.624 -100.236 95.724
  endloop
endfacet
facet normal -0 0 1
  outer loop
    vertex -618.624 -100.236 95.724
    vertex -589.458 -104.403 95.724
    vertex -601.362 -83.5698 95.724
  endloop
endfacet
facet normal 0 0 1
  outer loop
    vertex -551.958 -33.5698 95.724
    vertex -585.291 -33.5698 95.724
    vertex -568.624 -50.8317 95.724
  endloop
endfacet
facet normal 0 0 1
  outer loop
    vertex -518.624 -33.5698 95.724
    vertex -551.958 -33.5698 95.724
    vertex -543.724 -58.669 95.724
  endloop
endfacet
facet normal 0 0 1
  outer loop
    vertex -551.958 -33.5698 95.724
    vertex -568.624 -50.8317 95.724
    vertex -543.724 -58.669 95.724
  endloop
endfacet
facet normal -0 0 1
  outer loop
    vertex -618.624 -33.5698 95.724
    vertex -589.458 -62.7365 95.724
    vertex -585.291 -33.5698 95.724
  endloop
endfacet
facet normal 0 0 1
  outer loop
    vertex -585.291 -33.5698 95.724
    vertex -589.458 -62.7365 95.724
    vertex -568.624 -50.8317 95.724
  endloop
endfacet
facet normal 0 0 1
  outer loop
    vertex -518.624 -133.57 95.724
    vertex -547.791 -104.403 95.724
    vertex -551.958 -133.57 95.724
  endloop
endfacet
facet normal 0 -0 1
  outer loop
    vertex -551.958 -133.57 95.724
    vertex -547.791 -104.403 95.724
    vertex -568.624 -114.703 95.724
  endloop
endfacet
facet normal 0 -0 1
  outer loop
    vertex -518.624 -100.236 95.724
    vertex -518.624 -66.9031 95.724
    vertex -535.886 -83.5698 95.724
  endloop
endfacet
facet normal 0 -0 1
  outer loop
    vertex -518.624 -133.57 95.724
    vertex -518.624 -100.236 95.724
    vertex -547.791 -104.403 95.724
  endloop
endfacet
facet normal 0 0 1
  outer loop
    vertex -518.624 -100.236 95.724
    vertex -535.886 -83.5698 95.724
    vertex -547.791 -104.403 95.724
  endloop
endfacet
facet normal 0 0 1
  outer loop
    vertex -518.624 -33.5698 95.724
    vertex -543.724 -58.669 95.724
    vertex -518.624 -66.9031 95.724
  endloop
endfacet
facet normal 0 0 1
  outer loop
    vertex -518.624 -66.9031 95.724
    vertex -543.724 -58.669 95.724
    vertex -535.886 -83.5698 95.724
  endloop
endfacet
facet normal 0 0 1
  outer loop
    vertex -618.624 -33.5698 95.724
    vertex -618.624 -66.9031 95.724
    vertex -589.458 -62.7365 95.724
  endloop
endfacet
facet normal -0 0 1
  outer loop
    vertex -618.624 -66.9031 95.724
    vertex -601.362 -83.5698 95.724
    vertex -589.458 -62.7365 95.724
  endloop
endfacet
facet normal 0 0 1
  outer loop
    vertex -568.624 -83.5698 95.724
    vertex -589.458 -62.7365 95.724
    vertex -601.362 -83.5698 95.724
  endloop
endfacet
facet normal 0 0 1
  outer loop
    vertex -568.624 -83.5698 95.724
    vertex -601.362 -83.5698 95.724
    vertex -589.458 -104.403 95.724
  endloop
endfacet
facet normal 0 0 1
  outer loop
    vertex -568.624 -83.5698 95.724
    vertex -547.791 -104.403 95.724
    vertex -535.886 -83.5698 95.724
  endloop
endfacet
facet normal 0 0 1
  outer loop
    vertex -568.624 -83.5698 95.724
    vertex -568.624 -114.703 95.724
    vertex -547.791 -104.403 95.724
  endloop
endfacet
facet normal -0 0 1
  outer loop
    vertex -568.624 -83.5698 95.724
    vertex -535.886 -83.5698 95.724
    vertex -543.724 -58.669 95.724
  endloop
endfacet
facet normal 0 -0 1
  outer loop
    vertex -568.624 -83.5698 95.724
    vertex -568.624 -50.8317 95.724
    vertex -589.458 -62.7365 95.724
  endloop
endfacet
facet normal 0 0 1
  outer loop
    vertex -568.624 -83.5698 95.724
    vertex -543.724 -58.669 95.724
    vertex -568.624 -50.8317 95.724
  endloop
endfacet
facet normal 0 0 1
  outer loop
    vertex -568.624 -83.5698 95.724
    vertex -589.458 -104.403 95.724
    vertex -568.624 -114.703 95.724
  endloop
endfacet
endsolid Created by Gmsh
