solid exported
	facet normal 0.09801700770209056 0 0.9951847397348538
		outer loop
			vertex 0 50 30
			vertex 0 -50 30
			vertex 5.852709770202637 50 29.423559188842773
		endloop
	endfacet
	facet normal 0.09801700770209056 0 0.9951847397348538
		outer loop
			vertex 0 -50 30
			vertex 5.852709770202637 -50 29.423559188842773
			vertex 5.852709770202637 50 29.423559188842773
		endloop
	endfacet
	facet normal 0.2902846704894831 0 0.956940337784343
		outer loop
			vertex 5.852709770202637 50 29.423559188842773
			vertex 5.852709770202637 -50 29.423559188842773
			vertex 11.48050308227539 50 27.716386795043945
		endloop
	endfacet
	facet normal 0.2902846704894831 0 0.956940337784343
		outer loop
			vertex 5.852709770202637 -50 29.423559188842773
			vertex 11.48050308227539 -50 27.716386795043945
			vertex 11.48050308227539 50 27.716386795043945
		endloop
	endfacet
	facet normal 0.4713969298748771 0 0.8819211611615523
		outer loop
			vertex 11.48050308227539 50 27.716386795043945
			vertex 11.48050308227539 -50 27.716386795043945
			vertex 16.66710662841797 50 24.944087982177734
		endloop
	endfacet
	facet normal 0.4713969298748771 0 0.8819211611615523
		outer loop
			vertex 11.48050308227539 -50 27.716386795043945
			vertex 16.66710662841797 -50 24.944087982177734
			vertex 16.66710662841797 50 24.944087982177734
		endloop
	endfacet
	facet normal 0.6343932156556211 0 0.7730105095858146
		outer loop
			vertex 16.66710662841797 50 24.944087982177734
			vertex 16.66710662841797 -50 24.944087982177734
			vertex 21.21320343017578 50 21.21320343017578
		endloop
	endfacet
	facet normal 0.6343932156556211 0 0.7730105095858146
		outer loop
			vertex 16.66710662841797 -50 24.944087982177734
			vertex 21.21320343017578 -50 21.21320343017578
			vertex 21.21320343017578 50 21.21320343017578
		endloop
	endfacet
	facet normal 0.7730105095858146 0 0.6343932156556211
		outer loop
			vertex 21.21320343017578 50 21.21320343017578
			vertex 21.21320343017578 -50 21.21320343017578
			vertex 24.944087982177734 50 16.66710662841797
		endloop
	endfacet
	facet normal 0.7730105095858146 0 0.6343932156556211
		outer loop
			vertex 21.21320343017578 -50 21.21320343017578
			vertex 24.944087982177734 -50 16.66710662841797
			vertex 24.944087982177734 50 16.66710662841797
		endloop
	endfacet
	facet normal 0.8819211611615523 0 0.4713969298748771
		outer loop
			vertex 24.944087982177734 50 16.66710662841797
			vertex 24.944087982177734 -50 16.66710662841797
			vertex 27.716386795043945 50 11.48050308227539
		endloop
	endfacet
	facet normal 0.8819211611615523 0 0.4713969298748771
		outer loop
			vertex 24.944087982177734 -50 16.66710662841797
			vertex 27.716386795043945 -50 11.48050308227539
			vertex 27.716386795043945 50 11.48050308227539
		endloop
	endfacet
	facet normal 0.956940337784343 0 0.2902846704894831
		outer loop
			vertex 27.716386795043945 50 11.48050308227539
			vertex 27.716386795043945 -50 11.48050308227539
			vertex 29.423559188842773 50 5.852709770202637
		endloop
	endfacet
	facet normal 0.956940337784343 0 0.2902846704894831
		outer loop
			vertex 27.716386795043945 -50 11.48050308227539
			vertex 29.423559188842773 -50 5.852709770202637
			vertex 29.423559188842773 50 5.852709770202637
		endloop
	endfacet
	facet normal 0.9951847397348537 0 0.0980170077020906
		outer loop
			vertex 29.423559188842773 50 5.852709770202637
			vertex 29.423559188842773 -50 5.852709770202637
			vertex 30 50 1.8369700935892946e-15
		endloop
	endfacet
	facet normal 0.9951847397348537 0 0.0980170077020906
		outer loop
			vertex 29.423559188842773 -50 5.852709770202637
			vertex 30 -50 1.8369700935892946e-15
			vertex 30 50 1.8369700935892946e-15
		endloop
	endfacet
	facet normal 0.9951847397348538 0 -0.09801700770209051
		outer loop
			vertex 30 50 1.8369700935892946e-15
			vertex 30 -50 1.8369700935892946e-15
			vertex 29.423559188842773 50 -5.852709770202637
		endloop
	endfacet
	facet normal 0.9951847397348538 0 -0.09801700770209051
		outer loop
			vertex 30 -50 1.8369700935892946e-15
			vertex 29.423559188842773 -50 -5.852709770202637
			vertex 29.423559188842773 50 -5.852709770202637
		endloop
	endfacet
	facet normal 0.956940337784343 0 -0.2902846704894831
		outer loop
			vertex 29.423559188842773 50 -5.852709770202637
			vertex 29.423559188842773 -50 -5.852709770202637
			vertex 27.716386795043945 50 -11.48050308227539
		endloop
	endfacet
	facet normal 0.956940337784343 0 -0.2902846704894831
		outer loop
			vertex 29.423559188842773 -50 -5.852709770202637
			vertex 27.716386795043945 -50 -11.48050308227539
			vertex 27.716386795043945 50 -11.48050308227539
		endloop
	endfacet
	facet normal 0.8819211611615523 0 -0.4713969298748771
		outer loop
			vertex 27.716386795043945 50 -11.48050308227539
			vertex 27.716386795043945 -50 -11.48050308227539
			vertex 24.944087982177734 50 -16.66710662841797
		endloop
	endfacet
	facet normal 0.8819211611615523 0 -0.4713969298748771
		outer loop
			vertex 27.716386795043945 -50 -11.48050308227539
			vertex 24.944087982177734 -50 -16.66710662841797
			vertex 24.944087982177734 50 -16.66710662841797
		endloop
	endfacet
	facet normal 0.7730105095858146 0 -0.6343932156556211
		outer loop
			vertex 24.944087982177734 50 -16.66710662841797
			vertex 24.944087982177734 -50 -16.66710662841797
			vertex 21.21320343017578 50 -21.21320343017578
		endloop
	endfacet
	facet normal 0.7730105095858146 0 -0.6343932156556211
		outer loop
			vertex 24.944087982177734 -50 -16.66710662841797
			vertex 21.21320343017578 -50 -21.21320343017578
			vertex 21.21320343017578 50 -21.21320343017578
		endloop
	endfacet
	facet normal 0.6343932156556211 0 -0.7730105095858146
		outer loop
			vertex 21.21320343017578 50 -21.21320343017578
			vertex 21.21320343017578 -50 -21.21320343017578
			vertex 16.66710662841797 50 -24.944087982177734
		endloop
	endfacet
	facet normal 0.6343932156556211 0 -0.7730105095858146
		outer loop
			vertex 21.21320343017578 -50 -21.21320343017578
			vertex 16.66710662841797 -50 -24.944087982177734
			vertex 16.66710662841797 50 -24.944087982177734
		endloop
	endfacet
	facet normal 0.4713969298748771 0 -0.8819211611615523
		outer loop
			vertex 16.66710662841797 50 -24.944087982177734
			vertex 16.66710662841797 -50 -24.944087982177734
			vertex 11.48050308227539 50 -27.716386795043945
		endloop
	endfacet
	facet normal 0.4713969298748771 0 -0.8819211611615523
		outer loop
			vertex 16.66710662841797 -50 -24.944087982177734
			vertex 11.48050308227539 -50 -27.716386795043945
			vertex 11.48050308227539 50 -27.716386795043945
		endloop
	endfacet
	facet normal 0.2902846704894831 0 -0.956940337784343
		outer loop
			vertex 11.48050308227539 50 -27.716386795043945
			vertex 11.48050308227539 -50 -27.716386795043945
			vertex 5.852709770202637 50 -29.423559188842773
		endloop
	endfacet
	facet normal 0.2902846704894831 0 -0.956940337784343
		outer loop
			vertex 11.48050308227539 -50 -27.716386795043945
			vertex 5.852709770202637 -50 -29.423559188842773
			vertex 5.852709770202637 50 -29.423559188842773
		endloop
	endfacet
	facet normal 0.0980170077020906 0 -0.9951847397348537
		outer loop
			vertex 5.852709770202637 50 -29.423559188842773
			vertex 5.852709770202637 -50 -29.423559188842773
			vertex 3.673940187178589e-15 50 -30
		endloop
	endfacet
	facet normal 0.0980170077020906 0 -0.9951847397348537
		outer loop
			vertex 5.852709770202637 -50 -29.423559188842773
			vertex 3.673940187178589e-15 -50 -30
			vertex 3.673940187178589e-15 50 -30
		endloop
	endfacet
	facet normal -0.09801700770209049 0 -0.9951847397348537
		outer loop
			vertex 3.673940187178589e-15 50 -30
			vertex 3.673940187178589e-15 -50 -30
			vertex -5.852709770202637 50 -29.423559188842773
		endloop
	endfacet
	facet normal -0.09801700770209049 0 -0.9951847397348537
		outer loop
			vertex 3.673940187178589e-15 -50 -30
			vertex -5.852709770202637 -50 -29.423559188842773
			vertex -5.852709770202637 50 -29.423559188842773
		endloop
	endfacet
	facet normal -0.2902846704894831 0 -0.956940337784343
		outer loop
			vertex -5.852709770202637 50 -29.423559188842773
			vertex -5.852709770202637 -50 -29.423559188842773
			vertex -11.48050308227539 50 -27.716386795043945
		endloop
	endfacet
	facet normal -0.2902846704894831 0 -0.956940337784343
		outer loop
			vertex -5.852709770202637 -50 -29.423559188842773
			vertex -11.48050308227539 -50 -27.716386795043945
			vertex -11.48050308227539 50 -27.716386795043945
		endloop
	endfacet
	facet normal -0.4713969298748771 0 -0.8819211611615523
		outer loop
			vertex -11.48050308227539 50 -27.716386795043945
			vertex -11.48050308227539 -50 -27.716386795043945
			vertex -16.66710662841797 50 -24.944087982177734
		endloop
	endfacet
	facet normal -0.4713969298748771 0 -0.8819211611615523
		outer loop
			vertex -11.48050308227539 -50 -27.716386795043945
			vertex -16.66710662841797 -50 -24.944087982177734
			vertex -16.66710662841797 50 -24.944087982177734
		endloop
	endfacet
	facet normal -0.6343932156556211 0 -0.7730105095858146
		outer loop
			vertex -16.66710662841797 50 -24.944087982177734
			vertex -16.66710662841797 -50 -24.944087982177734
			vertex -21.21320343017578 50 -21.21320343017578
		endloop
	endfacet
	facet normal -0.6343932156556211 0 -0.7730105095858146
		outer loop
			vertex -16.66710662841797 -50 -24.944087982177734
			vertex -21.21320343017578 -50 -21.21320343017578
			vertex -21.21320343017578 50 -21.21320343017578
		endloop
	endfacet
	facet normal -0.7730105095858146 0 -0.6343932156556211
		outer loop
			vertex -21.21320343017578 50 -21.21320343017578
			vertex -21.21320343017578 -50 -21.21320343017578
			vertex -24.944087982177734 50 -16.66710662841797
		endloop
	endfacet
	facet normal -0.7730105095858146 0 -0.6343932156556211
		outer loop
			vertex -21.21320343017578 -50 -21.21320343017578
			vertex -24.944087982177734 -50 -16.66710662841797
			vertex -24.944087982177734 50 -16.66710662841797
		endloop
	endfacet
	facet normal -0.8819211611615523 0 -0.4713969298748771
		outer loop
			vertex -24.944087982177734 50 -16.66710662841797
			vertex -24.944087982177734 -50 -16.66710662841797
			vertex -27.716386795043945 50 -11.48050308227539
		endloop
	endfacet
	facet normal -0.8819211611615523 0 -0.4713969298748771
		outer loop
			vertex -24.944087982177734 -50 -16.66710662841797
			vertex -27.716386795043945 -50 -11.48050308227539
			vertex -27.716386795043945 50 -11.48050308227539
		endloop
	endfacet
	facet normal -0.956940337784343 0 -0.2902846704894831
		outer loop
			vertex -27.716386795043945 50 -11.48050308227539
			vertex -27.716386795043945 -50 -11.48050308227539
			vertex -29.423559188842773 50 -5.852709770202637
		endloop
	endfacet
	facet normal -0.956940337784343 0 -0.2902846704894831
		outer loop
			vertex -27.716386795043945 -50 -11.48050308227539
			vertex -29.423559188842773 -50 -5.852709770202637
			vertex -29.423559188842773 50 -5.852709770202637
		endloop
	endfacet
	facet normal -0.9951847397348537 0 -0.09801700770209064
		outer loop
			vertex -29.423559188842773 50 -5.852709770202637
			vertex -29.423559188842773 -50 -5.852709770202637
			vertex -30 50 -5.510910704284357e-15
		endloop
	endfacet
	facet normal -0.9951847397348537 0 -0.09801700770209064
		outer loop
			vertex -29.423559188842773 -50 -5.852709770202637
			vertex -30 -50 -5.510910704284357e-15
			vertex -30 50 -5.510910704284357e-15
		endloop
	endfacet
	facet normal -0.9951847397348537 0 0.09801700770209046
		outer loop
			vertex -30 50 -5.510910704284357e-15
			vertex -30 -50 -5.510910704284357e-15
			vertex -29.423559188842773 50 5.852709770202637
		endloop
	endfacet
	facet normal -0.9951847397348537 0 0.09801700770209046
		outer loop
			vertex -30 -50 -5.510910704284357e-15
			vertex -29.423559188842773 -50 5.852709770202637
			vertex -29.423559188842773 50 5.852709770202637
		endloop
	endfacet
	facet normal -0.956940337784343 0 0.2902846704894831
		outer loop
			vertex -29.423559188842773 50 5.852709770202637
			vertex -29.423559188842773 -50 5.852709770202637
			vertex -27.716386795043945 50 11.48050308227539
		endloop
	endfacet
	facet normal -0.956940337784343 0 0.2902846704894831
		outer loop
			vertex -29.423559188842773 -50 5.852709770202637
			vertex -27.716386795043945 -50 11.48050308227539
			vertex -27.716386795043945 50 11.48050308227539
		endloop
	endfacet
	facet normal -0.8819211611615523 0 0.4713969298748771
		outer loop
			vertex -27.716386795043945 50 11.48050308227539
			vertex -27.716386795043945 -50 11.48050308227539
			vertex -24.944087982177734 50 16.66710662841797
		endloop
	endfacet
	facet normal -0.8819211611615523 0 0.4713969298748771
		outer loop
			vertex -27.716386795043945 -50 11.48050308227539
			vertex -24.944087982177734 -50 16.66710662841797
			vertex -24.944087982177734 50 16.66710662841797
		endloop
	endfacet
	facet normal -0.7730105095858146 0 0.6343932156556211
		outer loop
			vertex -24.944087982177734 50 16.66710662841797
			vertex -24.944087982177734 -50 16.66710662841797
			vertex -21.21320343017578 50 21.21320343017578
		endloop
	endfacet
	facet normal -0.7730105095858146 0 0.6343932156556211
		outer loop
			vertex -24.944087982177734 -50 16.66710662841797
			vertex -21.21320343017578 -50 21.21320343017578
			vertex -21.21320343017578 50 21.21320343017578
		endloop
	endfacet
	facet normal -0.6343932156556211 0 0.7730105095858146
		outer loop
			vertex -21.21320343017578 50 21.21320343017578
			vertex -21.21320343017578 -50 21.21320343017578
			vertex -16.66710662841797 50 24.944087982177734
		endloop
	endfacet
	facet normal -0.6343932156556211 0 0.7730105095858146
		outer loop
			vertex -21.21320343017578 -50 21.21320343017578
			vertex -16.66710662841797 -50 24.944087982177734
			vertex -16.66710662841797 50 24.944087982177734
		endloop
	endfacet
	facet normal -0.4713969298748771 0 0.8819211611615523
		outer loop
			vertex -16.66710662841797 50 24.944087982177734
			vertex -16.66710662841797 -50 24.944087982177734
			vertex -11.48050308227539 50 27.716386795043945
		endloop
	endfacet
	facet normal -0.4713969298748771 0 0.8819211611615523
		outer loop
			vertex -16.66710662841797 -50 24.944087982177734
			vertex -11.48050308227539 -50 27.716386795043945
			vertex -11.48050308227539 50 27.716386795043945
		endloop
	endfacet
	facet normal -0.2902846704894831 0 0.956940337784343
		outer loop
			vertex -11.48050308227539 50 27.716386795043945
			vertex -11.48050308227539 -50 27.716386795043945
			vertex -5.852709770202637 50 29.423559188842773
		endloop
	endfacet
	facet normal -0.2902846704894831 0 0.956940337784343
		outer loop
			vertex -11.48050308227539 -50 27.716386795043945
			vertex -5.852709770202637 -50 29.423559188842773
			vertex -5.852709770202637 50 29.423559188842773
		endloop
	endfacet
	facet normal -0.09801700770209067 0 0.9951847397348537
		outer loop
			vertex -5.852709770202637 50 29.423559188842773
			vertex -5.852709770202637 -50 29.423559188842773
			vertex 0 50 30
		endloop
	endfacet
	facet normal -0.09801700770209067 0 0.9951847397348537
		outer loop
			vertex -5.852709770202637 -50 29.423559188842773
			vertex 0 -50 30
			vertex 0 50 30
		endloop
	endfacet
	facet normal 0 1 0
		outer loop
			vertex 0 50 30
			vertex 5.852709770202637 50 29.423559188842773
			vertex 0 50 0
		endloop
	endfacet
	facet normal 0 1 0
		outer loop
			vertex 5.852709770202637 50 29.423559188842773
			vertex 11.48050308227539 50 27.716386795043945
			vertex 0 50 0
		endloop
	endfacet
	facet normal 0 1 0
		outer loop
			vertex 11.48050308227539 50 27.716386795043945
			vertex 16.66710662841797 50 24.944087982177734
			vertex 0 50 0
		endloop
	endfacet
	facet normal 0 1 0
		outer loop
			vertex 16.66710662841797 50 24.944087982177734
			vertex 21.21320343017578 50 21.21320343017578
			vertex 0 50 0
		endloop
	endfacet
	facet normal 0 1 0
		outer loop
			vertex 21.21320343017578 50 21.21320343017578
			vertex 24.944087982177734 50 16.66710662841797
			vertex 0 50 0
		endloop
	endfacet
	facet normal 0 1 0
		outer loop
			vertex 24.944087982177734 50 16.66710662841797
			vertex 27.716386795043945 50 11.48050308227539
			vertex 0 50 0
		endloop
	endfacet
	facet normal 0 1 0
		outer loop
			vertex 27.716386795043945 50 11.48050308227539
			vertex 29.423559188842773 50 5.852709770202637
			vertex 0 50 0
		endloop
	endfacet
	facet normal 0 1 0
		outer loop
			vertex 29.423559188842773 50 5.852709770202637
			vertex 30 50 1.8369700935892946e-15
			vertex 0 50 0
		endloop
	endfacet
	facet normal 0 1 0
		outer loop
			vertex 30 50 1.8369700935892946e-15
			vertex 29.423559188842773 50 -5.852709770202637
			vertex 0 50 0
		endloop
	endfacet
	facet normal 0 1 0
		outer loop
			vertex 29.423559188842773 50 -5.852709770202637
			vertex 27.716386795043945 50 -11.48050308227539
			vertex 0 50 0
		endloop
	endfacet
	facet normal 0 1 0
		outer loop
			vertex 27.716386795043945 50 -11.48050308227539
			vertex 24.944087982177734 50 -16.66710662841797
			vertex 0 50 0
		endloop
	endfacet
	facet normal 0 1 0
		outer loop
			vertex 24.944087982177734 50 -16.66710662841797
			vertex 21.21320343017578 50 -21.21320343017578
			vertex 0 50 0
		endloop
	endfacet
	facet normal 0 1 0
		outer loop
			vertex 21.21320343017578 50 -21.21320343017578
			vertex 16.66710662841797 50 -24.944087982177734
			vertex 0 50 0
		endloop
	endfacet
	facet normal 0 1 0
		outer loop
			vertex 16.66710662841797 50 -24.944087982177734
			vertex 11.48050308227539 50 -27.716386795043945
			vertex 0 50 0
		endloop
	endfacet
	facet normal 0 1 0
		outer loop
			vertex 11.48050308227539 50 -27.716386795043945
			vertex 5.852709770202637 50 -29.423559188842773
			vertex 0 50 0
		endloop
	endfacet
	facet normal 0 1 0
		outer loop
			vertex 5.852709770202637 50 -29.423559188842773
			vertex 3.673940187178589e-15 50 -30
			vertex 0 50 0
		endloop
	endfacet
	facet normal 0 1 0
		outer loop
			vertex 3.673940187178589e-15 50 -30
			vertex -5.852709770202637 50 -29.423559188842773
			vertex 0 50 0
		endloop
	endfacet
	facet normal 0 1 0
		outer loop
			vertex -5.852709770202637 50 -29.423559188842773
			vertex -11.48050308227539 50 -27.716386795043945
			vertex 0 50 0
		endloop
	endfacet
	facet normal 0 1 0
		outer loop
			vertex -11.48050308227539 50 -27.716386795043945
			vertex -16.66710662841797 50 -24.944087982177734
			vertex 0 50 0
		endloop
	endfacet
	facet normal 0 1 0
		outer loop
			vertex -16.66710662841797 50 -24.944087982177734
			vertex -21.21320343017578 50 -21.21320343017578
			vertex 0 50 0
		endloop
	endfacet
	facet normal 0 1 0
		outer loop
			vertex -21.21320343017578 50 -21.21320343017578
			vertex -24.944087982177734 50 -16.66710662841797
			vertex 0 50 0
		endloop
	endfacet
	facet normal 0 1 0
		outer loop
			vertex -24.944087982177734 50 -16.66710662841797
			vertex -27.716386795043945 50 -11.48050308227539
			vertex 0 50 0
		endloop
	endfacet
	facet normal 0 1 0
		outer loop
			vertex -27.716386795043945 50 -11.48050308227539
			vertex -29.423559188842773 50 -5.852709770202637
			vertex 0 50 0
		endloop
	endfacet
	facet normal 0 1 0
		outer loop
			vertex -29.423559188842773 50 -5.852709770202637
			vertex -30 50 -5.510910704284357e-15
			vertex 0 50 0
		endloop
	endfacet
	facet normal 0 1 0
		outer loop
			vertex -30 50 -5.510910704284357e-15
			vertex -29.423559188842773 50 5.852709770202637
			vertex 0 50 0
		endloop
	endfacet
	facet normal 0 1 0
		outer loop
			vertex -29.423559188842773 50 5.852709770202637
			vertex -27.716386795043945 50 11.48050308227539
			vertex 0 50 0
		endloop
	endfacet
	facet normal 0 1 0
		outer loop
			vertex -27.716386795043945 50 11.48050308227539
			vertex -24.944087982177734 50 16.66710662841797
			vertex 0 50 0
		endloop
	endfacet
	facet normal 0 1 0
		outer loop
			vertex -24.944087982177734 50 16.66710662841797
			vertex -21.21320343017578 50 21.21320343017578
			vertex 0 50 0
		endloop
	endfacet
	facet normal 0 1 0
		outer loop
			vertex -21.21320343017578 50 21.21320343017578
			vertex -16.66710662841797 50 24.944087982177734
			vertex 0 50 0
		endloop
	endfacet
	facet normal 0 1 0
		outer loop
			vertex -16.66710662841797 50 24.944087982177734
			vertex -11.48050308227539 50 27.716386795043945
			vertex 0 50 0
		endloop
	endfacet
	facet normal 0 1 0
		outer loop
			vertex -11.48050308227539 50 27.716386795043945
			vertex -5.852709770202637 50 29.423559188842773
			vertex 0 50 0
		endloop
	endfacet
	facet normal 0 1 0
		outer loop
			vertex -5.852709770202637 50 29.423559188842773
			vertex 0 50 30
			vertex 0 50 0
		endloop
	endfacet
	facet normal 0 -1 0
		outer loop
			vertex 5.852709770202637 -50 29.423559188842773
			vertex 0 -50 30
			vertex 0 -50 0
		endloop
	endfacet
	facet normal 0 -1 0
		outer loop
			vertex 11.48050308227539 -50 27.716386795043945
			vertex 5.852709770202637 -50 29.423559188842773
			vertex 0 -50 0
		endloop
	endfacet
	facet normal 0 -1 0
		outer loop
			vertex 16.66710662841797 -50 24.944087982177734
			vertex 11.48050308227539 -50 27.716386795043945
			vertex 0 -50 0
		endloop
	endfacet
	facet normal 0 -1 0
		outer loop
			vertex 21.21320343017578 -50 21.21320343017578
			vertex 16.66710662841797 -50 24.944087982177734
			vertex 0 -50 0
		endloop
	endfacet
	facet normal 0 -1 0
		outer loop
			vertex 24.944087982177734 -50 16.66710662841797
			vertex 21.21320343017578 -50 21.21320343017578
			vertex 0 -50 0
		endloop
	endfacet
	facet normal 0 -1 0
		outer loop
			vertex 27.716386795043945 -50 11.48050308227539
			vertex 24.944087982177734 -50 16.66710662841797
			vertex 0 -50 0
		endloop
	endfacet
	facet normal 0 -1 0
		outer loop
			vertex 29.423559188842773 -50 5.852709770202637
			vertex 27.716386795043945 -50 11.48050308227539
			vertex 0 -50 0
		endloop
	endfacet
	facet normal 0 -1 0
		outer loop
			vertex 30 -50 1.8369700935892946e-15
			vertex 29.423559188842773 -50 5.852709770202637
			vertex 0 -50 0
		endloop
	endfacet
	facet normal 0 -1 0
		outer loop
			vertex 29.423559188842773 -50 -5.852709770202637
			vertex 30 -50 1.8369700935892946e-15
			vertex 0 -50 0
		endloop
	endfacet
	facet normal 0 -1 0
		outer loop
			vertex 27.716386795043945 -50 -11.48050308227539
			vertex 29.423559188842773 -50 -5.852709770202637
			vertex 0 -50 0
		endloop
	endfacet
	facet normal 0 -1 0
		outer loop
			vertex 24.944087982177734 -50 -16.66710662841797
			vertex 27.716386795043945 -50 -11.48050308227539
			vertex 0 -50 0
		endloop
	endfacet
	facet normal 0 -1 0
		outer loop
			vertex 21.21320343017578 -50 -21.21320343017578
			vertex 24.944087982177734 -50 -16.66710662841797
			vertex 0 -50 0
		endloop
	endfacet
	facet normal 0 -1 0
		outer loop
			vertex 16.66710662841797 -50 -24.944087982177734
			vertex 21.21320343017578 -50 -21.21320343017578
			vertex 0 -50 0
		endloop
	endfacet
	facet normal 0 -1 0
		outer loop
			vertex 11.48050308227539 -50 -27.716386795043945
			vertex 16.66710662841797 -50 -24.944087982177734
			vertex 0 -50 0
		endloop
	endfacet
	facet normal 0 -1 0
		outer loop
			vertex 5.852709770202637 -50 -29.423559188842773
			vertex 11.48050308227539 -50 -27.716386795043945
			vertex 0 -50 0
		endloop
	endfacet
	facet normal 0 -1 0
		outer loop
			vertex 3.673940187178589e-15 -50 -30
			vertex 5.852709770202637 -50 -29.423559188842773
			vertex 0 -50 0
		endloop
	endfacet
	facet normal 0 -1 0
		outer loop
			vertex -5.852709770202637 -50 -29.423559188842773
			vertex 3.673940187178589e-15 -50 -30
			vertex 0 -50 0
		endloop
	endfacet
	facet normal 0 -1 0
		outer loop
			vertex -11.48050308227539 -50 -27.716386795043945
			vertex -5.852709770202637 -50 -29.423559188842773
			vertex 0 -50 0
		endloop
	endfacet
	facet normal 0 -1 0
		outer loop
			vertex -16.66710662841797 -50 -24.944087982177734
			vertex -11.48050308227539 -50 -27.716386795043945
			vertex 0 -50 0
		endloop
	endfacet
	facet normal 0 -1 0
		outer loop
			vertex -21.21320343017578 -50 -21.21320343017578
			vertex -16.66710662841797 -50 -24.944087982177734
			vertex 0 -50 0
		endloop
	endfacet
	facet normal 0 -1 0
		outer loop
			vertex -24.944087982177734 -50 -16.66710662841797
			vertex -21.21320343017578 -50 -21.21320343017578
			vertex 0 -50 0
		endloop
	endfacet
	facet normal 0 -1 0
		outer loop
			vertex -27.716386795043945 -50 -11.48050308227539
			vertex -24.944087982177734 -50 -16.66710662841797
			vertex 0 -50 0
		endloop
	endfacet
	facet normal 0 -1 0
		outer loop
			vertex -29.423559188842773 -50 -5.852709770202637
			vertex -27.716386795043945 -50 -11.48050308227539
			vertex 0 -50 0
		endloop
	endfacet
	facet normal 0 -1 0
		outer loop
			vertex -30 -50 -5.510910704284357e-15
			vertex -29.423559188842773 -50 -5.852709770202637
			vertex 0 -50 0
		endloop
	endfacet
	facet normal 0 -1 0
		outer loop
			vertex -29.423559188842773 -50 5.852709770202637
			vertex -30 -50 -5.510910704284357e-15
			vertex 0 -50 0
		endloop
	endfacet
	facet normal 0 -1 0
		outer loop
			vertex -27.716386795043945 -50 11.48050308227539
			vertex -29.423559188842773 -50 5.852709770202637
			vertex 0 -50 0
		endloop
	endfacet
	facet normal 0 -1 0
		outer loop
			vertex -24.944087982177734 -50 16.66710662841797
			vertex -27.716386795043945 -50 11.48050308227539
			vertex 0 -50 0
		endloop
	endfacet
	facet normal 0 -1 0
		outer loop
			vertex -21.21320343017578 -50 21.21320343017578
			vertex -24.944087982177734 -50 16.66710662841797
			vertex 0 -50 0
		endloop
	endfacet
	facet normal 0 -1 0
		outer loop
			vertex -16.66710662841797 -50 24.944087982177734
			vertex -21.21320343017578 -50 21.21320343017578
			vertex 0 -50 0
		endloop
	endfacet
	facet normal 0 -1 0
		outer loop
			vertex -11.48050308227539 -50 27.716386795043945
			vertex -16.66710662841797 -50 24.944087982177734
			vertex 0 -50 0
		endloop
	endfacet
	facet normal 0 -1 0
		outer loop
			vertex -5.852709770202637 -50 29.423559188842773
			vertex -11.48050308227539 -50 27.716386795043945
			vertex 0 -50 0
		endloop
	endfacet
	facet normal 0 -1 0
		outer loop
			vertex 0 -50 30
			vertex -5.852709770202637 -50 29.423559188842773
			vertex 0 -50 0
		endloop
	endfacet
endsolid exported
