solid exported
	facet normal 1 0 0
		outer loop
			vertex -365.24871826171875 335.71099853515625 -203.7117156982422
			vertex -365.24871826171875 235.71099853515625 -203.7117156982422
			vertex -365.24871826171875 335.71099853515625 -303.7117156982422
		endloop
	endfacet
	facet normal 1 0 0
		outer loop
			vertex -365.24871826171875 235.71099853515625 -203.7117156982422
			vertex -365.24871826171875 235.71099853515625 -303.7117156982422
			vertex -365.24871826171875 335.71099853515625 -303.7117156982422
		endloop
	endfacet
	facet normal -1 0 0
		outer loop
			vertex -465.24871826171875 335.71099853515625 -303.7117156982422
			vertex -465.24871826171875 235.71099853515625 -303.7117156982422
			vertex -465.24871826171875 335.71099853515625 -203.7117156982422
		endloop
	endfacet
	facet normal -1 0 0
		outer loop
			vertex -465.24871826171875 235.71099853515625 -303.7117156982422
			vertex -465.24871826171875 235.71099853515625 -203.7117156982422
			vertex -465.24871826171875 335.71099853515625 -203.7117156982422
		endloop
	endfacet
	facet normal 0 1 0
		outer loop
			vertex -465.24871826171875 335.71099853515625 -303.7117156982422
			vertex -465.24871826171875 335.71099853515625 -203.7117156982422
			vertex -365.24871826171875 335.71099853515625 -303.7117156982422
		endloop
	endfacet
	facet normal 0 1 0
		outer loop
			vertex -465.24871826171875 335.71099853515625 -203.7117156982422
			vertex -365.24871826171875 335.71099853515625 -203.7117156982422
			vertex -365.24871826171875 335.71099853515625 -303.7117156982422
		endloop
	endfacet
	facet normal 0 -1 0
		outer loop
			vertex -465.24871826171875 235.71099853515625 -203.7117156982422
			vertex -465.24871826171875 235.71099853515625 -303.7117156982422
			vertex -365.24871826171875 235.71099853515625 -203.7117156982422
		endloop
	endfacet
	facet normal 0 -1 0
		outer loop
			vertex -465.24871826171875 235.71099853515625 -303.7117156982422
			vertex -365.24871826171875 235.71099853515625 -303.7117156982422
			vertex -365.24871826171875 235.71099853515625 -203.7117156982422
		endloop
	endfacet
	facet normal 0 0 1
		outer loop
			vertex -465.24871826171875 335.71099853515625 -203.7117156982422
			vertex -465.24871826171875 235.71099853515625 -203.7117156982422
			vertex -365.24871826171875 335.71099853515625 -203.7117156982422
		endloop
	endfacet
	facet normal 0 0 1
		outer loop
			vertex -465.24871826171875 235.71099853515625 -203.7117156982422
			vertex -365.24871826171875 235.71099853515625 -203.7117156982422
			vertex -365.24871826171875 335.71099853515625 -203.7117156982422
		endloop
	endfacet
	facet normal 0 0 -1
		outer loop
			vertex -365.24871826171875 335.71099853515625 -303.7117156982422
			vertex -365.24871826171875 235.71099853515625 -303.7117156982422
			vertex -465.24871826171875 335.71099853515625 -303.7117156982422
		endloop
	endfacet
	facet normal 0 0 -1
		outer loop
			vertex -365.24871826171875 235.71099853515625 -303.7117156982422
			vertex -465.24871826171875 235.71099853515625 -303.7117156982422
			vertex -465.24871826171875 335.71099853515625 -303.7117156982422
		endloop
	endfacet
endsolid exported
