solid exported
	facet normal 0.2976029648695469 0.6286675844734064 0.7184772393981788
		outer loop
			vertex -95.83213806152344 139.22914123535156 607.6420288085938
			vertex -21.585922241210938 139.22914123535156 576.8882446289062
			vertex -95.83213806152344 259.22914123535156 502.64202880859375
		endloop
	endfacet
	facet normal 0.7184772393981788 0.6286675844734064 0.2976029648695469
		outer loop
			vertex -21.585922241210938 139.22914123535156 576.8882446289062
			vertex 9.167861938476562 139.22914123535156 502.64202880859375
			vertex -95.83213806152344 259.22914123535156 502.64202880859375
		endloop
	endfacet
	facet normal 0.7184772393981788 0.6286675844734064 -0.2976029648695469
		outer loop
			vertex 9.167861938476562 139.22914123535156 502.64202880859375
			vertex -21.585922241210938 139.22914123535156 428.39581298828125
			vertex -95.83213806152344 259.22914123535156 502.64202880859375
		endloop
	endfacet
	facet normal 0.29760296486954696 0.6286675844734064 -0.7184772393981788
		outer loop
			vertex -21.585922241210938 139.22914123535156 428.39581298828125
			vertex -95.83213806152342 139.22914123535156 397.64202880859375
			vertex -95.83213806152344 259.22914123535156 502.64202880859375
		endloop
	endfacet
	facet normal -0.29760296486954685 0.6286675844734063 -0.7184772393981788
		outer loop
			vertex -95.83213806152342 139.22914123535156 397.64202880859375
			vertex -170.07835388183594 139.22914123535156 428.39581298828125
			vertex -95.83213806152344 259.22914123535156 502.64202880859375
		endloop
	endfacet
	facet normal -0.7184772393981786 0.6286675844734064 -0.2976029648695469
		outer loop
			vertex -170.07835388183594 139.22914123535156 428.39581298828125
			vertex -200.83213806152344 139.22914123535156 502.64202880859375
			vertex -95.83213806152344 259.22914123535156 502.64202880859375
		endloop
	endfacet
	facet normal -0.7184772393981788 0.6286675844734063 0.29760296486954685
		outer loop
			vertex -200.83213806152344 139.22914123535156 502.64202880859375
			vertex -170.07835388183594 139.22914123535156 576.8882446289062
			vertex -95.83213806152344 259.22914123535156 502.64202880859375
		endloop
	endfacet
	facet normal -0.29760296486954696 0.6286675844734064 0.7184772393981786
		outer loop
			vertex -170.07835388183594 139.22914123535156 576.8882446289062
			vertex -95.83213806152344 139.22914123535156 607.6420288085938
			vertex -95.83213806152344 259.22914123535156 502.64202880859375
		endloop
	endfacet
	facet normal 0 -1 0
		outer loop
			vertex -21.585922241210938 139.22914123535156 576.8882446289062
			vertex -95.83213806152344 139.22914123535156 607.6420288085938
			vertex -95.83213806152344 139.22914123535156 502.64202880859375
		endloop
	endfacet
	facet normal 0 -1 0
		outer loop
			vertex 9.167861938476562 139.22914123535156 502.64202880859375
			vertex -21.585922241210938 139.22914123535156 576.8882446289062
			vertex -95.83213806152344 139.22914123535156 502.64202880859375
		endloop
	endfacet
	facet normal 0 -1 0
		outer loop
			vertex -21.585922241210938 139.22914123535156 428.39581298828125
			vertex 9.167861938476562 139.22914123535156 502.64202880859375
			vertex -95.83213806152344 139.22914123535156 502.64202880859375
		endloop
	endfacet
	facet normal 0 -1 0
		outer loop
			vertex -95.83213806152342 139.22914123535156 397.64202880859375
			vertex -21.585922241210938 139.22914123535156 428.39581298828125
			vertex -95.83213806152344 139.22914123535156 502.64202880859375
		endloop
	endfacet
	facet normal 0 -1 0
		outer loop
			vertex -170.07835388183594 139.22914123535156 428.39581298828125
			vertex -95.83213806152342 139.22914123535156 397.64202880859375
			vertex -95.83213806152344 139.22914123535156 502.64202880859375
		endloop
	endfacet
	facet normal 0 -1 0
		outer loop
			vertex -200.83213806152344 139.22914123535156 502.64202880859375
			vertex -170.07835388183594 139.22914123535156 428.39581298828125
			vertex -95.83213806152344 139.22914123535156 502.64202880859375
		endloop
	endfacet
	facet normal 0 -1 0
		outer loop
			vertex -170.07835388183594 139.22914123535156 576.8882446289062
			vertex -200.83213806152344 139.22914123535156 502.64202880859375
			vertex -95.83213806152344 139.22914123535156 502.64202880859375
		endloop
	endfacet
	facet normal 0 -1 0
		outer loop
			vertex -95.83213806152344 139.22914123535156 607.6420288085938
			vertex -170.07835388183594 139.22914123535156 576.8882446289062
			vertex -95.83213806152344 139.22914123535156 502.64202880859375
		endloop
	endfacet
endsolid exported
