solid exported
	facet normal 1 0 0
		outer loop
			vertex -252.92083740234375 549.3967895507812 -262.28277587890625
			vertex -252.92083740234375 449.39678955078125 -262.28277587890625
			vertex -252.92083740234375 549.3967895507812 -362.28277587890625
		endloop
	endfacet
	facet normal 1 0 0
		outer loop
			vertex -252.92083740234375 449.39678955078125 -262.28277587890625
			vertex -252.92083740234375 449.39678955078125 -362.28277587890625
			vertex -252.92083740234375 549.3967895507812 -362.28277587890625
		endloop
	endfacet
	facet normal -1 0 0
		outer loop
			vertex -352.92083740234375 549.3967895507812 -362.28277587890625
			vertex -352.92083740234375 449.39678955078125 -362.28277587890625
			vertex -352.92083740234375 549.3967895507812 -262.28277587890625
		endloop
	endfacet
	facet normal -1 0 0
		outer loop
			vertex -352.92083740234375 449.39678955078125 -362.28277587890625
			vertex -352.92083740234375 449.39678955078125 -262.28277587890625
			vertex -352.92083740234375 549.3967895507812 -262.28277587890625
		endloop
	endfacet
	facet normal 0 1 0
		outer loop
			vertex -352.92083740234375 549.3967895507812 -362.28277587890625
			vertex -352.92083740234375 549.3967895507812 -262.28277587890625
			vertex -252.92083740234375 549.3967895507812 -362.28277587890625
		endloop
	endfacet
	facet normal 0 1 0
		outer loop
			vertex -352.92083740234375 549.3967895507812 -262.28277587890625
			vertex -252.92083740234375 549.3967895507812 -262.28277587890625
			vertex -252.92083740234375 549.3967895507812 -362.28277587890625
		endloop
	endfacet
	facet normal 0 -1 0
		outer loop
			vertex -352.92083740234375 449.39678955078125 -262.28277587890625
			vertex -352.92083740234375 449.39678955078125 -362.28277587890625
			vertex -252.92083740234375 449.39678955078125 -262.28277587890625
		endloop
	endfacet
	facet normal 0 -1 0
		outer loop
			vertex -352.92083740234375 449.39678955078125 -362.28277587890625
			vertex -252.92083740234375 449.39678955078125 -362.28277587890625
			vertex -252.92083740234375 449.39678955078125 -262.28277587890625
		endloop
	endfacet
	facet normal 0 0 1
		outer loop
			vertex -352.92083740234375 549.3967895507812 -262.28277587890625
			vertex -352.92083740234375 449.39678955078125 -262.28277587890625
			vertex -252.92083740234375 549.3967895507812 -262.28277587890625
		endloop
	endfacet
	facet normal 0 0 1
		outer loop
			vertex -352.92083740234375 449.39678955078125 -262.28277587890625
			vertex -252.92083740234375 449.39678955078125 -262.28277587890625
			vertex -252.92083740234375 549.3967895507812 -262.28277587890625
		endloop
	endfacet
	facet normal 0 0 -1
		outer loop
			vertex -252.92083740234375 549.3967895507812 -362.28277587890625
			vertex -252.92083740234375 449.39678955078125 -362.28277587890625
			vertex -352.92083740234375 549.3967895507812 -362.28277587890625
		endloop
	endfacet
	facet normal 0 0 -1
		outer loop
			vertex -252.92083740234375 449.39678955078125 -362.28277587890625
			vertex -352.92083740234375 449.39678955078125 -362.28277587890625
			vertex -352.92083740234375 549.3967895507812 -362.28277587890625
		endloop
	endfacet
endsolid exported
