solid exported
	facet normal 0.2976029648695469 0.6286675844734064 0.7184772393981788
		outer loop
			vertex -487.0023498535156 344.5277099609375 -510.94091796875
			vertex -412.7561340332031 344.5277099609375 -541.6947021484375
			vertex -487.0023498535156 464.5277099609375 -615.94091796875
		endloop
	endfacet
	facet normal 0.7184772393981788 0.6286675844734064 0.2976029648695469
		outer loop
			vertex -412.7561340332031 344.5277099609375 -541.6947021484375
			vertex -382.0023498535156 344.5277099609375 -615.94091796875
			vertex -487.0023498535156 464.5277099609375 -615.94091796875
		endloop
	endfacet
	facet normal 0.7184772393981788 0.6286675844734064 -0.2976029648695469
		outer loop
			vertex -382.0023498535156 344.5277099609375 -615.94091796875
			vertex -412.7561340332031 344.5277099609375 -690.1871337890625
			vertex -487.0023498535156 464.5277099609375 -615.94091796875
		endloop
	endfacet
	facet normal 0.29760296486954696 0.6286675844734064 -0.7184772393981788
		outer loop
			vertex -412.7561340332031 344.5277099609375 -690.1871337890625
			vertex -487.0023498535156 344.5277099609375 -720.94091796875
			vertex -487.0023498535156 464.5277099609375 -615.94091796875
		endloop
	endfacet
	facet normal -0.29760296486954685 0.6286675844734063 -0.7184772393981788
		outer loop
			vertex -487.0023498535156 344.5277099609375 -720.94091796875
			vertex -561.2485656738281 344.5277099609375 -690.1871337890625
			vertex -487.0023498535156 464.5277099609375 -615.94091796875
		endloop
	endfacet
	facet normal -0.7184772393981786 0.6286675844734064 -0.2976029648695469
		outer loop
			vertex -561.2485656738281 344.5277099609375 -690.1871337890625
			vertex -592.0023498535156 344.5277099609375 -615.94091796875
			vertex -487.0023498535156 464.5277099609375 -615.94091796875
		endloop
	endfacet
	facet normal -0.7184772393981788 0.6286675844734063 0.29760296486954685
		outer loop
			vertex -592.0023498535156 344.5277099609375 -615.94091796875
			vertex -561.2485656738281 344.5277099609375 -541.6947021484375
			vertex -487.0023498535156 464.5277099609375 -615.94091796875
		endloop
	endfacet
	facet normal -0.29760296486954696 0.6286675844734064 0.7184772393981786
		outer loop
			vertex -561.2485656738281 344.5277099609375 -541.6947021484375
			vertex -487.0023498535156 344.5277099609375 -510.94091796875
			vertex -487.0023498535156 464.5277099609375 -615.94091796875
		endloop
	endfacet
	facet normal 0 -1 0
		outer loop
			vertex -412.7561340332031 344.5277099609375 -541.6947021484375
			vertex -487.0023498535156 344.5277099609375 -510.94091796875
			vertex -487.0023498535156 344.5277099609375 -615.94091796875
		endloop
	endfacet
	facet normal 0 -1 0
		outer loop
			vertex -382.0023498535156 344.5277099609375 -615.94091796875
			vertex -412.7561340332031 344.5277099609375 -541.6947021484375
			vertex -487.0023498535156 344.5277099609375 -615.94091796875
		endloop
	endfacet
	facet normal 0 -1 0
		outer loop
			vertex -412.7561340332031 344.5277099609375 -690.1871337890625
			vertex -382.0023498535156 344.5277099609375 -615.94091796875
			vertex -487.0023498535156 344.5277099609375 -615.94091796875
		endloop
	endfacet
	facet normal 0 -1 0
		outer loop
			vertex -487.0023498535156 344.5277099609375 -720.94091796875
			vertex -412.7561340332031 344.5277099609375 -690.1871337890625
			vertex -487.0023498535156 344.5277099609375 -615.94091796875
		endloop
	endfacet
	facet normal 0 -1 0
		outer loop
			vertex -561.2485656738281 344.5277099609375 -690.1871337890625
			vertex -487.0023498535156 344.5277099609375 -720.94091796875
			vertex -487.0023498535156 344.5277099609375 -615.94091796875
		endloop
	endfacet
	facet normal 0 -1 0
		outer loop
			vertex -592.0023498535156 344.5277099609375 -615.94091796875
			vertex -561.2485656738281 344.5277099609375 -690.1871337890625
			vertex -487.0023498535156 344.5277099609375 -615.94091796875
		endloop
	endfacet
	facet normal 0 -1 0
		outer loop
			vertex -561.2485656738281 344.5277099609375 -541.6947021484375
			vertex -592.0023498535156 344.5277099609375 -615.94091796875
			vertex -487.0023498535156 344.5277099609375 -615.94091796875
		endloop
	endfacet
	facet normal 0 -1 0
		outer loop
			vertex -487.0023498535156 344.5277099609375 -510.94091796875
			vertex -561.2485656738281 344.5277099609375 -541.6947021484375
			vertex -487.0023498535156 344.5277099609375 -615.94091796875
		endloop
	endfacet
endsolid exported
