solid exported
	facet normal 1 0 0
		outer loop
			vertex -117.17958068847656 50 50
			vertex -117.17958068847656 -50 50
			vertex -117.17958068847656 50 -50
		endloop
	endfacet
	facet normal 1 0 0
		outer loop
			vertex -117.17958068847656 -50 50
			vertex -117.17958068847656 -50 -50
			vertex -117.17958068847656 50 -50
		endloop
	endfacet
	facet normal -1 0 0
		outer loop
			vertex -217.17958068847656 50 -50
			vertex -217.17958068847656 -50 -50
			vertex -217.17958068847656 50 50
		endloop
	endfacet
	facet normal -1 0 0
		outer loop
			vertex -217.17958068847656 -50 -50
			vertex -217.17958068847656 -50 50
			vertex -217.17958068847656 50 50
		endloop
	endfacet
	facet normal 0 1 0
		outer loop
			vertex -217.17958068847656 50 -50
			vertex -217.17958068847656 50 50
			vertex -117.17958068847656 50 -50
		endloop
	endfacet
	facet normal 0 1 0
		outer loop
			vertex -217.17958068847656 50 50
			vertex -117.17958068847656 50 50
			vertex -117.17958068847656 50 -50
		endloop
	endfacet
	facet normal 0 -1 0
		outer loop
			vertex -217.17958068847656 -50 50
			vertex -217.17958068847656 -50 -50
			vertex -117.17958068847656 -50 50
		endloop
	endfacet
	facet normal 0 -1 0
		outer loop
			vertex -217.17958068847656 -50 -50
			vertex -117.17958068847656 -50 -50
			vertex -117.17958068847656 -50 50
		endloop
	endfacet
	facet normal 0 0 1
		outer loop
			vertex -217.17958068847656 50 50
			vertex -217.17958068847656 -50 50
			vertex -117.17958068847656 50 50
		endloop
	endfacet
	facet normal 0 0 1
		outer loop
			vertex -217.17958068847656 -50 50
			vertex -117.17958068847656 -50 50
			vertex -117.17958068847656 50 50
		endloop
	endfacet
	facet normal 0 0 -1
		outer loop
			vertex -117.17958068847656 50 -50
			vertex -117.17958068847656 -50 -50
			vertex -217.17958068847656 50 -50
		endloop
	endfacet
	facet normal 0 0 -1
		outer loop
			vertex -117.17958068847656 -50 -50
			vertex -217.17958068847656 -50 -50
			vertex -217.17958068847656 50 -50
		endloop
	endfacet
endsolid exported
