solid exported
	facet normal 0.09801700770209056 0 0.9951847397348538
		outer loop
			vertex 178.498779296875 638.0033721923828 -87.49401092529297
			vertex 178.498779296875 -261.9966278076172 -87.49401092529297
			vertex 384.35148906707764 638.0033721923828 -88.0704517364502
		endloop
	endfacet
	facet normal 0.09801700770209056 0 0.9951847397348538
		outer loop
			vertex 178.498779296875 -261.9966278076172 -87.49401092529297
			vertex 384.35148906707764 -261.9966278076172 -88.0704517364502
			vertex 384.35148906707764 638.0033721923828 -88.0704517364502
		endloop
	endfacet
	facet normal 0.2902846704894831 0 0.956940337784343
		outer loop
			vertex 384.35148906707764 638.0033721923828 -88.0704517364502
			vertex 384.35148906707764 -261.9966278076172 -88.0704517364502
			vertex 389.9792823791504 638.0033721923828 -89.77762413024902
		endloop
	endfacet
	facet normal 0.2902846704894831 0 0.956940337784343
		outer loop
			vertex 384.35148906707764 -261.9966278076172 -88.0704517364502
			vertex 389.9792823791504 -261.9966278076172 -89.77762413024902
			vertex 389.9792823791504 638.0033721923828 -89.77762413024902
		endloop
	endfacet
	facet normal 0.4713969298748771 0 0.8819211611615523
		outer loop
			vertex 389.9792823791504 638.0033721923828 -89.77762413024902
			vertex 389.9792823791504 -261.9966278076172 -89.77762413024902
			vertex 395.16588592529297 638.0033721923828 -92.54992294311523
		endloop
	endfacet
	facet normal 0.4713969298748771 0 0.8819211611615523
		outer loop
			vertex 389.9792823791504 -261.9966278076172 -89.77762413024902
			vertex 395.16588592529297 -261.9966278076172 -92.54992294311523
			vertex 395.16588592529297 638.0033721923828 -92.54992294311523
		endloop
	endfacet
	facet normal 0.6343932156556211 0 0.7730105095858146
		outer loop
			vertex 395.16588592529297 638.0033721923828 -92.54992294311523
			vertex 395.16588592529297 -261.9966278076172 -92.54992294311523
			vertex 399.7119827270508 638.0033721923828 -96.28080749511719
		endloop
	endfacet
	facet normal 0.6343932156556211 0 0.7730105095858146
		outer loop
			vertex 395.16588592529297 -261.9966278076172 -92.54992294311523
			vertex 399.7119827270508 -261.9966278076172 -96.28080749511719
			vertex 399.7119827270508 638.0033721923828 -96.28080749511719
		endloop
	endfacet
	facet normal 0.7730105095858146 0 0.6343932156556211
		outer loop
			vertex 399.7119827270508 638.0033721923828 -96.28080749511719
			vertex 399.7119827270508 -261.9966278076172 -96.28080749511719
			vertex 403.44286727905273 638.0033721923828 -100.826904296875
		endloop
	endfacet
	facet normal 0.7730105095858146 0 0.6343932156556211
		outer loop
			vertex 399.7119827270508 -261.9966278076172 -96.28080749511719
			vertex 403.44286727905273 -261.9966278076172 -100.826904296875
			vertex 403.44286727905273 638.0033721923828 -100.826904296875
		endloop
	endfacet
	facet normal 0.8819211611615523 0 0.4713969298748771
		outer loop
			vertex 403.44286727905273 638.0033721923828 -100.826904296875
			vertex 403.44286727905273 -261.9966278076172 -100.826904296875
			vertex 406.21516609191895 638.0033721923828 -106.01350784301758
		endloop
	endfacet
	facet normal 0.8819211611615523 0 0.4713969298748771
		outer loop
			vertex 403.44286727905273 -261.9966278076172 -100.826904296875
			vertex 406.21516609191895 -261.9966278076172 -106.01350784301758
			vertex 406.21516609191895 638.0033721923828 -106.01350784301758
		endloop
	endfacet
	facet normal 0.956940337784343 0 0.2902846704894831
		outer loop
			vertex 406.21516609191895 638.0033721923828 -106.01350784301758
			vertex 406.21516609191895 -261.9966278076172 -106.01350784301758
			vertex 407.9223384857178 638.0033721923828 -111.64130115509033
		endloop
	endfacet
	facet normal 0.956940337784343 0 0.2902846704894831
		outer loop
			vertex 406.21516609191895 -261.9966278076172 -106.01350784301758
			vertex 407.9223384857178 -261.9966278076172 -111.64130115509033
			vertex 407.9223384857178 638.0033721923828 -111.64130115509033
		endloop
	endfacet
	facet normal 0.9951847397348537 0 0.0980170077020906
		outer loop
			vertex 407.9223384857178 638.0033721923828 -111.64130115509033
			vertex 407.9223384857178 -261.9966278076172 -111.64130115509033
			vertex 408.498779296875 638.0033721923828 -117.49401092529297
		endloop
	endfacet
	facet normal 0.9951847397348537 0 0.0980170077020906
		outer loop
			vertex 407.9223384857178 -261.9966278076172 -111.64130115509033
			vertex 408.498779296875 -261.9966278076172 -117.49401092529297
			vertex 408.498779296875 638.0033721923828 -117.49401092529297
		endloop
	endfacet
	facet normal 0.9951847397348538 0 -0.09801700770209051
		outer loop
			vertex 408.498779296875 638.0033721923828 -117.49401092529297
			vertex 408.498779296875 -261.9966278076172 -117.49401092529297
			vertex 407.9223384857178 638.0033721923828 -123.3467206954956
		endloop
	endfacet
	facet normal 0.9951847397348538 0 -0.09801700770209051
		outer loop
			vertex 408.498779296875 -261.9966278076172 -117.49401092529297
			vertex 407.9223384857178 -261.9966278076172 -123.3467206954956
			vertex 407.9223384857178 638.0033721923828 -123.3467206954956
		endloop
	endfacet
	facet normal 0.956940337784343 0 -0.2902846704894831
		outer loop
			vertex 407.9223384857178 638.0033721923828 -123.3467206954956
			vertex 407.9223384857178 -261.9966278076172 -123.3467206954956
			vertex 406.21516609191895 638.0033721923828 -128.97451400756836
		endloop
	endfacet
	facet normal 0.956940337784343 0 -0.2902846704894831
		outer loop
			vertex 407.9223384857178 -261.9966278076172 -123.3467206954956
			vertex 406.21516609191895 -261.9966278076172 -128.97451400756836
			vertex 406.21516609191895 638.0033721923828 -128.97451400756836
		endloop
	endfacet
	facet normal 0.8819211611615523 0 -0.4713969298748771
		outer loop
			vertex 406.21516609191895 638.0033721923828 -128.97451400756836
			vertex 406.21516609191895 -261.9966278076172 -128.97451400756836
			vertex 403.44286727905273 638.0033721923828 -134.16111755371094
		endloop
	endfacet
	facet normal 0.8819211611615523 0 -0.4713969298748771
		outer loop
			vertex 406.21516609191895 -261.9966278076172 -128.97451400756836
			vertex 403.44286727905273 -261.9966278076172 -134.16111755371094
			vertex 403.44286727905273 638.0033721923828 -134.16111755371094
		endloop
	endfacet
	facet normal 0.7730105095858146 0 -0.6343932156556211
		outer loop
			vertex 403.44286727905273 638.0033721923828 -134.16111755371094
			vertex 403.44286727905273 -261.9966278076172 -134.16111755371094
			vertex 399.7119827270508 638.0033721923828 -138.70721435546875
		endloop
	endfacet
	facet normal 0.7730105095858146 0 -0.6343932156556211
		outer loop
			vertex 403.44286727905273 -261.9966278076172 -134.16111755371094
			vertex 399.7119827270508 -261.9966278076172 -138.70721435546875
			vertex 399.7119827270508 638.0033721923828 -138.70721435546875
		endloop
	endfacet
	facet normal 0.6343932156556211 0 -0.7730105095858146
		outer loop
			vertex 399.7119827270508 638.0033721923828 -138.70721435546875
			vertex 399.7119827270508 -261.9966278076172 -138.70721435546875
			vertex 395.16588592529297 638.0033721923828 -142.4380989074707
		endloop
	endfacet
	facet normal 0.6343932156556211 0 -0.7730105095858146
		outer loop
			vertex 399.7119827270508 -261.9966278076172 -138.70721435546875
			vertex 395.16588592529297 -261.9966278076172 -142.4380989074707
			vertex 395.16588592529297 638.0033721923828 -142.4380989074707
		endloop
	endfacet
	facet normal 0.4713969298748771 0 -0.8819211611615523
		outer loop
			vertex 395.16588592529297 638.0033721923828 -142.4380989074707
			vertex 395.16588592529297 -261.9966278076172 -142.4380989074707
			vertex 389.9792823791504 638.0033721923828 -145.2103977203369
		endloop
	endfacet
	facet normal 0.4713969298748771 0 -0.8819211611615523
		outer loop
			vertex 395.16588592529297 -261.9966278076172 -142.4380989074707
			vertex 389.9792823791504 -261.9966278076172 -145.2103977203369
			vertex 389.9792823791504 638.0033721923828 -145.2103977203369
		endloop
	endfacet
	facet normal 0.2902846704894831 0 -0.956940337784343
		outer loop
			vertex 389.9792823791504 638.0033721923828 -145.2103977203369
			vertex 389.9792823791504 -261.9966278076172 -145.2103977203369
			vertex 384.35148906707764 638.0033721923828 -146.91757011413574
		endloop
	endfacet
	facet normal 0.2902846704894831 0 -0.956940337784343
		outer loop
			vertex 389.9792823791504 -261.9966278076172 -145.2103977203369
			vertex 384.35148906707764 -261.9966278076172 -146.91757011413574
			vertex 384.35148906707764 638.0033721923828 -146.91757011413574
		endloop
	endfacet
	facet normal 0.0980170077020906 0 -0.9951847397348537
		outer loop
			vertex 384.35148906707764 638.0033721923828 -146.91757011413574
			vertex 384.35148906707764 -261.9966278076172 -146.91757011413574
			vertex 378.498779296875 638.0033721923828 -147.49401092529297
		endloop
	endfacet
	facet normal 0.0980170077020906 0 -0.9951847397348537
		outer loop
			vertex 384.35148906707764 -261.9966278076172 -146.91757011413574
			vertex 378.498779296875 -261.9966278076172 -147.49401092529297
			vertex 378.498779296875 638.0033721923828 -147.49401092529297
		endloop
	endfacet
	facet normal -0.09801700770209049 0 -0.9951847397348537
		outer loop
			vertex 378.498779296875 638.0033721923828 -147.49401092529297
			vertex 378.498779296875 -261.9966278076172 -147.49401092529297
			vertex -27.353930473327637 638.0033721923828 -146.91757011413574
		endloop
	endfacet
	facet normal -0.09801700770209049 0 -0.9951847397348537
		outer loop
			vertex 378.498779296875 -261.9966278076172 -147.49401092529297
			vertex -27.353930473327637 -261.9966278076172 -146.91757011413574
			vertex -27.353930473327637 638.0033721923828 -146.91757011413574
		endloop
	endfacet
	facet normal -0.2902846704894831 0 -0.956940337784343
		outer loop
			vertex -27.353930473327637 638.0033721923828 -146.91757011413574
			vertex -27.353930473327637 -261.9966278076172 -146.91757011413574
			vertex -32.98172378540039 638.0033721923828 -145.2103977203369
		endloop
	endfacet
	facet normal -0.2902846704894831 0 -0.956940337784343
		outer loop
			vertex -27.353930473327637 -261.9966278076172 -146.91757011413574
			vertex -32.98172378540039 -261.9966278076172 -145.2103977203369
			vertex -32.98172378540039 638.0033721923828 -145.2103977203369
		endloop
	endfacet
	facet normal -0.4713969298748771 0 -0.8819211611615523
		outer loop
			vertex -32.98172378540039 638.0033721923828 -145.2103977203369
			vertex -32.98172378540039 -261.9966278076172 -145.2103977203369
			vertex -38.16832733154297 638.0033721923828 -142.4380989074707
		endloop
	endfacet
	facet normal -0.4713969298748771 0 -0.8819211611615523
		outer loop
			vertex -32.98172378540039 -261.9966278076172 -145.2103977203369
			vertex -38.16832733154297 -261.9966278076172 -142.4380989074707
			vertex -38.16832733154297 638.0033721923828 -142.4380989074707
		endloop
	endfacet
	facet normal -0.6343932156556211 0 -0.7730105095858146
		outer loop
			vertex -38.16832733154297 638.0033721923828 -142.4380989074707
			vertex -38.16832733154297 -261.9966278076172 -142.4380989074707
			vertex -42.71442413330078 638.0033721923828 -138.70721435546875
		endloop
	endfacet
	facet normal -0.6343932156556211 0 -0.7730105095858146
		outer loop
			vertex -38.16832733154297 -261.9966278076172 -142.4380989074707
			vertex -42.71442413330078 -261.9966278076172 -138.70721435546875
			vertex -42.71442413330078 638.0033721923828 -138.70721435546875
		endloop
	endfacet
	facet normal -0.7730105095858146 0 -0.6343932156556211
		outer loop
			vertex -42.71442413330078 638.0033721923828 -138.70721435546875
			vertex -42.71442413330078 -261.9966278076172 -138.70721435546875
			vertex -46.445308685302734 638.0033721923828 -134.16111755371094
		endloop
	endfacet
	facet normal -0.7730105095858146 0 -0.6343932156556211
		outer loop
			vertex -42.71442413330078 -261.9966278076172 -138.70721435546875
			vertex -46.445308685302734 -261.9966278076172 -134.16111755371094
			vertex -46.445308685302734 638.0033721923828 -134.16111755371094
		endloop
	endfacet
	facet normal -0.8819211611615523 0 -0.4713969298748771
		outer loop
			vertex -46.445308685302734 638.0033721923828 -134.16111755371094
			vertex -46.445308685302734 -261.9966278076172 -134.16111755371094
			vertex -49.217607498168945 638.0033721923828 -128.97451400756836
		endloop
	endfacet
	facet normal -0.8819211611615523 0 -0.4713969298748771
		outer loop
			vertex -46.445308685302734 -261.9966278076172 -134.16111755371094
			vertex -49.217607498168945 -261.9966278076172 -128.97451400756836
			vertex -49.217607498168945 638.0033721923828 -128.97451400756836
		endloop
	endfacet
	facet normal -0.956940337784343 0 -0.2902846704894831
		outer loop
			vertex -49.217607498168945 638.0033721923828 -128.97451400756836
			vertex -49.217607498168945 -261.9966278076172 -128.97451400756836
			vertex -50.92477989196777 638.0033721923828 -123.3467206954956
		endloop
	endfacet
	facet normal -0.956940337784343 0 -0.2902846704894831
		outer loop
			vertex -49.217607498168945 -261.9966278076172 -128.97451400756836
			vertex -50.92477989196777 -261.9966278076172 -123.3467206954956
			vertex -50.92477989196777 638.0033721923828 -123.3467206954956
		endloop
	endfacet
	facet normal -0.9951847397348537 0 -0.09801700770209064
		outer loop
			vertex -50.92477989196777 638.0033721923828 -123.3467206954956
			vertex -50.92477989196777 -261.9966278076172 -123.3467206954956
			vertex -51.501220703125 638.0033721923828 -117.49401092529297
		endloop
	endfacet
	facet normal -0.9951847397348537 0 -0.09801700770209064
		outer loop
			vertex -50.92477989196777 -261.9966278076172 -123.3467206954956
			vertex -51.501220703125 -261.9966278076172 -117.49401092529297
			vertex -51.501220703125 638.0033721923828 -117.49401092529297
		endloop
	endfacet
	facet normal -0.9951847397348537 0 0.09801700770209046
		outer loop
			vertex -51.501220703125 638.0033721923828 -117.49401092529297
			vertex -51.501220703125 -261.9966278076172 -117.49401092529297
			vertex -50.92477989196777 638.0033721923828 -111.64130115509033
		endloop
	endfacet
	facet normal -0.9951847397348537 0 0.09801700770209046
		outer loop
			vertex -51.501220703125 -261.9966278076172 -117.49401092529297
			vertex -50.92477989196777 -261.9966278076172 -111.64130115509033
			vertex -50.92477989196777 638.0033721923828 -111.64130115509033
		endloop
	endfacet
	facet normal -0.956940337784343 0 0.2902846704894831
		outer loop
			vertex -50.92477989196777 638.0033721923828 -111.64130115509033
			vertex -50.92477989196777 -261.9966278076172 -111.64130115509033
			vertex -49.217607498168945 638.0033721923828 -106.01350784301758
		endloop
	endfacet
	facet normal -0.956940337784343 0 0.2902846704894831
		outer loop
			vertex -50.92477989196777 -261.9966278076172 -111.64130115509033
			vertex -49.217607498168945 -261.9966278076172 -106.01350784301758
			vertex -49.217607498168945 638.0033721923828 -106.01350784301758
		endloop
	endfacet
	facet normal -0.8819211611615523 0 0.4713969298748771
		outer loop
			vertex -49.217607498168945 638.0033721923828 -106.01350784301758
			vertex -49.217607498168945 -261.9966278076172 -106.01350784301758
			vertex -46.445308685302734 638.0033721923828 -100.826904296875
		endloop
	endfacet
	facet normal -0.8819211611615523 0 0.4713969298748771
		outer loop
			vertex -49.217607498168945 -261.9966278076172 -106.01350784301758
			vertex -46.445308685302734 -261.9966278076172 -100.826904296875
			vertex -46.445308685302734 638.0033721923828 -100.826904296875
		endloop
	endfacet
	facet normal -0.7730105095858146 0 0.6343932156556211
		outer loop
			vertex -46.445308685302734 638.0033721923828 -100.826904296875
			vertex -46.445308685302734 -261.9966278076172 -100.826904296875
			vertex -42.71442413330078 638.0033721923828 -96.28080749511719
		endloop
	endfacet
	facet normal -0.7730105095858146 0 0.6343932156556211
		outer loop
			vertex -46.445308685302734 -261.9966278076172 -100.826904296875
			vertex -42.71442413330078 -261.9966278076172 -96.28080749511719
			vertex -42.71442413330078 638.0033721923828 -96.28080749511719
		endloop
	endfacet
	facet normal -0.6343932156556211 0 0.7730105095858146
		outer loop
			vertex -42.71442413330078 638.0033721923828 -96.28080749511719
			vertex -42.71442413330078 -261.9966278076172 -96.28080749511719
			vertex -38.16832733154297 638.0033721923828 -92.54992294311523
		endloop
	endfacet
	facet normal -0.6343932156556211 0 0.7730105095858146
		outer loop
			vertex -42.71442413330078 -261.9966278076172 -96.28080749511719
			vertex -38.16832733154297 -261.9966278076172 -92.54992294311523
			vertex -38.16832733154297 638.0033721923828 -92.54992294311523
		endloop
	endfacet
	facet normal -0.4713969298748771 0 0.8819211611615523
		outer loop
			vertex -38.16832733154297 638.0033721923828 -92.54992294311523
			vertex -38.16832733154297 -261.9966278076172 -92.54992294311523
			vertex -32.98172378540039 638.0033721923828 -89.77762413024902
		endloop
	endfacet
	facet normal -0.4713969298748771 0 0.8819211611615523
		outer loop
			vertex -38.16832733154297 -261.9966278076172 -92.54992294311523
			vertex -32.98172378540039 -261.9966278076172 -89.77762413024902
			vertex -32.98172378540039 638.0033721923828 -89.77762413024902
		endloop
	endfacet
	facet normal -0.2902846704894831 0 0.956940337784343
		outer loop
			vertex -32.98172378540039 638.0033721923828 -89.77762413024902
			vertex -32.98172378540039 -261.9966278076172 -89.77762413024902
			vertex -27.353930473327637 638.0033721923828 -88.0704517364502
		endloop
	endfacet
	facet normal -0.2902846704894831 0 0.956940337784343
		outer loop
			vertex -32.98172378540039 -261.9966278076172 -89.77762413024902
			vertex -27.353930473327637 -261.9966278076172 -88.0704517364502
			vertex -27.353930473327637 638.0033721923828 -88.0704517364502
		endloop
	endfacet
	facet normal -0.09801700770209067 0 0.9951847397348537
		outer loop
			vertex -27.353930473327637 638.0033721923828 -88.0704517364502
			vertex -27.353930473327637 -261.9966278076172 -88.0704517364502
			vertex 178.498779296875 638.0033721923828 -87.49401092529297
		endloop
	endfacet
	facet normal -0.09801700770209067 0 0.9951847397348537
		outer loop
			vertex -27.353930473327637 -261.9966278076172 -88.0704517364502
			vertex 178.498779296875 -261.9966278076172 -87.49401092529297
			vertex 178.498779296875 638.0033721923828 -87.49401092529297
		endloop
	endfacet
	facet normal 0 1 0
		outer loop
			vertex 178.498779296875 638.0033721923828 -87.49401092529297
			vertex 384.35148906707764 638.0033721923828 -88.0704517364502
			vertex 178.498779296875 638.0033721923828 -117.49401092529297
		endloop
	endfacet
	facet normal 0 1 0
		outer loop
			vertex 384.35148906707764 638.0033721923828 -88.0704517364502
			vertex 389.9792823791504 638.0033721923828 -89.77762413024902
			vertex 178.498779296875 638.0033721923828 -117.49401092529297
		endloop
	endfacet
	facet normal 0 1 0
		outer loop
			vertex 389.9792823791504 638.0033721923828 -89.77762413024902
			vertex 395.16588592529297 638.0033721923828 -92.54992294311523
			vertex 178.498779296875 638.0033721923828 -117.49401092529297
		endloop
	endfacet
	facet normal 0 1 0
		outer loop
			vertex 395.16588592529297 638.0033721923828 -92.54992294311523
			vertex 399.7119827270508 638.0033721923828 -96.28080749511719
			vertex 178.498779296875 638.0033721923828 -117.49401092529297
		endloop
	endfacet
	facet normal 0 1 0
		outer loop
			vertex 399.7119827270508 638.0033721923828 -96.28080749511719
			vertex 403.44286727905273 638.0033721923828 -100.826904296875
			vertex 178.498779296875 638.0033721923828 -117.49401092529297
		endloop
	endfacet
	facet normal 0 1 0
		outer loop
			vertex 403.44286727905273 638.0033721923828 -100.826904296875
			vertex 406.21516609191895 638.0033721923828 -106.01350784301758
			vertex 178.498779296875 638.0033721923828 -117.49401092529297
		endloop
	endfacet
	facet normal 0 1 0
		outer loop
			vertex 406.21516609191895 638.0033721923828 -106.01350784301758
			vertex 407.9223384857178 638.0033721923828 -111.64130115509033
			vertex 178.498779296875 638.0033721923828 -117.49401092529297
		endloop
	endfacet
	facet normal 0 1 0
		outer loop
			vertex 407.9223384857178 638.0033721923828 -111.64130115509033
			vertex 408.498779296875 638.0033721923828 -117.49401092529297
			vertex 178.498779296875 638.0033721923828 -117.49401092529297
		endloop
	endfacet
	facet normal 0 1 0
		outer loop
			vertex 408.498779296875 638.0033721923828 -117.49401092529297
			vertex 407.9223384857178 638.0033721923828 -123.3467206954956
			vertex 178.498779296875 638.0033721923828 -117.49401092529297
		endloop
	endfacet
	facet normal 0 1 0
		outer loop
			vertex 407.9223384857178 638.0033721923828 -123.3467206954956
			vertex 406.21516609191895 638.0033721923828 -128.97451400756836
			vertex 178.498779296875 638.0033721923828 -117.49401092529297
		endloop
	endfacet
	facet normal 0 1 0
		outer loop
			vertex 406.21516609191895 638.0033721923828 -128.97451400756836
			vertex 403.44286727905273 638.0033721923828 -134.16111755371094
			vertex 178.498779296875 638.0033721923828 -117.49401092529297
		endloop
	endfacet
	facet normal 0 1 0
		outer loop
			vertex 403.44286727905273 638.0033721923828 -134.16111755371094
			vertex 399.7119827270508 638.0033721923828 -138.70721435546875
			vertex 178.498779296875 638.0033721923828 -117.49401092529297
		endloop
	endfacet
	facet normal 0 1 0
		outer loop
			vertex 399.7119827270508 638.0033721923828 -138.70721435546875
			vertex 395.16588592529297 638.0033721923828 -142.4380989074707
			vertex 178.498779296875 638.0033721923828 -117.49401092529297
		endloop
	endfacet
	facet normal 0 1 0
		outer loop
			vertex 395.16588592529297 638.0033721923828 -142.4380989074707
			vertex 389.9792823791504 638.0033721923828 -145.2103977203369
			vertex 178.498779296875 638.0033721923828 -117.49401092529297
		endloop
	endfacet
	facet normal 0 1 0
		outer loop
			vertex 389.9792823791504 638.0033721923828 -145.2103977203369
			vertex 384.35148906707764 638.0033721923828 -146.91757011413574
			vertex 178.498779296875 638.0033721923828 -117.49401092529297
		endloop
	endfacet
	facet normal 0 1 0
		outer loop
			vertex 384.35148906707764 638.0033721923828 -146.91757011413574
			vertex 378.498779296875 638.0033721923828 -147.49401092529297
			vertex 178.498779296875 638.0033721923828 -117.49401092529297
		endloop
	endfacet
	facet normal 0 1 0
		outer loop
			vertex 378.498779296875 638.0033721923828 -147.49401092529297
			vertex -27.353930473327637 638.0033721923828 -146.91757011413574
			vertex 178.498779296875 638.0033721923828 -117.49401092529297
		endloop
	endfacet
	facet normal 0 1 0
		outer loop
			vertex -27.353930473327637 638.0033721923828 -146.91757011413574
			vertex -32.98172378540039 638.0033721923828 -145.2103977203369
			vertex 178.498779296875 638.0033721923828 -117.49401092529297
		endloop
	endfacet
	facet normal 0 1 0
		outer loop
			vertex -32.98172378540039 638.0033721923828 -145.2103977203369
			vertex -38.16832733154297 638.0033721923828 -142.4380989074707
			vertex 178.498779296875 638.0033721923828 -117.49401092529297
		endloop
	endfacet
	facet normal 0 1 0
		outer loop
			vertex -38.16832733154297 638.0033721923828 -142.4380989074707
			vertex -42.71442413330078 638.0033721923828 -138.70721435546875
			vertex 178.498779296875 638.0033721923828 -117.49401092529297
		endloop
	endfacet
	facet normal 0 1 0
		outer loop
			vertex -42.71442413330078 638.0033721923828 -138.70721435546875
			vertex -46.445308685302734 638.0033721923828 -134.16111755371094
			vertex 178.498779296875 638.0033721923828 -117.49401092529297
		endloop
	endfacet
	facet normal 0 1 0
		outer loop
			vertex -46.445308685302734 638.0033721923828 -134.16111755371094
			vertex -49.217607498168945 638.0033721923828 -128.97451400756836
			vertex 178.498779296875 638.0033721923828 -117.49401092529297
		endloop
	endfacet
	facet normal 0 1 0
		outer loop
			vertex -49.217607498168945 638.0033721923828 -128.97451400756836
			vertex -50.92477989196777 638.0033721923828 -123.3467206954956
			vertex 178.498779296875 638.0033721923828 -117.49401092529297
		endloop
	endfacet
	facet normal 0 1 0
		outer loop
			vertex -50.92477989196777 638.0033721923828 -123.3467206954956
			vertex -51.501220703125 638.0033721923828 -117.49401092529297
			vertex 178.498779296875 638.0033721923828 -117.49401092529297
		endloop
	endfacet
	facet normal 0 1 0
		outer loop
			vertex -51.501220703125 638.0033721923828 -117.49401092529297
			vertex -50.92477989196777 638.0033721923828 -111.64130115509033
			vertex 178.498779296875 638.0033721923828 -117.49401092529297
		endloop
	endfacet
	facet normal 0 1 0
		outer loop
			vertex -50.92477989196777 638.0033721923828 -111.64130115509033
			vertex -49.217607498168945 638.0033721923828 -106.01350784301758
			vertex 178.498779296875 638.0033721923828 -117.49401092529297
		endloop
	endfacet
	facet normal 0 1 0
		outer loop
			vertex -49.217607498168945 638.0033721923828 -106.01350784301758
			vertex -46.445308685302734 638.0033721923828 -100.826904296875
			vertex 178.498779296875 638.0033721923828 -117.49401092529297
		endloop
	endfacet
	facet normal 0 1 0
		outer loop
			vertex -46.445308685302734 638.0033721923828 -100.826904296875
			vertex -42.71442413330078 638.0033721923828 -96.28080749511719
			vertex 178.498779296875 638.0033721923828 -117.49401092529297
		endloop
	endfacet
	facet normal 0 1 0
		outer loop
			vertex -42.71442413330078 638.0033721923828 -96.28080749511719
			vertex -38.16832733154297 638.0033721923828 -92.54992294311523
			vertex 178.498779296875 638.0033721923828 -117.49401092529297
		endloop
	endfacet
	facet normal 0 1 0
		outer loop
			vertex -38.16832733154297 638.0033721923828 -92.54992294311523
			vertex -32.98172378540039 638.0033721923828 -89.77762413024902
			vertex 178.498779296875 638.0033721923828 -117.49401092529297
		endloop
	endfacet
	facet normal 0 1 0
		outer loop
			vertex -32.98172378540039 638.0033721923828 -89.77762413024902
			vertex -27.353930473327637 638.0033721923828 -88.0704517364502
			vertex 178.498779296875 638.0033721923828 -117.49401092529297
		endloop
	endfacet
	facet normal 0 1 0
		outer loop
			vertex -27.353930473327637 638.0033721923828 -88.0704517364502
			vertex 178.498779296875 638.0033721923828 -87.49401092529297
			vertex 178.498779296875 638.0033721923828 -117.49401092529297
		endloop
	endfacet
	facet normal 0 -1 0
		outer loop
			vertex 384.35148906707764 -261.9966278076172 -88.0704517364502
			vertex 178.498779296875 -261.9966278076172 -87.49401092529297
			vertex 178.498779296875 -261.9966278076172 -117.49401092529297
		endloop
	endfacet
	facet normal 0 -1 0
		outer loop
			vertex 389.9792823791504 -261.9966278076172 -89.77762413024902
			vertex 384.35148906707764 -261.9966278076172 -88.0704517364502
			vertex 178.498779296875 -261.9966278076172 -117.49401092529297
		endloop
	endfacet
	facet normal 0 -1 0
		outer loop
			vertex 395.16588592529297 -261.9966278076172 -92.54992294311523
			vertex 389.9792823791504 -261.9966278076172 -89.77762413024902
			vertex 178.498779296875 -261.9966278076172 -117.49401092529297
		endloop
	endfacet
	facet normal 0 -1 0
		outer loop
			vertex 399.7119827270508 -261.9966278076172 -96.28080749511719
			vertex 395.16588592529297 -261.9966278076172 -92.54992294311523
			vertex 178.498779296875 -261.9966278076172 -117.49401092529297
		endloop
	endfacet
	facet normal 0 -1 0
		outer loop
			vertex 403.44286727905273 -261.9966278076172 -100.826904296875
			vertex 399.7119827270508 -261.9966278076172 -96.28080749511719
			vertex 178.498779296875 -261.9966278076172 -117.49401092529297
		endloop
	endfacet
	facet normal 0 -1 0
		outer loop
			vertex 406.21516609191895 -261.9966278076172 -106.01350784301758
			vertex 403.44286727905273 -261.9966278076172 -100.826904296875
			vertex 178.498779296875 -261.9966278076172 -117.49401092529297
		endloop
	endfacet
	facet normal 0 -1 0
		outer loop
			vertex 407.9223384857178 -261.9966278076172 -111.64130115509033
			vertex 406.21516609191895 -261.9966278076172 -106.01350784301758
			vertex 178.498779296875 -261.9966278076172 -117.49401092529297
		endloop
	endfacet
	facet normal 0 -1 0
		outer loop
			vertex 408.498779296875 -261.9966278076172 -117.49401092529297
			vertex 407.9223384857178 -261.9966278076172 -111.64130115509033
			vertex 178.498779296875 -261.9966278076172 -117.49401092529297
		endloop
	endfacet
	facet normal 0 -1 0
		outer loop
			vertex 407.9223384857178 -261.9966278076172 -123.3467206954956
			vertex 408.498779296875 -261.9966278076172 -117.49401092529297
			vertex 178.498779296875 -261.9966278076172 -117.49401092529297
		endloop
	endfacet
	facet normal 0 -1 0
		outer loop
			vertex 406.21516609191895 -261.9966278076172 -128.97451400756836
			vertex 407.9223384857178 -261.9966278076172 -123.3467206954956
			vertex 178.498779296875 -261.9966278076172 -117.49401092529297
		endloop
	endfacet
	facet normal 0 -1 0
		outer loop
			vertex 403.44286727905273 -261.9966278076172 -134.16111755371094
			vertex 406.21516609191895 -261.9966278076172 -128.97451400756836
			vertex 178.498779296875 -261.9966278076172 -117.49401092529297
		endloop
	endfacet
	facet normal 0 -1 0
		outer loop
			vertex 399.7119827270508 -261.9966278076172 -138.70721435546875
			vertex 403.44286727905273 -261.9966278076172 -134.16111755371094
			vertex 178.498779296875 -261.9966278076172 -117.49401092529297
		endloop
	endfacet
	facet normal 0 -1 0
		outer loop
			vertex 395.16588592529297 -261.9966278076172 -142.4380989074707
			vertex 399.7119827270508 -261.9966278076172 -138.70721435546875
			vertex 178.498779296875 -261.9966278076172 -117.49401092529297
		endloop
	endfacet
	facet normal 0 -1 0
		outer loop
			vertex 389.9792823791504 -261.9966278076172 -145.2103977203369
			vertex 395.16588592529297 -261.9966278076172 -142.4380989074707
			vertex 178.498779296875 -261.9966278076172 -117.49401092529297
		endloop
	endfacet
	facet normal 0 -1 0
		outer loop
			vertex 384.35148906707764 -261.9966278076172 -146.91757011413574
			vertex 389.9792823791504 -261.9966278076172 -145.2103977203369
			vertex 178.498779296875 -261.9966278076172 -117.49401092529297
		endloop
	endfacet
	facet normal 0 -1 0
		outer loop
			vertex 378.498779296875 -261.9966278076172 -147.49401092529297
			vertex 384.35148906707764 -261.9966278076172 -146.91757011413574
			vertex 178.498779296875 -261.9966278076172 -117.49401092529297
		endloop
	endfacet
	facet normal 0 -1 0
		outer loop
			vertex -27.353930473327637 -261.9966278076172 -146.91757011413574
			vertex 378.498779296875 -261.9966278076172 -147.49401092529297
			vertex 178.498779296875 -261.9966278076172 -117.49401092529297
		endloop
	endfacet
	facet normal 0 -1 0
		outer loop
			vertex -32.98172378540039 -261.9966278076172 -145.2103977203369
			vertex -27.353930473327637 -261.9966278076172 -146.91757011413574
			vertex 178.498779296875 -261.9966278076172 -117.49401092529297
		endloop
	endfacet
	facet normal 0 -1 0
		outer loop
			vertex -38.16832733154297 -261.9966278076172 -142.4380989074707
			vertex -32.98172378540039 -261.9966278076172 -145.2103977203369
			vertex 178.498779296875 -261.9966278076172 -117.49401092529297
		endloop
	endfacet
	facet normal 0 -1 0
		outer loop
			vertex -42.71442413330078 -261.9966278076172 -138.70721435546875
			vertex -38.16832733154297 -261.9966278076172 -142.4380989074707
			vertex 178.498779296875 -261.9966278076172 -117.49401092529297
		endloop
	endfacet
	facet normal 0 -1 0
		outer loop
			vertex -46.445308685302734 -261.9966278076172 -134.16111755371094
			vertex -42.71442413330078 -261.9966278076172 -138.70721435546875
			vertex 178.498779296875 -261.9966278076172 -117.49401092529297
		endloop
	endfacet
	facet normal 0 -1 0
		outer loop
			vertex -49.217607498168945 -261.9966278076172 -128.97451400756836
			vertex -46.445308685302734 -261.9966278076172 -134.16111755371094
			vertex 178.498779296875 -261.9966278076172 -117.49401092529297
		endloop
	endfacet
	facet normal 0 -1 0
		outer loop
			vertex -50.92477989196777 -261.9966278076172 -123.3467206954956
			vertex -49.217607498168945 -261.9966278076172 -128.97451400756836
			vertex 178.498779296875 -261.9966278076172 -117.49401092529297
		endloop
	endfacet
	facet normal 0 -1 0
		outer loop
			vertex -51.501220703125 -261.9966278076172 -117.49401092529297
			vertex -50.92477989196777 -261.9966278076172 -123.3467206954956
			vertex 178.498779296875 -261.9966278076172 -117.49401092529297
		endloop
	endfacet
	facet normal 0 -1 0
		outer loop
			vertex -50.92477989196777 -261.9966278076172 -111.64130115509033
			vertex -51.501220703125 -261.9966278076172 -117.49401092529297
			vertex 178.498779296875 -261.9966278076172 -117.49401092529297
		endloop
	endfacet
	facet normal 0 -1 0
		outer loop
			vertex -49.217607498168945 -261.9966278076172 -106.01350784301758
			vertex -50.92477989196777 -261.9966278076172 -111.64130115509033
			vertex 178.498779296875 -261.9966278076172 -117.49401092529297
		endloop
	endfacet
	facet normal 0 -1 0
		outer loop
			vertex -46.445308685302734 -261.9966278076172 -100.826904296875
			vertex -49.217607498168945 -261.9966278076172 -106.01350784301758
			vertex 178.498779296875 -261.9966278076172 -117.49401092529297
		endloop
	endfacet
	facet normal 0 -1 0
		outer loop
			vertex -42.71442413330078 -261.9966278076172 -96.28080749511719
			vertex -46.445308685302734 -261.9966278076172 -100.826904296875
			vertex 178.498779296875 -261.9966278076172 -117.49401092529297
		endloop
	endfacet
	facet normal 0 -1 0
		outer loop
			vertex -38.16832733154297 -261.9966278076172 -92.54992294311523
			vertex -42.71442413330078 -261.9966278076172 -96.28080749511719
			vertex 178.498779296875 -261.9966278076172 -117.49401092529297
		endloop
	endfacet
	facet normal 0 -1 0
		outer loop
			vertex -32.98172378540039 -261.9966278076172 -89.77762413024902
			vertex -38.16832733154297 -261.9966278076172 -92.54992294311523
			vertex 178.498779296875 -261.9966278076172 -117.49401092529297
		endloop
	endfacet
	facet normal 0 -1 0
		outer loop
			vertex -27.353930473327637 -261.9966278076172 -88.0704517364502
			vertex -32.98172378540039 -261.9966278076172 -89.77762413024902
			vertex 178.498779296875 -261.9966278076172 -117.49401092529297
		endloop
	endfacet
	facet normal 0 -1 0
		outer loop
			vertex 178.498779296875 -261.9966278076172 -87.49401092529297
			vertex -27.353930473327637 -261.9966278076172 -88.0704517364502
			vertex 178.498779296875 -261.9966278076172 -117.49401092529297
		endloop
	endfacet
endsolid exported
