solid exported
	facet normal 1 0 0
		outer loop
			vertex 232.86209106445312 437.4390563964844 -149.61279296875
			vertex 232.86209106445312 337.4390563964844 -149.61279296875
			vertex 232.86209106445312 437.4390563964844 -249.61279296875
		endloop
	endfacet
	facet normal 1 0 0
		outer loop
			vertex 232.86209106445312 337.4390563964844 -149.61279296875
			vertex 232.86209106445312 337.4390563964844 -249.61279296875
			vertex 232.86209106445312 437.4390563964844 -249.61279296875
		endloop
	endfacet
	facet normal -1 0 0
		outer loop
			vertex 132.86209106445312 437.4390563964844 -249.61279296875
			vertex 132.86209106445312 337.4390563964844 -249.61279296875
			vertex 132.86209106445312 437.4390563964844 -149.61279296875
		endloop
	endfacet
	facet normal -1 0 0
		outer loop
			vertex 132.86209106445312 337.4390563964844 -249.61279296875
			vertex 132.86209106445312 337.4390563964844 -149.61279296875
			vertex 132.86209106445312 437.4390563964844 -149.61279296875
		endloop
	endfacet
	facet normal 0 1 0
		outer loop
			vertex 132.86209106445312 437.4390563964844 -249.61279296875
			vertex 132.86209106445312 437.4390563964844 -149.61279296875
			vertex 232.86209106445312 437.4390563964844 -249.61279296875
		endloop
	endfacet
	facet normal 0 1 0
		outer loop
			vertex 132.86209106445312 437.4390563964844 -149.61279296875
			vertex 232.86209106445312 437.4390563964844 -149.61279296875
			vertex 232.86209106445312 437.4390563964844 -249.61279296875
		endloop
	endfacet
	facet normal 0 -1 0
		outer loop
			vertex 132.86209106445312 337.4390563964844 -149.61279296875
			vertex 132.86209106445312 337.4390563964844 -249.61279296875
			vertex 232.86209106445312 337.4390563964844 -149.61279296875
		endloop
	endfacet
	facet normal 0 -1 0
		outer loop
			vertex 132.86209106445312 337.4390563964844 -249.61279296875
			vertex 232.86209106445312 337.4390563964844 -249.61279296875
			vertex 232.86209106445312 337.4390563964844 -149.61279296875
		endloop
	endfacet
	facet normal 0 0 1
		outer loop
			vertex 132.86209106445312 437.4390563964844 -149.61279296875
			vertex 132.86209106445312 337.4390563964844 -149.61279296875
			vertex 232.86209106445312 437.4390563964844 -149.61279296875
		endloop
	endfacet
	facet normal 0 0 1
		outer loop
			vertex 132.86209106445312 337.4390563964844 -149.61279296875
			vertex 232.86209106445312 337.4390563964844 -149.61279296875
			vertex 232.86209106445312 437.4390563964844 -149.61279296875
		endloop
	endfacet
	facet normal 0 0 -1
		outer loop
			vertex 232.86209106445312 437.4390563964844 -249.61279296875
			vertex 232.86209106445312 337.4390563964844 -249.61279296875
			vertex 132.86209106445312 437.4390563964844 -249.61279296875
		endloop
	endfacet
	facet normal 0 0 -1
		outer loop
			vertex 232.86209106445312 337.4390563964844 -249.61279296875
			vertex 132.86209106445312 337.4390563964844 -249.61279296875
			vertex 132.86209106445312 437.4390563964844 -249.61279296875
		endloop
	endfacet
endsolid exported
