solid exported
	facet normal 1 0 0
		outer loop
			vertex 250 200 -50
			vertex 250 0 -50
			vertex 250 200 -250
		endloop
	endfacet
	facet normal 1 0 0
		outer loop
			vertex 250 0 -50
			vertex 250 0 -250
			vertex 250 200 -250
		endloop
	endfacet
	facet normal -1 0 0
		outer loop
			vertex 50 200 -250
			vertex 50 0 -250
			vertex 50 200 -50
		endloop
	endfacet
	facet normal -1 0 0
		outer loop
			vertex 50 0 -250
			vertex 50 0 -50
			vertex 50 200 -50
		endloop
	endfacet
	facet normal 0 1 0
		outer loop
			vertex 50 200 -250
			vertex 50 200 -50
			vertex 250 200 -250
		endloop
	endfacet
	facet normal 0 1 0
		outer loop
			vertex 50 200 -50
			vertex 250 200 -50
			vertex 250 200 -250
		endloop
	endfacet
	facet normal 0 -1 0
		outer loop
			vertex 50 0 -50
			vertex 50 0 -250
			vertex 250 0 -50
		endloop
	endfacet
	facet normal 0 -1 0
		outer loop
			vertex 50 0 -250
			vertex 250 0 -250
			vertex 250 0 -50
		endloop
	endfacet
	facet normal 0 0 1
		outer loop
			vertex 50 200 -50
			vertex 50 0 -50
			vertex 250 200 -50
		endloop
	endfacet
	facet normal 0 0 1
		outer loop
			vertex 50 0 -50
			vertex 250 0 -50
			vertex 250 200 -50
		endloop
	endfacet
	facet normal 0 0 -1
		outer loop
			vertex 250 200 -250
			vertex 250 0 -250
			vertex 50 200 -250
		endloop
	endfacet
	facet normal 0 0 -1
		outer loop
			vertex 250 0 -250
			vertex 50 0 -250
			vertex 50 200 -250
		endloop
	endfacet
endsolid exported
