solid exported
	facet normal 1 0 0
		outer loop
			vertex -209.43878173828125 53.791131258010864 56.81511068344116
			vertex -209.43878173828125 -46.208868741989136 56.81511068344116
			vertex -209.43878173828125 53.791131258010864 -43.18488931655884
		endloop
	endfacet
	facet normal 1 0 0
		outer loop
			vertex -209.43878173828125 -46.208868741989136 56.81511068344116
			vertex -209.43878173828125 -46.208868741989136 -43.18488931655884
			vertex -209.43878173828125 53.791131258010864 -43.18488931655884
		endloop
	endfacet
	facet normal -1 0 0
		outer loop
			vertex -309.43878173828125 53.791131258010864 -43.18488931655884
			vertex -309.43878173828125 -46.208868741989136 -43.18488931655884
			vertex -309.43878173828125 53.791131258010864 56.81511068344116
		endloop
	endfacet
	facet normal -1 0 0
		outer loop
			vertex -309.43878173828125 -46.208868741989136 -43.18488931655884
			vertex -309.43878173828125 -46.208868741989136 56.81511068344116
			vertex -309.43878173828125 53.791131258010864 56.81511068344116
		endloop
	endfacet
	facet normal 0 1 0
		outer loop
			vertex -309.43878173828125 53.791131258010864 -43.18488931655884
			vertex -309.43878173828125 53.791131258010864 56.81511068344116
			vertex -209.43878173828125 53.791131258010864 -43.18488931655884
		endloop
	endfacet
	facet normal 0 1 0
		outer loop
			vertex -309.43878173828125 53.791131258010864 56.81511068344116
			vertex -209.43878173828125 53.791131258010864 56.81511068344116
			vertex -209.43878173828125 53.791131258010864 -43.18488931655884
		endloop
	endfacet
	facet normal 0 -1 0
		outer loop
			vertex -309.43878173828125 -46.208868741989136 56.81511068344116
			vertex -309.43878173828125 -46.208868741989136 -43.18488931655884
			vertex -209.43878173828125 -46.208868741989136 56.81511068344116
		endloop
	endfacet
	facet normal 0 -1 0
		outer loop
			vertex -309.43878173828125 -46.208868741989136 -43.18488931655884
			vertex -209.43878173828125 -46.208868741989136 -43.18488931655884
			vertex -209.43878173828125 -46.208868741989136 56.81511068344116
		endloop
	endfacet
	facet normal 0 0 1
		outer loop
			vertex -309.43878173828125 53.791131258010864 56.81511068344116
			vertex -309.43878173828125 -46.208868741989136 56.81511068344116
			vertex -209.43878173828125 53.791131258010864 56.81511068344116
		endloop
	endfacet
	facet normal 0 0 1
		outer loop
			vertex -309.43878173828125 -46.208868741989136 56.81511068344116
			vertex -209.43878173828125 -46.208868741989136 56.81511068344116
			vertex -209.43878173828125 53.791131258010864 56.81511068344116
		endloop
	endfacet
	facet normal 0 0 -1
		outer loop
			vertex -209.43878173828125 53.791131258010864 -43.18488931655884
			vertex -209.43878173828125 -46.208868741989136 -43.18488931655884
			vertex -309.43878173828125 53.791131258010864 -43.18488931655884
		endloop
	endfacet
	facet normal 0 0 -1
		outer loop
			vertex -209.43878173828125 -46.208868741989136 -43.18488931655884
			vertex -309.43878173828125 -46.208868741989136 -43.18488931655884
			vertex -309.43878173828125 53.791131258010864 -43.18488931655884
		endloop
	endfacet
endsolid exported
