solid exported
	facet normal 0.09801700770209056 0 0.9951847397348538
		outer loop
			vertex 0 150 130
			vertex 0 -150 130
			vertex 205.85270977020264 150 129.42355918884277
		endloop
	endfacet
	facet normal 0.09801700770209056 0 0.9951847397348538
		outer loop
			vertex 0 -150 130
			vertex 205.85270977020264 -150 129.42355918884277
			vertex 205.85270977020264 150 129.42355918884277
		endloop
	endfacet
	facet normal 0.2902846704894831 0 0.956940337784343
		outer loop
			vertex 205.85270977020264 150 129.42355918884277
			vertex 205.85270977020264 -150 129.42355918884277
			vertex 211.4805030822754 150 127.71638679504395
		endloop
	endfacet
	facet normal 0.2902846704894831 0 0.956940337784343
		outer loop
			vertex 205.85270977020264 -150 129.42355918884277
			vertex 211.4805030822754 -150 127.71638679504395
			vertex 211.4805030822754 150 127.71638679504395
		endloop
	endfacet
	facet normal 0.4713969298748771 0 0.8819211611615523
		outer loop
			vertex 211.4805030822754 150 127.71638679504395
			vertex 211.4805030822754 -150 127.71638679504395
			vertex 216.66710662841797 150 124.94408798217773
		endloop
	endfacet
	facet normal 0.4713969298748771 0 0.8819211611615523
		outer loop
			vertex 211.4805030822754 -150 127.71638679504395
			vertex 216.66710662841797 -150 124.94408798217773
			vertex 216.66710662841797 150 124.94408798217773
		endloop
	endfacet
	facet normal 0.6343932156556211 0 0.7730105095858146
		outer loop
			vertex 216.66710662841797 150 124.94408798217773
			vertex 216.66710662841797 -150 124.94408798217773
			vertex 221.21320343017578 150 121.21320343017578
		endloop
	endfacet
	facet normal 0.6343932156556211 0 0.7730105095858146
		outer loop
			vertex 216.66710662841797 -150 124.94408798217773
			vertex 221.21320343017578 -150 121.21320343017578
			vertex 221.21320343017578 150 121.21320343017578
		endloop
	endfacet
	facet normal 0.7730105095858146 0 0.6343932156556211
		outer loop
			vertex 221.21320343017578 150 121.21320343017578
			vertex 221.21320343017578 -150 121.21320343017578
			vertex 224.94408798217773 150 116.66710662841797
		endloop
	endfacet
	facet normal 0.7730105095858146 0 0.6343932156556211
		outer loop
			vertex 221.21320343017578 -150 121.21320343017578
			vertex 224.94408798217773 -150 116.66710662841797
			vertex 224.94408798217773 150 116.66710662841797
		endloop
	endfacet
	facet normal 0.8819211611615523 0 0.4713969298748771
		outer loop
			vertex 224.94408798217773 150 116.66710662841797
			vertex 224.94408798217773 -150 116.66710662841797
			vertex 227.71638679504395 150 111.48050308227539
		endloop
	endfacet
	facet normal 0.8819211611615523 0 0.4713969298748771
		outer loop
			vertex 224.94408798217773 -150 116.66710662841797
			vertex 227.71638679504395 -150 111.48050308227539
			vertex 227.71638679504395 150 111.48050308227539
		endloop
	endfacet
	facet normal 0.956940337784343 0 0.2902846704894831
		outer loop
			vertex 227.71638679504395 150 111.48050308227539
			vertex 227.71638679504395 -150 111.48050308227539
			vertex 229.42355918884277 150 105.85270977020264
		endloop
	endfacet
	facet normal 0.956940337784343 0 0.2902846704894831
		outer loop
			vertex 227.71638679504395 -150 111.48050308227539
			vertex 229.42355918884277 -150 105.85270977020264
			vertex 229.42355918884277 150 105.85270977020264
		endloop
	endfacet
	facet normal 0.9951847397348537 0 0.0980170077020906
		outer loop
			vertex 229.42355918884277 150 105.85270977020264
			vertex 229.42355918884277 -150 105.85270977020264
			vertex 230 150 100
		endloop
	endfacet
	facet normal 0.9951847397348537 0 0.0980170077020906
		outer loop
			vertex 229.42355918884277 -150 105.85270977020264
			vertex 230 -150 100
			vertex 230 150 100
		endloop
	endfacet
	facet normal 0.9951847397348538 0 -0.09801700770209051
		outer loop
			vertex 230 150 100
			vertex 230 -150 100
			vertex 229.42355918884277 150 -105.85270977020264
		endloop
	endfacet
	facet normal 0.9951847397348538 0 -0.09801700770209051
		outer loop
			vertex 230 -150 100
			vertex 229.42355918884277 -150 -105.85270977020264
			vertex 229.42355918884277 150 -105.85270977020264
		endloop
	endfacet
	facet normal 0.956940337784343 0 -0.2902846704894831
		outer loop
			vertex 229.42355918884277 150 -105.85270977020264
			vertex 229.42355918884277 -150 -105.85270977020264
			vertex 227.71638679504395 150 -111.48050308227539
		endloop
	endfacet
	facet normal 0.956940337784343 0 -0.2902846704894831
		outer loop
			vertex 229.42355918884277 -150 -105.85270977020264
			vertex 227.71638679504395 -150 -111.48050308227539
			vertex 227.71638679504395 150 -111.48050308227539
		endloop
	endfacet
	facet normal 0.8819211611615523 0 -0.4713969298748771
		outer loop
			vertex 227.71638679504395 150 -111.48050308227539
			vertex 227.71638679504395 -150 -111.48050308227539
			vertex 224.94408798217773 150 -116.66710662841797
		endloop
	endfacet
	facet normal 0.8819211611615523 0 -0.4713969298748771
		outer loop
			vertex 227.71638679504395 -150 -111.48050308227539
			vertex 224.94408798217773 -150 -116.66710662841797
			vertex 224.94408798217773 150 -116.66710662841797
		endloop
	endfacet
	facet normal 0.7730105095858146 0 -0.6343932156556211
		outer loop
			vertex 224.94408798217773 150 -116.66710662841797
			vertex 224.94408798217773 -150 -116.66710662841797
			vertex 221.21320343017578 150 -121.21320343017578
		endloop
	endfacet
	facet normal 0.7730105095858146 0 -0.6343932156556211
		outer loop
			vertex 224.94408798217773 -150 -116.66710662841797
			vertex 221.21320343017578 -150 -121.21320343017578
			vertex 221.21320343017578 150 -121.21320343017578
		endloop
	endfacet
	facet normal 0.6343932156556211 0 -0.7730105095858146
		outer loop
			vertex 221.21320343017578 150 -121.21320343017578
			vertex 221.21320343017578 -150 -121.21320343017578
			vertex 216.66710662841797 150 -124.94408798217773
		endloop
	endfacet
	facet normal 0.6343932156556211 0 -0.7730105095858146
		outer loop
			vertex 221.21320343017578 -150 -121.21320343017578
			vertex 216.66710662841797 -150 -124.94408798217773
			vertex 216.66710662841797 150 -124.94408798217773
		endloop
	endfacet
	facet normal 0.4713969298748771 0 -0.8819211611615523
		outer loop
			vertex 216.66710662841797 150 -124.94408798217773
			vertex 216.66710662841797 -150 -124.94408798217773
			vertex 211.4805030822754 150 -127.71638679504395
		endloop
	endfacet
	facet normal 0.4713969298748771 0 -0.8819211611615523
		outer loop
			vertex 216.66710662841797 -150 -124.94408798217773
			vertex 211.4805030822754 -150 -127.71638679504395
			vertex 211.4805030822754 150 -127.71638679504395
		endloop
	endfacet
	facet normal 0.2902846704894831 0 -0.956940337784343
		outer loop
			vertex 211.4805030822754 150 -127.71638679504395
			vertex 211.4805030822754 -150 -127.71638679504395
			vertex 205.85270977020264 150 -129.42355918884277
		endloop
	endfacet
	facet normal 0.2902846704894831 0 -0.956940337784343
		outer loop
			vertex 211.4805030822754 -150 -127.71638679504395
			vertex 205.85270977020264 -150 -129.42355918884277
			vertex 205.85270977020264 150 -129.42355918884277
		endloop
	endfacet
	facet normal 0.0980170077020906 0 -0.9951847397348537
		outer loop
			vertex 205.85270977020264 150 -129.42355918884277
			vertex 205.85270977020264 -150 -129.42355918884277
			vertex 200 150 -130
		endloop
	endfacet
	facet normal 0.0980170077020906 0 -0.9951847397348537
		outer loop
			vertex 205.85270977020264 -150 -129.42355918884277
			vertex 200 -150 -130
			vertex 200 150 -130
		endloop
	endfacet
	facet normal -0.09801700770209049 0 -0.9951847397348537
		outer loop
			vertex 200 150 -130
			vertex 200 -150 -130
			vertex -205.85270977020264 150 -129.42355918884277
		endloop
	endfacet
	facet normal -0.09801700770209049 0 -0.9951847397348537
		outer loop
			vertex 200 -150 -130
			vertex -205.85270977020264 -150 -129.42355918884277
			vertex -205.85270977020264 150 -129.42355918884277
		endloop
	endfacet
	facet normal -0.2902846704894831 0 -0.956940337784343
		outer loop
			vertex -205.85270977020264 150 -129.42355918884277
			vertex -205.85270977020264 -150 -129.42355918884277
			vertex -211.4805030822754 150 -127.71638679504395
		endloop
	endfacet
	facet normal -0.2902846704894831 0 -0.956940337784343
		outer loop
			vertex -205.85270977020264 -150 -129.42355918884277
			vertex -211.4805030822754 -150 -127.71638679504395
			vertex -211.4805030822754 150 -127.71638679504395
		endloop
	endfacet
	facet normal -0.4713969298748771 0 -0.8819211611615523
		outer loop
			vertex -211.4805030822754 150 -127.71638679504395
			vertex -211.4805030822754 -150 -127.71638679504395
			vertex -216.66710662841797 150 -124.94408798217773
		endloop
	endfacet
	facet normal -0.4713969298748771 0 -0.8819211611615523
		outer loop
			vertex -211.4805030822754 -150 -127.71638679504395
			vertex -216.66710662841797 -150 -124.94408798217773
			vertex -216.66710662841797 150 -124.94408798217773
		endloop
	endfacet
	facet normal -0.6343932156556211 0 -0.7730105095858146
		outer loop
			vertex -216.66710662841797 150 -124.94408798217773
			vertex -216.66710662841797 -150 -124.94408798217773
			vertex -221.21320343017578 150 -121.21320343017578
		endloop
	endfacet
	facet normal -0.6343932156556211 0 -0.7730105095858146
		outer loop
			vertex -216.66710662841797 -150 -124.94408798217773
			vertex -221.21320343017578 -150 -121.21320343017578
			vertex -221.21320343017578 150 -121.21320343017578
		endloop
	endfacet
	facet normal -0.7730105095858146 0 -0.6343932156556211
		outer loop
			vertex -221.21320343017578 150 -121.21320343017578
			vertex -221.21320343017578 -150 -121.21320343017578
			vertex -224.94408798217773 150 -116.66710662841797
		endloop
	endfacet
	facet normal -0.7730105095858146 0 -0.6343932156556211
		outer loop
			vertex -221.21320343017578 -150 -121.21320343017578
			vertex -224.94408798217773 -150 -116.66710662841797
			vertex -224.94408798217773 150 -116.66710662841797
		endloop
	endfacet
	facet normal -0.8819211611615523 0 -0.4713969298748771
		outer loop
			vertex -224.94408798217773 150 -116.66710662841797
			vertex -224.94408798217773 -150 -116.66710662841797
			vertex -227.71638679504395 150 -111.48050308227539
		endloop
	endfacet
	facet normal -0.8819211611615523 0 -0.4713969298748771
		outer loop
			vertex -224.94408798217773 -150 -116.66710662841797
			vertex -227.71638679504395 -150 -111.48050308227539
			vertex -227.71638679504395 150 -111.48050308227539
		endloop
	endfacet
	facet normal -0.956940337784343 0 -0.2902846704894831
		outer loop
			vertex -227.71638679504395 150 -111.48050308227539
			vertex -227.71638679504395 -150 -111.48050308227539
			vertex -229.42355918884277 150 -105.85270977020264
		endloop
	endfacet
	facet normal -0.956940337784343 0 -0.2902846704894831
		outer loop
			vertex -227.71638679504395 -150 -111.48050308227539
			vertex -229.42355918884277 -150 -105.85270977020264
			vertex -229.42355918884277 150 -105.85270977020264
		endloop
	endfacet
	facet normal -0.9951847397348537 0 -0.09801700770209064
		outer loop
			vertex -229.42355918884277 150 -105.85270977020264
			vertex -229.42355918884277 -150 -105.85270977020264
			vertex -230 150 -100
		endloop
	endfacet
	facet normal -0.9951847397348537 0 -0.09801700770209064
		outer loop
			vertex -229.42355918884277 -150 -105.85270977020264
			vertex -230 -150 -100
			vertex -230 150 -100
		endloop
	endfacet
	facet normal -0.9951847397348537 0 0.09801700770209046
		outer loop
			vertex -230 150 -100
			vertex -230 -150 -100
			vertex -229.42355918884277 150 105.85270977020264
		endloop
	endfacet
	facet normal -0.9951847397348537 0 0.09801700770209046
		outer loop
			vertex -230 -150 -100
			vertex -229.42355918884277 -150 105.85270977020264
			vertex -229.42355918884277 150 105.85270977020264
		endloop
	endfacet
	facet normal -0.956940337784343 0 0.2902846704894831
		outer loop
			vertex -229.42355918884277 150 105.85270977020264
			vertex -229.42355918884277 -150 105.85270977020264
			vertex -227.71638679504395 150 111.48050308227539
		endloop
	endfacet
	facet normal -0.956940337784343 0 0.2902846704894831
		outer loop
			vertex -229.42355918884277 -150 105.85270977020264
			vertex -227.71638679504395 -150 111.48050308227539
			vertex -227.71638679504395 150 111.48050308227539
		endloop
	endfacet
	facet normal -0.8819211611615523 0 0.4713969298748771
		outer loop
			vertex -227.71638679504395 150 111.48050308227539
			vertex -227.71638679504395 -150 111.48050308227539
			vertex -224.94408798217773 150 116.66710662841797
		endloop
	endfacet
	facet normal -0.8819211611615523 0 0.4713969298748771
		outer loop
			vertex -227.71638679504395 -150 111.48050308227539
			vertex -224.94408798217773 -150 116.66710662841797
			vertex -224.94408798217773 150 116.66710662841797
		endloop
	endfacet
	facet normal -0.7730105095858146 0 0.6343932156556211
		outer loop
			vertex -224.94408798217773 150 116.66710662841797
			vertex -224.94408798217773 -150 116.66710662841797
			vertex -221.21320343017578 150 121.21320343017578
		endloop
	endfacet
	facet normal -0.7730105095858146 0 0.6343932156556211
		outer loop
			vertex -224.94408798217773 -150 116.66710662841797
			vertex -221.21320343017578 -150 121.21320343017578
			vertex -221.21320343017578 150 121.21320343017578
		endloop
	endfacet
	facet normal -0.6343932156556211 0 0.7730105095858146
		outer loop
			vertex -221.21320343017578 150 121.21320343017578
			vertex -221.21320343017578 -150 121.21320343017578
			vertex -216.66710662841797 150 124.94408798217773
		endloop
	endfacet
	facet normal -0.6343932156556211 0 0.7730105095858146
		outer loop
			vertex -221.21320343017578 -150 121.21320343017578
			vertex -216.66710662841797 -150 124.94408798217773
			vertex -216.66710662841797 150 124.94408798217773
		endloop
	endfacet
	facet normal -0.4713969298748771 0 0.8819211611615523
		outer loop
			vertex -216.66710662841797 150 124.94408798217773
			vertex -216.66710662841797 -150 124.94408798217773
			vertex -211.4805030822754 150 127.71638679504395
		endloop
	endfacet
	facet normal -0.4713969298748771 0 0.8819211611615523
		outer loop
			vertex -216.66710662841797 -150 124.94408798217773
			vertex -211.4805030822754 -150 127.71638679504395
			vertex -211.4805030822754 150 127.71638679504395
		endloop
	endfacet
	facet normal -0.2902846704894831 0 0.956940337784343
		outer loop
			vertex -211.4805030822754 150 127.71638679504395
			vertex -211.4805030822754 -150 127.71638679504395
			vertex -205.85270977020264 150 129.42355918884277
		endloop
	endfacet
	facet normal -0.2902846704894831 0 0.956940337784343
		outer loop
			vertex -211.4805030822754 -150 127.71638679504395
			vertex -205.85270977020264 -150 129.42355918884277
			vertex -205.85270977020264 150 129.42355918884277
		endloop
	endfacet
	facet normal -0.09801700770209067 0 0.9951847397348537
		outer loop
			vertex -205.85270977020264 150 129.42355918884277
			vertex -205.85270977020264 -150 129.42355918884277
			vertex 0 150 130
		endloop
	endfacet
	facet normal -0.09801700770209067 0 0.9951847397348537
		outer loop
			vertex -205.85270977020264 -150 129.42355918884277
			vertex 0 -150 130
			vertex 0 150 130
		endloop
	endfacet
	facet normal 0 1 0
		outer loop
			vertex 0 150 130
			vertex 205.85270977020264 150 129.42355918884277
			vertex 0 150 0
		endloop
	endfacet
	facet normal 0 1 0
		outer loop
			vertex 205.85270977020264 150 129.42355918884277
			vertex 211.4805030822754 150 127.71638679504395
			vertex 0 150 0
		endloop
	endfacet
	facet normal 0 1 0
		outer loop
			vertex 211.4805030822754 150 127.71638679504395
			vertex 216.66710662841797 150 124.94408798217773
			vertex 0 150 0
		endloop
	endfacet
	facet normal 0 1 0
		outer loop
			vertex 216.66710662841797 150 124.94408798217773
			vertex 221.21320343017578 150 121.21320343017578
			vertex 0 150 0
		endloop
	endfacet
	facet normal 0 1 0
		outer loop
			vertex 221.21320343017578 150 121.21320343017578
			vertex 224.94408798217773 150 116.66710662841797
			vertex 0 150 0
		endloop
	endfacet
	facet normal 0 1 0
		outer loop
			vertex 224.94408798217773 150 116.66710662841797
			vertex 227.71638679504395 150 111.48050308227539
			vertex 0 150 0
		endloop
	endfacet
	facet normal 0 1 0
		outer loop
			vertex 227.71638679504395 150 111.48050308227539
			vertex 229.42355918884277 150 105.85270977020264
			vertex 0 150 0
		endloop
	endfacet
	facet normal 0 1 0
		outer loop
			vertex 229.42355918884277 150 105.85270977020264
			vertex 230 150 100
			vertex 0 150 0
		endloop
	endfacet
	facet normal 0 1 0
		outer loop
			vertex 230 150 100
			vertex 229.42355918884277 150 -105.85270977020264
			vertex 0 150 0
		endloop
	endfacet
	facet normal 0 1 0
		outer loop
			vertex 229.42355918884277 150 -105.85270977020264
			vertex 227.71638679504395 150 -111.48050308227539
			vertex 0 150 0
		endloop
	endfacet
	facet normal 0 1 0
		outer loop
			vertex 227.71638679504395 150 -111.48050308227539
			vertex 224.94408798217773 150 -116.66710662841797
			vertex 0 150 0
		endloop
	endfacet
	facet normal 0 1 0
		outer loop
			vertex 224.94408798217773 150 -116.66710662841797
			vertex 221.21320343017578 150 -121.21320343017578
			vertex 0 150 0
		endloop
	endfacet
	facet normal 0 1 0
		outer loop
			vertex 221.21320343017578 150 -121.21320343017578
			vertex 216.66710662841797 150 -124.94408798217773
			vertex 0 150 0
		endloop
	endfacet
	facet normal 0 1 0
		outer loop
			vertex 216.66710662841797 150 -124.94408798217773
			vertex 211.4805030822754 150 -127.71638679504395
			vertex 0 150 0
		endloop
	endfacet
	facet normal 0 1 0
		outer loop
			vertex 211.4805030822754 150 -127.71638679504395
			vertex 205.85270977020264 150 -129.42355918884277
			vertex 0 150 0
		endloop
	endfacet
	facet normal 0 1 0
		outer loop
			vertex 205.85270977020264 150 -129.42355918884277
			vertex 200 150 -130
			vertex 0 150 0
		endloop
	endfacet
	facet normal 0 1 0
		outer loop
			vertex 200 150 -130
			vertex -205.85270977020264 150 -129.42355918884277
			vertex 0 150 0
		endloop
	endfacet
	facet normal 0 1 0
		outer loop
			vertex -205.85270977020264 150 -129.42355918884277
			vertex -211.4805030822754 150 -127.71638679504395
			vertex 0 150 0
		endloop
	endfacet
	facet normal 0 1 0
		outer loop
			vertex -211.4805030822754 150 -127.71638679504395
			vertex -216.66710662841797 150 -124.94408798217773
			vertex 0 150 0
		endloop
	endfacet
	facet normal 0 1 0
		outer loop
			vertex -216.66710662841797 150 -124.94408798217773
			vertex -221.21320343017578 150 -121.21320343017578
			vertex 0 150 0
		endloop
	endfacet
	facet normal 0 1 0
		outer loop
			vertex -221.21320343017578 150 -121.21320343017578
			vertex -224.94408798217773 150 -116.66710662841797
			vertex 0 150 0
		endloop
	endfacet
	facet normal 0 1 0
		outer loop
			vertex -224.94408798217773 150 -116.66710662841797
			vertex -227.71638679504395 150 -111.48050308227539
			vertex 0 150 0
		endloop
	endfacet
	facet normal 0 1 0
		outer loop
			vertex -227.71638679504395 150 -111.48050308227539
			vertex -229.42355918884277 150 -105.85270977020264
			vertex 0 150 0
		endloop
	endfacet
	facet normal 0 1 0
		outer loop
			vertex -229.42355918884277 150 -105.85270977020264
			vertex -230 150 -100
			vertex 0 150 0
		endloop
	endfacet
	facet normal 0 1 0
		outer loop
			vertex -230 150 -100
			vertex -229.42355918884277 150 105.85270977020264
			vertex 0 150 0
		endloop
	endfacet
	facet normal 0 1 0
		outer loop
			vertex -229.42355918884277 150 105.85270977020264
			vertex -227.71638679504395 150 111.48050308227539
			vertex 0 150 0
		endloop
	endfacet
	facet normal 0 1 0
		outer loop
			vertex -227.71638679504395 150 111.48050308227539
			vertex -224.94408798217773 150 116.66710662841797
			vertex 0 150 0
		endloop
	endfacet
	facet normal 0 1 0
		outer loop
			vertex -224.94408798217773 150 116.66710662841797
			vertex -221.21320343017578 150 121.21320343017578
			vertex 0 150 0
		endloop
	endfacet
	facet normal 0 1 0
		outer loop
			vertex -221.21320343017578 150 121.21320343017578
			vertex -216.66710662841797 150 124.94408798217773
			vertex 0 150 0
		endloop
	endfacet
	facet normal 0 1 0
		outer loop
			vertex -216.66710662841797 150 124.94408798217773
			vertex -211.4805030822754 150 127.71638679504395
			vertex 0 150 0
		endloop
	endfacet
	facet normal 0 1 0
		outer loop
			vertex -211.4805030822754 150 127.71638679504395
			vertex -205.85270977020264 150 129.42355918884277
			vertex 0 150 0
		endloop
	endfacet
	facet normal 0 1 0
		outer loop
			vertex -205.85270977020264 150 129.42355918884277
			vertex 0 150 130
			vertex 0 150 0
		endloop
	endfacet
	facet normal 0 -1 0
		outer loop
			vertex 205.85270977020264 -150 129.42355918884277
			vertex 0 -150 130
			vertex 0 -150 0
		endloop
	endfacet
	facet normal 0 -1 0
		outer loop
			vertex 211.4805030822754 -150 127.71638679504395
			vertex 205.85270977020264 -150 129.42355918884277
			vertex 0 -150 0
		endloop
	endfacet
	facet normal 0 -1 0
		outer loop
			vertex 216.66710662841797 -150 124.94408798217773
			vertex 211.4805030822754 -150 127.71638679504395
			vertex 0 -150 0
		endloop
	endfacet
	facet normal 0 -1 0
		outer loop
			vertex 221.21320343017578 -150 121.21320343017578
			vertex 216.66710662841797 -150 124.94408798217773
			vertex 0 -150 0
		endloop
	endfacet
	facet normal 0 -1 0
		outer loop
			vertex 224.94408798217773 -150 116.66710662841797
			vertex 221.21320343017578 -150 121.21320343017578
			vertex 0 -150 0
		endloop
	endfacet
	facet normal 0 -1 0
		outer loop
			vertex 227.71638679504395 -150 111.48050308227539
			vertex 224.94408798217773 -150 116.66710662841797
			vertex 0 -150 0
		endloop
	endfacet
	facet normal 0 -1 0
		outer loop
			vertex 229.42355918884277 -150 105.85270977020264
			vertex 227.71638679504395 -150 111.48050308227539
			vertex 0 -150 0
		endloop
	endfacet
	facet normal 0 -1 0
		outer loop
			vertex 230 -150 100
			vertex 229.42355918884277 -150 105.85270977020264
			vertex 0 -150 0
		endloop
	endfacet
	facet normal 0 -1 0
		outer loop
			vertex 229.42355918884277 -150 -105.85270977020264
			vertex 230 -150 100
			vertex 0 -150 0
		endloop
	endfacet
	facet normal 0 -1 0
		outer loop
			vertex 227.71638679504395 -150 -111.48050308227539
			vertex 229.42355918884277 -150 -105.85270977020264
			vertex 0 -150 0
		endloop
	endfacet
	facet normal 0 -1 0
		outer loop
			vertex 224.94408798217773 -150 -116.66710662841797
			vertex 227.71638679504395 -150 -111.48050308227539
			vertex 0 -150 0
		endloop
	endfacet
	facet normal 0 -1 0
		outer loop
			vertex 221.21320343017578 -150 -121.21320343017578
			vertex 224.94408798217773 -150 -116.66710662841797
			vertex 0 -150 0
		endloop
	endfacet
	facet normal 0 -1 0
		outer loop
			vertex 216.66710662841797 -150 -124.94408798217773
			vertex 221.21320343017578 -150 -121.21320343017578
			vertex 0 -150 0
		endloop
	endfacet
	facet normal 0 -1 0
		outer loop
			vertex 211.4805030822754 -150 -127.71638679504395
			vertex 216.66710662841797 -150 -124.94408798217773
			vertex 0 -150 0
		endloop
	endfacet
	facet normal 0 -1 0
		outer loop
			vertex 205.85270977020264 -150 -129.42355918884277
			vertex 211.4805030822754 -150 -127.71638679504395
			vertex 0 -150 0
		endloop
	endfacet
	facet normal 0 -1 0
		outer loop
			vertex 200 -150 -130
			vertex 205.85270977020264 -150 -129.42355918884277
			vertex 0 -150 0
		endloop
	endfacet
	facet normal 0 -1 0
		outer loop
			vertex -205.85270977020264 -150 -129.42355918884277
			vertex 200 -150 -130
			vertex 0 -150 0
		endloop
	endfacet
	facet normal 0 -1 0
		outer loop
			vertex -211.4805030822754 -150 -127.71638679504395
			vertex -205.85270977020264 -150 -129.42355918884277
			vertex 0 -150 0
		endloop
	endfacet
	facet normal 0 -1 0
		outer loop
			vertex -216.66710662841797 -150 -124.94408798217773
			vertex -211.4805030822754 -150 -127.71638679504395
			vertex 0 -150 0
		endloop
	endfacet
	facet normal 0 -1 0
		outer loop
			vertex -221.21320343017578 -150 -121.21320343017578
			vertex -216.66710662841797 -150 -124.94408798217773
			vertex 0 -150 0
		endloop
	endfacet
	facet normal 0 -1 0
		outer loop
			vertex -224.94408798217773 -150 -116.66710662841797
			vertex -221.21320343017578 -150 -121.21320343017578
			vertex 0 -150 0
		endloop
	endfacet
	facet normal 0 -1 0
		outer loop
			vertex -227.71638679504395 -150 -111.48050308227539
			vertex -224.94408798217773 -150 -116.66710662841797
			vertex 0 -150 0
		endloop
	endfacet
	facet normal 0 -1 0
		outer loop
			vertex -229.42355918884277 -150 -105.85270977020264
			vertex -227.71638679504395 -150 -111.48050308227539
			vertex 0 -150 0
		endloop
	endfacet
	facet normal 0 -1 0
		outer loop
			vertex -230 -150 -100
			vertex -229.42355918884277 -150 -105.85270977020264
			vertex 0 -150 0
		endloop
	endfacet
	facet normal 0 -1 0
		outer loop
			vertex -229.42355918884277 -150 105.85270977020264
			vertex -230 -150 -100
			vertex 0 -150 0
		endloop
	endfacet
	facet normal 0 -1 0
		outer loop
			vertex -227.71638679504395 -150 111.48050308227539
			vertex -229.42355918884277 -150 105.85270977020264
			vertex 0 -150 0
		endloop
	endfacet
	facet normal 0 -1 0
		outer loop
			vertex -224.94408798217773 -150 116.66710662841797
			vertex -227.71638679504395 -150 111.48050308227539
			vertex 0 -150 0
		endloop
	endfacet
	facet normal 0 -1 0
		outer loop
			vertex -221.21320343017578 -150 121.21320343017578
			vertex -224.94408798217773 -150 116.66710662841797
			vertex 0 -150 0
		endloop
	endfacet
	facet normal 0 -1 0
		outer loop
			vertex -216.66710662841797 -150 124.94408798217773
			vertex -221.21320343017578 -150 121.21320343017578
			vertex 0 -150 0
		endloop
	endfacet
	facet normal 0 -1 0
		outer loop
			vertex -211.4805030822754 -150 127.71638679504395
			vertex -216.66710662841797 -150 124.94408798217773
			vertex 0 -150 0
		endloop
	endfacet
	facet normal 0 -1 0
		outer loop
			vertex -205.85270977020264 -150 129.42355918884277
			vertex -211.4805030822754 -150 127.71638679504395
			vertex 0 -150 0
		endloop
	endfacet
	facet normal 0 -1 0
		outer loop
			vertex 0 -150 130
			vertex -205.85270977020264 -150 129.42355918884277
			vertex 0 -150 0
		endloop
	endfacet
endsolid exported
