solid exported
	facet normal 1 0 0
		outer loop
			vertex 83.26148986816406 644.0386962890625 50
			vertex 83.26148986816406 544.0386962890625 50
			vertex 83.26148986816406 644.0386962890625 -50
		endloop
	endfacet
	facet normal 1 0 0
		outer loop
			vertex 83.26148986816406 544.0386962890625 50
			vertex 83.26148986816406 544.0386962890625 -50
			vertex 83.26148986816406 644.0386962890625 -50
		endloop
	endfacet
	facet normal -1 0 0
		outer loop
			vertex -16.738510131835938 644.0386962890625 -50
			vertex -16.738510131835938 544.0386962890625 -50
			vertex -16.738510131835938 644.0386962890625 50
		endloop
	endfacet
	facet normal -1 0 0
		outer loop
			vertex -16.738510131835938 544.0386962890625 -50
			vertex -16.738510131835938 544.0386962890625 50
			vertex -16.738510131835938 644.0386962890625 50
		endloop
	endfacet
	facet normal 0 1 0
		outer loop
			vertex -16.738510131835938 644.0386962890625 -50
			vertex -16.738510131835938 644.0386962890625 50
			vertex 83.26148986816406 644.0386962890625 -50
		endloop
	endfacet
	facet normal 0 1 0
		outer loop
			vertex -16.738510131835938 644.0386962890625 50
			vertex 83.26148986816406 644.0386962890625 50
			vertex 83.26148986816406 644.0386962890625 -50
		endloop
	endfacet
	facet normal 0 -1 0
		outer loop
			vertex -16.738510131835938 544.0386962890625 50
			vertex -16.738510131835938 544.0386962890625 -50
			vertex 83.26148986816406 544.0386962890625 50
		endloop
	endfacet
	facet normal 0 -1 0
		outer loop
			vertex -16.738510131835938 544.0386962890625 -50
			vertex 83.26148986816406 544.0386962890625 -50
			vertex 83.26148986816406 544.0386962890625 50
		endloop
	endfacet
	facet normal 0 0 1
		outer loop
			vertex -16.738510131835938 644.0386962890625 50
			vertex -16.738510131835938 544.0386962890625 50
			vertex 83.26148986816406 644.0386962890625 50
		endloop
	endfacet
	facet normal 0 0 1
		outer loop
			vertex -16.738510131835938 544.0386962890625 50
			vertex 83.26148986816406 544.0386962890625 50
			vertex 83.26148986816406 644.0386962890625 50
		endloop
	endfacet
	facet normal 0 0 -1
		outer loop
			vertex 83.26148986816406 644.0386962890625 -50
			vertex 83.26148986816406 544.0386962890625 -50
			vertex -16.738510131835938 644.0386962890625 -50
		endloop
	endfacet
	facet normal 0 0 -1
		outer loop
			vertex 83.26148986816406 544.0386962890625 -50
			vertex -16.738510131835938 544.0386962890625 -50
			vertex -16.738510131835938 644.0386962890625 -50
		endloop
	endfacet
endsolid exported
