solid exported
	facet normal 1 0 0
		outer loop
			vertex -518.6243896484375 -33.56981658935547 195.72398376464844
			vertex -518.6243896484375 -133.56981658935547 195.72398376464844
			vertex -518.6243896484375 -33.56981658935547 95.72398376464844
		endloop
	endfacet
	facet normal 1 0 0
		outer loop
			vertex -518.6243896484375 -133.56981658935547 195.72398376464844
			vertex -518.6243896484375 -133.56981658935547 95.72398376464844
			vertex -518.6243896484375 -33.56981658935547 95.72398376464844
		endloop
	endfacet
	facet normal -1 0 0
		outer loop
			vertex -618.6243896484375 -33.56981658935547 95.72398376464844
			vertex -618.6243896484375 -133.56981658935547 95.72398376464844
			vertex -618.6243896484375 -33.56981658935547 195.72398376464844
		endloop
	endfacet
	facet normal -1 0 0
		outer loop
			vertex -618.6243896484375 -133.56981658935547 95.72398376464844
			vertex -618.6243896484375 -133.56981658935547 195.72398376464844
			vertex -618.6243896484375 -33.56981658935547 195.72398376464844
		endloop
	endfacet
	facet normal 0 1 0
		outer loop
			vertex -618.6243896484375 -33.56981658935547 95.72398376464844
			vertex -618.6243896484375 -33.56981658935547 195.72398376464844
			vertex -518.6243896484375 -33.56981658935547 95.72398376464844
		endloop
	endfacet
	facet normal 0 1 0
		outer loop
			vertex -618.6243896484375 -33.56981658935547 195.72398376464844
			vertex -518.6243896484375 -33.56981658935547 195.72398376464844
			vertex -518.6243896484375 -33.56981658935547 95.72398376464844
		endloop
	endfacet
	facet normal 0 -1 0
		outer loop
			vertex -618.6243896484375 -133.56981658935547 195.72398376464844
			vertex -618.6243896484375 -133.56981658935547 95.72398376464844
			vertex -518.6243896484375 -133.56981658935547 195.72398376464844
		endloop
	endfacet
	facet normal 0 -1 0
		outer loop
			vertex -618.6243896484375 -133.56981658935547 95.72398376464844
			vertex -518.6243896484375 -133.56981658935547 95.72398376464844
			vertex -518.6243896484375 -133.56981658935547 195.72398376464844
		endloop
	endfacet
	facet normal 0 0 1
		outer loop
			vertex -618.6243896484375 -33.56981658935547 195.72398376464844
			vertex -618.6243896484375 -133.56981658935547 195.72398376464844
			vertex -518.6243896484375 -33.56981658935547 195.72398376464844
		endloop
	endfacet
	facet normal 0 0 1
		outer loop
			vertex -618.6243896484375 -133.56981658935547 195.72398376464844
			vertex -518.6243896484375 -133.56981658935547 195.72398376464844
			vertex -518.6243896484375 -33.56981658935547 195.72398376464844
		endloop
	endfacet
	facet normal 0 0 -1
		outer loop
			vertex -518.6243896484375 -33.56981658935547 95.72398376464844
			vertex -518.6243896484375 -133.56981658935547 95.72398376464844
			vertex -618.6243896484375 -33.56981658935547 95.72398376464844
		endloop
	endfacet
	facet normal 0 0 -1
		outer loop
			vertex -518.6243896484375 -133.56981658935547 95.72398376464844
			vertex -618.6243896484375 -133.56981658935547 95.72398376464844
			vertex -618.6243896484375 -33.56981658935547 95.72398376464844
		endloop
	endfacet
endsolid exported
